<?xml version="1.0" encoding="UTF-8"?>
<svg id="Layer_1" data-name="Layer 1" xmlns="http://www.w3.org/2000/svg" viewBox="0 0 164.66 38.04">
  <g>
    <path d="M22.92,18.01c1.6,.05,3.2,.08,4.8,.07,.83,0,1.64-.7,1.61-1.57-.03-.85-.68-1.61-1.57-1.61-2.72,.01-5.43-.14-8.15-.15-.48,0-.97-.01-1.45-.02,.1-1.81,.2-3.61,.32-5.42,.07-1.07,.16-2.15,.24-3.23,4.03-.08,8.07-.18,12.1-.3,2.74-.09,5.47-.18,8.21-.29,.83-.03,1.64-.68,1.61-1.57-.03-.83-.68-1.64-1.57-1.61-6.72,.26-13.45,.45-20.18,.59,0-.43,.01-.87,0-1.3-.02-.83-.69-1.64-1.57-1.61-.84,.03-1.63,.68-1.61,1.57,0,.47,0,.93,0,1.4-1.96,.03-3.93,.07-5.89,.09-2.74,.03-5.47,.05-8.21,.06C.78,3.12-.03,3.82,0,4.69c.03,.85,.68,1.61,1.57,1.61,4.65-.02,9.31-.07,13.96-.15-.06,.73-.11,1.46-.16,2.18-.14,2.11-.27,4.21-.38,6.32-2.07-.07-4.14-.14-6.21-.15-2.17,0-4.34,.12-6.49,.45-.85,.13-1.33,1.17-1.13,1.94,.24,.9,1.09,1.26,1.94,1.13,3.49-.54,7.14-.34,10.69-.2,.35,.01,.69,.02,1.04,.03-.18,3.64-.33,7.28-.48,10.91-.1,2.55-.21,5.11-.31,7.66-.03,.83,.73,1.64,1.57,1.61,.88-.03,1.57-.68,1.61-1.57,.25-6.18,.47-12.37,.78-18.55,1.64,.02,3.28,.03,4.93,.09Z" style="fill: #fff;"/>
    <path d="M107.06,28.73c-.39-.69-1.47-1.1-2.17-.6-1.8,1.28-3.76,2.31-5.78,3.2-.97,.42-1.85,.8-2.9,1.14-1.03,.34-1.82,.52-2.8,.45-.69-.05-1.68-.5-2.27-.96-.43-.34-.84-.79-1.18-1.26,.65-.11,1.29-.34,1.88-.63,1.54-.77,2.82-2.01,3.87-3.35,.91-1.17,1.72-2.59,1.77-4.11,.04-1.27-.57-2.56-1.62-3.28-1.15-.79-2.63-.76-3.95-.54-2.12,.36-4.01,1.67-5.21,3.43-.47,.68-.8,1.41-1.02,2.16-.54-.28-1.05-.58-1.57-.88-1.31-.77-2.82-1.47-4.36-.94-1.56,.54-2.68,1.8-3.79,2.96-.21,.22-.43,.43-.65,.64-.12-1.85-.21-3.69-.27-5.54-.02-.83-.69-1.64-1.57-1.61-.92,.03-1.52,.68-1.61,1.57,0,.07-.02,.15-.03,.23,0,.04-.02,.11-.03,.13-.05,.22-.1,.44-.17,.66-.03,.09-.06,.19-.1,.28,0,.02-.04,.1-.06,.16-.02,.05-.05,.12-.06,.14-.05,.11-.11,.22-.17,.32-.09,.17-.19,.33-.3,.49-.05,.08-.11,.16-.16,.24-.02,.02-.02,.03-.03,.05,0,0-.01,.01-.02,.03-.26,.31-.54,.6-.85,.87-.14,.13-.29,.25-.44,.37,0,0-.01,.01-.02,.02-.1,.07-.19,.14-.29,.2-.34,.23-.68,.43-1.04,.62-.17,.09-.34,.17-.51,.25-.08,.04-.17,.08-.26,.12,0,0-.16,.07-.23,.1-.04,.02-.09,.03-.1,.04-.09,.03-.17,.06-.26,.09-.19,.07-.39,.13-.58,.19-.5,.15-1.01,.27-1.52,.37,.03-1.87-.42-3.73-1.36-5.16-1.46-2.24-4.05-3.26-6.66-2.76-1.17,.22-2.27,.9-2.94,1.9-.78,1.18-.71,2.62-.24,3.89-.15,.12-.28,.27-.38,.46-.27,.55-.46,1.14-.57,1.74,0,0-.01,.01-.01,.01-.17,.16-.36,.32-.54,.47-.69,.58-1.28,1.03-2.01,1.54-1.45,1-2.99,1.88-4.61,2.6-1.37,.62-3.23,1.36-4.64,1.02-.18-.04-.37-.1-.54-.17-.01-.01-.21-.11-.27-.15-.05-.03-.24-.17-.26-.19-.12-.11-.25-.22-.36-.35-.05-.05-.1-.11-.15-.17-.01-.01-.02-.02-.02-.03,0,0,0,0,0,0-.1-.15-.19-.3-.28-.45-.06-.12-.12-.24-.18-.36,0,0-.1-.32-.12-.39-.02-.09-.08-.61-.07-.33-.01-.22-.01-.44,0-.65,.03-.14,.07-.27,.11-.41,.07-.23,.16-.45,.25-.67,.12-.31,.25-.63,.34-.95,.17-.37,.28-.8,.4-1.12,.61-1.72-1.98-2.78-2.89-1.26-.3,.51-.62,1.01-.94,1.5-.06,.06-.11,.13-.17,.19-.17,.18-.35,.34-.54,.51-1.11,1.01-2.3,2.1-3.45,2.89-1.26,.87-2.35,1.45-3.79,1.72,0,0-.27,.04-.32,.05-.18,.02-.36,.03-.53,.03-.2,0-.4,0-.59-.02-.04,0-.38-.05-.32-.04-.76-.14-1.16-.31-1.79-.73-.72-.47-1.75-.17-2.18,.54-.46,.76-.18,1.71,.54,2.18,3.22,2.1,7.22,1.24,10.25-.77,.9-.6,1.75-1.27,2.57-1.97,.03,.14,.07,.28,.11,.41,.62,1.91,2.07,3.54,4.02,4.13,2.33,.71,4.72-.11,6.86-1.02,1.88-.8,3.67-1.81,5.34-2.99,.33-.24,.7-.49,1.08-.76,.16,.43,.36,.85,.6,1.24,1.29,2.1,3.71,3.18,6.13,2.54,2.25-.59,3.74-2.32,4.5-4.42,.29-.03,.58-.07,.87-.11,2.19-.34,4.4-1.18,6.19-2.5,.37-.27,.71-.56,1.03-.86,.09,1.44,.2,2.88,.34,4.32-.25,1.32-.12,2.69,.53,3.94,.32,.62,1.13,.92,1.79,.75,.62-.16,1.26-.84,1.18-1.52-.11-.99-.21-1.98-.3-2.97,.03-.1,.06-.21,.1-.31,.03-.08,.06-.16,.09-.23,0-.02,.02-.04,.03-.07,.15-.27,.3-.53,.48-.78,.04-.05,.08-.09,.12-.14,.13-.13,.26-.25,.4-.37,.49-.42,.95-.86,1.39-1.33,.45-.48,.9-.97,1.39-1.41,.12-.11,.25-.22,.38-.32,.04-.03,.09-.06,.13-.09,.13-.08,.27-.15,.4-.23,0,0,0,0,.01,0,.05-.01,.11-.04,.13-.04,.04-.01,.08-.02,.12-.03,.2,.01,.28,.05,.03-.02,.11,.03,.23,.05,.34,.09,.07,.02,.28,.11,.31,.12,.53,.26,1.03,.56,1.54,.86,.67,.39,1.42,.81,2.2,1.04,.06,.22,.15,.43,.25,.65,.46,2.5,1.92,4.88,3.95,6.39,1.25,.93,2.79,1.46,4.35,1.46,1.54,0,3.02-.47,4.44-1.02,2.86-1.12,5.68-2.4,8.19-4.19,.7-.5,1.05-1.37,.6-2.17Zm-68.6,.29s0-.02,0-.03c.02-.18,0-.01,0,.03Zm17.86-6.67s0-.02,0-.02c.02-.05,.06-.1,.08-.13,.04-.05,.09-.09,.13-.14,.01-.01,.02-.02,.03-.03,0,0,.01,0,.03-.01,.08-.05,.16-.09,.24-.14,.02,0,.07-.03,.12-.05,.05-.02,.11-.04,.13-.04,.09-.02,.17-.05,.26-.07,.09-.02,.18-.03,.26-.05,0,0,0,0,.01,0,.02,0,.04,0,.08,0,.22,0,.44,0,.67,0,.02,0,.11,.01,.17,.02,.06,.01,.13,.03,.15,.03,.2,.05,.38,.11,.57,.17,.02,0,.03,0,.04,.01,.11,.06,.23,.11,.33,.18,.09,.05,.17,.11,.26,.17,.03,.02,.04,.03,.06,.04,0,0,.02,.02,.05,.05,.16,.14,.31,.3,.45,.46,.02,.03,.14,.19,.25,.38,.06,.1,.12,.21,.17,.32,.01,.03,.11,.23,.12,.24,.19,.46,.31,.95,.4,1.43,.02,.11,.04,.22,.05,.33,0,0,0,.01,0,.02,0,.01,0,.03,0,.06,.02,.25,.03,.5,.04,.76,0,.12,0,.24-.01,.36-.08,0-.17-.02-.25-.02-.01,0-.03,0-.04,0,0,0-.01,0-.02,0-.09-.02-.18-.03-.27-.05-.38-.08-.76-.18-1.12-.3-.14-.05-.28-.1-.41-.16-.03-.02-.35-.17-.4-.2-.16-.09-.32-.18-.47-.28-.05-.03-.33-.23-.36-.25-.29-.24-.56-.5-.81-.79-.07-.07-.13-.15-.19-.23-.01-.02-.02-.02-.03-.03-.14-.19-.27-.39-.39-.6-.04-.07-.26-.5-.23-.44-.09-.22-.15-.5-.15-.55-.02-.28-.02-.19,.04-.43Zm-3.38,3.74s0,0,0,0c.01-.05,.01-.08-.02,0,0,0,0,0,0,0-.02-.08,.07-.2,.02,0Zm2.93,3.43c.03,.06,.08,.25,0,0h0Zm4.49,.56s-.01,.02-.02,.03c0,0,0,0-.01,.01-.15,.18-.32,.33-.49,.49-.03,.02-.04,.04-.06,.06,0,0-.02,0-.04,.02-.1,.07-.21,.14-.31,.2-.08,.05-.17,.09-.26,.14-.04,.02-.06,.03-.08,.05-.02,0-.04,0-.08,.02-.21,.06-.41,.1-.62,.16-.13-.02-.29,0-.42,0-.02,0-.06,0-.1,0-.06-.01-.22-.04-.25-.04-.09-.02-.18-.06-.27-.08-.04,0-.07-.01-.09-.02-.02-.01-.04-.02-.07-.04-.09-.05-.17-.09-.26-.15-.02-.01-.12-.08-.18-.13-.06-.05-.15-.13-.15-.13-.08-.08-.15-.16-.23-.25-.01-.01-.05-.06-.08-.1-.04-.06-.11-.17-.13-.19-.12-.2-.23-.41-.33-.62,0,0,0-.01,0-.02-.05-.14-.09-.27-.13-.42-.06-.21-.1-.43-.14-.64,0-.02,0-.02,0-.03,0-.12-.02-.23-.02-.35,0-.07,0-.15,0-.22,.06-.09,.11-.19,.16-.29,.85,.74,1.84,1.31,2.88,1.72,.64,.24,1.29,.4,1.96,.51,0,.02-.02,.03-.03,.05-.06,.09-.11,.17-.17,.26Zm9.06-5.53c-.18,.15-.06,.04,0,0h0Zm6.97,4.93s0,0,0,0c.08-.11,.04-.05,0,0Zm17.95-6.95s-.01-.05-.02-.08c.01,.04,.02,.07,.02,.08,0,0,0,0,0,0Zm0,.02s0,0,0,0c0,0,0,0,0,0Zm-2.8-.38c.07-.03,.18-.07,0,0h0Zm-2.19,1.79c.04-.06,.19-.26,.21-.3,.09-.11,.19-.22,.29-.33,.12-.13,.25-.25,.39-.37,.07-.06,.14-.12,.21-.17,.02-.02,.03-.03,.04-.04,.02-.01,.03-.02,.07-.04,.31-.19,.62-.37,.95-.53,0,0,.02,0,.03-.01,.08-.03,.16-.06,.23-.08,.22-.07,.45-.13,.68-.18,.07-.02,.34-.06,.38-.07,.16-.01,.32-.03,.49-.03,.11,0,.22,0,.33,0,.34,.02,.14,.02,.07,0,.11,.02,.22,.05,.32,.09-.18-.06-.03-.01,.04,0,.02,.02,.05,.04,.07,.05,.02,.04,.06,.1,.08,.12,.03,.08,.05,.18,.07,.26,0,.07,.02,.15,.02,.2,0,.03,0,.05,0,.08-.06,.21-.11,.41-.18,.62,0,.03-.01,.04-.02,.06-.08,.14-.14,.29-.22,.43-.13,.24-.28,.48-.44,.71-.08,.12-.17,.24-.25,.35-.04,.06-.09,.12-.13,.17,.25-.33,.03-.05-.03,.03-.41,.49-.87,.95-1.35,1.36-.06,.06-.34,.26-.33,.26-.09,.06-.18,.13-.27,.19-.27,.18-.56,.35-.86,.5-.06,.03-.12,.05-.18,.09,0,0,0,0,0,0-.14,.04-.28,.1-.42,.13-.09,.02-.18,.04-.27,.06-.05,0-.11,0-.16,0-.04,0-.07,0-.11,0-.05-.02-.14-.05-.2-.07-.03-.02-.06-.04-.09-.05-.03-.03-.07-.07-.1-.1-.01-.01-.02-.02-.03-.02,0-.01-.01-.02-.02-.04-.03-.05-.05-.09-.08-.14,0-.12-.02-.23-.02-.35,0-.02,0-.05,0-.07,.14-.32,.18-.69,.1-1.02,.1-.31,.16-.64,.26-.95,0-.01,.01-.04,.02-.06,.03-.06,.06-.12,.09-.18,.1-.2,.22-.39,.34-.58Zm-.4,.7s0-.02,0,0h0Z" style="fill: #fff;"/>
    <path d="M40.41,14.96s0,0,0,0c-.04-.02-.08-.03-.13-.03-.15-.03-.31-.06-.47-.07-.02,0-.05,0-.07,0-.15,.01-.32,.03-.47,.06-.02,0-.04,0-.06,.02-.16,.05-.34,.11-.49,.21-.13,.08-.25,.18-.37,.28-.31,.26-.51,.73-.5,1.14,0,.12,.04,.32,.05,.44,0,.01,0,.02,0,.04,0,.03,.01,.05,.02,.08,.05,.17,.12,.34,.2,.5,.02,.03,.04,.06,.06,.1,0,.04,0,.07,.01,.11,0,.03,.01,.06,.02,.09,.05,.14,.11,.32,.19,.46,0,.01,.02,.02,.02,.04,.08,.12,.17,.24,.26,.35,.02,.03,.04,.05,.07,.07,.11,.09,.23,.19,.34,.27,.01,0,.02,.02,.04,.02,.01,0,.02,.01,.04,.02,.13,.07,.27,.13,.41,.18,.03,.01,.06,.02,.08,.03,.08,.02,.17,.03,.25,.04,.07,.01,.17,.03,.25,.04,.03,0,.06,0,.09,0,.15-.02,.31-.03,.45-.06,.02,0,.03,0,.04-.01,.14-.05,.28-.11,.41-.17,.01,0,.03-.01,.04-.02,.01,0,.02-.01,.04-.02,.08-.05,.25-.19,.33-.25,0,0,.02-.01,.02-.02,.11-.1,.27-.32,.31-.38,.02-.03,.04-.06,.06-.09,.09-.17,.19-.37,.23-.56,.02-.09,.03-.18,.04-.26,.01-.09,.03-.18,.04-.27,0-.04,0-.08,0-.12,0-.02,0-.04,0-.07-.02-.16-.03-.31-.06-.47,0-.04-.02-.08-.03-.12-.06-.2-.14-.41-.25-.6,0-.02-.02-.03-.03-.05-.08-.12-.18-.24-.27-.36-.03-.03-.05-.06-.08-.09-.14-.16-.31-.27-.51-.33-.19-.1-.39-.15-.61-.14,0,0-.02,0-.02,0Z" style="fill: #fff;"/>
  </g>
  <path d="M134.99,35.73c-1.27-.03-2.48-.64-3.49-1.76-1.11-1.22-1.71-2.79-1.83-4.77-.29-4.87,1.01-9.58,3.86-14.01,.3-.46,.68-.92,1.2-1.44,.7-.7,1.51-1.03,2.46-1.01,.52,.01,1.07,.13,1.7,.35,1.43,.5,2.5,1.51,3.38,3.18,.87,1.65,1.35,3.52,1.57,6.06l.02,.24c.03,.29,.06,.56,.03,.82-.01,.17-.01,.41,.14,.58,.1,.11,.23,.17,.4,.17,.09,0,.19,0,.32-.04,2.23-.46,4.32-1.49,6.58-3.22,.29-.23,.58-.47,.85-.7,.24-.2,.47-.41,.72-.6,.39-.31,.47-.7,.49-1,.05-.62,.04-1.23,.04-1.83,0-.39,.09-4.99,.11-5.39,.01-.5,.05-1.08,.21-1.65,.21-.72,.89-1.21,1.65-1.2,.36,0,.7,.13,.98,.35,.54,.42,.75,.85,.75,1.48-.02,3.05-.32,10.51-.72,14.76-.12,1.25-.21,2.52-.29,3.75-.05,.81-.11,1.63-.17,2.44-.01,.17-.01,.42,.15,.6,.11,.12,.27,.19,.48,.19,.04,0,.09,0,.15,0,1.3-.1,2.48-.18,3.62-.24,.35-.02,.82-.04,1.28-.03,.66,.02,1.23,.1,1.74,.25,.77,.23,1.18,.65,1.27,1.33,.11,.76-.19,1.32-1.03,1.94-.02,0-.03,0-.04,0-.03,0-.05,0-.06,0-.31-.04-.64-.07-.98-.07-1.16-.03-2.32,.14-3.44,.31-.25,.04-.51,.07-.76,.11l-.17,.02c-.95,.13-1.93,.27-2.89,.24-.21,0-.42-.02-.62-.04-.9-.09-1.58-.4-2.1-.93-.1-.1-.14-.19-.15-.32-.14-2.55,.05-5.11,.24-7.31l.25-2.95c.01-.12-.05-.23-.15-.29-.05-.03-.1-.04-.15-.04-.06,0-.12,.02-.17,.05-1,.66-2.2,1.4-3.49,1.96-1.6,.69-3.05,1.14-4.44,1.36-.51,.08-.8,.33-.96,.83-.78,2.38-1.8,4.08-3.21,5.37-1.48,1.35-3.26,2.08-5.14,2.12-.06,0-.12,0-.19,0Zm-1.68-10.67s-.07,0-.1,.01c-.11,.04-.19,.13-.21,.25-.27,1.9-.43,3.49,.04,5.12,.2,.7,.56,1.25,1.06,1.63,.3,.23,.64,.46,1.07,.47,.07,0,.14,0,.21-.01,2.23-.32,4.16-2.11,4.71-4.36,.02-.09,0-.18-.05-.25-.05-.07-.14-.12-.23-.12-2.74-.13-4.73-.97-6.29-2.64-.06-.06-.13-.09-.21-.1Zm3.58-7.93c-1.01,.86-1.33,2.3-1.44,3.65,0,2.2,.79,2.91,2.16,3.41,.77,.28,1.55,.4,2.48,.5,.04,0,.08,0,.12,0,.07,0,.29,0,.45-.15,.15-.16,.16-.37,.16-.53-.08-2.04-.3-4.12-1.14-6-.18-.4-1.62-1.89-2.78-.9Z" style="fill: #fff;"/>
  <path d="M113.78,35.64c-1.87-.04-2.85-1.05-2.9-2.99-.01-.37,0-.76,.02-1.13,0-.18,.01-.36,.02-.53,.23-3.88,.5-8.04,.91-12.15,.05-.46,.09-.92,.13-1.38,.13-1.38,.26-2.81,.47-4.2,.05-.35,.15-.73,.29-1.11,.25-.7,.77-1.13,1.55-1.28,.81-.15,1.66-.22,2.53-.2,4.2,.1,8.21,2.21,10.21,5.38,1.7,2.7,1.77,5.59,.21,8.58-1.25,2.39-3.13,4.61-5.93,6.98-1.34,1.14-2.67,2.23-4.21,3.07-.8,.44-1.76,.89-2.88,.94-.14,0-.27,0-.39,0Zm3.19-21.12c-.45-.01-.8,.31-.85,.79-.05,.43-.1,.86-.15,1.28-.09,.78-.19,1.58-.26,2.38l-.04,.48c-.18,1.99-.37,4.05-.49,6.08-.07,1.17-.09,2.35-.1,3.5,0,.52-.02,1.03-.03,1.55,0,.12,.06,.23,.16,.29,.05,.03,.11,.05,.16,.05,.06,0,.12-.01,.18-.04,.07-.04,.16-.08,.24-.14,1.68-1.16,3.07-2.26,4.27-3.35,1.41-1.29,2.83-2.75,3.74-4.66,.9-1.89,.82-3.62-.23-5.12-1.38-1.96-3.46-2.94-6.56-3.08,0,0-.02,0-.02,0Z" style="fill: #fff;"/>
</svg>