<svg width="1440" height="363" viewBox="0 0 1440 363" fill="none" xmlns="http://www.w3.org/2000/svg">
<g clip-path="url(#clip0_169_4)">
<rect width="1440" height="363" fill="white"/>
<rect width="1440" height="363" fill="#1A3E66"/>
<path d="M398.71 132.072C398.71 136.488 397.622 140.36 395.446 143.688C393.334 146.952 390.326 149.48 386.422 151.272C382.518 153.064 377.974 153.96 372.79 153.96H368.662C363.478 153.96 358.934 153.064 355.03 151.272C351.126 149.48 348.086 146.952 345.91 143.688C343.798 140.36 342.742 136.488 342.742 132.072V87.144H362.998V131.784C362.998 133.896 363.734 135.624 365.206 136.968C366.742 138.312 368.598 138.984 370.774 138.984C372.95 138.984 374.774 138.312 376.246 136.968C377.782 135.624 378.55 133.896 378.55 131.784V87.144H398.71V132.072ZM435.432 86.184C443.24 86.184 449.64 87.88 454.632 91.272C459.688 94.664 462.216 99.688 462.216 106.344V107.496H443.784V107.112C443.784 105.256 443.112 103.752 441.768 102.6C440.488 101.384 438.504 100.776 435.816 100.776C433.192 100.776 431.208 101.16 429.864 101.928C428.52 102.632 427.848 103.592 427.848 104.808C427.848 106.28 428.616 107.464 430.152 108.36C431.752 109.192 434.056 109.928 437.064 110.568L445.608 112.488C457.512 115.176 463.464 121.352 463.464 131.016C463.464 138.888 460.872 144.68 455.688 148.392C450.504 152.104 443.336 153.96 434.184 153.96C429.128 153.96 424.456 153.192 420.168 151.656C415.944 150.12 412.52 147.784 409.896 144.648C407.336 141.448 406.056 137.512 406.056 132.84V131.688C406.056 131.176 406.088 130.792 406.152 130.536H424.776C424.712 130.728 424.68 131.112 424.68 131.688C424.68 133.672 425.352 135.304 426.696 136.584C428.104 137.864 430.408 138.504 433.608 138.504C437.128 138.504 439.528 138.152 440.808 137.448C442.088 136.68 442.728 135.656 442.728 134.376C442.728 132.84 441.832 131.688 440.04 130.92C438.248 130.088 435.432 129.256 431.592 128.424C426.728 127.4 422.664 126.28 419.4 125.064C416.2 123.784 413.416 121.736 411.048 118.92C408.68 116.04 407.496 112.104 407.496 107.112C407.496 102.632 408.712 98.824 411.144 95.688C413.64 92.552 417 90.184 421.224 88.584C425.448 86.984 430.184 86.184 435.432 86.184ZM519.18 102.312H491.436V111.912H518.124V126.6H491.436V137.256H519.18L521.1 153H471.66V87.144H521.1L519.18 102.312ZM566.182 87.144C569.318 87.144 572.262 87.848 575.014 89.256C577.83 90.6 580.102 92.52 581.83 95.016C583.558 97.448 584.422 100.264 584.422 103.464C584.422 105.768 583.878 108.04 582.79 110.28C581.766 112.52 580.358 114.44 578.566 116.04C576.774 117.64 574.79 118.632 572.614 119.016V119.496C576.134 120.584 578.758 122.632 580.486 125.64C582.278 128.584 583.174 132.168 583.174 136.392C583.174 139.4 583.462 141.992 584.038 144.168C584.614 146.28 585.958 147.624 588.07 148.2V152.136C585.126 153.352 581.286 153.96 576.55 153.96C572.006 153.96 568.614 153.032 566.374 151.176C564.134 149.256 563.014 146.056 563.014 141.576C563.014 137.352 562.47 133.96 561.382 131.4C560.358 128.776 558.054 127.464 554.47 127.464H548.902V153H529.222V87.144H566.182ZM548.902 112.776H559.078C560.422 112.776 561.542 112.328 562.438 111.432C563.398 110.472 563.878 109.32 563.878 107.976V107.016C563.878 105.672 563.398 104.552 562.438 103.656C561.542 102.696 560.422 102.216 559.078 102.216H548.902V112.776ZM643.08 86.184C648.392 86.184 653.128 87.24 657.288 89.352C661.512 91.4 664.84 94.536 667.272 98.76C669.704 102.92 670.92 108.04 670.92 114.12H652.008V110.76C652.008 107.816 651.08 105.48 649.224 103.752C647.432 102.024 645.16 101.16 642.408 101.16H641.928C639.24 101.16 636.968 102.088 635.112 103.944C633.256 105.8 632.328 108.072 632.328 110.76V129.288C632.328 131.976 633.256 134.248 635.112 136.104C636.968 137.96 639.24 138.888 641.928 138.888H643.272C646.024 138.888 648.296 138.056 650.088 136.392C651.944 134.664 652.872 132.296 652.872 129.288V126.12H670.92C670.92 131.752 669.736 136.68 667.368 140.904C665.064 145.128 661.864 148.36 657.768 150.6C653.672 152.84 649.032 153.96 643.848 153.96H641.16C635.464 153.96 630.28 152.808 625.608 150.504C621 148.2 617.352 144.872 614.664 140.52C611.976 136.168 610.632 131.048 610.632 125.16V114.984C610.632 109.416 611.976 104.456 614.664 100.104C617.416 95.688 621.064 92.264 625.608 89.832C630.152 87.4 635.08 86.184 640.392 86.184H643.08ZM726.18 102.312H698.436V111.912H725.124V126.6H698.436V137.256H726.18L728.1 153H678.66V87.144H728.1L726.18 102.312ZM792.094 153H774.814L755.038 124.488L754.75 123.816V153H736.222V87.144H753.118L773.278 116.328L773.47 117V87.144H792.094V153ZM852.41 102.984H835.706V153H815.738V102.984H799.034V87.144H852.41V102.984ZM906.836 102.312H879.092V111.912H905.78V126.6H879.092V137.256H906.836L908.756 153H859.316V87.144H908.756L906.836 102.312ZM953.838 87.144C956.974 87.144 959.918 87.848 962.67 89.256C965.486 90.6 967.758 92.52 969.486 95.016C971.214 97.448 972.078 100.264 972.078 103.464C972.078 105.768 971.534 108.04 970.446 110.28C969.422 112.52 968.014 114.44 966.222 116.04C964.43 117.64 962.446 118.632 960.27 119.016V119.496C963.79 120.584 966.414 122.632 968.142 125.64C969.934 128.584 970.83 132.168 970.83 136.392C970.83 139.4 971.118 141.992 971.694 144.168C972.27 146.28 973.614 147.624 975.726 148.2V152.136C972.782 153.352 968.942 153.96 964.206 153.96C959.662 153.96 956.27 153.032 954.03 151.176C951.79 149.256 950.67 146.056 950.67 141.576C950.67 137.352 950.126 133.96 949.038 131.4C948.014 128.776 945.71 127.464 942.126 127.464H936.558V153H916.878V87.144H953.838ZM936.558 112.776H946.734C948.078 112.776 949.198 112.328 950.094 111.432C951.054 110.472 951.534 109.32 951.534 107.976V107.016C951.534 105.672 951.054 104.552 950.094 103.656C949.198 102.696 948.078 102.216 946.734 102.216H936.558V112.776ZM1029.84 102.312H1002.09V111.912H1028.78V126.6H1002.09V137.256H1029.84L1031.76 153H982.316V87.144H1031.76L1029.84 102.312ZM1069.54 87.144C1074.79 87.144 1079.59 88.456 1083.94 91.08C1088.36 93.64 1091.85 97.128 1094.41 101.544C1097.03 105.896 1098.34 110.696 1098.34 115.944V124.2C1098.34 129.448 1097.03 134.28 1094.41 138.696C1091.85 143.048 1088.36 146.536 1083.94 149.16C1079.59 151.72 1074.79 153 1069.54 153H1039.88V87.144H1069.54ZM1060.23 137.736H1067.62C1070.31 137.736 1072.58 136.808 1074.44 134.952C1076.29 133.096 1077.22 130.824 1077.22 128.136V111.72C1077.22 109.032 1076.29 106.76 1074.44 104.904C1072.58 103.048 1070.31 102.12 1067.62 102.12H1060.23V137.736ZM572.761 218.144C578.009 218.144 582.809 219.456 587.161 222.08C591.577 224.64 595.065 228.128 597.625 232.544C600.249 236.896 601.561 241.696 601.561 246.944V255.2C601.561 260.448 600.249 265.28 597.625 269.696C595.065 274.048 591.577 277.536 587.161 280.16C582.809 282.72 578.009 284 572.761 284H543.097V218.144H572.761ZM563.449 268.736H570.841C573.529 268.736 575.801 267.808 577.657 265.952C579.513 264.096 580.441 261.824 580.441 259.136V242.72C580.441 240.032 579.513 237.76 577.657 235.904C575.801 234.048 573.529 233.12 570.841 233.12H563.449V268.736ZM657.461 233.312H629.717V242.912H656.405V257.6H629.717V268.256H657.461L659.381 284H609.941V218.144H659.381L657.461 233.312ZM693.807 217.184C701.615 217.184 708.015 218.88 713.007 222.272C718.063 225.664 720.591 230.688 720.591 237.344V238.496H702.159V238.112C702.159 236.256 701.487 234.752 700.143 233.6C698.863 232.384 696.879 231.776 694.191 231.776C691.567 231.776 689.583 232.16 688.239 232.928C686.895 233.632 686.223 234.592 686.223 235.808C686.223 237.28 686.991 238.464 688.527 239.36C690.127 240.192 692.431 240.928 695.439 241.568L703.983 243.488C715.887 246.176 721.839 252.352 721.839 262.016C721.839 269.888 719.247 275.68 714.063 279.392C708.879 283.104 701.711 284.96 692.559 284.96C687.503 284.96 682.831 284.192 678.543 282.656C674.319 281.12 670.895 278.784 668.271 275.648C665.711 272.448 664.431 268.512 664.431 263.84V262.688C664.431 262.176 664.463 261.792 664.527 261.536H683.151C683.087 261.728 683.055 262.112 683.055 262.688C683.055 264.672 683.727 266.304 685.071 267.584C686.479 268.864 688.783 269.504 691.983 269.504C695.503 269.504 697.903 269.152 699.183 268.448C700.463 267.68 701.103 266.656 701.103 265.376C701.103 263.84 700.207 262.688 698.415 261.92C696.623 261.088 693.807 260.256 689.967 259.424C685.103 258.4 681.039 257.28 677.775 256.064C674.575 254.784 671.791 252.736 669.423 249.92C667.055 247.04 665.871 243.104 665.871 238.112C665.871 233.632 667.087 229.824 669.519 226.688C672.015 223.552 675.375 221.184 679.599 219.584C683.823 217.984 688.559 217.184 693.807 217.184ZM763.923 232.256H756.147V269.792H763.923V284H728.019V269.792H735.795V232.256H728.019V218.144H763.923V232.256ZM803.694 217.184C808.43 217.184 812.846 218.208 816.942 220.256C821.038 222.304 824.302 225.152 826.734 228.8C829.166 232.448 830.382 236.576 830.382 241.184V241.856H811.758C811.758 238.592 810.862 236.16 809.07 234.56C807.278 232.96 804.974 232.16 802.158 232.16H801.678C798.99 232.16 796.718 233.088 794.862 234.944C793.006 236.8 792.078 239.072 792.078 241.76V260.288C792.078 262.976 793.006 265.248 794.862 267.104C796.718 268.96 798.99 269.888 801.678 269.888H803.406C806.094 269.888 808.142 269.056 809.55 267.392C811.022 265.664 811.758 263.264 811.758 260.192H800.622V247.136H830.382V270.176C830.382 275.232 830.478 278.56 830.67 280.16L831.054 284H820.302L817.614 276.992C815.566 279.296 812.782 281.216 809.262 282.752C805.806 284.224 802.318 284.96 798.798 284.96H797.838C792.654 284.96 787.95 283.68 783.726 281.12C779.566 278.56 776.302 275.072 773.934 270.656C771.566 266.24 770.382 261.408 770.382 256.16V245.984C770.382 240.672 771.662 235.84 774.222 231.488C776.846 227.072 780.494 223.584 785.166 221.024C789.838 218.464 795.118 217.184 801.006 217.184H803.694ZM895.875 284H878.595L858.819 255.488L858.531 254.816V284H840.003V218.144H856.899L877.059 247.328L877.251 248V218.144H895.875V284Z" fill="#2C51AF"/>
</g>
<defs>
<clipPath id="clip0_169_4">
<rect width="1440" height="363" fill="white"/>
</clipPath>
</defs>
</svg>
