<?xml version="1.0" encoding="UTF-8"?>
<svg id="Layer_5" data-name="Layer 5" xmlns="http://www.w3.org/2000/svg" viewBox="0 0 510 497.58">
  <g>
    <rect x="267.3" y="10.15" width="81.36" height="102.28" style="fill: #f2ece7;"/>
    <path d="M343.58,15.23V107.36h-71.2V15.23h71.2m10.15-10.15h-91.51V117.51h91.51V5.08h0Z" style="fill: #f2f9f1;"/>
    <path d="M353.73,5.08V117.51h-91.51V5.08h91.51m5.08-5.08h-101.66V122.59h101.66V0h0Z" style="fill: #33162b;"/>
    <path d="M329.36,90.24l-8.78-8.48c-1.04,1.29-2.17,2.47-3.38,3.53-1.22,1.07-2.51,1.99-3.89,2.77-1.38,.78-2.84,1.39-4.39,1.82s-3.19,.65-4.93,.65c-2.4,0-4.66-.42-6.75-1.27-2.1-.84-3.92-1.99-5.47-3.46-1.55-1.46-2.77-3.19-3.66-5.19-.89-1.99-1.34-4.15-1.34-6.45,0-1.51,.23-2.98,.69-4.41,.46-1.43,1.09-2.76,1.9-4,.81-1.24,1.75-2.36,2.83-3.35,1.08-.99,2.76-2.07,5.04-3.23l-2.45-2.38c-.64-.59-1.27-1.28-1.88-2.04-.61-.77-1.14-1.6-1.6-2.49-.46-.89-.83-1.82-1.11-2.79-.29-.97-.43-1.92-.43-2.86,0-1.98,.38-3.83,1.15-5.54,.77-1.71,1.82-3.2,3.14-4.46,1.33-1.26,2.88-2.26,4.67-2.99,1.78-.73,3.69-1.09,5.73-1.09,2.16,0,4.16,.38,6.01,1.15s3.44,1.8,4.78,3.09c1.34,1.29,2.39,2.79,3.16,4.5,.77,1.71,1.15,3.49,1.15,5.35,0,1.49-.15,2.79-.45,3.92-.3,1.13-.72,2.14-1.26,3.03-.55,.89-1.19,1.7-1.95,2.43-.76,.73-1.56,1.41-2.42,2.03-.86,.62-1.73,1.18-2.62,1.69-.89,.51-1.81,1-2.75,1.47l11.38,10.6c.79-1.81,1.43-3.6,1.91-5.37,.49-1.77,.86-3.38,1.13-4.81h6.99c-.42,2.33-1.06,4.75-1.93,7.25-.87,2.5-1.97,4.96-3.31,7.36l10.27,9.52-5.17,4.5Zm-30.3-24.99c-.84,.35-1.61,.83-2.29,1.43-.68,.61-1.27,1.3-1.76,2.08-.5,.78-.88,1.62-1.15,2.53-.27,.91-.41,1.82-.41,2.73,0,1.44,.28,2.77,.84,4,.56,1.23,1.32,2.29,2.3,3.18,.98,.89,2.13,1.6,3.46,2.1,1.32,.51,2.74,.76,4.26,.76,1.29,0,2.5-.16,3.65-.48,1.14-.32,2.2-.77,3.19-1.35,.99-.58,1.9-1.28,2.73-2.08,.83-.81,1.61-1.68,2.33-2.62l-14.13-13.65-3.01,1.38Zm11.56-13.39c.65-.69,1.19-1.49,1.64-2.4,.45-.91,.67-1.85,.67-2.85,0-1.04-.23-2.04-.69-3.01-.46-.97-1.07-1.82-1.84-2.57-.77-.74-1.67-1.33-2.7-1.77-1.03-.43-2.11-.65-3.25-.65-1.24,0-2.36,.2-3.36,.61-1,.41-1.87,.97-2.58,1.69-.72,.72-1.28,1.56-1.68,2.51-.4,.96-.59,1.99-.59,3.1,0,1.04,.26,2.14,.76,3.29,.51,1.15,1.43,2.36,2.77,3.63l3.31,3.09c1.46-.65,2.84-1.34,4.13-2.08,1.29-.74,2.43-1.61,3.42-2.6Z"/>
  </g>
  <g>
    <g>
      <path d="M135.23,232.42c1.48,0,2.69,1.2,2.69,2.68v2.85h-5.37v-2.85c0-1.48,1.2-2.68,2.68-2.68Z" style="fill: #659d7e;"/>
      <path d="M139.12,280.25c0,1.49-1.74,2.69-3.89,2.69s-3.88-1.2-3.88-2.69v-45.07h7.77v45.07Z" style="fill: #dedbd9;"/>
      <path d="M127.46,232.42c1.48,0,2.69,1.2,2.69,2.68v2.85h-5.37v-2.85c0-1.48,1.2-2.68,2.68-2.68Z" style="fill: #81c5c2;"/>
      <path d="M131.35,280.25c0,1.49-1.74,2.69-3.89,2.69s-3.89-1.2-3.89-2.69v-45.07h7.78v45.07Z" style="fill: #dedbd9;"/>
      <path d="M143.01,232.42c1.48,0,2.69,1.2,2.69,2.68v2.85h-5.37v-2.85c0-1.48,1.2-2.68,2.68-2.68Z" style="fill: #e06b45;"/>
      <path d="M146.89,280.25c0,1.49-1.74,2.69-3.89,2.69s-3.89-1.2-3.89-2.69v-45.07h7.77v45.07Z" style="fill: #dedbd9;"/>
      <path d="M128.97,298.21c0,1.48-1.2,2.69-2.69,2.69s-2.68-1.21-2.68-2.69v-45.07h5.37v45.07Z" style="fill: #d69743;"/>
      <path d="M126.29,242.71c1.48,0,2.69,1.2,2.69,2.68v2.85h-5.37v-2.85c0-1.48,1.2-2.68,2.68-2.68Z" style="fill: #edf2f0;"/>
      <rect x="123.6" y="248.24" width="5.37" height="4.89" style="fill: #bbbdbf;"/>
      <path d="M134.34,306.06c0,1.48-1.2,2.68-2.68,2.68s-2.68-1.2-2.68-2.68v-45.07h5.37v45.07Z" style="fill: #659d7e;"/>
      <path d="M131.66,250.56c1.48,0,2.68,1.21,2.68,2.69v2.84h-5.37v-2.84c0-1.48,1.2-2.69,2.68-2.69Z" style="fill: #edf2f0;"/>
      <rect x="128.97" y="256.09" width="5.37" height="4.9" style="fill: #bbbdbf;"/>
      <path d="M139.71,302.75c0,1.48-1.2,2.68-2.69,2.68s-2.69-1.2-2.69-2.68v-45.07h5.37v45.07Z" style="fill: #659d7e;"/>
      <path d="M137.03,247.25c1.48,0,2.69,1.2,2.69,2.69v2.84h-5.37v-2.84c0-1.48,1.2-2.69,2.69-2.69Z" style="fill: #edf2f0;"/>
      <rect x="134.34" y="252.78" width="5.37" height="4.9" style="fill: #bbbdbf;"/>
      <path d="M145.08,300.33c0,1.48-1.2,2.68-2.68,2.68s-2.69-1.2-2.69-2.68v-45.08h5.37v45.08Z" style="fill: #121212;"/>
      <path d="M142.4,244.84c1.48,0,2.68,1.2,2.68,2.69v2.84h-5.37v-2.84c0-1.48,1.2-2.69,2.69-2.69Z" style="fill: #121212;"/>
      <rect x="139.71" y="250.37" width="5.37" height="10.25" style="fill: #a6a8ab;"/>
      <path d="M141.8,300.13c-.38,1.43-1.85,2.28-3.29,1.9-1.43-.38-2.28-1.85-1.9-3.28l11.67-43.54,5.19,1.39-11.67,43.54Z" style="fill: #121212;"/>
      <path d="M153.57,245.83c1.43,.39,2.28,1.86,1.9,3.29l-.74,2.75-5.19-1.39,.74-2.75c.38-1.43,1.86-2.28,3.29-1.9Z" style="fill: #121212;"/>
      <rect x="145.69" y="253.43" width="10.25" height="5.37" transform="translate(-135.6 335.56) rotate(-75.01)" style="fill: #a6a8ab;"/>
    </g>
    <rect x="119.54" y="264.2" width="35.21" height="42.74" style="fill: #e06b45;"/>
  </g>
  <path d="M166.41,155.23v102.61h177.19v-102.61c0-3.03-2.47-5.5-5.5-5.5H171.9c-3.03,0-5.49,2.47-5.49,5.5Z" style="fill: #000003;"/>
  <path d="M232.47,273.43h45.05l1.81,14.85c.28,2.29,1.62,4.36,3.47,5.67h-55.62c1.84-1.3,3.19-3.37,3.47-5.67l1.81-14.85Z" style="fill: #edf2f0;"/>
  <polygon points="294.57 293.94 294.57 301.01 215.43 301.01 215.43 293.94 223.26 293.94 286.74 293.94 294.57 293.94" style="fill: #edf2f0;"/>
  <polygon points="277.53 273.43 278.31 279.86 231.69 279.86 232.47 273.43 277.53 273.43" style="fill: #dedbd9;"/>
  <path d="M343.59,257.84H166.41v11.65c0,3.04,2.47,5.51,5.49,5.51h166.19c3.03,0,5.5-2.47,5.5-5.51v-11.65Z" style="fill: #edf2f0;"/>
  <rect x="177.43" y="161.26" width="155.13" height="84.76" style="fill: #edf2f0;"/>
  <path d="M255,270.84c-2.44,0-4.42-1.98-4.42-4.42s1.98-4.43,4.42-4.43,4.42,1.98,4.42,4.43-1.98,4.42-4.42,4.42Z" style="fill: #8dbb9b;"/>
  <g>
    <g>
      <rect x="403.51" y="311.63" width="55.95" height="18.89" style="fill: #c2832f;"/>
      <rect x="387.71" y="463.3" width="87.56" height="12.32" style="fill: #c2832f;"/>
      <g>
        <polygon points="421.78 318 433.26 321.08 417 381.73 404.71 381.73 421.78 318" style="fill: #c2832f;"/>
        <polygon points="373.77 497.19 404.71 381.73 417 381.73 386.07 497.19 373.77 497.19" style="fill: #d69743;"/>
      </g>
      <g>
        <polygon points="441.19 318 429.72 321.08 445.97 381.73 458.27 381.73 441.19 318" style="fill: #c2832f;"/>
        <polygon points="489.2 497.19 458.27 381.73 445.97 381.73 476.91 497.19 489.2 497.19" style="fill: #d69743;"/>
      </g>
    </g>
    <g>
      <rect x="50.54" y="309.22" width="55.95" height="21.3" style="fill: #c2832f;"/>
      <rect x="34.73" y="463.3" width="87.56" height="12.32" style="fill: #c2832f;"/>
      <g>
        <polygon points="68.81 318 80.28 321.08 64.03 381.73 51.73 381.73 68.81 318" style="fill: #c2832f;"/>
        <polygon points="20.79 497.19 51.73 381.73 64.03 381.73 33.09 497.19 20.79 497.19" style="fill: #d69743;"/>
      </g>
      <g>
        <polygon points="88.21 318 76.74 321.08 92.99 381.73 105.29 381.73 88.21 318" style="fill: #c2832f;"/>
        <polygon points="136.23 497.19 105.29 381.73 92.99 381.73 123.93 497.19 136.23 497.19" style="fill: #d69743;"/>
      </g>
    </g>
  </g>
  <path d="M411.08,298.18c-1.97-4.94-5.37-8.66-15.7-8.66s-13.72,3.72-15.69,8.66c0,.05,.01,.1,.02,.15h0c.03,.64,.24,1.23,.59,1.72h0c.12,.16,.24,.31,.38,.45,.02,.02,.04,.03,.06,.05,.13,.12,.26,.23,.4,.33,.05,.03,.11,.05,.16,.08,.12,.07,.24,.15,.37,.2,.1,.04,.2,.06,.31,.1,.09,.03,.19,.06,.28,.09,.2,.04,.42,.06,.63,.06h24.97c.22,0,.43-.02,.64-.06,.09-.02,.18-.05,.27-.08,.11-.03,.22-.06,.33-.1,.13-.05,.24-.12,.35-.19,.06-.03,.12-.06,.17-.09,.15-.1,.28-.21,.41-.33,.02-.02,.04-.03,.06-.04,.61-.58,.99-1.4,.99-2.31Z" style="fill: #edf2f0;"/>
  <rect x="169.25" y="32.32" width="68.43" height="91.04" style="fill: #e06b45;"/>
  <rect x="169.25" y="32.32" width="68.43" height="8.94" style="fill: #d69743;"/>
  <path d="M206.46,33c.38-1.66-.66-3.31-2.32-3.69-1.66-.38-3.31,.66-3.68,2.32-.38,1.66,.66,3.31,2.32,3.68,1.66,.38,3.31-.66,3.68-2.32Z" style="fill: #8dbb9b;"/>
  <g>
    <path d="M190.36,106.89V63.97l-7.07,5.67v-5.88l6.93-5.6h5.67v48.73h-5.53Z" style="fill: #edf2f0;"/>
    <path d="M213.55,107.38c-1.91,0-3.5-.29-4.76-.88-1.26-.58-2.28-1.38-3.05-2.38-.77-1-1.33-2.19-1.68-3.57-.35-1.37-.55-2.86-.59-4.44l5.53-.77c0,1.03,.05,1.96,.14,2.8,.09,.84,.3,1.57,.63,2.17,.33,.61,.79,1.09,1.4,1.44,.61,.35,1.45,.53,2.52,.53,1.21,0,2.22-.39,3.01-1.16,.79-.77,1.24-2.11,1.33-4.03v-12.6c0-2.75-1.35-4.13-4.06-4.13-1.07,0-1.98,.24-2.73,.73-.75,.49-1.31,1.16-1.68,1.99h-4.83v-24.93h18.91v4.97h-14v14.7h.35c.7-.7,1.56-1.23,2.59-1.58,1.03-.35,2.08-.53,3.15-.53,2.75,0,4.73,.77,5.92,2.31,1.19,1.54,1.78,3.43,1.78,5.67v13.17c0,1.87-.26,3.47-.77,4.79-.51,1.33-1.23,2.42-2.14,3.26-.91,.84-1.96,1.46-3.15,1.85-1.19,.4-2.46,.59-3.81,.59Z" style="fill: #edf2f0;"/>
  </g>
  <g>
    <path d="M439.19,265.04h-6.87v-4.57h-28.48v35.31h28.48v-4.17h6.87c3.96,0,7.18-3.21,7.18-7.18v-12.21c0-3.97-3.22-7.18-7.18-7.18Zm1.43,17.78c0,1.61-1.31,2.92-2.92,2.92h-2.38c-1.61,0-2.93-1.31-2.93-2.92v-9.54c0-1.61,1.31-2.93,2.93-2.93h2.38c1.61,0,2.92,1.31,2.92,2.93v9.54Z" style="fill: #e06b45;"/>
    <path d="M403.84,295.73c1.87,1.48,2.08,3.41,3.07,5.66h22.15c.99-2.25,1.2-4.18,3.08-5.66h-28.29Z" style="fill: #bb512b;"/>
  </g>
  <g>
    <g>
      <rect x="50.3" y="259.88" width="74.38" height="8.19" transform="translate(-190.13 280.21) rotate(-75.01)" style="fill: #121212;"/>
      <rect x="68.89" y="259.87" width="37.19" height="8.19" transform="translate(-190.13 280.1) rotate(-74.99)" style="fill: #e06b45;"/>
    </g>
    <rect x="101.07" y="219.78" width="18.39" height="81.37" style="fill: #8dbb9b;"/>
    <rect x="105.54" y="228.74" width="9.43" height="9.43" transform="translate(-132.77 146.31) rotate(-44.99)" style="fill: #edf2f0;"/>
    <rect x="41.85" y="259.87" width="74.38" height="8.19" transform="translate(-196.39 272.04) rotate(-75.01)" style="fill: #000003;"/>
    <rect x="60.44" y="259.87" width="37.19" height="8.19" transform="translate(-196.4 271.93) rotate(-74.99)" style="fill: #82aa8c;"/>
  </g>
  <rect y="301.39" width="510" height="16.61" style="fill: #d69743;"/>
  <rect x="177.52" y="161.26" width="155.04" height="6.42" style="fill: #d8d0bc;"/>
  <rect x="177.47" y="161.26" width="6.51" height="6.42" style="fill: #f6921e;"/>
  <rect x="201.01" y="161.26" width="20.81" height="6.42" style="fill: #edf2f0;"/>
  <rect x="228.78" y="161.26" width="20.81" height="6.42" style="fill: #edf2f0;"/>
  <rect x="177.52" y="173.66" width="6.42" height="65.37" style="fill: #d8d0bc;"/>
  <rect x="298.68" y="182.04" width="26.82" height="19.16" style="fill: #d8d0bc;"/>
  <rect x="298.68" y="208.86" width="26.82" height="19.15" style="fill: #d8d0bc;"/>
  <rect x="303.6" y="186.5" width="16.98" height="10.25" style="fill: #edf2f0;"/>
  <rect x="302.22" y="215.23" width="6.51" height="6.42" style="fill: #e06b45;"/>
  <rect x="308.83" y="215.23" width="6.51" height="6.42" style="fill: #8dbb9b;"/>
  <rect x="315.34" y="215.23" width="6.51" height="6.42" style="fill: #afddda;"/>
  <rect x="177.47" y="180.08" width="6.51" height="6.42" style="fill: #c1b49a;"/>
  <path d="M266.49,182.57c13.2,0,23.93,10.73,23.93,23.93s-10.73,23.93-23.93,23.93-23.93-10.73-23.93-23.93,10.74-23.93,23.93-23.93h0Zm0,46.43c12.4,0,22.49-10.09,22.49-22.5s-10.09-22.5-22.49-22.5-22.5,10.09-22.5,22.5,10.09,22.5,22.5,22.5h0Z" style="fill: #a8b5ba;"/>
  <rect x="264.5" y="181.26" width="3.99" height="4.05" transform="translate(-51.55 242.14) rotate(-45)" style="fill: #a8b5ba;"/>
  <rect x="264.5" y="227.42" width="3.99" height="4.05" transform="translate(-84.18 255.66) rotate(-45)" style="fill: #a8b5ba;"/>
  <rect x="241.39" y="204.37" width="4.05" height="3.99" transform="translate(-74.61 232.74) rotate(-45.03)" style="fill: #a8b5ba;"/>
  <g>
    <polygon points="288.85 182.3 290.29 182.3 290.29 229.44 288.85 229.44 288.85 182.3 288.85 182.3" style="fill: #e06b45;"/>
    <g>
      <rect x="287.58" y="181.26" width="3.99" height="4.05" transform="translate(-44.79 258.46) rotate(-45)" style="fill: #e06b45;"/>
      <rect x="287.55" y="204.37" width="4.05" height="3.99" transform="translate(-61.08 265.38) rotate(-45.03)" style="fill: #e06b45;"/>
      <rect x="287.58" y="227.42" width="3.99" height="4.05" transform="translate(-77.42 271.98) rotate(-45)" style="fill: #e06b45;"/>
    </g>
  </g>
  <g>
    <g>
      <polygon points="196.19 181.81 197.63 181.81 197.63 228.95 196.19 228.95 196.19 181.81 196.19 181.81" style="fill: #e06b45;"/>
      <g>
        <rect x="194.91" y="180.77" width="3.99" height="4.05" transform="translate(-71.58 192.7) rotate(-44.98)" style="fill: #e06b45;"/>
        <rect x="194.88" y="203.88" width="4.05" height="3.99" transform="translate(-87.9 199.45) rotate(-44.98)" style="fill: #e06b45;"/>
        <rect x="194.91" y="226.92" width="3.99" height="4.05" transform="translate(-104.22 206.36) rotate(-45.01)" style="fill: #e06b45;"/>
      </g>
    </g>
    <g>
      <polygon points="233.98 182.08 233.98 183.52 197.89 183.52 197.89 182.08 233.98 182.08 233.98 182.08" style="fill: #e06b45;"/>
      <rect x="213.45" y="180.77" width="3.99" height="4.05" transform="translate(-66.15 205.96) rotate(-45.02)" style="fill: #e06b45;"/>
    </g>
    <g>
      <polygon points="233.98 228.23 233.98 229.67 197.89 229.67 197.89 228.23 233.98 228.23 233.98 228.23" style="fill: #e06b45;"/>
      <rect x="213.45" y="226.92" width="3.99" height="4.05" transform="translate(-98.79 219.31) rotate(-44.98)" style="fill: #e06b45;"/>
    </g>
    <g>
      <polygon points="233.26 181.81 234.7 181.81 234.7 228.95 233.26 228.95 233.26 181.81 233.26 181.81" style="fill: #e06b45;"/>
      <g>
        <rect x="231.99" y="180.77" width="3.99" height="4.05" transform="translate(-60.73 218.9) rotate(-44.98)" style="fill: #e06b45;"/>
        <rect x="231.96" y="203.88" width="4.05" height="3.99" transform="translate(-77.05 225.66) rotate(-44.98)" style="fill: #e06b45;"/>
        <rect x="231.98" y="226.92" width="3.99" height="4.05" transform="translate(-93.36 232.58) rotate(-45.01)" style="fill: #e06b45;"/>
      </g>
    </g>
    <path d="M219.75,213.71c-1,.93-2.11,1.7-3.33,2.29-1.22,.59-2.6,.9-4.14,.9-1.29,0-2.48-.21-3.56-.61-1.08-.41-2.01-.96-2.79-1.67-.78-.71-1.39-1.53-1.82-2.46-.43-.93-.65-1.93-.65-2.98,0-1.12,.17-2.12,.5-2.98,.33-.87,.77-1.62,1.33-2.26,.55-.64,1.2-1.17,1.94-1.61,.74-.43,1.51-.78,2.32-1.04,.81-.26,1.63-.45,2.47-.56,.84-.11,1.65-.16,2.41-.16,1.22,0,2.25,.03,3.09,.11,.83,.08,1.59,.18,2.27,.32l.03-2.17c0-.93-.14-1.75-.41-2.43-.27-.69-.65-1.26-1.15-1.71-.49-.45-1.08-.78-1.77-1.01-.69-.22-1.46-.33-2.31-.33-.8,0-1.56,.06-2.3,.17-.73,.11-1.42,.25-2.05,.43-.64,.18-1.22,.38-1.76,.61-.54,.23-.99,.47-1.37,.73l-1.56-3.29c.63-.41,1.32-.78,2.07-1.13,.75-.35,1.53-.65,2.36-.89,.83-.25,1.67-.44,2.53-.59,.86-.15,1.71-.22,2.53-.22,1.53,0,2.91,.18,4.13,.55,1.22,.36,2.26,.93,3.11,1.69,.85,.77,1.5,1.74,1.96,2.92,.46,1.18,.69,2.6,.69,4.24l-.03,13.21h2.93v4.39h-7.67v-2.45Zm-6.42-.79c.63,0,1.26-.08,1.89-.23,.63-.15,1.22-.36,1.78-.62,.56-.26,1.08-.57,1.56-.92,.48-.35,.87-.71,1.2-1.09l.03-5.97h-5.51c-.92,0-1.75,.1-2.51,.31-.76,.2-1.41,.5-1.96,.89-.55,.39-.98,.88-1.29,1.45-.31,.58-.46,1.24-.46,1.99,0,.7,.13,1.3,.38,1.82,.26,.52,.62,.95,1.08,1.3,.47,.35,1.02,.61,1.67,.79,.65,.18,1.36,.27,2.14,.27Z"/>
    <g>
      <polygon points="233.98 219.96 233.98 221.39 197.89 221.39 197.89 219.96 233.98 219.96 233.98 219.96" style="fill: #e06b45;"/>
      <path d="M199.78,220.68c0-1.59-1.29-2.87-2.87-2.87s-2.87,1.28-2.87,2.87,1.29,2.87,2.87,2.87,2.87-1.29,2.87-2.87Z" style="fill: #e06b45;"/>
    </g>
  </g>
  <g>
    <rect x="44.42" y="279.13" width="5.38" height="15.73" style="fill: #000003;"/>
    <polygon points="54.26 277.69 7.41 173.66 1.47 174.49 49 279.9 54.26 277.69" style="fill: #c1b49a;"/>
    <polygon points="66.72 274.47 17.71 167.68 11.14 167.68 62.27 278.18 66.72 274.47" style="fill: #c1b49a;"/>
    <polygon points="62.36 280.85 50.94 281.05 44.29 281.05 44.29 271.43 66.72 274.47 62.36 280.85" style="fill: #c1b49a;"/>
    <polygon points="5.08 178.57 69 130.56 65.73 125.85 1.47 174.49 5.08 178.57" style="fill: #c1b49a;"/>
    <polygon points="12.44 188.14 72.96 138.77 71.07 133.07 7.79 184.85 12.44 188.14" style="fill: #c1b49a;"/>
    <polygon points="65.7 125.85 64.9 129.14 69.67 136.53 72.96 138.77 75.65 129.01 65.7 125.85" style="fill: #c1b49a;"/>
    <polygon points="89.6 122.59 108.58 124.84 108.6 134.04 89.61 136.3 80.38 129.45 89.6 122.59" style="fill: #c1b49a;"/>
    <polygon points="96.72 301.75 17.41 301.75 22.1 293.32 92.03 293.32 96.72 301.75" style="fill: #c1b49a;"/>
    <polygon points="49.83 276.85 52.48 272.26 49.83 267.66 44.53 267.66 41.88 272.26 44.53 276.85 49.83 276.85" style="fill: #000003;"/>
    <rect x="70.67" y="127.2" width="26.19" height="4.95" style="fill: #c1b49a;"/>
    <polygon points="69.67 132.26 74.2 134.87 78.72 132.26 78.72 127.04 74.2 124.42 69.67 127.04 69.67 132.26" style="fill: #000003;"/>
    <path d="M155.81,143.78c.14-1.2,.23-2.42,.23-3.66,0-17.49-14.17-31.66-31.66-31.66s-31.65,14.17-31.65,31.66c0,1.24,.09,2.46,.23,3.66h62.86Z" style="fill: #c1b49a;"/>
  </g>
  <g>
    <path d="M366.16,256.49c0,1.33-1.08,2.41-2.4,2.41h0c-1.33,0-2.41-1.08-2.41-2.41v-7.57c0-1.33,1.08-2.41,2.41-2.41h0c1.33,0,2.4,1.08,2.4,2.41v7.57Z" style="fill: #053332;"/>
    <rect x="360.36" y="252.7" width="6.79" height="40.73" style="fill: #000003;"/>
    <polygon points="370.08 301.41 357.44 301.41 355.46 281.82 372.06 281.82 370.08 301.41" style="fill: #000003;"/>
  </g>
  <path d="M201.05,301.27c0-3.76,3.05-6.81,6.81-6.81h94.27c3.76,0,6.81,3.05,6.81,6.81h-107.89Z" style="fill: #000003;"/>
  <g>
    <path d="M337,210.38c0,7.1,5.76,12.86,12.86,12.86h0c7.1,0,12.86-5.76,12.86-12.86v-19.3c0-7.1-5.76-12.87-12.86-12.87h0c-7.1,0-12.86,5.76-12.86,12.87v19.3Z" style="fill: #9b6127;"/>
    <path d="M350.56,181.47c.75,0,1.82,.16,2.35,.29,3.17,.65,6.1,2.2,8.46,4.55,3.19,3.19,4.96,7.41,4.96,11.88v5.02c.02,7.61-5.12,14.3-12.48,16.28-.41,.11-2.06,.48-3.29,.48-5.42,0-9.8-4.39-9.8-9.8v-18.92c0-5.41,4.39-9.8,9.8-9.8Z" style="fill: #ece6e1;"/>
    <path d="M358.17,171.12h2.85v26.77h-2.85v-26.77m-1.35-1.35v29.48h5.55v-29.48h-5.55Z" style="fill: #cec6b2;"/>
    <path d="M354.14,200.73c0-3.01,2.44-5.46,5.45-5.46s5.46,2.44,5.46,5.46-2.44,5.46-5.46,5.46-5.45-2.44-5.45-5.46Z" style="fill: #0e0f2d;"/>
    <path d="M361.58,201.97c3.66,0,6.36-1.42,7.66-4.05,2.06-4.18,.2-10.42-4.85-16.29-4.31-5-4.69-8.1-3.93-11.22l-1.41-.34c-.75,3.07-.75,6.72,4.24,12.5,4.6,5.33,6.42,11.1,4.65,14.7-1.12,2.27-3.66,3.42-7.11,3.22l-.08,1.45c.28,.02,.56,.02,.84,.02h0Z" style="fill: #0e0f2d;"/>
    <path d="M325.12,133.91c-12.34,0-23.29,6.04-30.07,15.32h7.22c5.77-6.02,13.87-9.77,22.84-9.77,17.46,0,31.66,14.2,31.66,31.66h5.55c0-20.52-16.69-37.21-37.21-37.21Z" style="fill: #9b6127;"/>
  </g>
  <g>
    <g>
      <path d="M465.19,157.86c19.48-19.48,19.48-51.06,0-70.54-19.48-19.48-51.06-19.48-70.54,0-19.48,19.48-19.48,51.06,0,70.54,19.48,19.48,51.06,19.48,70.54,0Z" style="fill: #000003;"/>
      <g>
        <path d="M422.3,146.66l.73-1.95c-3.48-1.08-6.76-2.97-9.51-5.73-2.75-2.75-4.65-6.03-5.73-9.51l-1.94,.73c1.18,3.75,3.24,7.28,6.2,10.25,2.97,2.97,6.5,5.02,10.25,6.21Z" style="fill: #053332;"/>
        <path d="M437.55,98.5l-.74,1.96c3.48,1.08,6.76,2.98,9.51,5.73,2.75,2.75,4.65,6.03,5.73,9.51l1.96-.74c-1.18-3.74-3.25-7.27-6.22-10.24-2.97-2.97-6.5-5.04-10.24-6.23Z" style="fill: #053332;"/>
        <path d="M421.14,149.75l.73-1.95c-3.91-1.24-7.59-3.38-10.68-6.48-3.1-3.1-5.24-6.78-6.48-10.68l-1.95,.73c1.34,4.17,3.65,8.1,6.96,11.42,3.31,3.31,7.24,5.62,11.42,6.96Z" style="fill: #053332;"/>
        <path d="M439.87,92.33l-.74,1.97c4.34,1.4,8.42,3.8,11.85,7.24s5.83,7.52,7.24,11.85l1.97-.74c-1.51-4.6-4.08-8.92-7.74-12.58-3.66-3.66-7.98-6.23-12.58-7.74Z" style="fill: #053332;"/>
        <path d="M423.46,143.58l.73-1.94c-3.06-.91-5.93-2.57-8.34-4.97-2.41-2.41-4.06-5.29-4.98-8.34l-1.94,.73c1.02,3.32,2.83,6.45,5.45,9.08,2.63,2.63,5.76,4.44,9.08,5.45Z" style="fill: #053332;"/>
        <path d="M438.7,95.43l-.73,1.94c3.91,1.24,7.59,3.4,10.68,6.49,3.09,3.09,5.25,6.77,6.49,10.68l1.94-.73c-1.34-4.17-3.65-8.1-6.97-11.41-3.31-3.31-7.24-5.62-11.42-6.97Z" style="fill: #053332;"/>
        <path d="M436.38,101.61l-.73,1.94c3.05,.91,5.94,2.56,8.34,4.97,2.41,2.41,4.06,5.29,4.97,8.34l1.94-.73c-1.01-3.32-2.82-6.45-5.45-9.08-2.63-2.63-5.76-4.43-9.08-5.45Z" style="fill: #053332;"/>
        <path d="M435.22,104.69l-.73,1.95c2.63,.75,5.11,2.14,7.18,4.21,2.06,2.07,3.46,4.55,4.21,7.18l1.95-.73c-.85-2.89-2.41-5.62-4.69-7.91-2.28-2.29-5.01-3.85-7.91-4.69Z" style="fill: #053332;"/>
        <path d="M424.62,140.49l.74-1.96c-2.63-.74-5.11-2.13-7.18-4.2-2.07-2.07-3.46-4.55-4.2-7.18l-1.96,.74c.85,2.89,2.41,5.62,4.69,7.91,2.28,2.28,5.01,3.84,7.9,4.69Z" style="fill: #053332;"/>
        <path d="M415.33,165.2l.73-1.95c-6.04-2.05-11.71-5.48-16.52-10.28-4.81-4.81-8.23-10.48-10.28-16.52l-1.95,.73c2.15,6.3,5.74,12.22,10.77,17.25,5.03,5.03,10.95,8.61,17.25,10.76Z" style="fill: #053332;"/>
        <path d="M419.98,152.85l.73-1.95c-4.33-1.4-8.41-3.81-11.84-7.25-3.44-3.44-5.85-7.51-7.26-11.85l-1.95,.73c1.5,4.6,4.08,8.92,7.74,12.58,3.65,3.66,7.98,6.23,12.58,7.73Z" style="fill: #053332;"/>
        <path d="M416.49,162.12l.74-1.96c-5.61-1.89-10.89-5.06-15.35-9.52-4.47-4.46-7.64-9.74-9.52-15.36l-1.95,.74c1.99,5.88,5.33,11.4,10.01,16.08,4.68,4.69,10.21,8.02,16.08,10.01Z" style="fill: #053332;"/>
        <path d="M444.51,79.99l-.74,1.95c6.04,2.05,11.72,5.47,16.53,10.27,4.81,4.81,8.22,10.49,10.27,16.53l1.95-.73c-2.15-6.3-5.73-12.23-10.76-17.26-5.03-5.03-10.95-8.61-17.25-10.76Z" style="fill: #053332;"/>
        <path d="M414.17,168.28l.73-1.95c-6.47-2.21-12.54-5.88-17.69-11.03-5.15-5.15-8.82-11.23-11.03-17.69l-1.95,.73c2.31,6.73,6.15,13.05,11.52,18.43,5.37,5.37,11.69,9.21,18.42,11.52Z" style="fill: #053332;"/>
        <path d="M445.67,76.9l-.74,1.96c6.47,2.21,12.54,5.88,17.7,11.03,5.15,5.15,8.82,11.23,11.03,17.69l1.96-.74c-2.31-6.73-6.15-13.05-11.52-18.42-5.37-5.37-11.7-9.21-18.42-11.52Z" style="fill: #053332;"/>
        <path d="M443.35,83.07l-.73,1.95c5.61,1.89,10.89,5.05,15.36,9.52,4.46,4.47,7.63,9.74,9.52,15.36l1.95-.73c-1.99-5.88-5.32-11.4-10.01-16.08-4.68-4.69-10.21-8.02-16.09-10.01Z" style="fill: #053332;"/>
        <path d="M441.03,89.24l-.73,1.95c4.76,1.56,9.23,4.24,13.01,8.02,3.78,3.78,6.45,8.25,8.01,13.01l1.95-.73c-1.67-5.02-4.5-9.75-8.49-13.74-4-4-8.72-6.83-13.75-8.5Z" style="fill: #053332;"/>
        <path d="M418.82,155.94l.73-1.95c-4.76-1.56-9.24-4.22-13.02-8.01-3.78-3.78-6.45-8.25-8.01-13.02l-1.95,.73c1.67,5.03,4.5,9.75,8.49,13.75,4,4,8.72,6.82,13.75,8.49Z" style="fill: #053332;"/>
        <path d="M442.19,86.16l-.73,1.95c5.19,1.73,10.06,4.64,14.19,8.77,4.12,4.12,7.04,9,8.76,14.18l1.95-.73c-1.83-5.45-4.91-10.57-9.25-14.92s-9.47-7.42-14.92-9.25Z" style="fill: #053332;"/>
        <path d="M417.65,159.03l.73-1.95c-5.19-1.73-10.06-4.64-14.18-8.77-4.12-4.12-7.04-9-8.76-14.18l-1.95,.73c1.83,5.45,4.91,10.57,9.25,14.92,4.34,4.34,9.46,7.42,14.91,9.25Z" style="fill: #053332;"/>
      </g>
      <path d="M444.31,136.98c7.95-7.95,7.95-20.84,0-28.79-7.95-7.95-20.84-7.95-28.79,0-7.95,7.95-7.95,20.84,0,28.79,7.95,7.95,20.84,7.95,28.79,0Z" style="fill: #e06b45;"/>
      <path d="M431.36,124.03c.8-.79,.8-2.09,0-2.88-.8-.8-2.09-.8-2.88,0-.8,.8-.8,2.09,0,2.88,.8,.8,2.09,.8,2.88,0Z" style="fill: #0e0f2d;"/>
    </g>
    <g>
      <path d="M427.19,118.29c-2.59,1.47-3.49,4.77-2,7.35,1.47,2.61,4.77,3.51,7.37,2.03,2.59-1.49,3.48-4.78,2-7.38-1.47-2.59-4.77-3.48-7.37-2Z" style="fill: #edf2f0;"/>
      <polygon points="456.57 85.56 455.93 85.11 441.04 102.99 428.86 122.78 430.35 123.83 444.81 105.64 456.57 85.56" style="fill: #edf2f0;"/>
      <polygon points="404.68 104.81 404.24 105.44 416.25 116.13 430.13 124.13 431.16 122.64 418.87 112.38 404.68 104.81" style="fill: #edf2f0;"/>
      <path d="M427.35,122.55c-.23,1.38,.72,2.7,2.09,2.93,1.38,.27,2.69-.69,2.94-2.07,.24-1.39-.69-2.7-2.06-2.93-1.41-.24-2.71,.7-2.96,2.07Z" style="fill: #000003;"/>
    </g>
  </g>
  <g>
    <path d="M235.1,369.87c4.37-5.45,18.58,2.53,18.58,2.53-6.79,0-12.31,5.52-12.31,12.31,0,3.17-2.57,5.74-5.75,5.74h-36.21v-20.59h35.69Z" style="fill: #82aa8c;"/>
    <g>
      <path d="M175.95,479.08h10.06c0-9.02,7.34-16.35,16.35-16.35h90.63c9.02,0,16.35,7.34,16.35,16.35h10.06c0-14.56-11.84-26.41-26.41-26.41h-90.63c-14.56,0-26.41,11.85-26.41,26.41h0Z" style="fill: #edf2f0;"/>
      <path d="M212.33,479.08h10.06c0-9.02,7.34-16.35,16.35-16.35h17.87c9.01,0,16.35,7.34,16.35,16.35h10.06c0-14.56-11.85-26.41-26.41-26.41h-17.87c-14.56,0-26.41,11.85-26.41,26.41h0Z" style="fill: #edf2f0;"/>
      <g>
        <path d="M175.95,479.08h9.25c5.11,0,9.25,4.14,9.25,9.25h-18.5v-9.25Z" style="fill: #c1b49a;"/>
        <path d="M185.2,497.58c-5.1,0-9.25-4.14-9.25-9.25h18.5c0,5.11-4.14,9.25-9.25,9.25Z" style="fill: #121212;"/>
        <path d="M212.33,479.08h9.25c5.1,0,9.25,4.14,9.25,9.25h-18.5v-9.25Z" style="fill: #c1b49a;"/>
        <path d="M221.58,497.58c-5.11,0-9.25-4.14-9.25-9.25h18.5c0,5.11-4.14,9.25-9.25,9.25Z" style="fill: #121212;"/>
        <path d="M272.95,479.08h9.25c5.11,0,9.25,4.14,9.25,9.25h-18.5v-9.25Z" style="fill: #c1b49a;"/>
        <path d="M282.2,497.58c-5.11,0-9.25-4.14-9.25-9.25h18.5c0,5.11-4.14,9.25-9.25,9.25Z" style="fill: #121212;"/>
        <path d="M309.19,479.08h9.25c5.11,0,9.25,4.14,9.25,9.25h-18.5v-9.25Z" style="fill: #c1b49a;"/>
        <path d="M318.44,497.58c-5.11,0-9.25-4.14-9.25-9.25h18.5c0,5.11-4.14,9.25-9.25,9.25Z" style="fill: #121212;"/>
      </g>
      <rect x="242.64" y="380.06" width="10.08" height="53.86" style="fill: #c1b49a;"/>
      <rect x="238.37" y="425.45" width="18.61" height="30.45" style="fill: #edf2f0;"/>
      <path d="M226.11,372.69c0,5.62,4.56,10.18,10.18,10.18h22.75c5.62,0,10.18-4.56,10.18-10.18h-43.11Z" style="fill: #c1b49a;"/>
    </g>
    <path d="M218.01,360.91h41.79c8.98-1.04,15.96-8.67,15.96-17.93l-.48-64.94c0-5.62,4.56-10.18,10.18-10.18h26.89c5.62,0,10.18,4.56,10.18,10.18l.25,76.49c0,9.98-8.09,18.06-18.06,18.06l-86.72-.19c-6.79,0-12.31,5.52-12.31,12.31,0,3.17-2.57,5.74-5.75,5.74s-5.75-2.57-5.75-5.74c0-13.13,10.68-23.81,23.81-23.81Z" style="fill: #8dbb9b;"/>
  </g>
</svg>