<?xml version="1.0" encoding="UTF-8"?>
<svg xmlns="http://www.w3.org/2000/svg" viewBox="0 0 302 396.51">
  <g style="isolation: isolate;">
    <g id="Layer_1" data-name="Layer 1">
      <g>
        <path d="M250.85,92.44V37.72c0-3.09-2.53-5.61-5.61-5.61H125.22c-3.08,0-5.61,2.52-5.61,5.61v54.72H250.85Z" style="fill: #bbbdbf;"/>
        <path d="M119.61,95.67v77.81c0,3.08,2.52,5.61,5.61,5.61h120.02c3.08,0,5.61-2.53,5.61-5.61V95.67H119.61Z" style="fill: #d0d2d3;"/>
        <path d="M295.33,60.85c-2.32,0-4.64-.65-6.67-1.94-3.17-2.03-7.27-2.03-10.44,0-4.05,2.59-9.28,2.59-13.33,0-3.17-2.03-7.26-2.03-10.44,0-4.05,2.59-9.28,2.59-13.33,0-3.17-2.03-7.27-2.03-10.44,0-4.05,2.59-9.28,2.59-13.33,0l1.45-2.27c3.17,2.03,7.27,2.03,10.44,0,4.05-2.59,9.28-2.59,13.33,0,3.17,2.03,7.27,2.03,10.44,0,4.05-2.59,9.29-2.59,13.33,0,3.17,2.03,7.27,2.03,10.44,0,4.05-2.59,9.28-2.59,13.33,0,3.17,2.03,7.27,2.03,10.44,0l1.45,2.27c-2.03,1.29-4.35,1.94-6.67,1.94Z" style="fill: #f7fcef;"/>
        <path d="M250.85,95.67V40.94c0-3.08-2.53-5.61-5.61-5.61H125.22c-3.09,0-5.61,2.53-5.61,5.61v54.72H250.85Z" style="fill: #0e0f2d;"/>
        <g>
          <path d="M134.11,131.12c0,1.26-.75,2.29-1.67,2.29h-5.43c-.92,0-1.67-1.02-1.67-2.28v-1.67c0-1.26,.75-2.28,1.67-2.28h5.44c.92,0,1.67,1.02,1.67,2.28v1.66Z" style="fill: #0e0f2d;"/>
          <path d="M134.11,114.14c0,1.26-.75,2.29-1.67,2.29h-5.43c-.92,0-1.67-1.02-1.67-2.28v-1.67c0-1.26,.75-2.28,1.67-2.28h5.44c.92,0,1.67,1.02,1.67,2.28v1.66Z" style="fill: #0e0f2d;"/>
          <path d="M244.64,131.12c0,1.26-.75,2.29-1.67,2.29h-16.23c-.92,0-1.67-1.02-1.67-2.28v-1.66c0-1.26,.75-2.28,1.67-2.28h16.24c.92,0,1.67,1.02,1.67,2.28v1.66Z" style="fill: #0e0f2d;"/>
          <path d="M226.87,138.5c0-1.26,.75-2.28,1.67-2.28h4.97c.92,0,1.67,1.02,1.67,2.29v1.66c0,1.26-.75,2.28-1.67,2.28h-4.98c-.92,0-1.66-1.02-1.66-2.28v-1.67Z" style="fill: #0e0f2d;"/>
          <path d="M206.84,138.5c0-1.26,.75-2.28,1.67-2.28h4.97c.92,0,1.67,1.02,1.67,2.29v1.66c0,1.26-.75,2.28-1.67,2.28h-4.98c-.92,0-1.66-1.02-1.66-2.28v-1.67Z" style="fill: #0e0f2d;"/>
          <path d="M133.87,138.5c0-1.26,.75-2.28,1.67-2.28h3.81c.92,0,1.67,1.02,1.67,2.29v1.66c0,1.26-.75,2.28-1.67,2.28h-3.81c-.92,0-1.66-1.02-1.66-2.28v-1.67Z" style="fill: #0e0f2d;"/>
          <g>
            <path d="M135.58,129.46c0-1.26,.75-2.28,1.67-2.28h3.81c.92,0,1.67,1.02,1.67,2.29v1.66c0,1.26-.75,2.28-1.67,2.28h-3.81c-.92,0-1.66-1.02-1.66-2.28v-1.67Z" style="fill: #0e0f2d;"/>
            <path d="M144.55,129.46c0-1.26,.75-2.28,1.67-2.28h3.81c.92,0,1.67,1.02,1.67,2.29v1.66c0,1.26-.75,2.28-1.67,2.28h-3.81c-.92,0-1.66-1.02-1.66-2.28v-1.67Z" style="fill: #0e0f2d;"/>
            <path d="M153.52,129.46c0-1.26,.75-2.28,1.67-2.28h3.81c.92,0,1.67,1.02,1.67,2.29v1.66c0,1.26-.75,2.28-1.67,2.28h-3.81c-.92,0-1.66-1.02-1.66-2.28v-1.67Z" style="fill: #0e0f2d;"/>
            <path d="M162.49,129.46c0-1.26,.75-2.28,1.67-2.28h3.81c.92,0,1.67,1.02,1.67,2.29v1.66c0,1.26-.75,2.28-1.67,2.28h-3.81c-.92,0-1.66-1.02-1.66-2.28v-1.67Z" style="fill: #0e0f2d;"/>
            <path d="M171.47,129.46c0-1.26,.75-2.28,1.67-2.28h3.81c.92,0,1.67,1.02,1.67,2.29v1.66c0,1.26-.75,2.28-1.67,2.28h-3.81c-.92,0-1.66-1.02-1.66-2.28v-1.67Z" style="fill: #0e0f2d;"/>
            <path d="M180.44,129.46c0-1.26,.75-2.28,1.67-2.28h3.81c.92,0,1.67,1.02,1.67,2.29v1.66c0,1.26-.75,2.28-1.67,2.28h-3.81c-.92,0-1.66-1.02-1.66-2.28v-1.67Z" style="fill: #0e0f2d;"/>
            <path d="M189.41,129.46c0-1.26,.75-2.28,1.67-2.28h3.81c.92,0,1.67,1.02,1.67,2.29v1.66c0,1.26-.75,2.28-1.67,2.28h-3.81c-.92,0-1.66-1.02-1.66-2.28v-1.67Z" style="fill: #0e0f2d;"/>
            <path d="M198.38,129.46c0-1.26,.75-2.28,1.67-2.28h3.81c.92,0,1.67,1.02,1.67,2.29v1.66c0,1.26-.75,2.28-1.67,2.28h-3.81c-.92,0-1.66-1.02-1.66-2.28v-1.67Z" style="fill: #0e0f2d;"/>
            <path d="M207.35,129.46c0-1.26,.75-2.28,1.67-2.28h3.81c.92,0,1.67,1.02,1.67,2.29v1.66c0,1.26-.75,2.28-1.67,2.28h-3.81c-.92,0-1.66-1.02-1.66-2.28v-1.67Z" style="fill: #0e0f2d;"/>
            <path d="M216.32,129.46c0-1.26,.75-2.28,1.67-2.28h3.81c.92,0,1.67,1.02,1.67,2.29v1.66c0,1.26-.75,2.28-1.67,2.28h-3.81c-.92,0-1.66-1.02-1.66-2.28v-1.67Z" style="fill: #0e0f2d;"/>
          </g>
          <path d="M135.58,112.48c0-1.26,.75-2.28,1.67-2.28h3.81c.92,0,1.67,1.02,1.67,2.29v1.66c0,1.26-.75,2.28-1.67,2.28h-3.81c-.92,0-1.66-1.02-1.66-2.28v-1.67Z" style="fill: #0e0f2d;"/>
          <path d="M144.55,112.48c0-1.26,.75-2.28,1.67-2.28h3.81c.92,0,1.67,1.02,1.67,2.29v1.66c0,1.26-.75,2.28-1.67,2.28h-3.81c-.92,0-1.66-1.02-1.66-2.28v-1.67Z" style="fill: #0e0f2d;"/>
          <path d="M153.52,112.48c0-1.26,.75-2.28,1.67-2.28h3.81c.92,0,1.67,1.02,1.67,2.29v1.66c0,1.26-.75,2.28-1.67,2.28h-3.81c-.92,0-1.66-1.02-1.66-2.28v-1.67Z" style="fill: #0e0f2d;"/>
          <path d="M162.49,112.48c0-1.26,.75-2.28,1.67-2.28h3.81c.92,0,1.67,1.02,1.67,2.29v1.66c0,1.26-.75,2.28-1.67,2.28h-3.81c-.92,0-1.66-1.02-1.66-2.28v-1.67Z" style="fill: #0e0f2d;"/>
          <path d="M171.47,112.48c0-1.26,.75-2.28,1.67-2.28h3.81c.92,0,1.67,1.02,1.67,2.29v1.66c0,1.26-.75,2.28-1.67,2.28h-3.81c-.92,0-1.66-1.02-1.66-2.28v-1.67Z" style="fill: #0e0f2d;"/>
          <path d="M180.44,112.48c0-1.26,.75-2.28,1.67-2.28h3.81c.92,0,1.67,1.02,1.67,2.29v1.66c0,1.26-.75,2.28-1.67,2.28h-3.81c-.92,0-1.66-1.02-1.66-2.28v-1.67Z" style="fill: #0e0f2d;"/>
          <path d="M189.41,112.48c0-1.26,.75-2.28,1.67-2.28h3.81c.92,0,1.67,1.02,1.67,2.29v1.66c0,1.26-.75,2.28-1.67,2.28h-3.81c-.92,0-1.66-1.02-1.66-2.28v-1.67Z" style="fill: #0e0f2d;"/>
          <path d="M198.38,112.48c0-1.26,.75-2.28,1.67-2.28h3.81c.92,0,1.67,1.02,1.67,2.29v1.66c0,1.26-.75,2.28-1.67,2.28h-3.81c-.92,0-1.66-1.02-1.66-2.28v-1.67Z" style="fill: #0e0f2d;"/>
          <path d="M207.35,112.48c0-1.26,.75-2.28,1.67-2.28h3.81c.92,0,1.67,1.02,1.67,2.29v1.66c0,1.26-.75,2.28-1.67,2.28h-3.81c-.92,0-1.66-1.02-1.66-2.28v-1.67Z" style="fill: #0e0f2d;"/>
          <path d="M216.32,112.48c0-1.26,.75-2.28,1.67-2.28h3.81c.92,0,1.67,1.02,1.67,2.29v1.66c0,1.26-.75,2.28-1.67,2.28h-3.81c-.92,0-1.66-1.02-1.66-2.28v-1.67Z" style="fill: #0e0f2d;"/>
          <path d="M225.32,112.48c0-1.26,.75-2.28,1.67-2.28h3.81c.92,0,1.67,1.02,1.67,2.29v1.66c0,1.26-.75,2.28-1.67,2.28h-3.81c-.92,0-1.66-1.02-1.66-2.28v-1.67Z" style="fill: #0e0f2d;"/>
          <path d="M140.1,120.81c0-1.26,.75-2.28,1.67-2.28h3.81c.92,0,1.67,1.02,1.67,2.29v1.66c0,1.26-.75,2.28-1.67,2.28h-3.81c-.92,0-1.66-1.02-1.66-2.28v-1.67Z" style="fill: #0e0f2d;"/>
          <path d="M213.21,105.44c0,1.26-.75,2.28-1.67,2.28h-3.81c-.92,0-1.67-1.02-1.67-2.29v-1.66c0-1.26,.75-2.28,1.67-2.28h3.81c.92,0,1.66,1.02,1.66,2.28v1.67Z" style="fill: #0e0f2d;"/>
          <path d="M204.24,105.44c0,1.26-.75,2.28-1.67,2.28h-3.81c-.92,0-1.67-1.02-1.67-2.29v-1.66c0-1.26,.75-2.28,1.67-2.28h3.81c.92,0,1.66,1.02,1.66,2.28v1.67Z" style="fill: #0e0f2d;"/>
          <path d="M195.27,105.44c0,1.26-.75,2.28-1.67,2.28h-3.81c-.92,0-1.67-1.02-1.67-2.29v-1.66c0-1.26,.75-2.28,1.67-2.28h3.81c.92,0,1.66,1.02,1.66,2.28v1.67Z" style="fill: #0e0f2d;"/>
          <path d="M186.3,105.44c0,1.26-.75,2.28-1.67,2.28h-3.81c-.92,0-1.67-1.02-1.67-2.29v-1.66c0-1.26,.75-2.28,1.67-2.28h3.81c.92,0,1.66,1.02,1.66,2.28v1.67Z" style="fill: #0e0f2d;"/>
          <path d="M177.33,105.44c0,1.26-.75,2.28-1.67,2.28h-3.81c-.92,0-1.67-1.02-1.67-2.29v-1.66c0-1.26,.75-2.28,1.67-2.28h3.81c.92,0,1.66,1.02,1.66,2.28v1.67Z" style="fill: #0e0f2d;"/>
          <path d="M244.53,105.44c0,1.26-.75,2.28-1.67,2.28h-8.21c-.92,0-1.67-1.02-1.67-2.29v-1.66c0-1.26,.75-2.28,1.67-2.28h8.22c.92,0,1.66,1.02,1.66,2.28v1.67Z" style="fill: #0e0f2d;"/>
          <path d="M231.15,105.44c0,1.26-.75,2.28-1.67,2.28h-3.8c-.92,0-1.67-1.02-1.67-2.29v-1.66c0-1.26,.75-2.28,1.67-2.28h3.81c.92,0,1.66,1.02,1.66,2.28v1.67Z" style="fill: #0e0f2d;"/>
          <path d="M222.18,105.44c0,1.26-.75,2.28-1.67,2.28h-3.81c-.92,0-1.67-1.02-1.67-2.29v-1.66c0-1.26,.75-2.28,1.67-2.28h3.81c.92,0,1.66,1.02,1.66,2.28v1.67Z" style="fill: #0e0f2d;"/>
          <path d="M168.36,105.44c0,1.26-.75,2.28-1.67,2.28h-3.81c-.92,0-1.67-1.02-1.67-2.29v-1.66c0-1.26,.75-2.28,1.67-2.28h3.81c.92,0,1.66,1.02,1.66,2.28v1.67Z" style="fill: #0e0f2d;"/>
          <path d="M159.39,105.44c0,1.26-.75,2.28-1.67,2.28h-3.81c-.92,0-1.67-1.02-1.67-2.29v-1.66c0-1.26,.75-2.28,1.67-2.28h3.81c.92,0,1.66,1.02,1.66,2.28v1.67Z" style="fill: #0e0f2d;"/>
          <path d="M150.42,105.44c0,1.26-.75,2.28-1.67,2.28h-3.81c-.92,0-1.67-1.02-1.67-2.29v-1.66c0-1.26,.75-2.28,1.67-2.28h3.81c.92,0,1.66,1.02,1.66,2.28v1.67Z" style="fill: #0e0f2d;"/>
          <path d="M141.45,105.44c0,1.26-.75,2.28-1.67,2.28h-3.81c-.92,0-1.67-1.02-1.67-2.29v-1.66c0-1.26,.75-2.28,1.67-2.28h3.81c.92,0,1.66,1.02,1.66,2.28v1.67Z" style="fill: #0e0f2d;"/>
          <path d="M132.48,105.44c0,1.26-.75,2.28-1.67,2.28h-3.81c-.92,0-1.67-1.02-1.67-2.29v-1.66c0-1.26,.75-2.28,1.67-2.28h3.81c.92,0,1.66,1.02,1.66,2.28v1.67Z" style="fill: #0e0f2d;"/>
          <path d="M149.07,120.81c0-1.26,.75-2.28,1.67-2.28h3.81c.92,0,1.67,1.02,1.67,2.29v1.66c0,1.26-.75,2.28-1.67,2.28h-3.81c-.92,0-1.66-1.02-1.66-2.28v-1.67Z" style="fill: #0e0f2d;"/>
          <path d="M125.34,120.81c0-1.26,.75-2.28,1.67-2.28h9.57c.92,0,1.67,1.02,1.67,2.29v1.66c0,1.26-.75,2.28-1.67,2.28h-9.57c-.92,0-1.66-1.02-1.66-2.28v-1.67Z" style="fill: #0e0f2d;"/>
          <path d="M158.04,120.81c0-1.26,.75-2.28,1.67-2.28h3.81c.92,0,1.67,1.02,1.67,2.29v1.66c0,1.26-.75,2.28-1.67,2.28h-3.81c-.92,0-1.66-1.02-1.66-2.28v-1.67Z" style="fill: #0e0f2d;"/>
          <path d="M167.02,120.81c0-1.26,.75-2.28,1.67-2.28h3.81c.92,0,1.67,1.02,1.67,2.29v1.66c0,1.26-.75,2.28-1.67,2.28h-3.81c-.92,0-1.66-1.02-1.66-2.28v-1.67Z" style="fill: #0e0f2d;"/>
          <path d="M175.99,120.81c0-1.26,.75-2.28,1.67-2.28h3.81c.92,0,1.67,1.02,1.67,2.29v1.66c0,1.26-.75,2.28-1.67,2.28h-3.81c-.92,0-1.66-1.02-1.66-2.28v-1.67Z" style="fill: #0e0f2d;"/>
          <path d="M184.96,120.81c0-1.26,.75-2.28,1.67-2.28h3.81c.92,0,1.67,1.02,1.67,2.29v1.66c0,1.26-.75,2.28-1.67,2.28h-3.81c-.92,0-1.66-1.02-1.66-2.28v-1.67Z" style="fill: #0e0f2d;"/>
          <path d="M193.93,120.81c0-1.26,.75-2.28,1.67-2.28h3.81c.92,0,1.67,1.02,1.67,2.29v1.66c0,1.26-.75,2.28-1.67,2.28h-3.81c-.92,0-1.66-1.02-1.66-2.28v-1.67Z" style="fill: #0e0f2d;"/>
          <path d="M202.9,120.81c0-1.26,.75-2.28,1.67-2.28h3.81c.92,0,1.67,1.02,1.67,2.29v1.66c0,1.26-.75,2.28-1.67,2.28h-3.81c-.92,0-1.66-1.02-1.66-2.28v-1.67Z" style="fill: #0e0f2d;"/>
          <path d="M211.87,120.81c0-1.26,.75-2.28,1.67-2.28h3.81c.92,0,1.67,1.02,1.67,2.29v1.66c0,1.26-.75,2.28-1.67,2.28h-3.81c-.92,0-1.66-1.02-1.66-2.28v-1.67Z" style="fill: #0e0f2d;"/>
          <path d="M220.84,120.81c0-1.26,.75-2.28,1.67-2.28h3.81c.92,0,1.67,1.02,1.67,2.29v1.66c0,1.26-.75,2.28-1.67,2.28h-3.81c-.92,0-1.66-1.02-1.66-2.28v-1.67Z" style="fill: #0e0f2d;"/>
          <path d="M229.81,120.81c0-1.26,.75-2.28,1.67-2.28h3.81c.92,0,1.67,1.02,1.67,2.29v1.66c0,1.26-.75,2.28-1.67,2.28h-3.81c-.92,0-1.66-1.02-1.66-2.28v-1.67Z" style="fill: #0e0f2d;"/>
          <path d="M242.86,110.2h-6.88c-.92,0-1.67,1.02-1.67,2.28v1.67c0,1.26,.75,2.28,1.66,2.28h.59c1.1,0,1.99,1.22,1.99,2.73v3.32c0,1.26,.75,2.28,1.66,2.28h2.64c.92,0,1.67-1.02,1.67-2.28v-9.99c0-1.26-.75-2.29-1.67-2.29Z" style="fill: #0e0f2d;"/>
          <path d="M125.34,138.5c0-1.26,.75-2.28,1.67-2.28h3.81c.92,0,1.67,1.02,1.67,2.29v1.66c0,1.26-.75,2.28-1.67,2.28h-3.81c-.92,0-1.66-1.02-1.66-2.28v-1.67Z" style="fill: #0e0f2d;"/>
          <g>
            <path d="M236.8,140.24c0-1.26,.75-2.28,1.67-2.28h4.97c.92,0,1.67,1.02,1.67,2.29v-.08c0,1.26-.75,2.28-1.67,2.28h-4.98c-.92,0-1.66-1.02-1.66-2.28v.08Z" style="fill: #0e0f2d;"/>
            <path d="M216.76,140.24c0-1.26,.75-2.28,1.67-2.28h4.97c.92,0,1.67,1.02,1.67,2.29v-.08c0,1.26-.75,2.28-1.67,2.28h-4.98c-.92,0-1.66-1.02-1.66-2.28v.08Z" style="fill: #0e0f2d;"/>
          </g>
          <path d="M180.07,142.44h-18.52c-.92,0-1.67-1.02-1.67-2.28v-1.66c0-1.26,.75-2.28,1.67-2.28h41.75c.92,0,1.67,1.02,1.67,2.29v1.66c0,1.26-.75,2.28-1.67,2.28h-23.23Z" style="fill: #0e0f2d;"/>
          <path d="M142.61,138.5c0-1.26,.75-2.28,1.67-2.28h12.35c.92,0,1.67,1.02,1.67,2.28v1.66c0,1.26-.75,2.28-1.67,2.28h-12.35c-.92,0-1.67-1.02-1.67-2.28v-1.66Z" style="fill: #0e0f2d;"/>
        </g>
        <polygon points="250.85 149.85 119.61 149.85 119.61 146.72 250.85 146.72 250.85 149.85 250.85 149.85" style="fill: #bbbdbf;"/>
        <rect x="129.74" y="41.68" width="110.97" height="49.37" style="fill: #87c0f4;"/>
        <g>
          <path d="M212.67,83.67c0,.26-.17,.47-.37,.46l-54.4,.02c-.21,0-.37-.21-.37-.47V51.13c0-.26,.16-.47,.37-.47l54.39-.02c.21,0,.37,.21,.37,.46v32.56Z" style="fill: #f7fcef;"/>
          <path d="M209.21,82.4c-.21,0-.43-.06-.63-.18l-21.24-12.78c-1.19-.72-3.27-.72-4.46,0l-21.24,12.79c-.63,.38-1.43,.13-1.77-.56-.35-.69-.12-1.56,.51-1.94l21.24-12.79c1.96-1.18,5.02-1.18,6.98,0l21.24,12.78c.63,.38,.86,1.25,.51,1.94-.24,.47-.68,.74-1.15,.74h0Z" style="fill: #82bac9;"/>
          <path d="M212.27,52.77h-54.32c-.24,0-.43,.25-.43,.54v.02c.59,2.07,2.07,4.39,3.49,5.39l21.24,14.84c1.57,1.1,4.15,1.09,5.72,0l21.24-14.85c1.42-1,2.9-3.31,3.49-5.38v-.02c0-.3-.2-.54-.43-.54Z" style="fill: #82bac9;"/>
          <path d="M212.27,50.65h-54.32c-.24,.01-.43,.22-.43,.48v.02c.59,1.79,2.06,3.78,3.49,4.64l21.24,12.78c1.57,.95,4.15,.95,5.72,0l21.24-12.79c1.42-.86,2.9-2.85,3.49-4.64v-.02c0-.26-.19-.46-.43-.46Z" style="fill: #f7fcef;"/>
        </g>
        <path d="M219.57,52.16c0-3.69-3.27-6.67-7.3-6.67s-7.3,2.99-7.3,6.67,3.27,6.68,7.3,6.68,7.3-2.99,7.3-6.68Z" style="fill: #ee4e3b;"/>
        <g style="mix-blend-mode: screen; opacity: .44;">
          <polygon points="158.07 95.67 146.06 95.67 187.84 35.33 199.84 35.33 158.07 95.67" style="fill: #4da3b5;"/>
        </g>
        <g style="mix-blend-mode: screen; opacity: .44;">
          <polygon points="122.73 95.67 119.61 95.66 119.61 71.46 144.62 35.33 164.5 35.33 122.73 95.67" style="fill: #4da3b5;"/>
        </g>
        <g style="mix-blend-mode: screen; opacity: .44;">
          <polygon points="201.56 95.67 165.86 95.67 207.63 35.33 243.33 35.33 201.56 95.67" style="fill: #4da3b5;"/>
        </g>
        <g>
          <path d="M194.46,189.74s0-3.69,0-4.3c0-8.61,5.52-13.11,5.52-21.18v-12.62c0-3.17-2.57-5.74-5.73-5.74-1.71,0-3.25,.76-4.3,1.95v-1.01c0-3.17-2.57-5.73-5.73-5.73-1.78,0-3.37,.81-4.42,2.08-.54-2.61-2.85-4.57-5.62-4.57-1.71,0-3.25,.76-4.3,1.95v-23.5c0-3.16-2.57-5.73-5.73-5.73s-5.74,2.57-5.74,5.73v36.36l-.08,.11c-.4-.96-.76-1.82-1.03-2.45-2.92-6.74-11.34-10.65-16.16-5.67,6.47,7.47,7.34,10.58,7.53,21.2,0,0,6.48,11.89,9.32,16.17,3.94,2.4,4.98,3.91,5.23,6.96h31.25Z" style="fill: #f5a97b;"/>
          <rect x="160.02" y="189.14" width="36.76" height="12.89" style="fill: #f6e8e7;"/>
          <g style="opacity: .22;">
            <path d="M156.7,149.88c.6,1.08,1.74,3.85,1.74,3.85v11.53c0,.88-.72,1.6-1.6,1.6s-1.6-.72-1.6-1.6v-17.51s1,1.3,1.47,2.13Z" style="fill: #ee4e3b;"/>
          </g>
        </g>
        <g>
          <path d="M61.64,132.03c.03-.2,.1-.38,.14-.58,.09-.54,.22-1.08,.39-1.6,.61-1.99,11.57-19.99,11.57-19.99l19.83-16.94c.19,.11,.37,.23,.55,.35,4.61,2.8,8.3,7.18,9.73,12.81,0,0,5.9,23.33,5.95,23.54,1.29,5.24,.79,10.95-2.18,15.94l-11.98,20.12v91.94s-29.28-.97-29.28-.97v-95.35s-.38-.23-.38-.23c-3.56-2.12-5.45-5.95-5.27-9.82l.93-19.22Z" style="fill: #f5a97b;"/>
          <g style="opacity: .22;">
            <path d="M72.45,153.23c0,.89-.72,1.6-1.6,1.6s-1.6-.72-1.6-1.6v-14.25c0-.89,.72-1.6,1.6-1.6s1.6,.72,1.6,1.6v14.25Z" style="fill: #ee4e3b;"/>
          </g>
          <g>
            <path d="M7.26,86.48H96.29c4,0,7.25,3.25,7.25,7.25v36.38c0,4-3.25,7.25-7.25,7.25H7.25c-4,0-7.25-3.25-7.25-7.25v-36.38c0-4,3.25-7.26,7.26-7.26Z" style="fill: #ee4e3b;"/>
            <path d="M7.25,90.54H96.29c4,0,7.25,3.25,7.25,7.25v36.38c0,4-3.25,7.25-7.25,7.25H7.25c-4,0-7.25-3.25-7.25-7.25v-36.38c0-4,3.25-7.25,7.25-7.25Z" style="fill: #0e0f2d;"/>
            <rect x="16.37" y="94.5" width="75.59" height="42.96" style="fill: #72bdba;"/>
            <rect x="96.89" y="108.43" width="1.71" height="15.11" style="fill: #0e0f2d;"/>
            <path d="M8.19,108.43c-1.76,0-3.18,1.43-3.18,3.18v8.75c0,1.76,1.42,3.18,3.18,3.18s3.18-1.43,3.18-3.18v-8.75c0-1.76-1.42-3.18-3.18-3.18Z" style="fill: #bc9653;"/>
          </g>
          <path d="M100.27,181.59c0,2.13-1.73,3.86-3.86,3.86h-31.21c-2.13,0-3.86-1.73-3.86-3.86s1.73-3.86,3.86-3.86h31.21c2.13,0,3.86,1.73,3.86,3.86Z" style="fill: #f06251;"/>
          <path d="M100.27,195.05c0,2.13-1.73,3.86-3.86,3.86h-31.21c-2.13,0-3.86-1.73-3.86-3.86s1.73-3.86,3.86-3.86h31.21c2.13,0,3.86,1.73,3.86,3.86Z" style="fill: #f06251;"/>
          <g>
            <path d="M32.52,106.29h15.98c3.96,0,7.18,3.22,7.18,7.18v6.24c0,3.96-3.22,7.18-7.18,7.18h-15.98c-3.96,0-7.18-3.22-7.18-7.18v-6.25c0-3.96,3.22-7.18,7.18-7.18Z" style="fill: #f9b82d;"/>
            <polygon points="27.09 133.17 30.71 121.57 36.62 124.21 27.09 133.17" style="fill: #f9b82d;"/>
          </g>
          <g>
            <path d="M48.49,109.03c0,6.53,7.09,11.83,15.82,11.83s15.83-5.3,15.83-11.83-7.09-11.83-15.83-11.83-15.82,5.3-15.82,11.83Z" style="fill: #fac8c3;"/>
            <polygon points="77.95 126.66 74.33 115.06 68.42 117.7 77.95 126.66" style="fill: #fac8c3;"/>
          </g>
          <g style="mix-blend-mode: screen; opacity: .44;">
            <polygon points="49.21 141.46 19.08 141.46 54.33 90.54 84.46 90.54 49.21 141.46" style="fill: #4da3b5;"/>
          </g>
          <g style="mix-blend-mode: screen; opacity: .44;">
            <polygon points="14.65 141.46 8.18 141.46 43.44 90.54 49.91 90.54 14.65 141.46" style="fill: #4da3b5;"/>
          </g>
          <g style="mix-blend-mode: screen; opacity: .44;">
            <polygon points="0 129.43 0 111.32 14.39 90.54 26.93 90.54 0 129.43" style="fill: #4da3b5;"/>
          </g>
          <g>
            <rect x="62.42" y="212.86" width="36.76" height="183.64" style="fill: #82c4b4;"/>
            <g style="mix-blend-mode: multiply; opacity: .22;">
              <path d="M62.42,212.86v15.62c.23,.02,.46,.07,.7,.07,4.8,0,8.72-3.76,8.99-8.49h.05c.27,4.74,4.19,8.49,8.99,8.49s8.72-3.76,8.99-8.49h.05c.27,4.74,4.19,8.49,8.99,8.49v-15.69H62.42Z" style="fill: #1a3e66;"/>
            </g>
            <g>
              <path d="M90.17,212.86c0,4.98-4.04,9.01-9.02,9.01s-9.02-4.03-9.02-9.01h18.04Z" style="fill: #01a994;"/>
              <path d="M62.42,212.86v8.94c.23,.02,.46,.07,.7,.07,4.98,0,9.02-4.03,9.02-9.01h-9.71Z" style="fill: #01a994;"/>
              <path d="M99.19,212.86h-9.02c0,4.98,4.04,9.01,9.02,9.01v-9.01Z" style="fill: #01a994;"/>
            </g>
          </g>
          <path d="M96.1,97.33l2.24,.24v63.59s-14.17,.33-14.17,.33l-6.81-4.05c-3.56-2.12-5.07-5.95-4.89-9.81l.11-7.75c1.06-6.57,7.55-12.5,13.72-13.34l.27-19.93c.07-5.19,4.34-9.35,9.54-9.28Z" style="fill: #f5a97b;"/>
        </g>
        <g>
          <rect x="267.46" y="224.87" width="2.47" height="8.8" transform="translate(-64.2 347.32) rotate(-60)" style="fill: #f7fcef;"/>
          <rect x="249.43" y="214.46" width="2.47" height="8.8" transform="translate(-64.2 326.51) rotate(-60)" style="fill: #f7fcef;"/>
          <rect x="258.44" y="230.07" width="2.47" height="8.8" style="fill: #f7fcef;"/>
          <rect x="258.44" y="209.25" width="2.47" height="8.8" style="fill: #f7fcef;"/>
          <rect x="246.27" y="228.03" width="8.8" height="2.47" transform="translate(-81.06 156.08) rotate(-30.01)" style="fill: #f7fcef;"/>
          <rect x="264.29" y="217.62" width="8.8" height="2.47" transform="translate(-73.44 163.7) rotate(-30.01)" style="fill: #f7fcef;"/>
        </g>
        <g>
          <rect x="75.96" y="15.61" width="2.47" height="8.8" transform="translate(21.27 76.86) rotate(-60)" style="fill: #f7fcef;"/>
          <rect x="57.93" y="5.2" width="2.47" height="8.8" transform="translate(21.27 56.04) rotate(-60)" style="fill: #f7fcef;"/>
          <rect x="66.95" y="20.81" width="2.47" height="8.8" style="fill: #f7fcef;"/>
          <rect x="66.95" width="2.47" height="8.8" style="fill: #f7fcef;"/>
          <rect x="54.77" y="18.77" width="8.8" height="2.47" transform="translate(-2.08 32.25) rotate(-29.98)" style="fill: #f7fcef;"/>
          <rect x="72.8" y="8.37" width="8.8" height="2.47" transform="translate(5.53 39.86) rotate(-29.98)" style="fill: #f7fcef;"/>
        </g>
        <g>
          <rect x="96.76" y="44.89" width="2.47" height="10.83" style="fill: #f7fcef;"/>
          <rect x="92.58" y="49.07" width="10.83" height="2.47" style="fill: #f7fcef;"/>
        </g>
        <g>
          <rect x="27.81" y="350.44" width="2.47" height="10.83" style="fill: #f7fcef;"/>
          <rect x="23.63" y="354.62" width="10.83" height="2.47" style="fill: #f7fcef;"/>
        </g>
        <g>
          <rect x="45.17" y="200.22" width="2.47" height="10.83" style="fill: #f7fcef;"/>
          <rect x="40.99" y="204.4" width="10.83" height="2.47" style="fill: #f7fcef;"/>
        </g>
        <g>
          <rect x="239.48" y="350.44" width="2.47" height="10.83" style="fill: #f7fcef;"/>
          <rect x="235.3" y="354.62" width="10.83" height="2.47" style="fill: #f7fcef;"/>
        </g>
        <path d="M128.57,307.77c-2.32,0-4.64-.65-6.67-1.94-3.17-2.03-7.27-2.03-10.44,0-4.05,2.59-9.28,2.59-13.33,0-3.17-2.03-7.27-2.03-10.44,0-4.05,2.59-9.28,2.59-13.33,0-3.17-2.03-7.27-2.03-10.44,0-4.05,2.59-9.28,2.59-13.33,0l1.45-2.27c3.17,2.03,7.27,2.03,10.44,0,4.05-2.59,9.28-2.59,13.33,0,3.17,2.03,7.27,2.03,10.44,0,4.05-2.59,9.28-2.59,13.33,0,3.17,2.03,7.27,2.03,10.44,0,4.05-2.59,9.28-2.59,13.33,0,3.17,2.03,7.27,2.03,10.44,0l1.45,2.27c-2.03,1.29-4.35,1.94-6.67,1.94Z" style="fill: #f7fcef;"/>
        <path d="M142.72,220.01c-3.21,0-5.82-2.61-5.82-5.82s2.61-5.82,5.82-5.82,5.82,2.61,5.82,5.82-2.61,5.82-5.82,5.82Zm0-9.17c-1.85,0-3.35,1.5-3.35,3.35s1.5,3.35,3.35,3.35,3.35-1.5,3.35-3.35-1.5-3.35-3.35-3.35Z" style="fill: #f7fcef;"/>
        <path d="M197.41,322.96c-3.21,0-5.82-2.61-5.82-5.82s2.61-5.82,5.82-5.82,5.82,2.61,5.82,5.82-2.61,5.82-5.82,5.82Zm0-9.17c-1.85,0-3.35,1.5-3.35,3.35s1.5,3.35,3.35,3.35,3.35-1.5,3.35-3.35-1.5-3.35-3.35-3.35Z" style="fill: #f7fcef;"/>
        <path d="M198.38,15.42c-3.21,0-5.82-2.61-5.82-5.82s2.61-5.82,5.82-5.82,5.82,2.61,5.82,5.82-2.61,5.82-5.82,5.82Zm0-9.17c-1.85,0-3.35,1.5-3.35,3.35s1.5,3.35,3.35,3.35,3.35-1.5,3.35-3.35-1.5-3.35-3.35-3.35Z" style="fill: #f7fcef;"/>
        <polygon points="160.02 396.51 196.78 396.51 196.77 189.14 160.02 189.14 160.02 396.51" style="fill: #f06251;"/>
        <g>
          <rect x="190.56" y="189.14" width="2.89" height="17.56" style="fill: #db3333;"/>
          <rect x="183.76" y="189.14" width="2.89" height="17.56" style="fill: #db3333;"/>
          <rect x="176.95" y="189.14" width="2.89" height="17.56" style="fill: #db3333;"/>
          <rect x="170.14" y="189.14" width="2.89" height="17.56" style="fill: #db3333;"/>
          <rect x="163.34" y="189.14" width="2.89" height="17.56" style="fill: #db3333;"/>
        </g>
      </g>
    </g>
  </g>
</svg>