<?xml version="1.0" encoding="UTF-8"?>
<svg id="Capa_1" data-name="Capa 1" xmlns="http://www.w3.org/2000/svg" viewBox="0 0 400 313">
  <rect x="0" y="0" width="400" height="313" style="fill: #d8d8d8;"/>
  <g>
    <path d="M190.27,116.22c0,4.52,3.25,8.28,7.54,9.08-7.12-6.91,1.18-13.11,1.59-18.02,.1,2.74-.53,4.62-1,6.93-.26,1.31-.43,3.92,.46,5.42,1.26,2.12,4.55,1.23,3.07-2.14,4.31,1.64,2.6,5.9,.43,7.53,3.71-1.2,6.39-4.68,6.39-8.79,0-.94-.1-1.79-.34-2.58-.41-1.33-1.26-2.76-2.31-3.66-.09,3.17-2.75,3.19-3.24,1.49-.27-.92,.31-2.75,.45-3.74,.54-3.73-1.82-6.06-4.8-7.59,1.85,4.02-5.08,5.63-4.49,12.62,.27,3.21-2.45,2.23-1.51-1.17,.15-.55,.35-1.09,.53-1.65-1.88,1.75-2.75,3.7-2.75,6.28h0Z" style="fill: #545454; fill-rule: evenodd;"/>
    <g>
      <path d="M154.13,197.25c1.82-.32,3.65-.62,5.47-.89,.65-.1,1.24,.04,1.77,.42,.53,.38,.84,.89,.94,1.53,.08,.55-.04,1.06-.33,1.53-.3,.48-.72,.8-1.24,.98,.79,.98,1.58,1.96,2.36,2.95-.55,.08-1.09,.16-1.63,.24-.77-.97-1.56-1.93-2.35-2.89-.92,.15-1.85,.3-2.77,.45,.18,1.06,.35,2.11,.53,3.16-.47,.08-.94,.16-1.41,.24-.45-2.58-.9-5.15-1.35-7.73h0Zm1.98,2.93c1.33-.23,2.65-.44,3.98-.64,.25-.04,.45-.16,.6-.35,.15-.2,.21-.43,.17-.67-.04-.25-.16-.45-.36-.59-.21-.15-.43-.2-.68-.16-1.33,.21-2.68,.42-4.01,.65,.1,.59,.2,1.19,.3,1.77h0Z" style="fill: #545454;"/>
      <path d="M171.98,201.23l.7,1.34c-2.55,.27-5.1,.58-7.65,.92-.35-2.59-.7-5.18-1.06-7.77,2.63-.35,5.25-.67,7.88-.95,.05,.47,.1,.94,.15,1.41-2.14,.23-4.27,.48-6.4,.76,.08,.6,.16,1.19,.23,1.79,1.01-.13,2.04-.26,3.05-.38,.24,.45,.48,.89,.72,1.34-1.2,.14-2.39,.29-3.59,.44,.08,.6,.16,1.19,.23,1.79,1.91-.25,3.82-.48,5.73-.68h0Z" style="fill: #545454;"/>
      <path d="M173.6,197.22c-.06-.35-.06-.69,0-.99,.07-.3,.19-.55,.36-.76,.17-.21,.4-.4,.68-.56,.28-.16,.58-.29,.9-.4,.32-.1,.67-.18,1.06-.26,.67-.12,1.63-.2,2.85-.23,.36,0,.62-.01,.75-.02,.04,.49,.07,.98,.11,1.46-.11,0-.39,.01-.82,.03-1.17,.03-2.05,.1-2.65,.21-.27,.05-.52,.11-.74,.17-.22,.07-.42,.15-.6,.26-.18,.1-.31,.22-.39,.35-.08,.14-.11,.29-.07,.46,.01,.09,.06,.18,.14,.25,.08,.06,.18,.12,.33,.15,.14,.03,.28,.06,.41,.07,.13,.01,.31,.01,.54,0,.23,0,.43-.02,.57-.03,.14,0,.35-.02,.63-.04,.42-.04,.74-.06,.96-.06h.86c.35,.01,.63,.05,.82,.12,.19,.06,.4,.16,.61,.29,.21,.12,.37,.3,.48,.53,.1,.22,.16,.49,.19,.8,.03,.42-.03,.79-.18,1.13-.15,.33-.33,.61-.56,.83-.23,.21-.54,.4-.93,.57s-.75,.29-1.09,.38c-.33,.09-.75,.16-1.24,.21s-.89,.1-1.19,.12c-.3,.02-.67,.04-1.11,.06-.08,0-.16,0-.23,0-.03-.48-.05-.97-.07-1.45,.05,0,.13,0,.23-.01,.23-.01,.4-.02,.54-.03,.13,0,.33-.01,.6-.04,.27-.01,.49-.04,.66-.06,.17-.02,.39-.04,.65-.08s.48-.07,.65-.12,.37-.1,.57-.16c.21-.06,.38-.13,.52-.21s.26-.18,.38-.28,.21-.21,.26-.35c.05-.13,.07-.28,.06-.43,0-.07-.03-.14-.09-.2s-.15-.09-.28-.12-.25-.04-.36-.06c-.11-.01-.28-.01-.49-.01-.21,0-.38,.01-.52,.02s-.33,.02-.57,.04c-.43,.03-.75,.05-.97,.06-.21,.01-.5,.01-.87,.01s-.65-.04-.85-.1-.43-.15-.66-.27c-.23-.11-.43-.28-.56-.5-.13-.22-.23-.48-.3-.78v.02Z" style="fill: #545454;"/>
      <path d="M185.46,195.1c-1.07,.06-2.14,.12-3.21,.19-.03-.47-.06-.94-.09-1.41,2.64-.18,5.28-.31,7.92-.41,.02,.47,.04,.94,.05,1.41-1.07,.04-2.14,.09-3.21,.13,.11,2.14,.21,4.28,.31,6.42-.47,.02-.94,.05-1.41,.07-.11-2.14-.23-4.28-.35-6.42h0Z" style="fill: #545454;"/>
      <path d="M198.09,201.14c-.49,0-.98,0-1.48,.01-.23-.59-.45-1.19-.68-1.77-1.16,.01-2.31,.04-3.46,.08-.2,.6-.4,1.2-.6,1.8-.49,.01-.98,.03-1.48,.05,.86-2.65,1.75-5.29,2.65-7.93,.68-.01,1.36-.03,2.04-.04,1.03,2.6,2.03,5.2,2.99,7.81h.01Zm-5.13-3.12c.81-.02,1.62-.04,2.43-.05-.42-1.07-.84-2.14-1.28-3.21-.39,1.09-.77,2.18-1.15,3.26h0Z" style="fill: #545454;"/>
      <path d="M199.04,193.29h1.46c0,1.33,0,2.68-.01,4.02,0,.66,.24,1.23,.72,1.71s1.05,.72,1.72,.72,1.25-.22,1.74-.69,.75-1.03,.76-1.69c.03-1.33,.06-2.68,.09-4.01,.49,0,.97,.02,1.46,.04-.04,1.33-.07,2.68-.11,4.01-.02,.69-.21,1.33-.57,1.9s-.84,1.03-1.44,1.36c-.6,.33-1.24,.49-1.94,.48s-1.33-.18-1.92-.53-1.06-.81-1.41-1.4c-.35-.59-.53-1.23-.53-1.92,0-1.33,0-2.68-.01-4.02h0Z" style="fill: #545454;"/>
      <path d="M209.11,193.46c1.84,.06,3.68,.15,5.52,.25,.65,.04,1.21,.3,1.65,.77,.44,.48,.64,1.04,.6,1.68-.04,.55-.25,1.03-.65,1.43-.39,.4-.87,.64-1.41,.7,.57,1.12,1.14,2.24,1.7,3.37-.55-.04-1.09-.07-1.64-.1-.56-1.11-1.13-2.21-1.7-3.31-.93-.05-1.87-.09-2.8-.13-.04,1.07-.09,2.14-.13,3.21-.47-.02-.94-.04-1.41-.05,.09-2.61,.18-5.22,.28-7.84h0Zm1.33,3.29c1.34,.06,2.68,.12,4.02,.19,.25,.01,.48-.06,.66-.23,.19-.16,.29-.38,.31-.62,.01-.25-.06-.47-.23-.65s-.38-.28-.63-.3c-1.35-.08-2.7-.14-4.04-.19-.03,.6-.05,1.2-.07,1.8h0Z" style="fill: #545454;"/>
      <path d="M225.56,202.43c-.49-.05-.98-.1-1.47-.14-.16-.61-.33-1.22-.49-1.83-1.15-.11-2.31-.21-3.46-.3-.26,.57-.53,1.15-.79,1.72-.49-.04-.98-.07-1.47-.11,1.14-2.54,2.3-5.07,3.48-7.6,.67,.06,1.36,.11,2.04,.18,.75,2.69,1.46,5.39,2.15,8.08h0Zm-4.78-3.64c.81,.06,1.61,.13,2.42,.21-.31-1.11-.62-2.22-.93-3.34-.5,1.04-1,2.09-1.49,3.13h0Z" style="fill: #545454;"/>
      <path d="M229.27,197.1c-.21,1.89-.43,3.77-.64,5.66-.47-.05-.94-.11-1.41-.16,.28-2.6,.55-5.2,.83-7.8,.48,.05,.97,.11,1.45,.16,1.45,2.07,2.85,4.16,4.23,6.25,.25-1.88,.5-3.76,.74-5.64,.49,.06,.97,.13,1.46,.2-.35,2.59-.71,5.18-1.06,7.77-.48-.06-.94-.13-1.42-.19-1.36-2.09-2.75-4.17-4.19-6.24h0Z" style="fill: #545454;"/>
      <path d="M240.65,197.88c-1.06-.16-2.13-.33-3.19-.48,.06-.47,.13-.93,.2-1.4,2.63,.38,5.24,.79,7.86,1.25-.08,.46-.16,.93-.24,1.39-1.06-.18-2.12-.36-3.19-.53-.34,2.11-.69,4.23-1.03,6.34-.47-.08-.94-.15-1.41-.22,.33-2.11,.66-4.24,.99-6.35h0Z" style="fill: #545454;"/>
    </g>
    <path d="M284.84,119.75c1.33,0,2.13-1.13,2.13-1.94,0-.33-.13-.6-.42-.72,.16-.25,.4-.37,.64-.37,.29,0,.57,.18,.7,.53h.11c.06-.23,.1-.47,.1-.69,0-.53-.2-1-.74-1.15,.2-.43,.6-.65,.99-.65,.55,0,1.09,.43,1.09,1.36,0,.43-.11,.95-.39,1.58,.23-.02,.46-.04,.67-.04,2.21,0,2.98,1.16,2.98,2.1,0,.58-.29,1.09-.7,1.19,0,0-.35-1.44-1.79-1.44-.65,0-1.27,.38-2.19,.38-.26,0-.55-.03-.87-.11-.54,.54-1.26,.88-2.04,.95h.01s-.28,.01-3.41,.01c-4.46,0-46.19,0-69.68,0v-.98h72.8Z" style="fill: #545454;"/>
    <path d="M112.7,119.75c-1.33,0-2.13-1.13-2.13-1.94,0-.33,.13-.6,.42-.72-.16-.25-.4-.37-.64-.37-.29,0-.57,.18-.7,.53h-.11c-.06-.23-.1-.47-.1-.69,0-.53,.2-1,.74-1.15-.2-.43-.6-.65-.99-.65-.55,0-1.09,.43-1.09,1.36,0,.43,.11,.95,.38,1.58-.23-.02-.46-.04-.67-.04-2.22,0-2.98,1.16-2.98,2.1,0,.58,.28,1.09,.7,1.19,0,0,.35-1.44,1.79-1.44,.65,0,1.27,.38,2.19,.38,.26,0,.55-.03,.87-.11,.54,.54,1.26,.88,2.04,.95h-.01s.28,.01,3.41,.01c4.46,0,46.19,0,69.68,0v-.98H112.7Z" style="fill: #545454;"/>
    <path d="M104.86,205.86c0,3.66,2.94,6.79,6.84,6.79,1.72,0,2.97-.33,3-.33h0s-.09,.04-.29,.1h.05c.31,0,.67,.17,.96,.17,.19,0,.35-.08,.45-.33,.81,.1,1.09,.43,1.09,.43,.16-.12,.24-.29,.24-.45,0-.21-.14-.42-.48-.5,3.79-1.33,7.25-3.85,11.33-6.07-.08,.12-.11,.24-.11,.35,0,.33,.28,.62,.62,.62,.43,0,.59-.49,.65-.91,.09,.3,.28,.43,.48,.43s.4-.14,.45-.38c-.28-.01-.42-.26-.44-.56h.07c.26,0,.44-.21,.44-.44,0-.06-.01-.12-.04-.18,3.66-1.75,7.89-3.1,13.2-3.1h.26v-.69h-.26c-6.25,0-11.02,1.82-15.12,3.98-2.82-.04-4.78-.6-6.36-1.14-.23-.27-.42-.55-.68-.55-.09,0-.18,.03-.28,.1-.59-.56-.61-1.01-.61-1.01-.31,.01-.55,.21-.55,.49,0,.09,.02,.18,.07,.27-.5-.15-1.01-.26-1.54-.26-1.88,0-3.41,1.53-3.41,3.4,0,1.5,1.19,2.73,2.68,2.78h0s.08,0,.96,.06c-.43-.16-.87-.68-.87-1.09,0-.16,.06-.28,.19-.38-.11-.11-.25-.16-.38-.16-.25,0-.49,.19-.5,.52-.11-.26-.14-.44-.14-.57,0-.09,.02-.23,.02-.25,0-.32-.27-.53-.53-.53-.24,0-.48,.18-.48,.63h0c-.18-.32-.27-.69-.27-1.05,0-1.32,1.11-2.68,2.71-2.68,1.84,0,4.12,1.73,8.77,2.04-5.58,3.12-9.86,6.52-15.35,6.52-3.53,0-6.16-2.82-6.16-6.1,0-2.69,2.18-4.83,4.82-4.83,2.38,0,3.79,1.96,3.79,3.77,0,1.2-.62,2.33-1.99,2.81-.14-.21-.25-.47-.25-.7,0-.19,.08-.36,.27-.45-.11-.16-.27-.23-.43-.23-.25,0-.49,.18-.52,.55-.09-.23-.16-.48-.16-.71,0-.34,.13-.63,.48-.75-.15-.28-.42-.42-.68-.42-.38,0-.75,.3-.75,.9,0,.31,.1,.7,.34,1.19h-.2c-1.71,0-2.28,.83-2.28,1.52,0,.44,.23,.82,.54,.88,0,0,.2-1.08,1.28-1.08,.47,0,.68,.18,1.38,.18,1.85,0,3.65-1.52,3.65-3.66,0-2.44-1.98-4.47-4.48-4.47-3.01,0-5.5,2.44-5.5,5.51h0Z" style="fill: #757575;"/>
    <path d="M292.69,206.03c0,3.66-2.94,6.79-6.84,6.79-1.72,0-2.97-.33-3-.33h0s.09,.03,.29,.1h-.05c-.31,0-.67,.16-.96,.16-.19,0-.35-.08-.45-.33-.81,.1-1.09,.44-1.09,.44-.16-.12-.24-.29-.24-.45,0-.21,.14-.42,.48-.5-3.79-1.33-7.25-3.85-11.33-6.07,.08,.12,.11,.24,.11,.35,0,.33-.29,.61-.62,.61-.43,0-.59-.49-.65-.91-.09,.3-.28,.43-.48,.43s-.4-.14-.45-.38c.28-.02,.42-.26,.44-.56h-.07c-.25,0-.44-.21-.44-.44,0-.06,.01-.12,.04-.18-3.66-1.75-7.89-3.1-13.19-3.1h-.26v-.69h.26c6.25,0,11.02,1.82,15.12,3.98,2.81-.04,4.78-.6,6.36-1.14,.23-.27,.42-.55,.69-.55,.09,0,.18,.03,.28,.1,.59-.56,.61-1,.61-1,.31,0,.55,.21,.55,.49,0,.09-.02,.18-.08,.27,.5-.15,1.01-.26,1.54-.26,1.87,0,3.4,1.53,3.4,3.4,0,1.5-1.19,2.73-2.68,2.79h0s-.08,0-.96,.06c.43-.16,.87-.68,.87-1.09,0-.15-.06-.28-.19-.38,.11-.11,.25-.16,.38-.16,.25,0,.48,.19,.5,.52,.11-.25,.14-.44,.14-.57,0-.09-.02-.23-.02-.25,0-.32,.27-.53,.53-.53,.24,0,.48,.18,.48,.63h0c.18-.32,.27-.69,.27-1.06,0-1.31-1.11-2.68-2.72-2.68-1.83,0-4.12,1.73-8.76,2.04,5.58,3.12,9.86,6.52,15.35,6.52,3.53,0,6.16-2.82,6.16-6.1,0-2.69-2.18-4.83-4.81-4.83-2.37,0-3.79,1.96-3.79,3.77,0,1.19,.62,2.33,1.99,2.81,.14-.21,.25-.47,.25-.69,0-.19-.08-.36-.27-.45,.11-.16,.27-.23,.43-.23,.25,0,.49,.19,.52,.55,.09-.23,.16-.48,.16-.71,0-.34-.13-.64-.48-.75,.15-.28,.42-.43,.68-.43,.38,0,.75,.29,.75,.9,0,.31-.1,.7-.34,1.19h.2c1.71,0,2.27,.83,2.27,1.52,0,.44-.23,.82-.54,.88,0,0-.2-1.08-1.28-1.08-.47,0-.68,.18-1.38,.18-1.85,0-3.65-1.52-3.65-3.66,0-2.44,1.99-4.47,4.48-4.47,3.01,0,5.5,2.44,5.5,5.51v.02Z" style="fill: #757575;"/>
    <g>
      <path d="M104.86,205.86c0,3.66,2.94,6.79,6.84,6.79,1.72,0,2.97-.33,3-.33h0s-.09,.04-.29,.1h.05c.31,0,.67,.17,.96,.17,.19,0,.35-.08,.45-.33,.81,.1,1.09,.43,1.09,.43,.16-.12,.24-.29,.24-.45,0-.21-.14-.42-.48-.5,3.79-1.33,7.25-3.85,11.33-6.07-.08,.12-.11,.24-.11,.35,0,.33,.28,.62,.62,.62,.43,0,.59-.49,.65-.91,.09,.3,.28,.43,.48,.43s.4-.14,.45-.38c-.28-.01-.42-.26-.44-.56h.07c.26,0,.44-.21,.44-.44,0-.06-.01-.12-.04-.18,3.66-1.75,7.89-3.1,13.2-3.1h.26v-.69h-.26c-6.25,0-11.02,1.82-15.12,3.98-2.82-.04-4.78-.6-6.36-1.14-.23-.27-.42-.55-.68-.55-.09,0-.18,.03-.28,.1-.59-.56-.61-1.01-.61-1.01-.31,.01-.55,.21-.55,.49,0,.09,.02,.18,.07,.27-.5-.15-1.01-.26-1.54-.26-1.88,0-3.41,1.53-3.41,3.4,0,1.5,1.19,2.73,2.68,2.78h0s.08,0,.96,.06c-.43-.16-.87-.68-.87-1.09,0-.16,.06-.28,.19-.38-.11-.11-.25-.16-.38-.16-.25,0-.49,.19-.5,.52-.11-.26-.14-.44-.14-.57,0-.09,.02-.23,.02-.25,0-.32-.27-.53-.53-.53-.24,0-.48,.18-.48,.63h0c-.18-.32-.27-.69-.27-1.05,0-1.32,1.11-2.68,2.71-2.68,1.84,0,4.12,1.73,8.77,2.04-5.58,3.12-9.86,6.52-15.35,6.52-3.53,0-6.16-2.82-6.16-6.1,0-2.69,2.18-4.83,4.82-4.83,2.38,0,3.79,1.96,3.79,3.77,0,1.2-.62,2.33-1.99,2.81-.14-.21-.25-.47-.25-.7,0-.19,.08-.36,.27-.45-.11-.16-.27-.23-.43-.23-.25,0-.49,.18-.52,.55-.09-.23-.16-.48-.16-.71,0-.34,.13-.63,.48-.75-.15-.28-.42-.42-.68-.42-.38,0-.75,.3-.75,.9,0,.31,.1,.7,.34,1.19h-.2c-1.71,0-2.28,.83-2.28,1.52,0,.44,.23,.82,.54,.88,0,0,.2-1.08,1.28-1.08,.47,0,.68,.18,1.38,.18,1.85,0,3.65-1.52,3.65-3.66,0-2.44-1.98-4.47-4.48-4.47-3.01,0-5.5,2.44-5.5,5.51h0Z" style="fill: #545454;"/>
      <path d="M292.69,206.03c0,3.66-2.94,6.79-6.84,6.79-1.72,0-2.97-.33-3-.33h0s.09,.03,.29,.1h-.05c-.31,0-.67,.16-.96,.16-.19,0-.35-.08-.45-.33-.81,.1-1.09,.44-1.09,.44-.16-.12-.24-.29-.24-.45,0-.21,.14-.42,.48-.5-3.79-1.33-7.25-3.85-11.33-6.07,.08,.12,.11,.24,.11,.35,0,.33-.29,.61-.62,.61-.43,0-.59-.49-.65-.91-.09,.3-.28,.43-.48,.43s-.4-.14-.45-.38c.28-.02,.42-.26,.44-.56h-.07c-.25,0-.44-.21-.44-.44,0-.06,.01-.12,.04-.18-3.66-1.75-7.89-3.1-13.19-3.1h-.26v-.69h.26c6.25,0,11.02,1.82,15.12,3.98,2.81-.04,4.78-.6,6.36-1.14,.23-.27,.42-.55,.69-.55,.09,0,.18,.03,.28,.1,.59-.56,.61-1,.61-1,.31,0,.55,.21,.55,.49,0,.09-.02,.18-.08,.27,.5-.15,1.01-.26,1.54-.26,1.87,0,3.4,1.53,3.4,3.4,0,1.5-1.19,2.73-2.68,2.79h0s-.08,0-.96,.06c.43-.16,.87-.68,.87-1.09,0-.15-.06-.28-.19-.38,.11-.11,.25-.16,.38-.16,.25,0,.48,.19,.5,.52,.11-.25,.14-.44,.14-.57,0-.09-.02-.23-.02-.25,0-.32,.27-.53,.53-.53,.24,0,.48,.18,.48,.63h0c.18-.32,.27-.69,.27-1.06,0-1.31-1.11-2.68-2.72-2.68-1.83,0-4.12,1.73-8.76,2.04,5.58,3.12,9.86,6.52,15.35,6.52,3.53,0,6.16-2.82,6.16-6.1,0-2.69-2.18-4.83-4.81-4.83-2.37,0-3.79,1.96-3.79,3.77,0,1.19,.62,2.33,1.99,2.81,.14-.21,.25-.47,.25-.69,0-.19-.08-.36-.27-.45,.11-.16,.27-.23,.43-.23,.25,0,.49,.19,.52,.55,.09-.23,.16-.48,.16-.71,0-.34-.13-.64-.48-.75,.15-.28,.42-.43,.68-.43,.38,0,.75,.29,.75,.9,0,.31-.1,.7-.34,1.19h.2c1.71,0,2.27,.83,2.27,1.52,0,.44-.23,.82-.54,.88,0,0-.2-1.08-1.28-1.08-.47,0-.68,.18-1.38,.18-1.85,0-3.65-1.52-3.65-3.66,0-2.44,1.99-4.47,4.48-4.47,3.01,0,5.5,2.44,5.5,5.51v.02Z" style="fill: #545454;"/>
    </g>
    <g>
      <g>
        <path d="M104,186.16c-5.17,.98-10.33,2.03-15.48,3.16v-2.23s3.23-2.93,3.25-7.8c.01-4.14,.03-8.29,.04-12.44-2.63,.33-5.25,.68-7.88,1.04,0,4.28-.02,8.56-.03,12.83-.01,5.07,3.21,6.66,3.21,6.66h0v2.24c-5.15,1.16-10.29,2.38-15.41,3.68v-2.38s3.21-3.19,3.22-8.42c0-5.28,0-10.55,0-15.83-.79-.84-1.59-1.7-2.38-2.56,.79-1.06,1.6-2.12,2.39-3.16,0-5.29,0-10.57,0-15.85,0-5.22-3.24-7.59-3.24-7.59v-2.38c5.19-.02,10.37-.04,15.56-.06v2.24h0s-3.25,2.33-3.26,7.4c0,4.28-.01,8.56-.03,12.83,2.63-.25,5.26-.49,7.88-.72,.01-4.14,.03-8.3,.04-12.44,.01-4.88-3.22-7.08-3.22-7.09v-2.22c5.19-.01,10.37-.04,15.56-.05,0,.7,0,1.4,0,2.09h0s-3.26,2.18-3.28,6.93c-.02,4.76-.04,9.53-.06,14.3,.79,.79,1.59,1.57,2.38,2.35-.8,.93-1.6,1.87-2.41,2.82-.02,4.75-.04,9.52-.06,14.28-.02,4.74,3.21,6.29,3.21,6.29h0c0,.7,0,1.41,0,2.1h0Z" style="fill: #545454;"/>
        <path d="M138.3,180.83c-9.23,1.12-18.43,2.49-27.62,4.1,0-.68,0-1.36,0-2.05,0,0,3.24-2.61,3.28-7.1,.02-4.54,.05-9.09,.07-13.63-.79-.75-1.59-1.5-2.38-2.26,.8-.9,1.61-1.79,2.41-2.68,.03-4.55,.05-9.1,.07-13.66,.01-4.48-3.21-6.52-3.21-6.53,0-.68,0-1.36,.01-2.04,9.21-.02,18.42-.04,27.63-.06,.63,3.9,1.27,7.79,1.9,11.66-.66,.02-1.31,.04-1.97,.06h0s0,0,0,0c0,0-1.99-3.04-6.39-2.93-2.97,.08-5.94,.16-8.91,.26-.02,3.49-.04,6.98-.06,10.48,1.17-.07,2.33-.15,3.51-.22,4.39-.28,6.42-3.53,6.42-3.53,.66-.03,1.32-.06,1.98-.09-.03,4.99-.06,9.98-.09,14.97-.66,.06-1.32,.11-1.97,.17,0,0-1.99-2.97-6.39-2.61-1.16,.1-2.32,.21-3.48,.31-.02,3.48-.04,6.98-.06,10.45,2.97-.36,5.93-.71,8.91-1.04,4.12-.46,6.44-3.77,6.44-3.76h0c.66-.06,1.32-.12,1.98-.18-.68,3.95-1.36,7.91-2.05,11.9h0Z" style="fill: #545454;"/>
        <path d="M176.81,145.79c-.65,0-1.31,.01-1.96,.02h0s0,0,0,0c0,0-2-2.87-6.41-2.82-2.97,.04-5.94,.08-8.91,.13-.01,3.19-.03,6.38-.04,9.57,1.17-.04,2.34-.08,3.51-.11,4.39-.15,6.42-3.11,6.42-3.11,.66-.01,1.32-.03,1.98-.04-.01,4.63-.04,9.26-.05,13.89-.66,.03-1.32,.05-1.98,.08,0,0-2.01-2.84-6.42-2.65-1.16,.05-2.33,.11-3.49,.16-.02,3.4-.04,6.8-.06,10.2,0,3.97,3.24,5.54,3.24,5.54h0c0,.6,0,1.19,0,1.79-5.21,.38-10.42,.85-15.62,1.39,0-.62,0-1.23,0-1.85h0s3.26-2.19,3.29-6.24c.02-4.1,.04-8.21,.06-12.31-.79-.7-1.6-1.4-2.4-2.1,.81-.79,1.61-1.57,2.42-2.35,.02-4.11,.04-8.22,.06-12.33,.01-4.06-3.21-5.9-3.21-5.91,0-.61,0-1.23,.01-1.85,9.21-.01,18.42-.02,27.63-.03,.65,3.64,1.29,7.28,1.94,10.91h0Z" style="fill: #545454;"/>
        <path d="M211.26,177.13c-9.26-.18-18.52-.11-27.78,.21v-1.74s3.26-1.87,3.28-5.72c0-3.9,.01-7.79,.02-11.69-.8-.7-1.6-1.38-2.41-2.08,.8-.72,1.61-1.43,2.41-2.15,0-3.9,.01-7.81,.02-11.71,0-3.86-3.24-5.62-3.24-5.62v-1.75h27.63c.66,3.6,1.33,7.2,1.99,10.8-.66,0-1.32,0-1.98-.01h0s0,0,0,0c0,0-2.02-2.86-6.42-2.87h-8.91v9.22c1.17,0,2.34,0,3.51,0,4.4-.01,6.41-2.85,6.41-2.86,.66,0,1.32,0,1.98,0,0,4.54,0,9.09,.01,13.63-.66,0-1.32,0-1.98-.01,0,0-2.02-2.86-6.44-2.85-1.16,0-2.33,0-3.5,.01,0,3.07,0,6.13,0,9.2,2.98-.03,5.96-.03,8.95-.01,4.14,.03,6.44-2.77,6.44-2.78h0c.66,0,1.32,.02,1.98,.04-.65,3.58-1.31,7.17-1.97,10.76h0Z" style="fill: #545454;"/>
        <path d="M234.26,178.62c-8.74-.57-13.11-4.53-13.13-10.01,0-3.13-.01-6.25-.02-9.38,3.04,1.61,6.07,3.24,9.1,4.92,0,1.16,0,2.33,.01,3.5,0,1.78,1.34,2.73,4,2.87,2.64,.14,3.95-.68,3.95-2.48,0-1.26-.01-2.52-.01-3.78,0-1.35-1.44-2.93-4.23-4.69-.88,.17-1.76,.35-2.63,.53-.23-.79-.48-1.59-.71-2.38-.33-.16-.62-.32-.97-.48-5.68-2.69-8.53-5.76-8.54-9.37,0-1.4,0-2.8-.01-4.19-.01-5.46,4.31-9.32,12.98-9.32,8.69-.02,13.06,3.99,13.09,9.69,.01,3.01,.03,6.02,.04,9.03-3.04-1.79-6.07-3.54-9.1-5.26,0-.87,0-1.74-.01-2.61,0-1.79-1.33-2.71-3.96-2.75h-.06c-2.6-.03-3.91,.85-3.9,2.63,0,.94,0,1.87,0,2.81,0,1.53,2.16,3.39,6.48,5.66,.89-.2,1.79-.4,2.69-.6,.24,.79,.49,1.57,.74,2.36,4.75,2.6,7.16,5.63,7.17,8.95,0,1.89,.02,3.78,.03,5.68,.03,5.72-4.3,9.27-13.01,8.68h.02Z" style="fill: #545454;"/>
        <path d="M290.78,147.71c-.66-.04-1.31-.06-1.97-.09,0,0-2.03-3.43-6.43-3.55-1.65-.06-3.31-.11-4.97-.16,.03,4.17,.05,8.35,.07,12.53,.8,.84,1.61,1.7,2.42,2.56-.79,.74-1.6,1.47-2.39,2.2,.03,4.39,.05,8.77,.08,13.16,.03,4.34,3.29,6.81,3.29,6.82h0c0,.66,0,1.32,.01,1.98-5.18-.8-10.37-1.53-15.57-2.16,0-.63,0-1.26-.01-1.89h0s3.24-1.53,3.21-5.79c-.03-4.27-.05-8.54-.07-12.82-.81-.83-1.62-1.65-2.42-2.48,.79-.72,1.6-1.44,2.39-2.16-.02-4.07-.05-8.13-.07-12.19-1.66-.04-3.31-.09-4.97-.12-4.4-.1-6.39,2.9-6.39,2.9-.66-.02-1.32-.04-1.98-.06,.64-3.8,1.28-7.63,1.91-11.47,10.61,.01,21.22,.04,31.83,.06,.68,4.22,1.36,8.46,2.04,12.72h0Z" style="fill: #545454;"/>
        <path d="M325.9,160.64c0-5.13,0-10.27-.01-15.4,0-7.37-4.35-11.03-13.05-10.99-8.67,.04-12.99,3.34-12.96,9.92,.02,4.63,.04,9.26,.06,13.89-.79,.79-1.59,1.57-2.38,2.33,.8,.92,1.6,1.85,2.41,2.8,.02,4.61,.04,9.23,.06,13.85,.03,6.61,4.37,10.71,12.98,12.62,8.63,1.94,12.92-.61,12.92-8,0-5.12,0-10.23-.01-15.35,.79-.84,1.6-1.69,2.38-2.55-.79-1.06-1.6-2.11-2.39-3.14h0Zm-8.99,16.22c0,2.29-1.31,3.18-3.94,2.7-2.61-.48-3.92-1.8-3.93-4.01-.04-9.33-.06-18.66-.1-27.99,0-2.21,1.29-3.26,3.9-3.16h.06c2.63,.12,3.94,1.31,3.95,3.58,.02,9.62,.04,19.25,.07,28.88h0Z" style="fill: #545454;"/>
      </g>
      <g>
        <path d="M259.1,139.25c-.04,.21-.09,.42-.12,.63,4.48,.06,8.96,.12,13.45,.19,.1,12.45,.21,24.9,.31,37.35,.24,.03,.48,.06,.72,.09-.1-12.48-.21-24.96-.31-37.43,4.48,.07,8.96,.15,13.44,.23-.07-.23-.14-.46-.21-.69-9.09-.15-18.18-.28-27.27-.38h0Z" style="fill: #c1c1c1;"/>
        <path d="M154.47,139.12c-.09,11.96-.17,23.92-.26,35.89,.24-.02,.48-.04,.72-.06,.04-5.85,.09-11.7,.12-17.55,4.14-.18,8.27-.34,12.41-.48v-.6c-4.14,.13-8.28,.28-12.42,.46,.04-5.68,.09-11.37,.12-17.05,5.83-.06,11.65-.1,17.49-.14-.06-.2-.12-.4-.18-.6-6.01,.04-12.01,.08-18.02,.13h.01Z" style="fill: #c1c1c1;"/>
        <path d="M118.49,139.56c-.11,13.26-.21,26.54-.31,39.8,6-.87,12.01-1.64,18.02-2.31,.06-.22,.12-.44,.18-.66-5.83,.65-11.67,1.38-17.48,2.2,.05-6.32,.1-12.63,.15-18.95,4.12-.33,8.25-.64,12.38-.92v-.65c-4.13,.27-8.25,.57-12.38,.89,.05-6.24,.1-12.49,.15-18.74,5.83-.11,11.65-.2,17.47-.28-.06-.21-.11-.43-.16-.64-6.01,.07-12.01,.16-18.02,.26h0Z" style="fill: #c1c1c1;"/>
        <path d="M240.68,159.76c-4.23-2.69-8.46-5.29-12.68-7.83-1.7-1.02-2.71-2.64-2.72-4.35,0-1.12,0-2.24-.01-3.35-.01-2.88,2.82-5.22,6.3-5.2,1.6,0,3.19,.02,4.79,.03,3.48,.01,6.34,2.45,6.36,5.41,0,.82,.01,1.63,.01,2.46,.24,.15,.48,.3,.72,.45,0-.97-.01-1.93-.02-2.89-.02-3.31-3.2-6.02-7.08-6.04-1.6,0-3.19-.01-4.79-.03-3.88-.01-7.03,2.58-7.02,5.8,0,1.11,0,2.23,.01,3.34,0,1.9,1.14,3.7,3.03,4.85,4.22,2.55,8.45,5.14,12.68,7.83,1.6,1.02,2.57,2.63,2.58,4.29,.01,1.75,.02,3.5,.04,5.25,.02,2.97-2.81,5.16-6.32,4.93-1.6-.1-3.21-.2-4.82-.28-3.51-.2-6.37-2.67-6.38-5.55,0-1.05,0-2.1-.01-3.16-.24-.13-.48-.26-.72-.4,0,1.18,0,2.35,.01,3.53,.01,3.21,3.2,5.95,7.1,6.17,1.6,.09,3.21,.18,4.82,.29,3.9,.26,7.06-2.18,7.03-5.49-.01-1.75-.02-3.51-.04-5.26-.01-1.86-1.09-3.66-2.9-4.8h0Z" style="fill: #c1c1c1;"/>
        <path d="M97.08,161.04c-5.76,.57-11.5,1.2-17.24,1.87,.01-7.4,.04-14.81,.05-22.21-.24,0-.48,0-.72,.01-.03,14.98-.06,29.96-.09,44.94,.23-.05,.48-.1,.71-.15,.01-7.27,.03-14.54,.05-21.81,5.73-.69,11.48-1.33,17.24-1.92-.04,6.79-.08,13.58-.11,20.37,.23-.04,.48-.09,.72-.13,.08-13.91,.16-27.82,.23-41.73-.24,0-.48,0-.72,.01-.04,6.91-.08,13.82-.11,20.74h0Z" style="fill: #c1c1c1;"/>
        <path d="M191.43,172.94c0-5.51,.02-11.01,.03-16.51,4.14-.04,8.29-.05,12.43-.03v-.59c-4.14-.01-8.28,0-12.43,.04,0-5.44,.01-10.89,.03-16.33,5.83-.01,11.66-.01,17.49,0-.06-.2-.11-.39-.17-.59-6.01,0-12.02,0-18.03,0-.02,11.54-.04,23.08-.06,34.62,6.05-.1,12.1-.11,18.15-.01,.06-.2,.11-.39,.17-.59-5.86-.09-11.73-.09-17.6,0h0Z" style="fill: #c1c1c1;"/>
        <path d="M315.26,139.44c-1.6-.04-3.19-.06-4.78-.09-3.87-.05-7.02,3.1-7,7.02,.06,10.07,.11,20.14,.17,30.21,.02,3.92,3.18,7.7,7.03,8.49,1.58,.32,3.16,.64,4.75,.97,3.84,.82,6.95-1.93,6.95-6.2-.02-10.85-.04-21.71-.06-32.56,0-4.27-3.16-7.78-7.05-7.83h0Zm.16,45.82c-1.58-.33-3.16-.65-4.75-.96-3.46-.7-6.29-4.09-6.3-7.63-.06-10.1-.11-20.2-.17-30.29-.02-3.53,2.8-6.36,6.28-6.3,1.6,.04,3.19,.07,4.78,.11,3.48,.06,6.32,3.21,6.32,7.03,.02,10.82,.04,21.64,.06,32.47,0,3.82-2.79,6.29-6.24,5.57h0Z" style="fill: #c1c1c1;"/>
      </g>
    </g>
  </g>
</svg>