<?xml version="1.0" encoding="UTF-8"?>
<svg id="Capa_1" data-name="Capa 1" xmlns="http://www.w3.org/2000/svg" viewBox="0 0 400 313">
  <rect x="0" width="400" height="313" style="fill: #d8d8d8;"/>
  <g>
    <g>
      <g>
        <path d="M108.85,189.17c-.41-1.13-.82-2.26-1.22-3.39,.01-.03,.02-.06,.04-.09,1.14-2.96,1.26-5.9,1.25-7.02-.02-5.5-.05-11-.07-16.5,0-2.33-.63-14.15-11.58-11.91-10.92,2.35-11.47,12.99-11.47,15.06v14.81c0,2.1,.55,12.51,11.59,12.63,2.14,0,4.04-.44,5.63-1.35,.05-.03,.1-.06,.15-.09,.04,.05,.07,.1,.11,.14,.39,.51,.8,.77,1.24,.76,1.64,0,3.28,0,4.92-.01,.19,0,.36-.12,.45-.31,.09-.19,.07-.41-.04-.59-.36-.56-.68-1.26-.99-2.16Zm-8.36-24.38c.01,4.06,.03,8.11,.04,12.17-.78,.06-1.57,.11-2.35,.17-.19,.01-.36,.14-.45,.32-.09,.18-.07,.4,.04,.55,.35,.51,.68,1.16,.99,2.01,.42,1.1,.83,2.2,1.25,3.32-.01,.03-.02,.06-.03,.08-.5,1.41-1.38,2.14-2.61,2.18-.76,.03-1.39-.22-1.87-.71-1.35-1.37-1.34-4.39-1.34-6.83,0-3.95-.02-7.89-.02-11.84,0-.2,0-.4,0-.6-.02-2.43-.04-5.45,1.3-7.1,.48-.59,1.11-.96,1.86-1.09,.75-.12,1.38,.04,1.87,.48,1.35,1.24,1.34,4.37,1.34,6.88Z" style="fill: #545454;"/>
        <path d="M281.86,182.95c-.14-.11-.32-.14-.48-.06-1.15,.55-2.08,.85-2.63,.83-2.65-.08-5.3-.15-7.95-.22,.06-11.47,.13-22.95,.19-34.43,0-.64,.29-1.72,.81-3.03,.07-.18,.06-.39-.04-.58-.09-.18-.25-.31-.42-.33-2.92-.4-5.84-.78-8.77-1.13-.17-.02-.33,.07-.43,.23-.09,.17-.11,.38-.04,.58,.44,1.27,.7,2.3,.76,2.99,0,.11,.01,.21,.01,.31-.07,13.19-.14,26.39-.22,39.58,0,.66-.29,1.79-.81,3.2-.07,.19-.06,.41,.04,.59,.09,.18,.25,.28,.42,.28,6.41,.02,12.81,.03,19.22,.06,.28,0,.51-.26,.51-.58,.01-2.6,.03-5.19,.04-7.79,0-.2-.09-.38-.23-.5Z" style="fill: #545454;"/>
        <path d="M178.7,141.63c.07-.21,.05-.44-.04-.62-.09-.18-.25-.29-.43-.28-3.03,.12-6.06,.28-9.09,.46-.17,.01-.33,.13-.42,.32-.09,.19-.11,.42-.04,.62,.52,1.46,.8,2.65,.8,3.35,.03,7.53,.05,15.05,.08,22.58-2.52-5.01-5.05-9.96-7.58-14.85,0-2.43-.02-4.85-.03-7.28,0-.69,.27-1.91,.78-3.42,.07-.21,.05-.44-.04-.61-.09-.18-.26-.28-.43-.26-2.66,.19-5.31,.4-7.97,.64-.17,.01-.33,.14-.42,.33-.09,.19-.11,.42-.04,.61,.52,1.41,.8,2.57,.81,3.25,.06,13.69,.13,27.37,.19,41.06,0,.69-.27,1.87-.77,3.32-.07,.2-.05,.43,.04,.61,.09,.18,.25,.29,.43,.29,2.65,0,5.29,0,7.94-.01,.17,0,.33-.11,.42-.3,.09-.18,.11-.42,.04-.62-.51-1.47-.8-2.66-.8-3.36-.03-6.37-.05-12.74-.08-19.11,2.53,4.94,5.05,9.94,7.57,14.99,0,1.36,0,2.71,.01,4.07,0,.7-.27,1.91-.78,3.39-.07,.2-.05,.43,.04,.62,.09,.18,.25,.3,.43,.3,3.02,0,6.03,0,9.05,0,.17,0,.33-.11,.42-.3,.09-.19,.11-.42,.04-.63-.51-1.5-.8-2.71-.8-3.42-.03-14.09-.07-28.18-.1-42.27,0-.71,.28-1.93,.78-3.45Z" style="fill: #545454;"/>
        <path d="M136.96,144.07c-3.02,.36-6.03,.76-9.05,1.17-.17,.02-.33,.15-.42,.33-.09,.18-.11,.4-.04,.58,.52,1.3,.8,2.37,.81,3.02,.05,8.58,.1,17.16,.14,25.73,0,.23,0,.46,0,.69,.03,2.77,.06,6.23-1.28,7.88-.48,.59-1.11,.9-1.87,.92-.76,.02-1.39-.26-1.88-.82-1.36-1.55-1.36-4.93-1.36-7.65-.05-8.64-.09-17.27-.14-25.91,0-.63,.27-1.76,.77-3.18,.07-.19,.05-.4-.04-.56-.09-.15-.25-.23-.42-.21-3.01,.45-6.01,.93-9.02,1.43-.17,.03-.33,.15-.42,.33-.09,.18-.11,.38-.04,.55,.51,1.22,.8,2.23,.8,2.85,.04,8.94,.09,17.88,.13,26.82,.01,2.39,.63,14.25,11.66,14.32,11.03,.06,11.52-12.83,11.51-15.41-.05-9.6-.11-19.19-.16-28.79,0-.66,.27-1.82,.77-3.29,.07-.2,.05-.42-.04-.58-.09-.16-.25-.25-.43-.23Z" style="fill: #545454;"/>
        <path d="M205.82,188.53c-.4-1.34-.8-2.69-1.21-4.03,.01-.04,.02-.07,.04-.11,1.16-3.46,1.29-6.91,1.29-8.23,0-6.48,0-12.97,.01-19.45,0-2.74-.55-16.67-11.65-16.6-11.1,.18-11.63,14.05-11.63,16.77,.01,6.45,.03,12.91,.04,19.36,0,2.76,.59,16.5,11.63,16.52,2.14,0,4.04-.55,5.64-1.63,.05-.03,.1-.07,.15-.1,.04,.06,.07,.12,.11,.17,.39,.62,.79,.93,1.24,.93,1.64,0,3.28,0,4.92,0,.19,0,.36-.14,.45-.36,.09-.22,.07-.49-.03-.69-.35-.66-.67-1.49-.98-2.55Zm-8.3-29.93c0,4.95,0,9.91,0,14.86-.79,0-1.58,0-2.36,0-.19,0-.36,.14-.45,.36-.09,.22-.07,.49,.04,.69,.35,.66,.68,1.49,.99,2.55,.42,1.38,.83,2.76,1.25,4.15,0,.03-.02,.07-.03,.1-.51,1.7-1.39,2.56-2.62,2.57-.76,0-1.39-.32-1.88-.96-1.35-1.78-1.34-5.58-1.33-8.64,0-4.96,0-9.92-.01-14.88,0-.25,0-.5,0-.76-.01-3.06-.03-6.87,1.32-8.66,.49-.65,1.12-.98,1.88-.99,.76,0,1.4,.31,1.89,.95,1.36,1.77,1.34,5.59,1.33,8.65Z" style="fill: #545454;"/>
        <path d="M234.32,141.39c-3.03-.2-6.06-.37-9.09-.52-.17,0-.33,.1-.43,.28-.09,.18-.11,.42-.04,.62,.51,1.52,.79,2.74,.78,3.45-.03,9.35-.05,18.71-.08,28.06v.75c0,3.02,0,6.79-1.35,8.54-.49,.63-1.12,.95-1.88,.94-.76,0-1.39-.33-1.88-.97-1.35-1.78-1.32-5.57-1.31-8.61,.02-9.65,.04-19.31,.06-28.96,0-.71,.29-1.91,.8-3.4,.07-.2,.06-.44-.04-.63-.09-.19-.25-.31-.43-.32-3.03-.11-6.07-.2-9.1-.26-.17,0-.33,.11-.43,.29-.09,.19-.11,.42-.04,.63,.51,1.52,.79,2.75,.79,3.46-.01,10.33-.02,20.66-.04,31,0,2.77,.54,16.59,11.57,16.58,11.03-.03,11.64-13.54,11.65-16.25,.04-10.14,.07-20.27,.11-30.41,0-.7,.29-1.88,.8-3.33,.07-.2,.06-.43-.04-.62-.09-.19-.25-.31-.42-.32Z" style="fill: #545454;"/>
        <path d="M257.68,143.45c-6.42-.71-12.84-1.3-19.28-1.77-.17-.01-.33,.09-.43,.26-.09,.18-.11,.41-.04,.61,.51,1.51,.78,2.72,.78,3.41-.06,13.83-.11,27.66-.17,41.49,0,.69-.29,1.88-.8,3.35-.07,.2-.06,.43,.04,.62,.09,.18,.25,.29,.42,.29,6.41,0,12.81,.02,19.22,.04,.13,0,.26-.07,.36-.18,.09-.12,.15-.28,.15-.44,.01-2.78,.03-5.56,.04-8.34,0-.21-.08-.41-.23-.53-.14-.12-.32-.14-.48-.06-1.15,.6-2.08,.93-2.63,.92-2.65-.05-5.3-.11-7.95-.15,.02-4.48,.04-8.96,.06-13.44,1.92,.08,3.83,.16,5.75,.25,.55,.03,1.48,.42,2.62,1.1,.16,.09,.34,.08,.48-.02,.14-.11,.23-.3,.23-.51,.01-2.56,.03-5.12,.04-7.67,0-.21-.08-.42-.23-.54-.14-.13-.32-.15-.48-.08-1.16,.56-2.09,.85-2.63,.82-1.92-.12-3.83-.23-5.75-.33,.02-3.8,.04-7.6,.05-11.41,2.66,.2,5.31,.41,7.97,.64,.54,.05,1.47,.48,2.62,1.21,.16,.1,.34,.1,.48,0,.14-.1,.23-.29,.23-.5,.01-2.78,.03-5.56,.04-8.35,0-.35-.22-.65-.5-.68Z" style="fill: #545454;"/>
        <path d="M150.65,143.49c.07-.2,.05-.43-.04-.6-.09-.17-.25-.26-.43-.25-3.02,.29-6.05,.6-9.07,.94-.17,.02-.33,.14-.42,.33-.09,.19-.11,.41-.04,.6,.52,1.36,.8,2.48,.81,3.15,.07,13.33,.14,26.66,.21,39.99,0,.67-.27,1.82-.77,3.24-.07,.19-.05,.42,.04,.59,.09,.18,.25,.28,.43,.28,3.02,0,6.03-.01,9.05-.02,.17,0,.33-.11,.42-.29,.09-.18,.11-.41,.04-.6-.52-1.44-.8-2.61-.8-3.29-.07-13.57-.13-27.14-.2-40.7,0-.68,.27-1.87,.77-3.37Z" style="fill: #545454;"/>
        <path d="M314.12,191.16c-.74-1.1-1.22-2-1.35-2.52-.67-2.76-1.33-5.54-2-8.35-2.28-9.55-5.67-24.77-5.9-25.88-.14-.62-.07-1.65,.18-2.88,.03-.15,0-.32-.1-.46-.09-.14-.24-.24-.39-.27-3.15-.64-6.3-1.25-9.45-1.83-.15-.03-.29,.02-.39,.13-.1,.11-.13,.28-.1,.45,.25,1.39,.3,2.48,.16,3.08-.34,1.2-7.76,33.6-8.13,35.5-.13,.58-.61,1.58-1.36,2.82-.11,.18-.12,.41-.03,.59,.09,.19,.26,.31,.45,.31,2.45,0,4.9,.02,7.35,.03,.15,0,.3-.07,.39-.2,.1-.13,.13-.3,.1-.46-.25-1.35-.3-2.44-.16-3.07,.19-.84,.38-1.68,.57-2.52,3.28,.1,6.57,.2,9.85,.31,.19,.81,.37,1.62,.56,2.43,.14,.6,.07,1.63-.18,2.92-.03,.16,0,.32,.1,.44,.1,.12,.24,.2,.39,.2,3,.01,6.01,.03,9.01,.04,.19,0,.36-.1,.45-.27,.09-.17,.08-.37-.03-.52Zm-18.77-11.57c1.11-4.79,2.21-9.51,3.31-14.15,.2,.02,.4,.05,.6,.07,1.07,4.9,2.14,9.73,3.21,14.49-2.37-.14-4.75-.28-7.12-.41Z" style="fill: #545454;"/>
      </g>
      <g>
        <path d="M207.6,103.08c-2.53-.26-4.86-.98-7.16-1.97-2.65-1.14-5.39-1.76-8.3-1.62-4.92,.25-9.29,3.96-10.1,8.67-.85,4.93,1.62,9,6.67,10.96,5.46,2.12,10.28-.79,10.9-6.71,.57,.83,.5,1.63,.31,2.42-.46,1.96-1.53,3.54-3.11,4.76-.5,.38-.74,.66-.47,1.35,1.14,2.9,2.9,5.28,5.7,6.69,.98,.49,1.6,1.13,2.09,2.06,1.95,3.78,5.16,5.16,9.26,4.66,1.48-.18,2.95-.56,3.94-2.01-3.59-.35-5.66-1.51-7.15-3.98,4.58-2.03,7.04-5.64,7.79-10.52,1.1-7.2-3.64-14.07-10.38-14.76Zm-11.57,9.02c-.19,.68-.66,.79-1.29,.78-3.29-.05-6.01-2.78-5.76-5.82,.27-3.19,3.11-5.14,6.63-4.58,1.72,.27,3.35,.81,5,1.32,.38,.12,.74,.26,1.26,.44-3.05,1.91-4.92,4.53-5.84,7.85Zm13.22,11.27c-.23,.84-.51,1.65-.98,2.39-.97,1.54-2.08,1.54-2.99-.05-1.22-2.13-1.47-4.52-1.69-6.9-.35-3.78-.16-7.52,1.04-11.15,.37-1.13,.7-2.61,2.19-2.58,1.46,.03,1.77,1.51,2.16,2.64,.91,2.62,1.17,5.35,1.18,8.11-.02,2.55-.24,5.08-.91,7.55Z" style="fill: #545454;"/>
        <path d="M173.86,112.15c-1.27-.67-2.73-.98-4.31-.92-1.29,.05-2.63,.34-4.1,.89-2.76,1.04-5.19,2.61-7.54,4.13-1.99,1.29-3.87,2.5-5.9,3.39-1.67,.69-3.22,.95-4.37,.76-.62-.11-1.14-.35-1.49-.71-.35-.35-.55-.78-.55-1.2,0-.37,.16-.78,.44-1.09,.25-.27,.6-.47,.98-.55,.54-.13,1.08,.04,1.36,.19l.15,.07h.12c.19,0,.36-.09,.47-.24,.17-.24,.13-.57-.08-.76-.31-.29-.98-.77-2.02-.77-.07,0-.15,0-.22,0-.72,.04-1.42,.33-1.98,.81-.68,.59-1.09,1.4-1.16,2.28-.08,.93,.28,1.94,.96,2.7,.62,.72,1.54,1.23,2.6,1.44,.46,.09,.95,.14,1.44,.14,1.28,0,2.66-.31,4.24-.94,2.07-.89,3.91-2.07,5.69-3.22,.38-.24,.75-.48,1.13-.72,2.16-1.39,4.29-2.71,6.53-3.54,1.24-.46,2.35-.71,3.39-.75,1.13-.05,2.26,.18,3.12,.64,.84,.46,1.46,1.29,1.67,2.24,.22,.92,.03,1.97-.51,2.8-.66,1.01-2,1.54-3.26,1.14-1.05-.28-1.68-1.44-1.6-2.33,.05-.83,.97-1.3,1.63-1.3,.29,0,.57,.09,.76,.25,.09,.07,.17,.16,.25,.28,.11,.15,.28,.24,.47,.24h.15s.11-.06,.11-.06c.27-.13,.39-.44,.29-.71-.08-.23-.2-.44-.35-.63-.37-.47-.96-.79-1.61-.88-.68-.1-1.44,.05-2.09,.42-.79,.43-1.37,1.25-1.51,2.16-.16,.89,.03,1.86,.51,2.72,.5,.92,1.38,1.65,2.33,1.95,.52,.18,1.08,.28,1.64,.28,.52,0,1.03-.08,1.52-.23,1.09-.34,2.04-1.05,2.68-2.01,.88-1.36,1.19-3.03,.83-4.57-.35-1.58-1.4-2.98-2.81-3.75Z" style="fill: #545454;"/>
        <path d="M256.33,118.42c-.07-.88-.48-1.68-1.16-2.28-.56-.48-1.26-.76-1.97-.8-1.15-.08-1.91,.46-2.24,.76-.22,.2-.25,.52-.09,.75,.11,.16,.28,.25,.47,.25h.16s.11-.07,.11-.07c.27-.15,.8-.32,1.37-.18,.38,.08,.72,.28,.97,.55,.28,.3,.45,.72,.44,1.1,0,.42-.2,.85-.56,1.2-.35,.36-.87,.6-1.48,.71-1.16,.2-2.71-.08-4.37-.76-2.04-.89-3.92-2.11-5.91-3.4-2.35-1.52-4.78-3.09-7.54-4.13-1.47-.54-2.81-.83-4.1-.89-1.56-.06-3.04,.25-4.32,.92-1.41,.77-2.46,2.17-2.8,3.74-.35,1.55-.05,3.21,.84,4.58,.63,.95,1.58,1.66,2.67,2,.49,.16,1,.23,1.52,.23,.57,0,1.12-.09,1.63-.27,.97-.31,1.85-1.04,2.34-1.95,.49-.87,.67-1.84,.52-2.72-.15-.91-.73-1.73-1.51-2.16-.66-.37-1.43-.52-2.09-.42-.66,.09-1.25,.41-1.62,.88-.15,.19-.27,.41-.35,.63-.1,.28,.02,.59,.27,.71l.15,.07h.13c.18,0,.36-.09,.47-.24,.08-.11,.16-.2,.25-.28,.19-.16,.47-.25,.8-.25h0c.62,0,1.53,.47,1.59,1.32,.08,.87-.56,2.04-1.63,2.32-.25,.08-.53,.13-.81,.13-.98,0-1.91-.49-2.42-1.27-.54-.83-.73-1.88-.51-2.8,.21-.94,.83-1.78,1.67-2.23,.87-.46,1.97-.69,3.13-.64,1.04,.04,2.15,.29,3.39,.75,2.24,.84,4.37,2.15,6.53,3.55,.37,.24,.75,.48,1.12,.72,1.78,1.15,3.62,2.33,5.7,3.23,2.16,.87,3.99,1.13,5.67,.8,1.05-.22,1.97-.73,2.59-1.44,.68-.76,1.04-1.77,.97-2.7Z" style="fill: #545454;"/>
      </g>
    </g>
    <g>
      <path d="M101.54,207.08c.31-.24,.7-.43,1.14-.57,.45-.14,.96-.2,1.53-.2,.69,0,1.3,.11,1.82,.32,.52,.21,.98,.52,1.38,.93l.08,.09,1.84-.63-.18-.21c-.65-.78-1.4-1.36-2.23-1.74-.82-.37-1.77-.56-2.82-.56-.73,0-1.43,.1-2.08,.3-.65,.2-1.22,.48-1.69,.83-1.19,.88-1.79,2.01-1.79,3.38,0,.66,.14,1.27,.41,1.82,.27,.55,.66,1.03,1.15,1.43,.49,.4,1.09,.71,1.78,.94,.69,.22,1.46,.33,2.3,.33,1.03,0,1.95-.17,2.73-.5,.78-.33,1.51-.87,2.16-1.61l.16-.18-1.71-.91-.1,.1c-.43,.45-.91,.78-1.41,.98-.51,.2-1.11,.31-1.78,.31-.58,0-1.11-.07-1.56-.2-.45-.13-.83-.32-1.14-.56-.3-.24-.54-.52-.7-.85-.16-.32-.25-.69-.25-1.09s.08-.75,.24-1.07c.16-.32,.4-.61,.71-.84Z" style="fill: #545454;"/>
      <path d="M116.73,204.76l-4.66,8.55h2.19l.94-1.75h5.26l.94,1.75h2.19l-4.66-8.55h-2.21Zm2.73,4.98h-3.26l1.63-3.02,1.62,3.02Z" style="fill: #545454;"/>
      <polygon points="127.2 213.31 129.18 213.31 129.18 209.79 133.98 209.79 133.98 207.97 129.18 207.97 129.18 206.57 136.08 206.57 136.08 204.76 127.2 204.76 127.2 213.31" style="fill: #545454;"/>
      <polygon points="146.42 201.83 144.37 201.83 143.48 204.16 144.67 204.16 146.42 201.83" style="fill: #545454;"/>
      <polygon points="142.06 209.79 146.86 209.79 146.86 207.97 142.06 207.97 142.06 206.57 148.95 206.57 148.95 204.76 140.08 204.76 140.08 213.31 149.26 213.31 149.26 211.5 142.06 211.5 142.06 209.79" style="fill: #545454;"/>
      <path d="M169.33,208.88c.54-.44,.81-.99,.81-1.66,0-.36-.07-.7-.21-1-.14-.3-.34-.57-.6-.79-.26-.21-.57-.38-.94-.5-.36-.12-.78-.18-1.23-.18h-6.91v8.55h6.83c1.09,0,1.93-.2,2.5-.6,.59-.41,.89-1.02,.89-1.79,0-.51-.11-.95-.34-1.3-.18-.28-.44-.53-.79-.74Zm-7.11,1.03h4.99c.43,0,.76,.08,.98,.24,.2,.15,.29,.34,.29,.6,0,.22-.1,.38-.32,.52-.24,.15-.61,.23-1.08,.23h-4.86v-1.59Zm5.73-2.04c-.18,.15-.43,.22-.77,.22h-4.97v-1.52h5.02c.32,0,.57,.07,.74,.21,.16,.13,.23,.3,.23,.53s-.08,.41-.25,.56Z" style="fill: #545454;"/>
      <path d="M178.29,204.76l-4.66,8.55h2.19l.94-1.75h5.26l.94,1.75h2.19l-4.66-8.55h-2.21Zm2.73,4.98h-3.26l1.63-3.02,1.62,3.02Z" style="fill: #545454;"/>
      <path d="M198.03,209.29c.37-.45,.56-1.04,.56-1.75,0-.41-.07-.8-.21-1.14-.14-.34-.35-.64-.62-.88-.27-.24-.59-.43-.96-.56-.37-.13-.79-.2-1.24-.2h-6.8v8.55h1.98v-3h3.76l2.14,3h2.3l-2.26-3.17c.57-.17,1.03-.46,1.35-.85Zm-7.29-2.71h4.49c.49,0,.84,.08,1.05,.24,.2,.15,.3,.4,.3,.75,0,.4-.13,.93-1.26,.93h-4.58v-1.92Z" style="fill: #545454;"/>
      <path d="M218.51,211.14c.8-.88,1.38-1.88,1.72-2.98l.08-.25h-2.03l-.04,.13c-.18,.52-.38,.97-.6,1.34-.18,.3-.38,.56-.6,.76-.57-.5-1.11-1.05-1.6-1.66,.72-.24,1.29-.58,1.68-1,.45-.49,.68-1.07,.68-1.72,0-.38-.07-.73-.2-1.05-.13-.32-.33-.6-.58-.83-.25-.23-.55-.41-.89-.54-.75-.28-1.74-.26-2.53,.12-.43,.21-.8,.5-1.09,.88-.37,.48-.56,1.01-.56,1.59,0,.5,.13,.99,.39,1.47-2.16,.57-3.25,1.58-3.25,3.02,0,.43,.1,.84,.29,1.22,.19,.38,.48,.71,.84,.98,.36,.27,.79,.48,1.29,.64,.5,.16,1.05,.23,1.65,.23,.73,0,1.43-.09,2.09-.28,.62-.18,1.19-.44,1.71-.78,1.08,.55,2.25,.86,3.47,.93h.2s0-1.86,0-1.86h-.19c-.67,0-1.32-.12-1.93-.36Zm-3.57-6.26c.27,0,.49,.08,.66,.25,.17,.16,.25,.36,.25,.59,0,.73-.51,1.16-1.56,1.31-.26-.43-.4-.8-.4-1.1,0-.32,.09-.57,.28-.76s.44-.28,.76-.28Zm.54,6.32c-.8,.35-1.53,.53-2.16,.53-.73,0-1.3-.13-1.7-.38-.37-.23-.55-.52-.55-.88,0-.75,.8-1.26,2.38-1.52,.63,.82,1.31,1.58,2.03,2.25Z" style="fill: #545454;"/>
      <path d="M240.76,205.52c-.27-.24-.59-.43-.96-.56-.37-.13-.78-.2-1.24-.2h-6.8v8.55h1.98v-3h4.55c1.05,0,1.87-.24,2.43-.71,.57-.48,.87-1.17,.87-2.06,0-.41-.07-.8-.21-1.14-.14-.34-.35-.64-.62-.88Zm-2.44,2.97h-4.58v-1.92h4.49c.49,0,.84,.08,1.05,.24,.2,.15,.3,.4,.3,.75,0,.4-.13,.93-1.26,.93Z" style="fill: #545454;"/>
      <rect x="245.53" y="204.76" width="1.98" height="8.55" style="fill: #545454;"/>
      <polygon points="260.83 206.49 260.83 204.76 251.72 204.76 251.72 206.57 257.82 206.57 251.63 211.58 251.63 213.31 261.14 213.31 261.14 211.5 254.63 211.5 260.83 206.49" style="fill: #545454;"/>
      <polygon points="274.22 206.49 274.22 204.76 265.1 204.76 265.1 206.57 271.2 206.57 265.01 211.58 265.01 213.31 274.52 213.31 274.52 211.5 268.01 211.5 274.22 206.49" style="fill: #545454;"/>
      <path d="M281.94,204.76l-4.66,8.55h2.19l.94-1.75h5.26l.94,1.75h2.19l-4.66-8.55h-2.21Zm2.73,4.98h-3.26l1.63-3.02,1.62,3.02Z" style="fill: #545454;"/>
      <path d="M301.2,209.43c-.17-.31-.43-.57-.77-.78-.33-.2-.75-.36-1.25-.48-.48-.11-1.06-.2-1.7-.26-.6-.06-1.14-.11-1.6-.13-.46-.03-.86-.07-1.18-.12-.3-.05-.53-.12-.69-.22-.12-.08-.18-.18-.18-.34,0-.5,.9-.78,2.53-.78,.61,0,1.2,.07,1.75,.2,.55,.13,1.1,.34,1.63,.62l.13,.07,1.23-1.3-.18-.13c-1.17-.82-2.71-1.23-4.59-1.23-1.44,0-2.56,.24-3.34,.71-.81,.49-1.22,1.17-1.22,2.02,0,.72,.27,1.27,.8,1.64,.51,.36,1.27,.58,2.32,.68,.78,.07,1.49,.11,2.11,.12,.6,0,1.12,.07,1.55,.19,.79,.21,.79,.6,.79,.73,0,.31-.21,.56-.63,.76-.46,.22-1.16,.33-2.08,.33-.8,0-1.55-.1-2.22-.29-.67-.19-1.28-.48-1.82-.86l-.15-.1-1.09,1.43,.15,.12c1.29,.98,3.02,1.47,5.15,1.47,1.53,0,2.72-.25,3.52-.75,.83-.51,1.25-1.25,1.25-2.2,0-.44-.09-.82-.26-1.13Z" style="fill: #545454;"/>
    </g>
  </g>
</svg>