<?xml version="1.0" encoding="UTF-8"?>
<svg id="Capa_1" data-name="Capa 1" xmlns="http://www.w3.org/2000/svg" viewBox="0 0 400 313">
  <rect x="0" width="400" height="313" style="fill: #d8d8d8;"/>
  <g>
    <g>
      <path d="M305.42,168.11c-1.3,1.76-2.71,3.42-4.77,4.38-.78,.36-1.51,.47-2.15-.13-.73-.68,.09-1.15,.36-1.65,.55-.97,.9-2,1.01-3.1,.21-1.96-1.56-3.27-3.41-2.58-1.8,.67-2.97,3.07-2.01,5.2,.9,2,.11,3.12-1.15,4.33-1.21,1.17-2.45,2.3-4,2.99-.79,.35-1.63,1.13-2.48,.36-.76-.69-.45-1.71-.22-2.55,.86-3.15,2.51-5.92,4.52-8.44,1.21-1.51,2.83-2.64,4.79-3.07,.93-.2,2.28-.12,2.06-1.43-.24-1.44-1.63-.77-2.58-.8-.24,0-.48,.19-.73,.24-3.85,.84-6.55,3.39-9.14,6.12-3.15,3.32-6.11,6.83-9.79,9.61-.43,.33-.91,.98-1.47,.46-.44-.41,.08-.98,.3-1.39,1.56-2.92,3.57-5.5,5.96-7.8,1.19-1.14,2.37-2.43,1.82-4.17-.56-1.78-2.32-1.51-3.78-1.58-.06,0-.13,0-.19-.01-1.56-.17-3.18-.24-2.38-2.61,.14-.4,.02-.9-.06-1.34-.27-1.5-1.2-1.89-2.5-1.06-1.64,1.05-2.42,2.93-1.65,4.68,.38,.88,.26,1.37-.28,2.04-2.79,3.48-5.72,6.83-9.25,9.57-2.01,1.56-3.83,3.47-6.47,4.07-2.08,.47-2.91-.17-3.02-2.25-.05-1.05,.31-1.42,1.33-1.63,4.06-.84,7.11-3.24,9.41-6.59,1.3-1.9,1.29-4.23,.24-5.4-1.14-1.27-3.22-1.53-5.39-.68-2.47,.97-4.47,2.61-6.07,4.65-2.28,2.92-5.02,5.36-7.65,7.92-1.34,1.3-2.75,2.53-4.51,3.27-1.66,.7-2.11,.49-1.96-1.31,.22-2.63,1.04-5.16,1.99-7.61,.56-1.47,1.24-2.9,2.43-4.09,4.38-4.35,9.09-8.4,12.64-13.54,1.97-2.85,4.1-5.61,5.05-9.04,.35-1.26,.3-2.5-.71-3.38-1.02-.89-2.23-.43-3.3,.03-1.31,.56-2.45,1.39-3.47,2.41-5.15,5.17-8.69,11.46-12.24,17.73-2.45,4.33-4.23,9.04-8.61,12.1-2.94,2.05-5.62,4.51-8.75,6.31-.36,.21-.76,.64-1.23,.36-.61-.37-.21-.94-.13-1.4,.22-1.33,.39-2.69,.82-3.96,1.11-3.32,2.11-6.53,5.06-9.04,5.45-4.63,10.4-9.84,14.24-15.97,1.44-2.3,3.38-4.46,3.09-7.5-.17-1.75-1.17-2.54-2.9-2.23-1.44,.26-2.6,1.08-3.61,2.11-6.89,7.07-12.45,15.12-16.86,23.9-3.02,6.01-7.75,10.11-13.16,13.67-.59,.39-1.29,.89-2.2,.33,.23-.47,.43-.94,.68-1.38,2.27-4.13,5.22-7.79,7.93-11.62,.52-.74,1.47-1.62,.82-2.55-.71-1.03-2.01-.59-3.07-.49-.78,.08-1.05,.87-1.49,1.42-.32,.41-.46,1.02-1.2,.2-1.2-1.33-2.87-1.6-4.62-1.33-5.27,.83-9.11,3.88-12.35,7.9-2.53,3.13-5.48,5.81-9.02,7.77-.67,.37-1.58,1.28-2.18,.66-.6-.61,.28-1.53,.68-2.2,3.27-5.54,6.59-11.05,9.9-16.57,1.21-2.02,4.6-7.62,7.92-13.13,.21-.35,.43-.71,.64-1.06,.82-1.47,1.49-3.04,1.96-4.69,.56-1.98,.23-4.01-.65-5.46-.53-.87-1.25-1.53-2.1-1.85-3.05-1.16-5.89-.54-8.36,1.35-4.16,3.2-6.39,7.62-7.36,12.71-.18,.92-.44,2.18,.88,2.38,1.21,.18,1.32-1.04,1.4-1.9,.29-2.98,1.59-5.59,3.19-7.98,1.71-2.55,3.51-4.49,6.93-4.51,2.73-.01,3.63,2.01,2.59,4.29-.58,1.27-.76,1.63-1.49,2.83-.13,.21-.58,1.21-.71,1.42-.85,1.4-1.11,1.8-1.96,3.2-.43,.7-1.04,1.62-1.68,2.28-.61,.63-2.39,2.03-3.28,2.41-2.65,1.13-4.05,1.68-6.94,1.65-.2,0-.4,0-.61-.02-4.5-.23-7.32-3.29-6.92-7.75,.66-7.31,5.07-12.43,10.22-17.09,.85-.76,1.18-.38,1.67,.4,.99,1.6,2.38,2.65,4.36,2.84,1.57,.15,2.4-.9,3.09-1.94,.66-.99,.06-2.02-.62-2.81-.98-1.14-2.16-2.15-3.74-2.14-1.47,0-1.47-.78-1.39-1.84,.24-3.3,1.87-5.96,3.84-8.46,2.55-3.23,5.49-6,9.48-7.32,3.02-1,6.25,.05,7.46,2.33-.56,.18-1.11,.36-1.66,.53-4.18,1.3-7.61,3.58-10.1,7.29-2.4,3.58-1.36,7.59,2.58,9.19,2.83,1.15,7.37-.47,9.75-3.49,2.19-2.78,3.45-5.88,3.01-9.47-.21-1.72,.59-2.01,1.96-1.65,1.53,.4,2.95,.99,3.54,2.65,.22,.62,.56,1.04,1.28,.84,.77-.21,.62-.86,.63-1.43,0-.49-.24-.85-.48-1.23-1.44-2.32-3.68-3.07-6.23-3.2-.63-.03-1.36,.17-1.7-.58-1.17-2.56-3.31-3.81-5.92-4.43h-4.26c-3.43,1.07-6.84,2.27-9.63,4.62-4.41,3.71-8.16,7.89-7.33,14.23,.23,1.76-.34,2.4-1.69,3.2-5.06,2.98-8.96,7.16-11.39,12.51-3.24,7.14-.55,15.03,7.93,16.4,3.54,.57,6.9,.14,9.91-1.01-1.8,2.94-3.3,5.4-4.15,6.79-.8,1.3-1.56,2.04-3.03,.84-.34-.28-.99-.21-1.5-.26-4.04-.41-7.03,1.85-9.84,4.18-2.47,2.05-4.51,4.61-6.93,6.72-2.5,2.18-4.88,4.62-8.22,5.59-2.14,.62-3.01-.14-3.1-2.31-.05-1.17,.57-1.34,1.45-1.54,4.04-.9,7.09-3.29,9.35-6.66,1.24-1.85,1.22-4.11,.24-5.25-1.12-1.31-3.18-1.62-5.37-.76-2.91,1.14-5.14,3.17-6.94,5.66-2.75,3.81-6.31,6.78-9.94,9.68-.72,.58-1.8,1.07-2.45,.65-.72-.47-.46-1.63-.17-2.5,2.52-7.61,6.25-14.66,10.5-21.38,3.78-5.97,7.92-11.73,12.45-17.18,.95-1.14,1.95-2.25,3.38-2.76,.81-.29,1.79-.4,1.45-1.57-.34-1.17-1.37-.74-2.13-.6-4.67,.86-8.73,3.06-12.34,6.03-5.98,4.93-10.45,11.18-14.87,17.45-1.09,1.54-2.09,3.14-3.13,4.71,0-1.69,.84-2.99,1.49-4.34,3.3-6.83,5.29-14.21,8.9-20.91,.31-.58,.32-1.15-.19-1.57-.67-.54-1.24-.08-1.68,.39-4.65,4.92-9.09,10.02-12.75,15.72-2.95,4.59-5.56,9.42-8.57,13.97-3.67,5.52-7.39,11.1-13.29,14.58-3.7,2.18-7.66,2.39-11.25-.14-3.09-2.18-3.7-5.37-3.04-9.08,.97-5.45,5.4-10.48,10.75-11.68,3.84-.86,6.97,.59,8.09,3.74,1.6,4.48-1.4,10.21-5.98,11.44-3.07,.82-4.94-.71-4.64-3.83,.15-1.55,.97-2.58,2.5-3.06,.87-.27,1.23-1.01,.92-1.85-.33-.86-1.03-.69-1.78-.44-2.82,.94-4.76,4.63-3.98,7.68,.74,2.89,3.85,4.6,7.02,3.87,5.56-1.28,9.25-6.74,8.57-12.7-.46-4.1-2.65-6.5-6.66-7.41-3.27-.74-6.1,.48-8.78,2.03-6.66,3.86-10.31,11.59-7.72,19.14,.94,2.74,2.99,4.8,5.78,5.58,5.56,1.57,10.5,.24,14.75-3.77,6.78-6.41,11.71-14.14,16.2-22.22,1.92-3.46,4.08-6.79,6.66-9.88,.38,.57-.04,.86-.18,1.18-1.64,3.62-3.24,7.27-4.97,10.85-3.54,7.28-6.07,15.04-10.49,21.89-.46,.72-.97,1.65-.16,2.27,.85,.65,1.51-.18,2.07-.82,2.32-2.68,4.58-5.41,6.58-8.34,4.44-6.46,8.79-12.99,13.33-19.39,2.19-3.09,4.63-6.03,7.13-8.88,2.32-2.64,4.91-5.03,8.33-6.87-.24,.49-.29,.74-.44,.91-5.23,5.78-9.9,11.99-13.76,18.77-3.24,5.69-6.53,11.38-7.85,17.93-.66,3.29,.53,5.4,3.38,5.6,1.09,.08,2.13-.25,3.13-.78,2.69-1.42,4.65-3.77,7.13-5.58,.31,7.22,6.01,8.46,10.81,5.13,1.79-1.24,3.48-2.63,5.42-4.1-.19,.83,.01,1.47,.11,2.13,.4,2.8,2.19,3.94,4.91,3.1,1.19-.37,2.21-1.03,3.2-1.76,1.37-1.03,2.75-2.06,4.37-3.27-.17,1.57-.76,2.8,.28,3.97,1.43,1.6,3.12,1.84,5.61,.76,2.36-1.03,4.18-2.83,6.26-4.52,.09,3.16,.86,4.25,3.42,4.87,1.52,.37,2.94-.14,4.23-.9,1.51-.89,2.97-1.86,4.51-2.83,.62,3.59,1.89,4.47,5.01,3.48,1.54-.49,2.89-1.39,4.2-2.33,2.19-1.57,4.16-3.42,6.26-5.48-.21,1.64-.49,2.95-.52,4.28-.03,1.39-.1,2.93,1.29,3.83,1.33,.87,2.65,.18,3.82-.43,2.46-1.27,4.8-2.75,6.98-4.47,1.54-1.22,3.05-2.47,4.91-3.98-.31,1.57-.61,2.69-.75,3.83-.21,1.79,0,3.5,1.51,4.75,1.52,1.24,3.12,.89,4.72,.16,1.53-.7,2.93-1.61,4.2-2.72,1.43-1.26,2.87-2.5,4.5-3.92-.08,2.45,.27,4.5,2.07,6,2.26,1.9,5.33,1.84,8.55-.39,5.11-3.55,9.7-7.71,13.38-12.75,.97-1.33,1.99-1.65,3.43-1.39,.56,.1,1.3,.07,1.55,.6,.28,.6-.33,1.04-.72,1.46-.75,.8-1.53,1.58-2.26,2.39-1.6,1.77-3.18,3.56-4.17,5.77-.67,1.52-.72,3.11,.43,4.34,1.18,1.27,2.79,1.09,4.33,.58,1.51-.5,2.6-1.62,3.76-2.65,1.07-.95,1.87-2.22,3.29-3-.21,2.23,.14,4.13,2.01,5.27,1.92,1.17,3.79,.53,5.65-.43,2.16-1.12,3.9-2.72,5.55-4.46,.43-.45,.8-1.05,1.61-.68,2.89,1.28,5.06-.14,7.17-1.89,1.24-1.03,1.9-2.59,3.27-3.48v-1.55c-1.1-.8-1.74-.14-2.36,.72Zm-46.67-3.55c.89-.84,2.1-1.57,3.24-.47,.99,.95,.34,2.12-.28,2.97-1.95,2.72-4.49,4.64-8.3,5.37,1.46-3.17,3.08-5.75,5.34-7.88Zm-.76-23.5c.41,3.24-6.68,12.67-12.81,18.1,3.66-6.43,7.32-12.83,12.81-18.1Zm-15.31-.12c-2.84,7.13-8.07,12.5-13.39,17.79,4.05-6.23,7.63-12.82,13.39-17.79Zm-49.84-12.25c.22,.36-.09,.71-.41,.65-1.18-.19-2.07-.81-2.65-2.11,1.39,.02,2.42,.37,3.07,1.46Zm18.64-15.48c.08,.64,.08,1.28,.09,1.54-.05,4.68-2.69,8.35-6.63,9.56-1.93,.59-3.57,.09-4.83-1.46-1.2-1.48-.46-2.92,.31-4.26,2.15-3.7,5.63-5.43,9.63-6.39,.96-.23,1.33,.18,1.42,1.01Zm-51.46,51.08c.81-.68,1.85-1.1,2.79-.27,1,.88,.48,1.97-.06,2.8-1.9,2.89-4.53,4.81-8.44,5.67,1.54-3.31,3.18-6.07,5.71-8.19Zm12.01,12.98c-.77,.51-1.93,1.33-2.59,.74-.8-.72-.1-1.95,.4-2.83,2.1-3.72,4.72-7.03,8.01-9.78,1.24-1.03,2.56-1.68,4.24-1.13,.94,.31,1.37,.87,1.3,1.54-.23,1.06-.44,1.77-.95,2.41-2.9,3.68-6.56,6.49-10.42,9.06Zm25.14,.23c-.77,.4-1.7,1.04-2.5,.33-.87-.78-.05-1.69,.24-2.47,1.46-3.9,4.14-6.92,7.22-9.61,1.18-1.03,2.57-1.72,4.04-1.8,2.02,0,2.85,1.26,1.84,2.85-2.79,4.38-6.15,8.24-10.84,10.7Z" style="fill: #545454;"/>
      <path d="M204.14,152.11c.35,2.15,2.02,3.35,4.16,3.05,1.09-.15,2.16-.45,3.08-1.06,4.38-2.91,8.08-6.6,11.62-10.44,.52-.57,.92-1.44,.14-2.06-.72-.57-1.27,.08-1.79,.61-1.89,1.94-3.74,3.92-5.73,5.76-1.69,1.57-3.35,3.23-5.4,4.34-.8,.43-2.18,1.04-2.12-.6,.13-3.63,.87-7.3,3.6-9.87,5.83-5.49,11.43-11.17,15.78-17.93,1.59-2.47,3.26-4.95,3.87-7.92,.39-1.9-.61-3.14-2.49-3.12-2.93,.14-4.78,2.13-6.54,4.07-7.21,7.93-12.73,16.94-16.58,26.94-1.01,2.62-2.06,5.31-1.59,8.24Zm25.11-36.78c-3.31,8.59-9.12,15.38-15.65,21.64,3.9-8.16,9.03-15.44,15.65-21.64Z" style="fill: #545454;"/>
    </g>
    <path d="M248.59,185.31c1.79,.29,3.61,.51,5.37,.88,3.02,.63,5.93,1.47,8.54,2.93,.92,.52,1.27,1.21,1.31,2.03,.04,.78-.74,1.18-1.66,.9-.23-.07-.47-.14-.66-.26-4.65-2.68-9.98-3.35-15.51-3.57-5.38-.21-10.55,.63-15.68,1.77-2.21,.49-4.55,.48-6.74,1.11-3.49,.99-7.1,1.72-10.52,2.87-1.46,.49-2.85,1.12-4.41,1.42-.32,.06-.62,.25-.85,.56,2.93,.86,5.72,1.95,8.74,2.56,.69,.14,1.32-.05,1.88-.41,3.24-2.05,7.01-3.36,10.9-4.05,4.52-.8,9.17-1.25,13.9-.57,2.75,.39,5.19,1.15,7.34,2.46,2.18,1.33,3.3,3.06,2.75,5.44-.53,2.23-1.84,3.9-4.09,5.19-2.87,1.64-6.2,1.78-9.51,1.8-3.44,.02-6.77-.58-10.13-1.25-2.76-.55-5.54-1.11-8.31-1.64-1.4-.27-2.93-.58-4.24-1.21-.51-.25-.99-.3-1.58-.04-.84,.37-1.77,.3-2.66,.03-.5-.15-.89-.39-.76-.89,.11-.37-.09-.51-.52-.57-2.78-.42-5.16-1.69-7.81-2.36-2.08-.53-3.94-1.49-6.09-1.84-.29-.05-.54-.11-.81,0-2.85,1.17-5.99,1.51-9.07,1.98-2.13,.33-4.1,1.07-6.22,1.38-3.55,.52-7.17,.69-10.75,1.03-3.92,.37-7.86,.19-11.78,0-3.34-.17-6.46-.99-8.98-2.89-2.85-2.14-3.85-5.52-1.1-8.38,2.2-2.29,5.15-3.43,8.52-3.96,2.25-.35,4.55-.72,6.83-.71,1.73,0,3.5,.31,5.26,.39,5.25,.24,10.29,1.38,15.39,2.31,3.55,.64,6.98,1.6,10.51,2.28,1.7,.32,3.29,1.03,4.92,1.57,1.24,.41,2.49,.37,3.73,.02,2.54-.71,5.01-1.55,7.48-2.39,4.43-1.51,9.02-2.67,13.77-3.32,2.86-.39,5.67-.95,8.46-1.59,2.58-.59,5.23-.68,7.88-.84,.56-.03,1.14,.05,1.67-.17h5.32Zm-57.68,11.41c-6.78-1.56-13.53-2.92-20.45-3.63-2.76-.28-5.58-.38-8.37-.35-2.25,.03-4.5,.36-6.72,.72-1.78,.29-2.92,1.19-3.9,2.32-.29,.34-.31,.63-.1,1.02,1.33,2.5,4.3,2.83,7.01,3.23,2.02,.3,4.16,.13,6.25,.23,5.1,.24,10.07-.56,15.09-1.11,2.54-.28,4.86-1.21,7.37-1.57,1.27-.18,2.64-.04,3.82-.87Zm31.17,3.05c2.04,.81,4.02,1.11,5.98,1.46,5.47,.96,10.91,2.27,16.63,1.46,1.11-.16,2.25-.2,3.23-.72,1.9-1.01,1.98-2.79,.21-3.89-1.02-.63-2.1-1.14-3.37-1.4-2.72-.56-5.44-.79-8.28-.58-4.04,.29-7.82,1.21-11.53,2.42-.94,.3-1.79,.78-2.87,1.26Z" style="fill: #545454; fill-rule: evenodd;"/>
  </g>
</svg>