<?xml version="1.0" encoding="UTF-8"?>
<svg id="Capa_1" data-name="Capa 1" xmlns="http://www.w3.org/2000/svg" viewBox="0 0 400 313">
  <rect x="0" width="400" height="313" style="fill: #d8d8d8;"/>
  <g>
    <path d="M206.69,182.9c.19-.37,.1-.92-.19-1.21l-11.01-11.01c-.3-.29-.54-.88-.54-1.3v-35.42c0-.42-.03-1.1-.08-1.51,0,0-.23-2.35-.84-3.76-.62-1.41-1.46-2.66-2.5-3.7-1.04-1.04-2.29-1.88-3.7-2.5-1.41-.61-3.76-.84-3.76-.84-.42-.04-1.1-.08-1.51-.08h-2.31c-.42,0-1.1,.03-1.51,.08,0,0-2.35,.23-3.76,.84-1.42,.62-2.66,1.46-3.7,2.5-1.04,1.04-1.88,2.29-2.5,3.7-.61,1.4-.84,3.76-.84,3.76-.04,.42-.08,1.1-.08,1.51v8.32c0,.42,.24,1,.54,1.3l8.58,8.58c.3,.3,.54,.2,.54-.22v-17.47c0-.42,.07-1.09,.15-1.5,0,0,.21-1.06,.87-1.73,.67-.67,1.73-.87,1.73-.87,.41-.08,.93-.15,1.15-.15s.74,.07,1.15,.15c0,0,1.06,.21,1.73,.87,.67,.67,.88,1.73,.88,1.73,.08,.41,.15,1.09,.15,1.5v44.05c0,.42-.07,1.09-.15,1.5,0,0-.21,1.06-.87,1.73-.67,.67-1.73,.87-1.73,.87-.41,.08-.93,.15-1.15,.15s-.74-.07-1.15-.15c0,0-1.06-.21-1.73-.88-.67-.66-.87-1.73-.87-1.73-.08-.41-.15-1.09-.15-1.5v-10.92c0-.42-.24-1-.54-1.3l-8.58-8.58c-.3-.3-.54-.2-.54,.22v21.08c0,.42,.03,1.1,.08,1.51,0,0,.23,2.36,.84,3.76,.61,1.42,1.45,2.66,2.5,3.7,1.04,1.04,2.29,1.88,3.7,2.5,1.41,.61,3.76,.84,3.76,.84,.42,.04,1.1,.08,1.51,.08h2.31c.42,0,1.1-.03,1.51-.08,0,0,2.35-.23,3.76-.84,1.41-.61,2.66-1.45,3.7-2.5,1.04-1.04,1.88-2.29,2.5-3.7l.1-.22c.09-.25,.4-.22,.69,.08l6.88,6.89c.3,.29,.69,.23,.88-.14l4.1-8Z" style="fill: #545454;"/>
    <path d="M293.89,182.9c.19-.37,.1-.92-.19-1.21l-11.01-11.01c-.3-.29-.54-.88-.54-1.3v-35.42c0-.42-.03-1.1-.08-1.51,0,0-.23-2.35-.84-3.76-.62-1.41-1.46-2.66-2.5-3.7-1.04-1.04-2.29-1.88-3.7-2.5-1.4-.61-3.76-.84-3.76-.84-.42-.04-1.1-.08-1.51-.08h-2.31c-.42,0-1.1,.03-1.51,.08,0,0-2.35,.23-3.76,.84-1.41,.62-2.66,1.46-3.7,2.5-1.04,1.04-1.88,2.29-2.5,3.7-.61,1.4-.84,3.76-.84,3.76-.04,.42-.08,1.1-.08,1.51v8.32c0,.42,.24,1,.54,1.3l8.58,8.58c.3,.3,.54,.2,.54-.22v-17.47c0-.42,.07-1.09,.15-1.5,0,0,.21-1.06,.87-1.73,.67-.67,1.73-.87,1.73-.87,.41-.08,.93-.15,1.15-.15s.74,.07,1.15,.15c0,0,1.06,.21,1.73,.87,.67,.67,.88,1.73,.88,1.73,.08,.41,.15,1.09,.15,1.5v44.05c0,.42-.07,1.09-.15,1.5,0,0-.21,1.06-.87,1.73-.67,.67-1.73,.87-1.73,.87-.41,.08-.93,.15-1.15,.15s-.74-.07-1.15-.15c0,0-1.06-.21-1.73-.88-.67-.66-.87-1.73-.87-1.73-.08-.41-.15-1.09-.15-1.5v-10.92c0-.42-.24-1-.54-1.3l-8.58-8.58c-.3-.3-.54-.2-.54,.22v21.08c0,.42,.03,1.1,.08,1.51,0,0,.23,2.36,.84,3.76,.61,1.42,1.45,2.66,2.5,3.7,1.04,1.04,2.29,1.88,3.7,2.5,1.4,.61,3.76,.84,3.76,.84,.42,.04,1.1,.08,1.51,.08h2.31c.42,0,1.1-.03,1.51-.08,0,0,2.35-.23,3.76-.84,1.41-.61,2.66-1.45,3.7-2.5,1.04-1.04,1.88-2.29,2.5-3.7l.1-.22c.09-.25,.4-.22,.69,.08l6.89,6.89c.3,.29,.69,.23,.88-.14l4.1-8Z" style="fill: #545454;"/>
    <path d="M144.04,121.58c-1.59,0-3.11,.31-4.51,.92-1.41,.62-2.66,1.46-3.7,2.5-1.04,1.04-1.88,2.29-2.5,3.7-.61,1.4-.92,2.92-.92,4.51v46.58c0,1.59,.31,3.11,.92,4.51,.61,1.42,1.45,2.66,2.5,3.7,1.04,1.04,2.29,1.88,3.7,2.5,1.4,.61,2.92,.92,4.51,.92h3.83c1.59,0,3.11-.31,4.51-.92,1.41-.61,2.66-1.45,3.7-2.5,1.04-1.04,1.88-2.29,2.5-3.7,.61-1.4,.92-2.92,.92-4.51v-46.58c0-1.59-.31-3.11-.92-4.51-.62-1.41-1.46-2.66-2.5-3.7-1.04-1.04-2.29-1.88-3.7-2.5-1.4-.61-2.92-.92-4.51-.92h-3.83Zm2.32,61.2h-.81c-.95,0-1.81-.35-2.47-1.02-.67-.66-1.02-1.52-1.02-2.47v-45.57c0-.95,.35-1.8,1.02-2.47,.67-.67,1.52-1.02,2.47-1.02h.81c.95,0,1.8,.35,2.47,1.02,.67,.67,1.02,1.53,1.02,2.47v45.57c0,.95-.35,1.8-1.02,2.47-.67,.67-1.52,1.02-2.47,1.02Z" style="fill: #545454;"/>
    <path d="M129.31,181.07s-.41,0-.83,0h-12.06c-.42,0-.76-.34-.76-.76v-57.85c0-.09-.08-.17-.17-.17h-9.31c-.09,0-.17,.08-.17,.17v68.09c0,.09,.08,.17,.17,.17h17.55c.42,0,.91-.3,1.1-.68l4.25-8.29c.19-.37,.27-.68,.23-.69Z" style="fill: #545454;"/>
    <path d="M242.75,149.65c-.06,0-.46,0-.87,0h-10.88c-.42,0-.76-.34-.76-.76v-10.88c0-.42,0-.84-.01-.94,0-.1-.05-.54-.05-.78s-.3-.45-.67-.45h-9.05c-.39,0-.72,.34-.72,.76v12.29c0,.42-.34,.76-.76,.76h-5.87c-.42,0-.91,.3-1.1,.68l-4.66,9.1c-.19,.37-.29,.68-.23,.69,.06,0,.59,.02,1.01,.02h10.86c.42,0,.76,.34,.76,.76v12.29c0,.42,.32,.76,.72,.76h9.05c.37,0,.67-.2,.67-.45s.01-.52,.03-.61c.02-.09,.03-.7,.03-1.11v-10.88c0-.42,.34-.76,.76-.76h5.86c.42,0,.91-.3,1.1-.68l4.67-9.11c.19-.37,.19-.69,.13-.69Z" style="fill: #545454;"/>
  </g>
</svg>