<?xml version="1.0" encoding="UTF-8"?>
<svg id="Capa_1" data-name="Capa 1" xmlns="http://www.w3.org/2000/svg" viewBox="0 0 400 313">
  <rect x="0" width="400" height="313" style="fill: #d8d8d8;"/>
  <g>
    <g>
      <polygon points="121.13 147.28 126.25 152.4 126.25 121 62 121 62 126.12 121.13 126.12 121.13 147.28" style="fill: #545454;"/>
      <polygon points="67.12 183.89 67.12 132.87 62 132.87 62 189 89.75 189 84.63 183.89 67.12 183.89" style="fill: #545454;"/>
      <path d="M127.12,169.62c0-11.23-8.72-19.7-20.29-19.7s-20.34,8.47-20.34,19.7,8.75,19.7,20.34,19.7c4.03,0,7.85-1.03,11.08-2.97l5.65,5.65,3.5-3.5-5.25-5.26c3.44-3.58,5.32-8.39,5.32-13.62Zm-12.76,13.18c-2.25,1.2-4.84,1.83-7.53,1.83-8.86,0-15.29-6.32-15.29-15.02s6.43-15.02,15.29-15.02,15.18,6.32,15.18,15.02c0,3.85-1.32,7.42-3.72,10.11l-6.2-6.2-3.5,3.5,5.77,5.78Z" style="fill: #545454;"/>
    </g>
    <g>
      <path d="M141.51,134.2h2.1v18.02h11.1v1.81h-13.2v-19.83Z" style="fill: #545454;"/>
      <path d="M157.66,145.56v-11.36h2.09v11.28c0,4.7,2.21,6.86,6.06,6.86s6.09-2.15,6.09-6.86v-11.28h2.04v11.36c0,5.69-3.06,8.64-8.13,8.64s-8.16-2.95-8.16-8.64Z" style="fill: #545454;"/>
      <path d="M178.5,144.12c0-5.81,4.42-10.08,10.4-10.08,2.89,0,5.5,.96,7.25,2.89l-1.33,1.33c-1.61-1.64-3.6-2.35-5.86-2.35-4.79,0-8.38,3.51-8.38,8.21s3.6,8.22,8.38,8.22c2.27,0,4.25-.71,5.86-2.38l1.33,1.33c-1.76,1.92-4.36,2.92-7.28,2.92-5.95,0-10.37-4.28-10.37-10.09Z" style="fill: #545454;"/>
      <path d="M200.62,134.2h2.1v19.83h-2.1v-19.83Z" style="fill: #545454;"/>
      <path d="M221.61,148.73h-11.05l-2.38,5.3h-2.18l9.07-19.83h2.07l9.07,19.83h-2.21l-2.38-5.3Zm-.77-1.7l-4.76-10.65-4.76,10.65h9.52Z" style="fill: #545454;"/>
      <path d="M246.06,134.2v19.83h-1.73l-12.75-16.09v16.09h-2.1v-19.83h1.73l12.77,16.09v-16.09h2.07Z" style="fill: #545454;"/>
      <path d="M264.95,148.73h-11.05l-2.38,5.3h-2.18l9.07-19.83h2.07l9.07,19.83h-2.21l-2.38-5.3Zm-.76-1.7l-4.76-10.65-4.76,10.65h9.52Z" style="fill: #545454;"/>
      <path d="M141.51,171.96c0-5.78,4.42-10.08,10.42-10.08s10.4,4.28,10.4,10.08-4.45,10.09-10.4,10.09-10.42-4.31-10.42-10.09Zm18.72,0c0-4.73-3.54-8.21-8.3-8.21s-8.36,3.48-8.36,8.21,3.57,8.22,8.36,8.22,8.3-3.48,8.3-8.22Z" style="fill: #545454;"/>
      <path d="M166.86,173.4v-11.36h2.1v11.28c0,4.7,2.21,6.86,6.06,6.86s6.09-2.15,6.09-6.86v-11.28h2.04v11.36c0,5.69-3.06,8.64-8.13,8.64s-8.16-2.95-8.16-8.64Z" style="fill: #545454;"/>
      <path d="M203.48,180.06v1.81h-14.02v-19.83h13.6v1.81h-11.5v7.05h10.25v1.78h-10.25v7.37h11.93Z" style="fill: #545454;"/>
      <path d="M205.04,179.21l1.25-1.42c1.08,1.59,2.52,2.44,4.28,2.44,2.44,0,3.68-1.44,3.68-4.36v-12.01h-7.25v-1.81h9.32v13.74c0,4.19-1.98,6.26-5.78,6.26-2.24,0-4.28-1.02-5.5-2.83Z" style="fill: #545454;"/>
      <path d="M222.6,162.04h2.1v19.83h-2.1v-19.83Z" style="fill: #545454;"/>
      <path d="M231.15,162.04h2.1v18.02h11.1v1.81h-13.2v-19.83Z" style="fill: #545454;"/>
      <path d="M247.84,162.04h2.1v18.02h11.1v1.81h-13.2v-19.83Z" style="fill: #545454;"/>
      <path d="M277.96,176.58h-11.05l-2.38,5.3h-2.18l9.07-19.83h2.07l9.07,19.83h-2.21l-2.38-5.3Zm-.76-1.7l-4.76-10.65-4.76,10.65h9.52Z" style="fill: #545454;"/>
      <path d="M300.35,162.04l-8.78,19.83h-2.07l-8.78-19.83h2.27l7.59,17.22,7.65-17.22h2.12Z" style="fill: #545454;"/>
      <path d="M317.23,180.06v1.81h-14.02v-19.83h13.6v1.81h-11.5v7.05h10.25v1.78h-10.25v7.37h11.93Z" style="fill: #545454;"/>
      <path d="M335.7,181.87l-4.53-6.37c-.51,.06-1.02,.08-1.59,.08h-5.33v6.29h-2.1v-19.83h7.42c5.04,0,8.1,2.55,8.1,6.8,0,3.12-1.64,5.3-4.53,6.23l4.84,6.8h-2.29Zm-.11-13.03c0-3.17-2.1-4.99-6.06-4.99h-5.27v9.94h5.27c3.97,0,6.06-1.84,6.06-4.96Z" style="fill: #545454;"/>
      <rect x="156.69" y="173.62" width="2.01" height="10.48" transform="translate(-80.28 163.89) rotate(-45)" style="fill: #545454;"/>
    </g>
  </g>
</svg>