<?xml version="1.0" encoding="UTF-8"?>
<svg id="Capa_1" data-name="Capa 1" xmlns="http://www.w3.org/2000/svg" viewBox="0 0 400 313">
  <rect x="0" width="400" height="313" style="fill: #d8d8d8;"/>
  <g>
    <g>
      <path d="M125.33,199.54c-.36-.98-.9-1.87-1.61-2.66-.72-.79-1.62-1.42-2.69-1.87-1.07-.45-2.3-.68-3.68-.68h-8.3v2.11l.44-.11c.22-.06,.36-.05,.43-.01,.08,.03,.22,.12,.39,.35,.09,.12,.2,.38,.2,.94v32.81c0,.52-.11,.77-.2,.89-.12,.16-.24,.25-.33,.27l-.14,.03-.06,.05s-.12,0-.25-.06l-.48-.18v2.28h7.25v-2.3l-.5,.21c-.15,.07-.28,.07-.4,0l-.07-.03s-.08-.03-.21-.25c-.08-.12-.17-.38-.17-.92v-13.75h2.4c1.37,0,2.61-.23,3.68-.68,1.07-.45,1.98-1.08,2.69-1.87,.71-.79,1.25-1.69,1.61-2.69,.35-.99,.53-2,.53-3,.04-.85,.05-1.83,.05-2.91s-.02-2.08-.05-2.94c0-1.05-.18-2.07-.53-3.04Zm-6.63,14.71c-.4,.16-.75,.24-1.03,.24h-2.73v-18.09h2.73c.26,0,.6,.1,1,.31,.42,.22,.83,.52,1.22,.89,.38,.36,.71,.87,1,1.51,.28,.63,.43,1.4,.43,2.28v8.16c0,.91-.14,1.68-.42,2.28-.29,.61-.63,1.14-1.02,1.56-.38,.41-.77,.7-1.17,.86Z" style="fill: #545454;"/>
      <path d="M144.19,201.09c-.11-1.21-.49-2.29-1.11-3.22-.62-.92-1.37-1.67-2.24-2.23-.64-.41-1.34-.74-2.09-.96-2.29-.68-4.44-.32-6.51,.96-.87,.57-1.61,1.32-2.21,2.24-.6,.93-.99,2-1.13,3.17-.29,1.38-.46,3.14-.49,5.23-.04,2.05-.05,4.68-.05,7.82v6.11c0,1.74,.05,3.26,.14,4.54,.09,1.3,.26,2.41,.5,3.31,.24,.92,.61,1.75,1.1,2.46,.75,1.13,1.74,2,2.92,2.58,1.18,.58,2.37,.87,3.54,.87s2.4-.29,3.56-.87c1.17-.59,2.14-1.45,2.89-2.58,.49-.71,.86-1.54,1.1-2.46,.24-.9,.41-2.01,.5-3.31,.09-1.29,.14-2.82,.14-4.54v-6.11c0-3.13-.03-5.76-.08-7.82-.05-2.07-.21-3.83-.46-5.18Zm-7.6,30.97c-1.26,0-2.18-.42-2.82-1.29-.65-.89-.99-2.44-.99-4.63v-23.99c0-2.17,.37-3.69,1.1-4.52,.73-.83,1.6-1.23,2.65-1.23s1.92,.4,2.65,1.23c.73,.83,1.1,2.35,1.1,4.52v5.43c0,2.11,.02,4.31,.05,6.51-.04,2.25-.05,4.47-.05,6.6v5.46c0,2.19-.32,3.74-.94,4.63-.6,.86-1.5,1.28-2.76,1.28Z" style="fill: #545454;"/>
      <path d="M159.74,227.64c-.03,.8-.14,1.49-.31,2.07-.16,.52-.43,.98-.78,1.35-.33,.34-.81,.51-1.47,.51h-4.72v-33.96c0-.59,.09-.85,.16-.97,.15-.24,.25-.31,.24-.31h0c.15-.05,.34-.05,.56,0l.44,.11v-2.11h-7.25v2.11l.44-.11c.22-.06,.36-.05,.43-.01,.08,.03,.22,.12,.39,.35,.09,.12,.2,.38,.2,.94v32.81c0,.52-.11,.77-.2,.89-.12,.16-.24,.25-.33,.27l-.14,.03-.07,.05s-.12,0-.25-.06l-.48-.18v2.28h15.25v-6.39h-2.1v.34Z" style="fill: #545454;"/>
      <path d="M179.48,201.09c-.11-1.21-.49-2.29-1.11-3.22-.62-.92-1.37-1.67-2.24-2.23-.64-.41-1.34-.74-2.09-.96-2.29-.68-4.44-.32-6.51,.96-.87,.57-1.61,1.32-2.21,2.24-.6,.93-.99,2-1.13,3.17-.29,1.38-.46,3.14-.49,5.23-.04,2.05-.05,4.68-.05,7.82v6.11c0,1.74,.05,3.26,.14,4.54,.09,1.3,.26,2.41,.5,3.31,.24,.92,.61,1.75,1.1,2.46,.75,1.13,1.74,2,2.92,2.58,1.18,.58,2.37,.87,3.53,.87s2.4-.29,3.56-.87c1.17-.59,2.14-1.45,2.89-2.58,.49-.71,.86-1.54,1.1-2.46,.24-.9,.41-2.01,.5-3.31,.09-1.29,.14-2.82,.14-4.54v-6.11c0-3.13-.03-5.76-.08-7.82-.05-2.07-.21-3.83-.46-5.18Zm-7.6,30.97c-1.26,0-2.18-.42-2.82-1.29-.65-.89-.98-2.44-.98-4.63v-23.99c0-2.17,.37-3.69,1.1-4.52,.73-.83,1.6-1.23,2.65-1.23s1.92,.4,2.65,1.23c.73,.83,1.1,2.35,1.1,4.52v5.43c0,2.11,.02,4.31,.05,6.51-.04,2.25-.05,4.47-.05,6.6v5.46c0,2.19-.31,3.74-.94,4.63-.6,.86-1.5,1.28-2.76,1.28Z" style="fill: #545454;"/>
      <path d="M187.5,200.78h2.16v-.34c.05-.83,.17-1.56,.38-2.19,.13-.49,.38-.96,.74-1.41,.33-.4,.8-.6,1.45-.6h1.91v34.18c0,.53-.1,.79-.18,.9-.1,.15-.21,.24-.29,.26l-.11,.04s-.19,.05-.39-.03l-.48-.18v2.28h7.25v-2.3l-.5,.21c-.14,.06-.24,.07-.32,.02l-.11-.04c-.08-.02-.16-.1-.25-.24-.07-.12-.16-.38-.16-.92v-34.18h1.86c.62,0,1.08,.2,1.43,.6,.38,.45,.66,.93,.82,1.4,.17,.62,.28,1.36,.31,2.19v.34h2.12v-6.44h-17.63v6.44Z" style="fill: #545454;"/>
      <path d="M222.75,201.09c-.11-1.21-.49-2.29-1.11-3.22-.62-.92-1.37-1.67-2.24-2.23-.64-.41-1.34-.74-2.09-.96-2.29-.68-4.44-.32-6.51,.96-.87,.57-1.61,1.32-2.21,2.24-.6,.93-.99,2-1.13,3.17-.29,1.38-.46,3.14-.5,5.23-.03,2.05-.05,4.68-.05,7.82v6.11c0,1.74,.05,3.26,.14,4.54,.09,1.3,.26,2.41,.5,3.31,.24,.92,.61,1.75,1.1,2.46,.75,1.13,1.74,2,2.92,2.58,1.18,.58,2.37,.87,3.54,.87s2.4-.29,3.56-.87c1.17-.59,2.14-1.45,2.89-2.58,.49-.71,.86-1.54,1.1-2.46,.24-.9,.41-2.01,.5-3.31,.09-1.29,.14-2.82,.14-4.54v-6.11c0-3.13-.03-5.76-.08-7.82-.05-2.07-.21-3.83-.46-5.18Zm-7.6,30.97c-1.26,0-2.18-.42-2.82-1.29-.65-.89-.98-2.44-.98-4.63v-23.99c0-2.17,.37-3.69,1.1-4.52,.73-.83,1.6-1.23,2.65-1.23s1.92,.4,2.65,1.23c.73,.83,1.1,2.35,1.1,4.52v5.43c0,2.11,.02,4.31,.06,6.51-.04,2.25-.06,4.47-.06,6.6v5.46c0,2.19-.31,3.74-.93,4.63-.6,.86-1.51,1.28-2.76,1.28Z" style="fill: #545454;"/>
      <path d="M247.92,196.48l.43-.08c.29-.06,.56-.05,.66-.02,.1,.04,.19,.14,.28,.3,.05,.09,.12,.33,.04,.91,0,.08-.09,.55-.24,1.4-.16,.92-.37,2.14-.62,3.65-.25,1.51-.54,3.23-.87,5.16-.32,1.93-.67,3.9-1.03,5.91-.36,2.02-.72,4.02-1.08,6-.23,1.23-.44,2.4-.65,3.48-.18-1.08-.37-2.24-.56-3.47-.31-1.98-.61-3.98-.92-6-.31-2.02-.6-3.99-.89-5.92-.29-1.93-.55-3.65-.78-5.16l-.57-3.65c-.13-.85-.21-1.32-.21-1.43-.08-.56,0-.79,.04-.89,.08-.15,.18-.25,.31-.29,.15-.05,.39-.05,.68,.01l.43,.08v-2.14h-8.66v2.15l.43-.09c.27-.06,.57-.06,.8,0,.2,.06,.4,.18,.61,.38,.19,.18,.32,.48,.37,.85,0,.04,0,.09,.17,1.11l1.05,6.65c.23,1.48,.49,3.06,.78,4.73-.43,2.56-.89,5.19-1.37,7.82-.34,1.88-.66,3.62-.96,5.21-.18-1.07-.37-2.21-.55-3.42-.31-1.98-.62-3.98-.95-6-.32-2.01-.63-3.99-.92-5.91-.29-1.93-.55-3.65-.78-5.16-.23-1.51-.41-2.73-.54-3.64-.12-.86-.18-1.33-.19-1.38v-.07c-.12-.54-.05-.76,0-.85,.1-.16,.21-.26,.33-.3,.19-.06,.43-.05,.69,0l.43,.09v-2.15h-8.71v2.15l.43-.09c.27-.06,.56-.06,.81,0,.23,.06,.43,.18,.62,.37,.18,.18,.32,.49,.41,.91,.01,.1,.06,.42,.24,1.62,.16,1.05,.38,2.41,.65,4.08,.27,1.67,.57,3.58,.89,5.73,.32,2.15,.67,4.32,1.03,6.51l2.86,18.03h3.42l.05-.3c.33-1.93,.69-3.96,1.08-6.05,.32-1.84,.69-3.88,1.11-6.13,.29-1.59,.59-3.2,.89-4.85,.25,1.65,.51,3.26,.76,4.84,.36,2.25,.68,4.29,.97,6.14,.36,2.1,.68,4.14,.97,6.05l.04,.3h3.42l.05-.29c1.19-6.59,2.25-12.5,3.19-17.73,.4-2.2,.79-4.37,1.19-6.51,.4-2.14,.75-4.05,1.05-5.73,.31-1.68,.55-3.04,.73-4.09,.2-1.19,.26-1.52,.27-1.62,.09-.43,.23-.73,.41-.91,.19-.19,.39-.31,.61-.36,.27-.06,.57-.06,.88,0l.43,.08v-2.14h-5.95v2.14Z" style="fill: #545454;"/>
      <path d="M255.32,196.44l.44-.11c.22-.06,.36-.05,.43-.01,.11,.04,.23,.16,.35,.33,.08,.12,.18,.38,.18,.96v32.81c0,.53-.1,.79-.18,.9-.14,.2-.24,.25-.29,.26l-.14,.03-.07,.05s-.12,0-.25-.06l-.48-.18v2.28h15.79v-6.39h-2.1v.34c-.05,.8-.15,1.51-.32,2.12-.16,.52-.44,.98-.81,1.37-.35,.36-.82,.54-1.45,.54h-5.26v-16.53h3.43c.37,0,.64,.1,.82,.29,.21,.23,.37,.5,.47,.83,.13,.32,.19,.71,.19,1.17v.36h1.95v-7.36h-1.95v.36c0,.46-.07,.87-.2,1.24-.09,.27-.24,.51-.46,.72-.18,.19-.45,.28-.83,.28h-3.43v-16.8h5.26c.62,0,1.08,.2,1.43,.6,.38,.45,.66,.93,.82,1.4,.17,.62,.28,1.34,.31,2.14v.34h2.12v-6.39h-15.79v2.11Z" style="fill: #545454;"/>
      <path d="M290,231.82c-.06,.03-.19,.07-.43,.07-.51,0-.77-.21-.87-.71-.12-.64-.18-1.42-.18-2.34v-8.65c0-2.21-.88-3.81-2.61-4.76,1.24-.67,2.19-1.61,2.84-2.8,.75-1.38,1.12-2.82,1.12-4.28v-5.89c0-1.05-.18-2.07-.53-3.04-.36-.98-.9-1.86-1.62-2.61-.71-.75-1.62-1.37-2.68-1.84-1.07-.47-2.31-.71-3.68-.71h-8.08v2.06l.41-.06c.11-.01,.21-.02,.3-.02,.08,0,.16,0,.16,0,.08,.03,.2,.12,.35,.35,.08,.13,.19,.4,.19,.94v32.86c0,.53-.1,.79-.18,.9-.1,.15-.21,.24-.29,.26l-.11,.04c-.08,.05-.19,.04-.33-.02l-.5-.21v2.3h7.2v-2.3l-.5,.21c-.15,.07-.28,.07-.4,0l-.08-.03s-.08-.03-.21-.25c-.07-.12-.16-.38-.16-.92v-13.8h1.82c.31,.03,.66,.09,1.04,.18,.35,.08,.67,.23,.98,.45,.29,.22,.54,.54,.72,.97,.19,.44,.29,1.03,.29,1.77v8.88c.04,.98,.2,1.81,.49,2.48,.29,.67,.65,1.23,1.08,1.65,.43,.43,.9,.75,1.42,.95,.51,.2,1.02,.29,1.53,.29,.59,0,1.08-.09,1.46-.28,.35-.17,.65-.36,.88-.56l.13-.11v-1.93l-.95,.48Zm-4.68-22.33c0,.88-.14,1.64-.43,2.26-.29,.62-.63,1.14-1.01,1.52-.38,.38-.78,.67-1.19,.84-.4,.18-.75,.27-1.02,.27h-2.56v-18.04h2.56c.27,0,.61,.1,1.01,.29,.41,.2,.81,.5,1.19,.9,.38,.4,.72,.92,1.01,1.55,.28,.62,.43,1.36,.43,2.2v8.21Z" style="fill: #545454;"/>
    </g>
    <g>
      <path d="M238.33,105.82c-8.27-12.42-22.39-20.62-38.39-20.62s-30.1,8.2-38.38,20.61l.7,.7c8.08-12.24,21.94-20.35,37.67-20.35s29.62,8.1,37.7,20.35h0s.69-.69,.69-.69Z" style="fill: #545454;"/>
      <g>
        <g>
          <path d="M160.94,126.84v-.18s-.16,0-.16,0c-.12-.02-.47-.1-.91-.1-.89,0-2.45,.33-2.89,2.52l-.02,.08,.05,.06c.08,.09,.69,.23,1.25,.23,.88,0,2.4-.34,2.68-2.6Z" style="fill: #545454;"/>
          <path d="M162.2,117.74l-.13-.05c-.17-.07-.79-.31-1.52-.31-.89,0-2.06,.36-2.62,2.07l-.04,.1,.09,.07c.06,.04,.82,.44,1.68,.44s1.97-.38,2.5-2.19l.03-.13Z" style="fill: #545454;"/>
          <path d="M163.41,113.28h-.21c-.57-.28-1.15-.43-1.69-.43-.78,0-1.85,.32-2.5,1.88l-.04,.09,.07,.07c.06,.07,.94,.6,1.89,.6,.77,0,1.81-.35,2.37-2.01l.1-.2Z" style="fill: #545454;"/>
          <path d="M158.49,114.88l.02-.14,.15,.02c.21-1.14,.05-2.05-.48-2.69-.78-.94-2.09-.98-2.34-.98l-.22,.04v.1c-.14,1.06,.06,1.93,.58,2.57,.5,.61,1.3,1,2.29,1.09Z" style="fill: #545454;"/>
          <path d="M160.45,110.11l-.04,.08,.05,.08c.06,.08,1.01,.77,2.06,.77,.7,0,1.68-.32,2.35-1.8l.14-.22h-.24c-.79-.47-1.45-.57-1.86-.57-1.02,0-1.85,.56-2.45,1.66Z" style="fill: #545454;"/>
          <path d="M159.92,110.22l.04-.14,.15,.04c.34-1.15,.25-2.09-.27-2.78-.7-.92-1.97-1.12-2.28-1.12h-.14s-.03,.13-.03,.13c-.23,1.05-.12,1.92,.33,2.59,.44,.66,1.21,1.11,2.19,1.28Z" style="fill: #545454;"/>
          <path d="M167.84,156.9l-.12,.34c-.94,.36-1.63,.95-1.94,1.68-.3,.69-.26,1.5,.12,2.38l.04,.09h.1c.1,0,1.41-.35,2.04-1.38,.46-.76,.42-1.67-.12-2.71l-.11-.4Z" style="fill: #545454;"/>
          <path d="M163.91,158.01h0l-2.11-4.38h0c-.12-.26-.22-.53-.33-.8h.11c.24,0,1.58-.2,2.31-1.16,.5-.67,.6-1.54,.3-2.59l-.04-.42-.18,.33c-.98,.19-1.76,.67-2.2,1.33-.42,.64-.54,1.44-.33,2.41-.26-.66-.51-1.31-.74-1.96-.2-.55-.4-1.1-.61-1.65l-.14,.05,.14-.06c-.44-1.03-.71-2.14-.98-3.22-.12-.47-.24-.95-.37-1.42l-.15,.04,.15-.04c-.48-1.66-.8-3.2-.97-4.73-.07-.57-.16-1.14-.26-1.71-.17-1.01-.35-2.05-.35-3.08h0s-.25-4.85-.25-4.85l.25-4.85h-.16s.16,0,.16,0c0-.29,.01-.58,.04-.87l.1,.06s.65,.3,1.46,.3c.95,0,2.17-.42,2.62-2.38l.06-.19h-.2c-.41-.13-.81-.19-1.21-.19-.98,0-2.26,.4-2.81,2.28l-.03,.1c.06-.74,.19-1.48,.3-2.19,.1-.57,.2-1.14,.26-1.71,.18-1.53,.5-3.07,.97-4.73l-.15-.05,.15,.04c.13-.48,.25-.94,.37-1.42,.26-1.08,.54-2.18,.98-3.22l-.14-.06,.14,.05c.21-.55,.41-1.1,.61-1.65,.34-.95,.32-1.05,.73-1.99l-.23-.23c-.42,.95-.44,1.16-.78,2.12-.2,.55-.4,1.1-.6,1.65h0c-.45,1.06-.72,2.17-.99,3.26-.12,.47-.23,.95-.36,1.41h0c-.38,1.32-.66,2.57-.85,3.8,.1-1.07-.11-1.91-.63-2.49-.92-1.02-2.47-.83-2.52-.82l-.12,.02v.12c-.09,1.05,.14,1.88,.69,2.47,.8,.87,2.02,.94,2.38,.94l-.02-.02,.18,.09c-.03,.22-.07,.45-.09,.67-.07,.57-.16,1.13-.26,1.69-.12,.72-.25,1.47-.31,2.22,.06-1.05-.16-1.85-.66-2.4-.6-.64-1.44-.77-2.03-.77,0,0-.63,0-.73,.11l-.04,.1c-.02,1.01,.24,1.8,.77,2.34,.7,.71,1.69,.82,2.21,.82,.16,0,.27,0,.32-.02h.15c-.02,.25-.03,.49-.03,.74h0l-.2,3.99h0c-.04-2.61-1.68-3-2.66-3-.04,0-1.04,0-1.05,.29,.22,2.54,1.92,2.91,2.91,2.91,.3,0,.53-.04,.64-.05h.15s-.04,.72-.04,.72h.15s-.15,.01-.15,.01l.2,3.99h0c-.28-2.42-1.79-2.78-2.66-2.78-.62,0-1.2,.18-1.27,.25l-.06,.06,.02,.08c.44,2.33,2,2.67,2.89,2.67,.45,0,.8-.08,.92-.11h.17l.03,.7h0c0,1.06,.18,2.12,.35,3.14,.05,.28,.09,.57,.13,.85v-.02c-.47-2.1-1.72-2.55-2.68-2.55-.75,0-1.43,.28-1.5,.36l-.06,.06,.02,.08c.6,2.01,1.88,2.43,2.86,2.43,.39,0,.79-.06,1.19-.2h.18c.03,.23,.08,.45,.1,.68,.15,1.25,.39,2.52,.73,3.84-.61-1.86-1.73-2.26-2.57-2.26s-1.51,.37-1.64,.45l-.11,.06,.04,.12c.64,1.83,1.84,2.21,2.73,2.21,.65,0,1.2-.2,1.48-.31l.14-.04c.06,.23,.12,.47,.19,.71h0c.13,.47,.25,.94,.36,1.41,.2,.78,.39,1.59,.66,2.37-.65-1.72-1.7-2.08-2.47-2.08-.94,0-1.82,.54-1.87,.63l-.04,.07,.03,.07c.67,1.67,1.78,2.02,2.59,2.02s1.52-.35,1.72-.46l.11-.06c.08,.24,.17,.47,.27,.7h0c.21,.55,.41,1.09,.6,1.64,.34,.96,.7,1.96,1.11,2.9l.14-.06-.14,.07,1.73,3.59c-.65-1.15-1.47-1.74-2.43-1.74-1.15,0-2.09,.87-2.14,.95l-.06,.09,.06,.08c.7,1.05,1.54,1.58,2.5,1.58,.65,0,1.36-.26,1.93-.72h.25l.27,.55,.14-.07-.14,.07c.49,.91,1.04,1.8,1.58,2.67,.16,.26,.31,.52,.47,.78h0c-.71-1.02-1.52-1.54-2.4-1.54-1.23,0-2.18,1.01-2.24,1.12l-.05,.09,.07,.08c.74,.91,1.55,1.36,2.43,1.36,.73,0,1.49-.32,2.07-.89l.27-.24c.1,.16-.11-.14,0,.03l.32-.21c-.3-.51-.34-.24-.65-.74-.53-.86-1.08-1.74-1.56-2.64Z" style="fill: #545454;"/>
          <path d="M163.6,154.69c-.36,.67-.4,1.47-.1,2.42l.04,.1h.11c.13,0,1.49-.28,2.17-1.28,.48-.72,.51-1.61,.09-2.66l-.08-.4-.15,.33c-.97,.27-1.7,.81-2.08,1.51Z" style="fill: #545454;"/>
          <path d="M161.03,153.18h.24l-.1-.22c-.71-1.61-1.72-1.96-2.44-1.96-1.09,0-1.97,.72-2.02,.78l-.06,.08,.05,.08c.64,1.2,1.49,1.81,2.55,1.81,.41,0,1.06-.1,1.77-.57Z" style="fill: #545454;"/>
          <path d="M159.79,148.29h.14c.16,0,1.58-.03,2.4-.99,.51-.61,.68-1.46,.49-2.52v-.25s-.2,.13-.2,.13c-.47,.05-1.64,.27-2.34,1.16-.47,.61-.64,1.39-.51,2.35l.02,.13Z" style="fill: #545454;"/>
          <path d="M158.53,143.59l.1,.03c.06,.02,.27,.02,.28,.02,.46,0,1.6-.09,2.32-.9,.49-.56,.68-1.36,.55-2.37l-.02-.14h-.14c-.27,0-1.64,.06-2.48,.99-.5,.56-.71,1.32-.62,2.27v.1Z" style="fill: #545454;"/>
          <path d="M158.32,138.93c.53,0,1.51-.11,2.16-.81,.48-.52,.68-1.28,.6-2.24l.05-.4-.24,.25s-.13,0-.24,0c-.54,0-1.55,.11-2.25,.81-.51,.52-.77,1.25-.76,2.19,0,.1,.01,.19,.69,.19Z" style="fill: #545454;"/>
          <path d="M158.13,134.19c1,0,2.67-.37,2.71-2.82l-.02-.16h-.16c-.09-.01-.3-.04-.58-.04-1,0-2.72,.36-2.95,2.76v.07s.04,.05,.04,.05c.09,.09,.64,.15,.96,.15Z" style="fill: #545454;"/>
        </g>
        <g>
          <path d="M239.06,126.84v-.18s.16,0,.16,0c.12-.02,.47-.1,.91-.1,.89,0,2.45,.33,2.89,2.52l.02,.08-.05,.06c-.08,.09-.7,.23-1.25,.23-.88,0-2.4-.34-2.68-2.6Z" style="fill: #545454;"/>
          <path d="M237.8,117.74l.13-.05c.17-.07,.79-.31,1.52-.31,.89,0,2.06,.36,2.62,2.07l.04,.1-.09,.07c-.06,.04-.82,.44-1.68,.44s-1.97-.38-2.5-2.19l-.03-.13Z" style="fill: #545454;"/>
          <path d="M236.59,113.28h.21c.57-.28,1.15-.43,1.69-.43,.78,0,1.85,.32,2.5,1.88l.04,.09-.07,.07c-.06,.07-.94,.6-1.89,.6-.78,0-1.81-.35-2.37-2.01l-.1-.2Z" style="fill: #545454;"/>
          <path d="M241.51,114.88l-.02-.14-.15,.02c-.21-1.14-.05-2.05,.48-2.69,.78-.94,2.09-.98,2.34-.98l.22,.04v.1c.14,1.06-.06,1.93-.58,2.57-.5,.61-1.3,1-2.29,1.09Z" style="fill: #545454;"/>
          <path d="M239.55,110.11l.04,.08-.05,.08c-.06,.08-1.01,.77-2.06,.77-.7,0-1.68-.32-2.35-1.8l-.14-.22h.24c.79-.47,1.45-.57,1.86-.57,1.02,0,1.85,.56,2.45,1.66Z" style="fill: #545454;"/>
          <path d="M240.08,110.22l-.04-.14-.15,.04c-.34-1.15-.25-2.09,.27-2.78,.7-.92,1.97-1.12,2.28-1.12h.14s.03,.13,.03,.13c.23,1.05,.12,1.92-.33,2.59-.44,.66-1.21,1.11-2.19,1.28Z" style="fill: #545454;"/>
          <path d="M232.16,156.9l.12,.34c.94,.36,1.63,.95,1.94,1.68,.3,.69,.26,1.5-.12,2.38l-.04,.09h-.1c-.1,0-1.41-.35-2.04-1.38-.46-.76-.42-1.67,.12-2.71l.11-.4Z" style="fill: #545454;"/>
          <path d="M236.08,158.01h0l2.11-4.38h0c.12-.26,.22-.53,.33-.8h-.11c-.24,0-1.58-.2-2.31-1.16-.5-.67-.6-1.54-.3-2.59l.04-.42,.18,.33c.98,.19,1.76,.67,2.2,1.33,.42,.64,.54,1.44,.34,2.41,.26-.66,.51-1.31,.74-1.96,.2-.55,.4-1.1,.61-1.65l.14,.05-.14-.06c.44-1.03,.71-2.14,.98-3.22,.12-.47,.24-.95,.37-1.42l.15,.04-.15-.04c.48-1.66,.8-3.2,.97-4.73,.07-.57,.16-1.14,.27-1.71,.17-1.01,.35-2.05,.34-3.08h0s.25-4.85,.25-4.85l-.25-4.85h.16s-.16,0-.16,0c0-.29-.01-.58-.04-.87l-.1,.06s-.65,.3-1.46,.3c-.95,0-2.17-.42-2.62-2.38l-.06-.19h.2c.41-.13,.81-.19,1.21-.19,.98,0,2.26,.4,2.81,2.28l.03,.1c-.06-.74-.19-1.48-.3-2.19-.1-.57-.2-1.14-.27-1.71-.18-1.53-.5-3.07-.97-4.73l.15-.05-.15,.04c-.13-.48-.25-.94-.37-1.42-.26-1.08-.54-2.18-.98-3.22l.14-.06-.14,.05c-.21-.55-.41-1.1-.61-1.65-.34-.95-.32-1.05-.73-1.99l.24-.23c.42,.95,.44,1.16,.78,2.12,.2,.55,.4,1.1,.6,1.65h0c.45,1.06,.72,2.17,.99,3.26,.12,.47,.23,.95,.36,1.41h0c.38,1.32,.66,2.57,.85,3.8-.1-1.07,.11-1.91,.63-2.49,.92-1.02,2.47-.83,2.52-.82l.12,.02v.12c.09,1.05-.14,1.88-.69,2.47-.8,.87-2.02,.94-2.38,.94l.02-.02-.18,.09c.03,.22,.07,.45,.09,.67,.07,.57,.16,1.13,.26,1.69,.12,.72,.25,1.47,.31,2.22-.06-1.05,.16-1.85,.66-2.4,.6-.64,1.44-.77,2.03-.77,0,0,.63,0,.73,.11l.04,.1c.02,1.01-.24,1.8-.77,2.34-.7,.71-1.69,.82-2.21,.82-.16,0-.27,0-.32-.02h-.15c.02,.25,.03,.49,.03,.74h0l.2,3.99h0c.04-2.61,1.68-3,2.66-3,.04,0,1.04,0,1.05,.29-.22,2.54-1.92,2.91-2.91,2.91-.3,0-.53-.04-.64-.05h-.15s.04,.72,.04,.72h-.15s.15,.01,.15,.01l-.2,3.99h0c.28-2.42,1.79-2.78,2.66-2.78,.62,0,1.2,.18,1.27,.25l.06,.06-.02,.08c-.44,2.33-2,2.67-2.89,2.67-.45,0-.8-.08-.92-.11h-.17l-.03,.7h0c0,1.06-.18,2.12-.35,3.14-.05,.28-.09,.57-.13,.85v-.02c.47-2.1,1.72-2.55,2.68-2.55,.75,0,1.43,.28,1.5,.36l.06,.06-.02,.08c-.6,2.01-1.88,2.43-2.86,2.43-.39,0-.79-.06-1.19-.2h-.18c-.03,.23-.08,.45-.1,.68-.15,1.25-.39,2.52-.73,3.84,.61-1.86,1.73-2.26,2.57-2.26s1.51,.37,1.64,.45l.11,.06-.04,.12c-.64,1.83-1.84,2.21-2.73,2.21-.65,0-1.2-.2-1.48-.31l-.14-.04c-.06,.23-.12,.47-.19,.71h0c-.13,.47-.25,.94-.36,1.41-.2,.78-.39,1.59-.66,2.37,.65-1.72,1.7-2.08,2.47-2.08,.94,0,1.82,.54,1.87,.63l.04,.07-.03,.07c-.67,1.67-1.78,2.02-2.59,2.02s-1.52-.35-1.72-.46l-.11-.06c-.08,.24-.17,.47-.27,.7h0c-.21,.55-.41,1.09-.6,1.64-.34,.96-.7,1.96-1.11,2.9l-.14-.06,.14,.07-1.73,3.59c.65-1.15,1.47-1.74,2.43-1.74,1.15,0,2.09,.87,2.14,.95l.06,.09-.06,.08c-.7,1.05-1.54,1.58-2.5,1.58-.65,0-1.36-.26-1.93-.72h-.24l-.27,.55-.14-.07,.14,.07c-.49,.91-1.04,1.8-1.58,2.67-.16,.26-.31,.52-.47,.78h0c.71-1.02,1.51-1.54,2.4-1.54,1.23,0,2.18,1.01,2.24,1.12l.05,.09-.07,.08c-.74,.91-1.55,1.36-2.43,1.36-.73,0-1.49-.32-2.07-.89l-.27-.24c-.1,.16,.11-.14,0,.03l-.32-.21c.3-.51,.34-.24,.65-.74,.53-.86,1.08-1.74,1.56-2.64Z" style="fill: #545454;"/>
          <path d="M236.39,154.69c.36,.67,.4,1.47,.1,2.42l-.04,.1h-.11c-.13,0-1.49-.28-2.17-1.28-.48-.72-.51-1.61-.09-2.66l.08-.4,.15,.33c.97,.27,1.7,.81,2.08,1.51Z" style="fill: #545454;"/>
          <path d="M238.97,153.18h-.24l.1-.22c.71-1.61,1.72-1.96,2.44-1.96,1.09,0,1.97,.72,2.02,.78l.06,.08-.05,.08c-.64,1.2-1.49,1.81-2.55,1.81-.41,0-1.07-.1-1.77-.57Z" style="fill: #545454;"/>
          <path d="M240.21,148.29h-.14c-.16,0-1.58-.03-2.4-.99-.51-.61-.68-1.46-.49-2.52v-.25s.2,.13,.2,.13c.47,.05,1.64,.27,2.34,1.16,.47,.61,.64,1.39,.51,2.35l-.02,.13Z" style="fill: #545454;"/>
          <path d="M241.47,143.59l-.09,.03c-.06,.02-.27,.02-.28,.02-.46,0-1.6-.09-2.32-.9-.49-.56-.68-1.36-.55-2.37l.02-.14h.14c.27,0,1.64,.06,2.48,.99,.5,.56,.71,1.32,.62,2.27v.1Z" style="fill: #545454;"/>
          <path d="M241.68,138.93c-.53,0-1.51-.11-2.16-.81-.48-.52-.68-1.28-.6-2.24l-.05-.4,.24,.25s.13,0,.24,0c.54,0,1.55,.11,2.25,.81,.51,.52,.77,1.25,.76,2.19,0,.1-.01,.19-.69,.19Z" style="fill: #545454;"/>
          <path d="M241.87,134.19c-1,0-2.67-.37-2.71-2.82l.02-.16h.16c.09-.01,.3-.04,.58-.04,1,0,2.72,.36,2.95,2.76v.07s-.04,.05-.04,.05c-.09,.09-.64,.15-.96,.15Z" style="fill: #545454;"/>
        </g>
        <path d="M232.92,162.62c-8.24,8.83-19.95,14.38-32.96,14.38s-24.73-5.54-32.97-14.37v.02l-.67,.67c8.42,9,20.37,14.64,33.64,14.64s25.23-5.65,33.64-14.66l-.68-.68h-.01Z" style="fill: #545454;"/>
        <path d="M227.24,176.07c-.32-1.16-1.42-1.53-2.32-2.37-.9-.84-1-3.63-1.05-5.79-.05-2.16-.05-7.74,0-9.32,.05-1.58-1.61-3.26-2.32-5.32-.71-2.05,0-3.08,.47-6.24,.47-3.16-.08-7.11-.71-10.18-.63-3.07-3-5.3-4.74-7.12-1.74-1.82-4.98-3.79-6.16-4.74-1.18-.95-.63-5.13-.71-7.11-.08-1.97,1.11-2.92,2.21-4.26,1.1-1.34,.08-2.29-.63-3.16-.71-.87-3.08-3.16-5.13-4.74-2.05-1.58-3.87-2.37-4.74-3-.64-.46-.68-1.22-.62-2.13,7.41-8.1,16-17.28,16.65-16.99,1.16,.53,2.11,1.79,2.53,1.79s2.11-.86,1.26-1.8c-.84-.94-5.06-4.84-5.69-4.84s-1.99,1.13-1.36,1.56c.63,.42,2.38,1.54,1.75,2.38-.34,.45-8.04,8.8-15.1,16.31-.14-1.38-.92-3.37-1.4-4.26-.55-1.03-2.45-.95-4.03-.63-1.58,.32-1.82,1.34-2.53,2.13-.71,.79-1.74,.63-2.53,.79-.79,.16-.71,1.19,.47,1.42,1.18,.24,1.66,.47,1.89,1.42,.24,.95,1.19,2.45,1.58,3.24,.29,.58,.62,1.46,.68,2.07-2.24,2.34-4.07,4.21-5.06,5.14-.06-.16-.12-.3-.2-.42-.32-.47-1.26-.71-1.42,1.03-.16,1.74-1.58,1.66-2.13,1.58-.55-.08-.79-2.84-1.11-3.55-.32-.71-.71,.32-.71,1.11s-.16,3.71-1.1,4.82c-.95,1.11-2.45,1.42-3.16,1.74-.71,.32-.55,2.45-.55,3.4s-1.82,2.92-3.08,4.42c-1.26,1.5-2.29,3.24-2.68,4.42-.4,1.18,1.11,1.58,1.58,2.13,.47,.55,1.66,.87,2.21,.87s1.82-1.58,2.21-2.05c.4-.47,.71-.39,.71-.39,1.74-.21,2.16-.11,3.48,.53,0,0,.01,.01,.03,.02-.86,3.64-.84,7.62-.23,11.26-.04,.1-.08,.21-.11,.3-.47,1.26-1.42,2.58-1.42,3.9s.05,4.69-.9,6.32c-.95,1.63-2.16,3.37-3.84,5.27-1.68,1.9-3.37,4.95-3.9,6.42-.53,1.47-1.11,6.32-1.47,7.95-.37,1.63-.58,4-1.42,4.84-.84,.84,.21,1.9,1.42,2.11,1.21,.21,3.37-2.63,3.95-3.42,.58-.79,0-1.58-.42-1.95-.42-.37-.47-2.79-.53-3.63-.05-.84,1.21-2.79,1.79-3.84s.95-4.58,2.05-5.95c1.11-1.37,3.53-1.47,5.06-2.21,1.13-.55,2.79-1.73,4.08-2.58,2.07,4.04,4.84,3.38,6.12,2.78,.11,.39,.19,.78,.22,1.12,.1,1.16-.47,3.37-.84,4.06-.37,.68-.95,3.68-1,6.16-.05,2.47-.42,6.11-.95,7.42-.53,1.32-1.58,1.42-2.58,1.74-1,.32-.69,.84-.74,1.63-.05,.79,2.21,1,3.48,.74,1.26-.26,2.37-1.9,2.63-2.95,.26-1.05,.53-3.95,.79-6.11s.74-5.32,1.11-7.16c.37-1.84,.53-3.9,.84-5.11,.32-1.21,1.21-3.32,1.68-3.79,.47-.47,3-.53,4.05-.32,1.05,.21,.47,1.21,.89,2.63,.42,1.42,2.26,3.58,2.79,4.95,.53,1.37,.37,3,0,6.53-.37,3.53-.69,6.63-1.84,7.79-1.16,1.16-1.84,1.16-2.32,2.05-.47,.89,1.21,1.05,3.11,1,1.9-.05,2.79-1.53,3.11-2.37,.32-.84-.11-1.74-.11-3.26s.84-5.53,1.11-7.37c.26-1.84,.89-2.84,1-3.74,.11-.89-.84-2.21-1.47-3.37-.63-1.16-.84-3.58-.89-5.26-.05-1.68,.84-2.42,1.74-3.26,.89-.84,2.21-1.47,3.37-1.58,1.16-.11,2,1.37,3.05,2.74,1.05,1.37,3.16,4.42,3.9,5.84,.74,1.42,.63,3.47,1.16,5.11,.53,1.63,.21,5.48,.26,7,.05,1.53,0,3.53,.53,4.16,.53,.63,1.32,1.63,1.53,3,.21,1.37,1.95,1.53,2.58,1.53s1.16-1.84,.84-3Zm-42.17-40.7c-.06,1.22-.34,2.57-.66,3.75-.38-3.24,.07-6.09,.49-7.84,.31,1.11,.24,2.68,.17,4.09Zm8.51-26.82c-.23,1.34-.49,3.4-.61,3.89-.15,.59-1.79-.12-2.34-.6,.62-.69,1.65-1.84,2.95-3.29Zm-4.14,45.39c1.18-.55,2,.06,3.16,1.02,.5,.42,.88,.92,1.17,1.46-1.82,.6-3.18-.49-4.33-2.47Z" style="fill: #545454;"/>
      </g>
    </g>
  </g>
</svg>