<?xml version="1.0" encoding="UTF-8"?>
<svg id="Capa_1" data-name="Capa 1" xmlns="http://www.w3.org/2000/svg" viewBox="0 0 400 313">
  <rect x="0" y="0" width="400" height="313" style="fill: #d8d8d8;"/>
  <g>
    <path d="M219.27,190.86h0s0-.02,0-.02c-.07-.84-.18-1.66-.33-2.43l-.25-1.27h-37.92l-.25,1.27c-.29,1.5-.44,3.03-.44,4.55,0,8.16,4.12,15.52,10.76,19.22l.36,.2h17.07l.36-.2c3.85-2.15,6.87-5.52,8.75-9.75h.01s0,0,0,0c.19,.02,.37,.03,.54,.03,3.25,0,5.89-2.64,5.89-5.89,0-2.73-1.89-5.09-4.53-5.72Zm-27.26,18.39c-5.43-3.2-8.8-9.44-8.8-16.29,0-.89,.06-1.79,.18-2.68h32.67c.04,.32,.07,.64,.1,.96h0c.03,.35,.05,.68,.06,1.02v.76c.01,.12,0,.24,0,.36h0s0,.23,0,.23c-.06,1.85-.36,3.65-.88,5.36h0c-.05,.18-.12,.36-.18,.53l-.25,.71-.02,.06c-.1,.26-.21,.52-.32,.78-1.54,3.52-4,6.35-7.12,8.19h-15.42Zm26.74-10.94c.11-.47,.2-.93,.28-1.41,0-.02,0-.03,0-.05,.08-.49,.14-.98,.19-1.48,.02-.16,.02-.32,.04-.48,.02-.24,.04-.47,.06-.71,.09,.05,.17,.11,.25,.17,.02,.01,.03,.02,.05,.04,.1,.08,.2,.17,.29,.27,.03,.03,.05,.06,.08,.1,.06,.07,.12,.14,.17,.21,.03,.04,.05,.08,.08,.13,.04,.07,.09,.14,.12,.22,.02,.05,.05,.09,.07,.14,.03,.08,.06,.15,.09,.23,.02,.05,.03,.09,.05,.14,.03,.09,.04,.18,.06,.27,0,.04,.02,.08,.02,.13,.02,.14,.03,.27,.03,.41,0,.18-.02,.36-.05,.53-.01,.06-.03,.11-.04,.17-.03,.11-.06,.23-.1,.33-.02,.06-.05,.12-.08,.18-.04,.09-.09,.19-.14,.28-.04,.06-.08,.12-.12,.17-.06,.08-.12,.16-.19,.24-.05,.05-.09,.1-.14,.15-.07,.07-.15,.14-.23,.2-.05,.04-.11,.09-.16,.12-.09,.06-.18,.11-.27,.16-.06,.03-.11,.06-.17,.09-.11,.05-.23,.09-.34,.12-.05,.02-.1,.04-.15,.05,0,0-.02,0-.03,0,.06-.22,.11-.44,.17-.66,.04-.16,.08-.31,.12-.47Z" style="fill: #545454;"/>
    <g>
      <path d="M222.93,171.96c-1.21,1.59-2.46,2.86-3.79,4.06-1.57,1.41-3.28,2.31-5.51,1.85-2.75-.56-4.08-2.49-3.5-5.26,.58-2.77,1.73-5.34,2.75-7.95,.52-1.33,1.05-2.64,1.52-3.99,.26-.74,.53-1.59-.09-2.24-.65-.68-1.52-.46-2.34-.27-1.17,.27-2.12,.92-2.98,1.73-1.64,1.55-2.79,3.41-3.66,5.47-1.5,3.51-3.04,7.01-4.5,10.54-.38,.91-.82,1.34-1.89,1.28-2.15-.11-2.16-.04-1.36-2.09,1.57-4.05,3.13-8.1,4.72-12.14,.5-1.26,.84-2.56,1.09-3.89,.23-1.23-.28-1.81-1.52-1.72-1.27,.09-2.38,.65-3.4,1.37-1.63,1.15-2.77,2.72-3.72,4.45-2.25,4.08-3.68,8.51-5.46,12.8-.19,.45-.21,1.15-.86,1.19-.97,.06-1.98,.23-2.9-.1-.58-.2,.02-.8-.1-1.21-4.84,2.82-7.27,2.38-8.33-1.48-.42-.02-.65,.32-.93,.54-2.31,1.74-4.88,2.7-7.8,2.82-4.33,.17-7.51-2.15-8.6-6.36-1.5-5.77,1.54-13.28,6.52-16.15,2.22-1.28,4.58-1.39,6.95-.66,3.22,1,4.7,4.12,3.83,7.71-.58,2.42-2.07,4.02-4.3,4.99-2.82,1.23-5.8,1.41-8.82,1.32-1.31-.04-1.34,0-1.15,1.29,.42,2.9,3.27,4.86,6.53,4.52,2.64-.28,4.74-1.57,6.42-3.56,1.77-2.1,3.18-4.39,4.13-7.01,1.94-5.35,4.08-10.63,6.15-15.93,.4-1.02,2.59-1.63,3.4-.94,.5,.43,.15,.9-.01,1.33-1.26,3.37-2.55,6.72-3.8,10.09-1.53,4.14-3.05,8.3-4.55,12.45-.25,.7-.53,1.41-.51,2.18,.02,1.1,.6,1.48,1.62,1.05,.74-.31,1.34-.85,1.85-1.45,2.75-3.18,5.35-6.45,6.77-10.51,.83-2.36,1.86-4.66,2.78-6.99,.57-1.43,1.69-.71,2.61-.64,.63,.05,1.32,.2,1.08,1.28,1.71-1.03,3.41-1.78,5.33-1.69,2.2,.1,3.37,1.07,3.98,3.27,1.19-.96,2.41-1.8,3.84-2.31,1.57-.56,3.14-.66,4.76-.33,2.34,.48,3.55,2.33,3.09,4.78-.32,1.7-.96,3.31-1.6,4.9-1.05,2.6-2.09,5.21-2.84,7.92-.2,.74-.42,1.55,.34,2.05,.77,.51,1.6,.23,2.31-.27,2.18-1.55,3.63-3.76,5.23-5.84,1.15-1.5,1.92-3.17,2.52-4.97,1.08-3.18,2.77-5.97,5.69-7.86,2.08-1.34,4.29-1.55,6.56-.71,2.76,1.02,3.51,3.42,3.7,6.04,.23,3.06-.18,6.06-1.26,8.95-.08,.21-.12,.43-.21,.76,1.51,.07,2.56-.7,3.4-1.71,1.08-1.3,2.02-2.71,2.62-4.3,1.22-3.22,2.4-6.46,3.58-9.69,.29-.79,.64-1.47,1.67-1.27,.95,.18,1.86,.43,1.95,1.76,1.6-.9,3.22-1.46,5.05-1.3,3.86,.34,5.87,3.17,4.85,6.92-.94,3.44-2.23,6.75-3.49,10.08-.31,.81-.61,1.61-.72,2.47-.05,.35-.03,.69,.31,.89,.31,.18,.56-.08,.82-.2,.13-.06,.27-.15,.37-.25,2.5-2.45,4.84-5.05,6.23-8.31,1.1-2.58,1.98-5.25,3-7.87,.32-.83,.31-1.24-.75-1.2-.56,.02-1.35,.33-1.64-.32-.34-.78,.19-1.52,.58-2.2,.29-.52,.84-.38,1.32-.36,1.98,.06,1.98,.06,2.75-1.71,.54-1.24,1.04-2.49,1.58-3.72,.45-1.02,2.51-1.36,3.26-.56,.34,.36,.19,.79,.05,1.17-.5,1.33-1,2.66-1.56,3.97-.33,.76-.15,1.04,.65,1.01,.08,0,.15,0,.22,0,.63,.16,1.69-.37,1.66,.89-.03,1.38-.7,2.04-1.93,2.05q-2.19,0-2.93,2.06c-1.53,4.26-3.38,8.41-4.51,12.81,0,.04-.03,.07-.04,.11-.15,.83-.69,1.83,.14,2.42,.91,.63,1.79-.14,2.52-.69,2.22-1.67,3.81-3.9,5.33-6.19,.41-.62,.85-1.24,1.32-1.82,.42-.53,.99-.67,1.61-.33,.58,.32,.88,.8,.77,1.49-.04,.26-.09,.53-.21,.75-1.95,3.63-4.24,6.99-7.72,9.35-1.11,.75-2.35,1.16-3.7,1.15-2.16,0-3.09-.75-4.02-3.2-.59,.57-1.15,1.16-1.76,1.69-1.33,1.17-2.85,1.82-4.65,1.45-1.62-.33-2.41-1.32-2.53-2.99-.1-1.27,.2-2.46,.62-3.63,1.05-2.96,2.11-5.93,3.16-8.89,.29-.82,.51-1.65,.51-2.52,.01-1.52-.74-2.3-2.26-2.31-1.42,0-2.62,.56-3.67,1.48-1.59,1.38-2.67,3.13-3.57,4.99-1.84,3.82-3.07,7.88-4.66,11.8-.8,1.98-1.03,1.76-2.89,1.68-.86-.04-1.2-.53-.91-1.38,.28-.81,.56-1.62,.91-2.61-1.44,.33-2.77,.6-4.13,.2-.46-.14-.58,.39-.81,.65-1.76,2.08-3.78,3.59-6.72,3.47-3.68-.15-5.83-1.83-6.79-5.69Zm10.57-14.41c-1.27-.02-2.06,.55-2.76,1.23-2.14,2.08-3.26,4.71-4.04,7.52-.49,1.77-.79,3.58-.45,5.43,.23,1.25,.94,2.08,2.11,2.55,1.79,.72,3.72,.12,5.31-1.62,.49-.53,.57-.9,.01-1.48-1.29-1.34-1.89-3.02-2.06-4.86-.29-3.07,.39-5.94,1.88-8.78Zm-67.72,7.68c1.47,.03,2.92-.19,4.34-.5,1.32-.29,2.44-.95,3.26-2.05,.93-1.25,.88-2.58,.28-3.93-.58-1.31-1.71-1.69-3.03-1.71-1.5-.02-2.79,.52-3.86,1.56-1.2,1.16-2.16,2.51-2.71,4.08-1.07,3.05-.83,2.41,1.72,2.56Zm70.04,3.35c1.32-2.35,1.68-7.8,.63-9.48-1.92,2.64-2.26,7.73-.63,9.48Z" style="fill: #545454; fill-rule: evenodd;"/>
      <path d="M158.62,157.52c-.65,7-2.67,13.51-7.45,18.87-2.99,3.35-6.83,3.54-10.87,2.4-2.62-.74-5-2-7.32-3.39-.75-.45-1.18-.38-1.72,.35-1.7,2.29-3.99,3.06-6.75,2.36-1.95-.49-3.22-1.96-3.3-3.78-.08-1.84,1.3-3.79,3.09-4.39,1.86-.62,3.74-.47,5.53,.12,.98,.32,1.36,.03,1.76-.7,1.77-3.22,3.38-6.51,4.88-9.86,1.29-2.87,2.43-5.81,4.34-8.36,.73-.96,1.5-1.85,2.69-2.3,.67-.25,1.19-.22,1.57,.37,.38,.58,.63,1.19-.02,1.81-1.82,1.75-2.88,4-3.91,6.24-2.08,4.53-4.11,9.07-6.51,13.44-.49,.9-.46,1.43,.51,1.97,2.36,1.31,4.69,2.64,7.39,3.18,2.68,.54,4.9-.1,6.61-2.28,4.39-5.58,6.7-11.81,5.97-19-.13-1.23-.43-2.43-.88-3.59-1.23-3.14-3.47-5.12-6.84-5.65-3.89-.61-7.55,.07-10.83,2.31-4.02,2.75-4.9,6.79-4.4,11.29,.12,1.04,.08,1.6-1.09,1.78-1.75,.27-1.75,.33-2.12-1.19-1.48-6.09,1.35-12.55,6.88-15.46,4.41-2.32,9.07-2.76,13.85-1.41,3.91,1.1,6.43,3.68,7.68,7.52,.77,2.37,1.19,4.8,1.25,7.32Zm-29.87,15.7c-1.51-.47-2.53-.47-3.44,0-.49,.25-.92,.55-.8,1.19,.12,.6,.63,.67,1.12,.73,1.49,.17,2.41-.39,3.12-1.91Z" style="fill: #545454; fill-rule: evenodd;"/>
    </g>
    <g>
      <path d="M200.03,124.18c-10.76,0-20.12,6.05-24.89,14.91h6.9c4.08-5.5,10.62-9.08,17.99-9.08s13.9,3.58,17.99,9.08h6.89c-4.77-8.87-14.13-14.91-24.88-14.91Z" style="fill: #545454;"/>
      <path d="M172.8,115.67v-4.54c0-.71-.76-1.29-1.69-1.29s-1.69,.58-1.69,1.29v4.54c0,.71,.76,1.29,1.69,1.29s1.69-.58,1.69-1.29Z" style="fill: #545454;"/>
      <path d="M207.05,115.38v-4.54c0-.71-.76-1.29-1.69-1.29s-1.69,.58-1.69,1.29v4.54c0,.71,.76,1.29,1.69,1.29s1.69-.58,1.69-1.29Z" style="fill: #545454;"/>
      <path d="M158.14,129.01c-.51-.5-1.45-.37-2.11,.29-.66,.66-.79,1.61-.28,2.11l3.22,3.2c.51,.5,1.45,.37,2.11-.29,.66-.66,.79-1.61,.28-2.11l-3.22-3.2Z" style="fill: #545454;"/>
      <path d="M223.65,128.33c.66-.66,.79-1.61,.28-2.11l-3.22-3.2c-.5-.5-1.45-.37-2.11,.29-.66,.66-.79,1.61-.28,2.11l3.22,3.2c.51,.5,1.45,.37,2.11-.29Z" style="fill: #545454;"/>
      <path d="M188.31,119.31c.83-.42,1.25-1.28,.93-1.92l-2.06-4.05c-.32-.63-1.26-.81-2.09-.38-.83,.42-1.25,1.28-.92,1.92l2.06,4.05c.32,.64,1.26,.81,2.09,.38Z" style="fill: #545454;"/>
      <path d="M241.21,119.92c-.32-.63-1.26-.81-2.09-.38-.83,.42-1.25,1.28-.93,1.92l2.06,4.05c.32,.63,1.26,.81,2.09,.38,.83-.42,1.25-1.28,.92-1.92l-2.06-4.05Z" style="fill: #545454;"/>
      <path d="M178.04,126.64c-.54-.76-1.45-1.05-2.03-.63l-3.7,2.63c-.58,.41-.61,1.36-.07,2.13,.54,.76,1.45,1.04,2.03,.63l3.7-2.63c.58-.41,.61-1.37,.07-2.13Z" style="fill: #545454;"/>
      <path d="M223.76,107.14l-3.7,2.63c-.58,.41-.61,1.37-.07,2.13,.54,.76,1.45,1.04,2.03,.63l3.7-2.63c.58-.41,.61-1.37,.07-2.13-.54-.76-1.45-1.05-2.03-.63Z" style="fill: #545454;"/>
      <path d="M198.66,100.61c.7,.13,1.41-.51,1.58-1.43,.17-.92-.26-1.77-.96-1.9l-4.47-.83c-.7-.13-1.41,.51-1.58,1.43-.17,.92,.26,1.77,.96,1.9l4.47,.83Z" style="fill: #545454;"/>
      <path d="M239.65,133.67l-4.46-.83c-.7-.13-1.41,.51-1.58,1.43-.17,.92,.26,1.77,.96,1.9l4.46,.83c.7,.13,1.41-.51,1.58-1.43,.17-.92-.26-1.77-.96-1.9Z" style="fill: #545454;"/>
      <path d="M258.5,137.67c-1.93-2.58-3.74-5.02-4.78-7.5-1.09-2.63-1.57-5.77-2.08-9.11-.81-5.41-1.65-11.01-5.45-14.81-3.8-3.8-9.4-4.64-14.81-5.46l-.14-.02c-3.27-.5-6.37-.97-8.97-2.05-2.45-1.01-4.9-2.83-7.49-4.77l-.06-.05c-4.24-3.18-9.05-6.78-14.69-6.78s-10.32,3.5-14.84,6.89l-.08,.05c-2.52,1.87-4.9,3.64-7.32,4.65-2.62,1.08-5.71,1.55-8.99,2.05l-.13,.02c-5.41,.82-11.01,1.66-14.81,5.45-3.79,3.79-4.6,9.15-5.45,14.82v.08c-.51,3.28-.98,6.38-2.08,9.02-.64,1.55-1.45,2.96-2.42,4.33-.46,.65-.9,1.31-1.25,2.01-.09,.18-1.03,2.54-.89,2.56l3.68,.02c.19-1.13,.94-1.95,1.79-3.13,.39-.54,.79-1.1,1.16-1.68,.05-.08,.08-.16,.13-.23,.14-.23,.26-.46,.39-.7,.31-.58,.6-1.16,.85-1.76,1.27-3.06,1.8-6.58,2.32-9.98,.76-5.04,1.48-9.81,4.41-12.74,2.93-2.93,7.7-3.65,12.79-4.41,3.38-.52,6.88-1.05,9.93-2.32,2.93-1.21,5.68-3.27,8.38-5.29,4.14-3.09,8.06-6.01,12.44-6.01s8.3,2.92,12.44,6.02l.07,.05c2.65,1.98,5.4,4.03,8.3,5.23,3.06,1.27,6.58,1.8,10.03,2.33,5.02,.76,9.76,1.47,12.69,4.4,2.92,2.92,3.64,7.67,4.41,12.74,.51,3.39,1.04,6.9,2.31,9.98,1.09,2.62,2.85,5.1,4.63,7.5h4.63c-.35-.47-.7-.94-1.05-1.42Z" style="fill: #545454;"/>
      <path d="M276.4,139.12c-.51-2.69-1.19-5.45-2.03-8.22l-.15-.51h-.02c-.86-2.78-1.89-5.54-3.06-8.22-.41-.93-.81-1.79-1.23-2.65l-.33-.66c-.33-.67-.67-1.34-1.02-2-.24-.45-.49-.89-.74-1.33l-.24-.42c-.17-.3-.33-.6-.51-.89-9.03-15.37-23.15-27.27-39.77-33.52l-.52-.19c-.82-.3-1.66-.59-2.5-.87l-.91-.29c-.72-.23-1.44-.44-2.16-.65-.39-.11-.79-.22-1.18-.32-.64-.17-1.29-.33-1.94-.49-.46-.11-.92-.22-1.38-.32-.59-.13-1.2-.25-1.79-.37-.51-.1-1.01-.2-1.52-.29-.56-.1-1.14-.19-1.7-.27l-.14-.02c-.5-.07-.99-.15-1.49-.22-.44-.06-.89-.11-1.34-.15l-.7-.08c-.43-.05-.86-.09-1.3-.13-.49-.04-.99-.07-1.49-.1l-.8-.05c-.36-.02-.71-.05-1.07-.06-.93-.04-1.87-.06-2.82-.06h-.56s-.57,0-.57,0c-.94,0-1.88,.02-2.81,.06-.36,.02-.71,.04-1.07,.06l-.8,.05c-.5,.03-.99,.06-1.49,.1-.43,.04-.86,.08-1.3,.13l-.7,.08c-.45,.05-.9,.1-1.34,.15-.5,.07-.99,.14-1.49,.22l-.14,.02c-.57,.08-1.14,.17-1.7,.27-.51,.09-1.01,.19-1.52,.29-.6,.12-1.2,.24-1.8,.37-.46,.1-.92,.21-1.38,.32-.64,.15-1.29,.32-1.93,.49-.39,.1-.79,.21-1.18,.32-.72,.21-1.44,.42-2.16,.65l-.9,.29c-.85,.28-1.68,.57-2.51,.88l-.51,.19c-16.62,6.25-30.74,18.16-39.77,33.53-.16,.27-.31,.54-.46,.82l-.33,.59c-.23,.41-.46,.82-.68,1.23-.35,.66-.69,1.33-1.03,2l-.33,.66c-.42,.86-.82,1.72-1.2,2.6-1.2,2.72-2.23,5.49-3.09,8.27l-.18,.51c-.84,2.77-1.52,5.53-2.03,8.22h-4.62c6.47-36.73,36.8-64.48,74.03-67.61,1.18-.1,2.32-.17,3.46-.22,1.23-.05,2.36-.08,3.5-.08s2.32,.03,3.44,.07c1.26,.05,2.39,.13,3.53,.22,37.28,3.14,67.6,30.89,74.08,67.62h-4.62Z" style="fill: #545454;"/>
    </g>
    <g>
      <path d="M124.75,198.31c-.35-.16-.67-.35-.99-.57-.31-.22-.61-.5-.88-.82-.27-.32-.53-.71-.77-1.15-.37-.69-.59-1.4-.66-2.12-.06-.72,0-1.41,.21-2.08,.21-.66,.54-1.28,1-1.84,.46-.56,1.03-1.03,1.72-1.4,.67-.36,1.37-.59,2.1-.67,.72-.08,1.42-.03,2.1,.16,.68,.19,1.3,.52,1.88,.97,.58,.45,1.06,1.04,1.45,1.76,.23,.43,.41,.85,.53,1.24,.12,.39,.19,.77,.22,1.14,.03,.37,.02,.72-.02,1.07-.05,.35-.11,.7-.21,1.03l-1.8-.4c.15-.57,.21-1.12,.2-1.66-.01-.54-.16-1.08-.46-1.62-.24-.45-.55-.82-.94-1.11-.38-.29-.8-.49-1.25-.6-.45-.11-.92-.14-1.41-.08-.49,.07-.96,.22-1.43,.48-.47,.25-.86,.57-1.19,.94-.33,.37-.57,.78-.72,1.23-.16,.45-.22,.9-.19,1.38,.03,.48,.17,.94,.41,1.39,.31,.57,.69,1.01,1.13,1.3,.44,.3,.96,.54,1.56,.74l-.5,1.65c-.39-.1-.76-.23-1.11-.39Z" style="fill: #545454;"/>
      <path d="M136.17,209.98c-.7,.2-1.4,.26-2.11,.19-.71-.08-1.39-.3-2.05-.65-.66-.35-1.24-.85-1.76-1.5-.51-.65-.87-1.33-1.07-2.05-.2-.72-.25-1.42-.16-2.12,.09-.69,.31-1.36,.67-2,.36-.63,.83-1.19,1.43-1.65,.59-.47,1.24-.81,1.94-1.01,.7-.2,1.4-.27,2.11-.19,.71,.08,1.39,.29,2.05,.65,.66,.35,1.24,.85,1.76,1.5,.51,.65,.87,1.33,1.07,2.05,.2,.72,.25,1.42,.16,2.12-.09,.7-.31,1.36-.67,2-.36,.64-.83,1.19-1.42,1.66-.59,.47-1.24,.8-1.94,1.01Zm1.68-3.67c.25-.43,.42-.88,.49-1.34,.07-.47,.05-.94-.07-1.42-.12-.48-.34-.93-.67-1.34-.33-.42-.71-.74-1.14-.96-.43-.22-.88-.36-1.35-.39-.47-.04-.94,.02-1.41,.17-.48,.15-.92,.38-1.33,.71-.41,.32-.74,.7-.99,1.13-.25,.43-.42,.88-.49,1.34-.07,.47-.05,.94,.07,1.42,.12,.48,.34,.93,.67,1.34,.33,.42,.71,.74,1.14,.96,.43,.23,.88,.36,1.35,.39,.46,.03,.93-.02,1.41-.17,.48-.15,.92-.38,1.33-.71,.41-.32,.74-.7,.99-1.13Z" style="fill: #545454;"/>
      <path d="M149.99,215.07l-4.54-4.07-1.98,2.2,4.03,3.62-1.14,1.26-4.03-3.61-2.92,3.25-1.39-1.25,7.17-7.99,5.93,5.33-1.14,1.27Z" style="fill: #545454;"/>
      <path d="M159.97,221.92l-5.1-3.34-1.62,2.48,4.53,2.97-.93,1.42-4.53-2.97-2.39,3.65-1.57-1.03,5.88-8.98,6.67,4.37-.93,1.42Z" style="fill: #545454;"/>
      <path d="M170.87,227.17l-5.53-2.51-1.14,2.51,4.9,2.22-.7,1.55-4.9-2.22-1.18,2.61,5.6,2.54-.7,1.55-7.3-3.31,4.43-9.77,7.23,3.28-.7,1.55Z" style="fill: #545454;"/>
      <path d="M182.67,230.75l-5.85-1.62-.73,2.66,5.19,1.43-.45,1.64-5.19-1.43-.77,2.76,5.93,1.64-.45,1.64-7.73-2.14,2.86-10.34,7.66,2.11-.45,1.64Z" style="fill: #545454;"/>
      <path d="M201.06,241.79l-1.39-1.49c-.47,.42-.98,.75-1.53,.98-.55,.24-1.15,.35-1.8,.33-.5-.01-.96-.09-1.38-.25-.42-.15-.78-.37-1.09-.64-.3-.28-.54-.61-.71-.99-.17-.38-.25-.81-.24-1.28,.02-.7,.23-1.3,.63-1.79,.4-.49,.98-.88,1.72-1.18-.3-.4-.51-.79-.65-1.14-.14-.36-.2-.73-.19-1.13,0-.37,.09-.71,.24-1.04,.15-.32,.36-.6,.64-.84,.27-.24,.6-.43,.98-.57,.38-.14,.81-.2,1.29-.19,.43,0,.82,.09,1.16,.23,.34,.14,.64,.33,.88,.57,.24,.24,.43,.52,.56,.84,.13,.32,.19,.66,.18,1.03-.02,.72-.25,1.29-.69,1.73-.44,.43-1.02,.78-1.74,1.03l1.8,1.91c.21-.3,.42-.62,.62-.96,.2-.34,.39-.7,.58-1.08l1.41,.78c-.23,.42-.46,.84-.71,1.25-.25,.41-.52,.8-.8,1.17l1.65,1.76-1.42,.96Zm-4.77-5.13c-.51,.2-.87,.46-1.11,.76-.23,.31-.35,.64-.36,1-.01,.46,.15,.84,.48,1.15,.33,.3,.76,.46,1.28,.47,.37,.01,.72-.06,1.06-.22,.34-.15,.67-.38,.98-.66l-2.33-2.5Zm2.09-4.25c-.23-.22-.52-.34-.87-.35-.39,0-.7,.11-.94,.34-.24,.23-.36,.55-.37,.93,0,.28,.05,.53,.17,.77,.12,.24,.32,.52,.61,.86,.56-.19,.98-.41,1.27-.67,.29-.25,.44-.58,.45-.98,0-.38-.1-.68-.32-.9Z" style="fill: #545454;"/>
      <path d="M223.71,234.98c-.12,.71-.37,1.35-.75,1.93-.39,.58-.89,1.08-1.51,1.51-.62,.43-1.34,.74-2.15,.93l-3.9,.9-2.43-10.45,3.9-.91c.82-.19,1.6-.23,2.34-.12,.74,.11,1.42,.33,2.02,.69,.6,.35,1.11,.82,1.53,1.39,.42,.57,.71,1.23,.88,1.97,.17,.74,.2,1.46,.08,2.16Zm-2.59-3.06c-.28-.39-.61-.71-1-.96-.39-.25-.83-.41-1.32-.48-.49-.07-1.01-.05-1.56,.08l-2.07,.48,1.66,7.14,2.06-.48c.55-.13,1.03-.33,1.44-.61,.41-.28,.73-.61,.98-1,.24-.39,.4-.82,.47-1.3,.07-.48,.05-.97-.07-1.49-.12-.52-.32-.98-.6-1.37Z" style="fill: #545454;"/>
      <path d="M238.65,229.1c.02,.73-.1,1.43-.36,2.09-.26,.67-.64,1.27-1.15,1.81-.51,.55-1.14,.99-1.9,1.32-.76,.33-1.51,.5-2.25,.51-.74,0-1.44-.12-2.09-.38-.65-.26-1.24-.65-1.76-1.16-.52-.51-.93-1.11-1.24-1.8-.3-.69-.46-1.4-.48-2.13-.02-.73,.1-1.42,.36-2.09,.26-.67,.64-1.27,1.15-1.82,.51-.55,1.14-.98,1.9-1.32,.76-.33,1.51-.5,2.26-.51,.74,0,1.44,.12,2.09,.38,.65,.26,1.23,.65,1.76,1.16,.52,.51,.94,1.11,1.24,1.8,.3,.69,.46,1.41,.48,2.13Zm-3.12-2.56c-.35-.36-.74-.63-1.18-.82-.43-.19-.9-.29-1.39-.3-.49,0-.98,.09-1.47,.31-.49,.21-.89,.5-1.22,.86-.33,.36-.57,.76-.72,1.2-.15,.44-.22,.91-.2,1.41,.02,.5,.14,.98,.35,1.46,.21,.48,.49,.89,.84,1.25,.35,.35,.74,.63,1.18,.81,.43,.19,.9,.29,1.39,.3,.49,0,.98-.1,1.47-.31,.49-.22,.89-.5,1.22-.86,.33-.36,.57-.76,.72-1.2,.15-.44,.22-.91,.2-1.41-.02-.5-.14-.99-.35-1.46-.21-.48-.49-.89-.84-1.25Z" style="fill: #545454;"/>
      <path d="M245.62,215.9l1.55-1.05,6.02,8.88-1.3,.88-9.17-3.01,4.28,6.32-1.55,1.05-6.02-8.88,1.44-.98,8.91,2.92-4.16-6.14Z" style="fill: #545454;"/>
      <path d="M261.33,210.11c.55,.57,.96,1.15,1.22,1.74,.26,.59,.39,1.16,.38,1.73,0,.56-.14,1.12-.41,1.66-.27,.54-.66,1.05-1.17,1.54-.5,.48-1.02,.85-1.56,1.1-.54,.25-1.1,.37-1.66,.36-.57,0-1.13-.15-1.69-.42-.56-.27-1.11-.69-1.65-1.25l-4.3-4.44,1.34-1.3,4.24,4.39c.7,.72,1.4,1.1,2.11,1.14,.71,.04,1.37-.24,1.98-.83,.61-.59,.91-1.23,.91-1.92,0-.69-.35-1.4-1.04-2.11l-4.3-4.44,1.34-1.3,4.24,4.38Z" style="fill: #545454;"/>
      <path d="M271.24,205.19l-1.14,1.52-7.2-5.37-2.04,2.73-1.4-1.05,5.21-6.98,1.4,1.04-2.04,2.73,7.2,5.37Z" style="fill: #545454;"/>
      <path d="M270.32,193.07c.17,0,.36-.04,.56-.14,.21-.1,.44-.28,.7-.52,.26-.24,.56-.56,.91-.95,.39-.43,.77-.79,1.13-1.09,.36-.3,.72-.52,1.07-.65,.36-.13,.72-.19,1.08-.16,.36,.03,.74,.15,1.14,.36,.45,.24,.81,.54,1.07,.89,.26,.36,.43,.74,.52,1.17,.08,.43,.08,.88-.02,1.36-.1,.48-.28,.97-.55,1.47-.39,.73-.89,1.36-1.5,1.89-.61,.53-1.32,.94-2.14,1.23l-.65-1.64c.64-.25,1.2-.55,1.66-.9,.46-.35,.85-.83,1.17-1.42,.27-.52,.39-.98,.33-1.4-.05-.42-.27-.73-.63-.92-.17-.09-.34-.15-.51-.16-.17-.01-.35,.03-.55,.13-.2,.1-.42,.26-.67,.48-.25,.22-.55,.53-.89,.91-.39,.44-.76,.82-1.11,1.14-.36,.31-.71,.55-1.07,.7-.36,.15-.73,.21-1.11,.19-.38-.03-.79-.16-1.23-.39-.41-.22-.75-.51-1-.85-.25-.34-.42-.72-.51-1.13-.09-.41-.1-.85-.01-1.32,.08-.46,.25-.93,.5-1.4,.38-.69,.81-1.26,1.31-1.71,.5-.44,1.07-.81,1.72-1.08l.77,1.56c-.55,.27-1.02,.56-1.41,.9-.39,.33-.71,.71-.94,1.15-.26,.49-.35,.92-.28,1.31,.07,.39,.27,.67,.58,.84,.19,.1,.37,.16,.54,.17Z" style="fill: #545454;"/>
    </g>
  </g>
</svg>