<?xml version="1.0" encoding="UTF-8"?>
<svg id="Capa_1" data-name="Capa 1" xmlns="http://www.w3.org/2000/svg" viewBox="0 0 400 313">
  <rect x="0" width="400" height="313" style="fill: #d8d8d8;"/>
  <g>
    <path d="M101.86,193.55l-12.24-2.81c-3.19-.76-4.55-2.19-4.55-4.77,0-5.96,5.71-6.85,9.12-6.85,2.25,0,9.61,.58,9.95,8.07l.03,.65h6.81l-.04-.72c-.12-2.43-.57-6-2.98-9-2.84-3.53-7.7-5.33-14.43-5.33-11.4,0-15.44,7.51-15.44,13.95,0,3.88,1.68,8.89,9.67,10.76l8.78,2.03c7.01,1.66,8.62,2.96,8.62,6.92,0,5.91-7.38,6.55-10.55,6.55-3.35,0-11.15-.91-11.15-9.35v-.68h-6.8v.68c0,3.76,.56,7.75,4.59,11.38,2.35,2.13,5.78,4.3,13.42,4.3,8.45,0,17.47-3.59,17.47-13.65,0-6.35-3.55-10.55-10.27-12.14" style="fill: #545454;"/>
    <path d="M125.87,180.26h11.09c5.25,0,7.8,2.12,7.8,6.49,0,4.86-2.48,7.02-8.04,7.02h-10.85v-13.51Zm26.23,6.43c0-7.63-5.39-12.75-13.41-12.75h-19.98v44.26h7.16v-18.1h12.82c9.9,0,13.41-7.22,13.41-13.41" style="fill: #545454;"/>
    <path d="M172.39,199.21h-11.4l5.93-16.3,5.47,16.3Zm-8.96-25.27l-16.64,44.26h7.44l4.48-12.49h16.24l4.24,12.49h7.79l-16.03-44.26h-7.52Z" style="fill: #545454;"/>
    <polygon points="191.09 180.4 211.51 180.44 191.23 212.25 191.09 212.43 191.09 218.2 221.08 218.2 221.08 211.69 200.54 211.69 221.08 179.88 221.08 173.94 191.09 173.89 191.09 180.4" style="fill: #545454;"/>
    <rect x="228.28" y="173.94" width="7.16" height="44.26" style="fill: #545454;"/>
    <path d="M262.39,212.83c-8.66,0-14.25-6.58-14.25-16.76s5.59-16.76,14.25-16.76,14.25,6.58,14.25,16.76-5.59,16.76-14.25,16.76m0-40.03c-17.04,0-21.59,14.62-21.59,23.27s4.55,23.27,21.59,23.27,21.59-14.62,21.59-23.27-4.55-23.27-21.59-23.27" style="fill: #545454;"/>
    <path d="M313.08,193.55l-12.24-2.81c-3.19-.76-4.55-2.19-4.55-4.77,0-5.96,5.71-6.85,9.12-6.85,2.25,0,9.61,.58,9.95,8.07l.03,.65h6.81l-.04-.72c-.12-2.43-.57-6-2.98-9-2.84-3.53-7.7-5.33-14.43-5.33-11.4,0-15.44,7.51-15.44,13.95,0,3.88,1.68,8.89,9.67,10.76l8.78,2.03c7.01,1.66,8.62,2.96,8.62,6.92,0,5.91-7.38,6.55-10.55,6.55-3.35,0-11.15-.91-11.15-9.35v-.68h-6.8v.68c0,3.76,.56,7.75,4.59,11.38,2.35,2.13,5.78,4.3,13.42,4.3,8.45,0,17.47-3.59,17.47-13.65,0-6.35-3.55-10.55-10.27-12.14" style="fill: #545454;"/>
    <rect x="222.64" y="93.67" width="12.8" height="12.8" style="fill: #545454;"/>
    <polygon points="222.64 151.75 177.36 151.75 177.36 106.47 209.71 106.47 209.71 106.47 216.12 106.47 216.12 93.67 203.31 93.67 203.31 93.67 164.56 93.67 164.56 106.47 164.56 151.75 164.56 160.73 164.56 164.55 222.64 164.56 235.44 164.56 235.44 151.75 235.44 112.87 222.64 112.87 222.64 151.75" style="fill: #545454;"/>
  </g>
</svg>