<?xml version="1.0" encoding="UTF-8"?>
<svg id="Capa_1" data-name="Capa 1" xmlns="http://www.w3.org/2000/svg" viewBox="0 0 400 313">
  <rect x="0" width="400" height="313" style="fill: #d8d8d8;"/>
  <g>
    <g>
      <path d="M123.28,178.88c0-.61,.07-1.16,.21-1.66,.14-.49,.36-.92,.65-1.27,.29-.35,.66-.62,1.1-.81,.44-.19,.97-.28,1.58-.28,.36,0,.7,.04,1.04,.11,.34,.07,.63,.17,.89,.29,.26,.12,.46,.26,.62,.43,.16,.16,.24,.34,.24,.53,0,.15-.05,.28-.16,.39-.11,.11-.24,.17-.41,.17-.12,0-.21-.02-.28-.07s-.17-.11-.29-.2c-.46-.33-.99-.49-1.58-.49-.44,0-.81,.07-1.12,.2-.3,.13-.55,.32-.73,.58s-.31,.55-.39,.91c-.08,.35-.12,.75-.12,1.19v3.37c0,.44,.04,.84,.12,1.19,.08,.35,.21,.65,.39,.91,.18,.25,.43,.44,.73,.58,.3,.13,.68,.2,1.12,.2,.59,0,1.11-.16,1.58-.49,.14-.08,.24-.15,.3-.2,.06-.05,.15-.07,.27-.07,.17,0,.3,.06,.41,.17,.1,.11,.16,.24,.16,.39,0,.19-.08,.37-.24,.53s-.37,.3-.62,.43c-.26,.12-.55,.22-.89,.29s-.68,.11-1.04,.11c-.61,0-1.14-.09-1.58-.28-.44-.19-.81-.46-1.1-.81-.29-.35-.51-.77-.65-1.27-.14-.49-.21-1.05-.21-1.66v-3.37Z" style="fill: #444;"/>
      <path d="M133.38,186.26c-.48,0-.91-.07-1.28-.22s-.68-.35-.92-.6c-.25-.25-.43-.55-.56-.89s-.19-.71-.19-1.1v-2.63c0-.4,.06-.77,.19-1.11s.31-.64,.56-.89,.55-.45,.92-.59c.37-.14,.79-.21,1.28-.21s.91,.07,1.28,.21c.37,.14,.68,.34,.92,.59s.43,.55,.56,.89,.19,.71,.19,1.11v2.63c0,.39-.06,.75-.19,1.1s-.31,.64-.56,.89c-.25,.25-.55,.45-.92,.6-.37,.15-.79,.22-1.28,.22Zm0-1.13c.57,0,1-.15,1.28-.44,.29-.29,.43-.7,.43-1.23v-2.65c0-.51-.14-.92-.43-1.21-.29-.29-.72-.44-1.28-.44s-1,.15-1.28,.44c-.29,.29-.43,.7-.43,1.21v2.65c0,.53,.14,.94,.43,1.23,.29,.29,.72,.44,1.28,.44Z" style="fill: #444;"/>
      <path d="M139.09,185.64c0,.17-.05,.31-.15,.43-.1,.12-.25,.17-.46,.17s-.37-.06-.47-.17c-.1-.12-.15-.26-.15-.43v-5.36c0-.22,0-.39-.02-.5-.02-.12-.04-.21-.06-.28-.03-.07-.06-.13-.09-.17-.04-.04-.07-.09-.1-.15-.02-.03-.04-.07-.07-.12-.03-.05-.04-.11-.04-.2,0-.16,.05-.29,.17-.39,.11-.1,.25-.16,.42-.16,.15,0,.27,.04,.38,.13,.1,.08,.2,.19,.28,.33,.35-.24,.71-.42,1.1-.54,.39-.12,.77-.17,1.15-.17,.84,0,1.47,.27,1.88,.82,.41,.55,.62,1.27,.62,2.16v4.6c0,.17-.05,.31-.16,.43-.11,.12-.26,.17-.46,.17s-.35-.06-.46-.17-.16-.26-.16-.43v-4.6c0-.6-.12-1.06-.37-1.39-.25-.33-.61-.49-1.08-.49-.3,0-.6,.06-.9,.17-.29,.12-.58,.28-.85,.49,.03,.17,.05,.32,.05,.46v5.36Z" style="fill: #444;"/>
      <path d="M145.11,180.3c0-.68,.22-1.23,.65-1.65,.43-.41,1.07-.62,1.91-.62,.21,0,.44,.02,.68,.05,.24,.03,.47,.08,.68,.15,.21,.07,.39,.16,.53,.27,.14,.11,.21,.25,.21,.42,0,.15-.05,.28-.16,.39-.11,.12-.24,.17-.41,.17-.08,0-.18-.03-.28-.08-.17-.08-.34-.15-.51-.2-.17-.05-.4-.08-.69-.08-.94,0-1.4,.37-1.4,1.1,0,.24,.06,.44,.17,.58,.11,.15,.3,.29,.57,.43,.27,.14,.58,.26,.91,.36s.65,.25,.95,.43c.3,.18,.55,.42,.76,.72,.21,.29,.31,.7,.31,1.21,0,.71-.22,1.28-.66,1.69s-1.1,.61-1.99,.61c-.2,0-.43-.01-.7-.04-.27-.03-.52-.07-.76-.14-.24-.07-.44-.16-.61-.28-.17-.12-.25-.27-.25-.45,0-.14,.05-.27,.15-.39,.1-.12,.24-.18,.43-.18,.05,0,.09,0,.1,0,.02,0,.03,.01,.06,.02,.22,.08,.46,.17,.72,.24,.26,.08,.54,.12,.86,.12,.44,0,.79-.09,1.06-.28,.26-.18,.39-.48,.39-.89,0-.28-.06-.5-.17-.64-.12-.14-.25-.25-.41-.34-.25-.14-.55-.26-.91-.36-.35-.11-.69-.25-1.01-.43-.32-.18-.6-.42-.83-.72-.23-.3-.35-.71-.35-1.22Z" style="fill: #444;"/>
      <path d="M151.19,176.34c0-.17,.05-.31,.16-.43s.26-.17,.46-.17,.35,.06,.46,.17c.1,.12,.16,.26,.16,.43v2.18h1.64c.16,0,.29,.05,.4,.17,.11,.11,.17,.25,.17,.42s-.05,.31-.17,.42-.24,.17-.4,.17h-1.64v3.14c0,.41,.01,.75,.04,1.03,.03,.28,.09,.51,.18,.69,.09,.18,.23,.31,.39,.39,.17,.08,.39,.12,.68,.12,.05,0,.1,0,.15,0,.05,0,.1,0,.15,0,.18,0,.36,.03,.54,.09s.28,.22,.28,.47c0,.27-.09,.44-.28,.5s-.39,.09-.61,.09c-.55,0-1-.07-1.36-.2-.36-.14-.64-.34-.84-.61-.2-.27-.35-.61-.43-1.02s-.12-.88-.12-1.43v-6.59Z" style="fill: #444;"/>
      <path d="M157.16,185.64c0,.18-.06,.33-.17,.44-.12,.12-.26,.17-.44,.17s-.33-.06-.44-.17c-.12-.12-.17-.26-.17-.44v-5.33c0-.26-.02-.48-.06-.64-.04-.16-.1-.32-.2-.47-.03-.05-.06-.1-.08-.14-.02-.04-.03-.1-.03-.17,0-.17,.06-.3,.17-.4,.12-.1,.25-.15,.39-.15,.13,0,.24,.04,.35,.12,.1,.08,.2,.18,.28,.31,.34-.21,.7-.38,1.1-.5,.4-.12,.75-.18,1.06-.18s.53,.06,.65,.17,.17,.26,.17,.43c0,.2-.06,.36-.18,.47-.12,.12-.27,.17-.43,.16-.33-.01-.64,0-.95,.06-.3,.05-.66,.22-1.06,.51,.01,.08,.02,.16,.02,.23,0,.07,0,.13,0,.2v5.33Z" style="fill: #444;"/>
      <path d="M165.17,178.68c0-.17,.05-.31,.15-.43,.1-.12,.25-.17,.46-.17s.37,.06,.47,.17c.1,.12,.15,.26,.15,.43v5.52c0,.22,0,.39,.02,.5,.02,.12,.04,.21,.07,.28,.03,.07,.06,.13,.09,.17,.03,.04,.06,.09,.09,.15,.02,.03,.04,.07,.07,.13s.04,.12,.04,.19c0,.15-.06,.28-.17,.39s-.25,.17-.42,.17c-.15,0-.28-.04-.39-.13-.11-.08-.21-.2-.29-.35-.35,.2-.71,.34-1.1,.43-.39,.09-.77,.13-1.14,.13-.84,0-1.47-.27-1.88-.82-.42-.55-.62-1.27-.62-2.16v-4.6c0-.17,.05-.31,.16-.43,.11-.12,.26-.17,.46-.17s.35,.06,.46,.17c.1,.12,.16,.26,.16,.43v4.6c0,.6,.12,1.06,.37,1.39,.25,.33,.61,.49,1.08,.49,.61,0,1.19-.17,1.73-.52-.01-.08-.02-.16-.02-.24,0-.07,0-.14,0-.2v-5.52Z" style="fill: #444;"/>
      <path d="M171.54,185.14c-.19,.61-.38,1.17-.56,1.68-.18,.51-.4,.95-.65,1.32s-.55,.66-.9,.87-.78,.32-1.29,.33c-.18,0-.33-.06-.45-.17-.12-.11-.18-.25-.18-.43,0-.15,.05-.28,.16-.39,.11-.12,.25-.18,.43-.19,.25-.01,.47-.06,.65-.13,.18-.08,.35-.2,.5-.36,.15-.16,.28-.37,.4-.62,.12-.25,.24-.56,.35-.93l-2.51-7.23s-.03-.06-.03-.1v-.12c0-.17,.06-.3,.17-.41s.26-.16,.44-.16c.12,0,.22,.03,.32,.1,.1,.07,.18,.17,.23,.31l1.97,5.97,1.72-5.97c.05-.14,.13-.24,.24-.31,.1-.07,.21-.1,.33-.1,.16,0,.3,.06,.43,.17,.13,.12,.19,.26,.19,.44,0,.04-.01,.11-.03,.19l-1.92,6.26Z" style="fill: #444;"/>
      <path d="M177.02,185.17c.34,0,.63-.04,.87-.13,.24-.08,.5-.19,.77-.32,.02-.01,.05-.02,.09-.03,.04-.01,.08-.02,.13-.02,.16,0,.29,.06,.39,.17s.16,.24,.16,.39c0,.19-.09,.35-.28,.48-.18,.13-.41,.24-.68,.32-.27,.08-.55,.14-.84,.17-.29,.04-.55,.06-.76,.06-.44,0-.84-.07-1.19-.2-.35-.13-.65-.32-.88-.55-.24-.24-.42-.51-.54-.84-.13-.32-.19-.66-.19-1.03v-2.95c0-.38,.06-.73,.19-1.06s.31-.61,.55-.84c.24-.24,.54-.42,.9-.56s.77-.2,1.25-.2c.88,0,1.54,.23,1.97,.69,.43,.46,.65,1.09,.65,1.88,0,.72-.21,1.3-.62,1.71s-1.1,.62-2.04,.62c-.24,0-.5-.01-.78-.03-.28-.02-.55-.06-.83-.11v.93c0,.44,.14,.79,.43,1.06,.29,.26,.72,.39,1.28,.39Zm1.34-4.57c0-.51-.12-.89-.37-1.11-.25-.23-.6-.34-1.06-.34-.51,0-.91,.13-1.2,.39-.28,.26-.43,.61-.43,1.05v1.2c.29,.04,.6,.07,.93,.09,.33,.02,.57,.02,.73,.02,.3,0,.55-.04,.73-.11,.18-.07,.32-.17,.43-.29,.1-.12,.17-.26,.2-.42s.05-.32,.05-.47Z" style="fill: #444;"/>
      <path d="M182.27,185.64c0,.17-.05,.31-.15,.43-.1,.12-.25,.17-.46,.17s-.37-.06-.47-.17c-.1-.12-.15-.26-.15-.43v-5.36c0-.22,0-.39-.02-.5-.02-.12-.04-.21-.06-.28-.03-.07-.06-.13-.09-.17-.04-.04-.07-.09-.1-.15-.02-.03-.04-.07-.07-.12-.03-.05-.04-.11-.04-.2,0-.16,.05-.29,.17-.39,.11-.1,.25-.16,.42-.16,.15,0,.27,.04,.38,.13,.1,.08,.2,.19,.28,.33,.35-.24,.71-.42,1.1-.54,.39-.12,.77-.17,1.15-.17,.84,0,1.47,.27,1.88,.82,.41,.55,.62,1.27,.62,2.16v4.6c0,.17-.05,.31-.16,.43-.11,.12-.26,.17-.46,.17s-.35-.06-.46-.17-.16-.26-.16-.43v-4.6c0-.6-.12-1.06-.37-1.39-.25-.33-.61-.49-1.08-.49-.3,0-.6,.06-.9,.17-.29,.12-.58,.28-.85,.49,.03,.17,.05,.32,.05,.46v5.36Z" style="fill: #444;"/>
      <path d="M190.8,178.09c.26,0,.55,.03,.86,.08,.31,.05,.61,.13,.89,.22v-3.09c0-.17,.05-.31,.16-.43,.1-.12,.26-.17,.46-.17s.35,.06,.46,.17c.11,.12,.16,.26,.16,.43v9.03c0,.22,.03,.4,.09,.55,.06,.15,.17,.28,.32,.39,.03,.05,.06,.1,.08,.14s.03,.1,.03,.17c0,.17-.06,.3-.17,.4-.12,.1-.24,.15-.38,.15-.18,0-.34-.05-.48-.14s-.26-.22-.35-.36c-.35,.18-.71,.33-1.08,.44-.37,.12-.76,.17-1.16,.17-.83,0-1.46-.28-1.88-.83-.42-.55-.63-1.27-.63-2.15v-2c0-.47,.04-.9,.13-1.29,.08-.39,.23-.72,.43-1,.2-.28,.48-.5,.81-.65,.34-.16,.76-.24,1.26-.24Zm1.75,1.4c-.26-.12-.55-.2-.85-.25-.3-.05-.55-.08-.74-.08-.58,0-.98,.17-1.21,.5s-.35,.87-.35,1.61v2c0,1.25,.51,1.88,1.53,1.88,.25,0,.52-.04,.81-.12,.29-.08,.57-.19,.84-.34-.02-.06-.03-.13-.03-.19v-5.01Z" style="fill: #444;"/>
      <path d="M198.41,186.26c-.48,0-.91-.07-1.28-.22s-.68-.35-.92-.6c-.25-.25-.43-.55-.56-.89s-.19-.71-.19-1.1v-2.63c0-.4,.06-.77,.19-1.11s.31-.64,.56-.89,.55-.45,.92-.59c.37-.14,.79-.21,1.28-.21s.91,.07,1.28,.21c.37,.14,.68,.34,.92,.59s.43,.55,.56,.89,.19,.71,.19,1.11v2.63c0,.39-.06,.75-.19,1.1s-.31,.64-.56,.89c-.25,.25-.55,.45-.92,.6-.37,.15-.79,.22-1.28,.22Zm0-1.13c.57,0,1-.15,1.28-.44,.29-.29,.43-.7,.43-1.23v-2.65c0-.51-.14-.92-.43-1.21-.29-.29-.72-.44-1.28-.44s-1,.15-1.28,.44c-.29,.29-.43,.7-.43,1.21v2.65c0,.53,.14,.94,.43,1.23,.29,.29,.72,.44,1.28,.44Z" style="fill: #444;"/>
      <path d="M208.69,175.6c0,.21-.07,.39-.22,.54-.15,.15-.33,.22-.54,.22s-.39-.07-.54-.22-.22-.33-.22-.54,.07-.39,.22-.54c.15-.15,.33-.22,.54-.22s.39,.07,.54,.22c.15,.15,.22,.33,.22,.54Zm-.14,10.04c0,.18-.06,.33-.17,.44-.12,.12-.26,.17-.44,.17s-.33-.06-.44-.17c-.12-.12-.17-.26-.17-.44v-6.95c0-.17,.06-.31,.17-.43s.26-.18,.44-.18,.33,.06,.44,.18c.12,.12,.17,.27,.17,.43v6.95Z" style="fill: #444;"/>
      <path d="M211.92,185.64c0,.17-.05,.31-.15,.43-.1,.12-.25,.17-.46,.17s-.37-.06-.47-.17c-.1-.12-.15-.26-.15-.43v-5.36c0-.22,0-.39-.02-.5-.02-.12-.04-.21-.06-.28-.03-.07-.06-.13-.09-.17-.04-.04-.07-.09-.1-.15-.02-.03-.04-.07-.07-.12-.03-.05-.04-.11-.04-.2,0-.16,.05-.29,.17-.39,.11-.1,.25-.16,.42-.16,.15,0,.27,.04,.38,.13,.1,.08,.2,.19,.28,.33,.35-.24,.71-.42,1.1-.54,.39-.12,.77-.17,1.15-.17,.84,0,1.47,.27,1.88,.82,.41,.55,.62,1.27,.62,2.16v4.6c0,.17-.05,.31-.16,.43-.11,.12-.26,.17-.46,.17s-.35-.06-.46-.17-.16-.26-.16-.43v-4.6c0-.6-.12-1.06-.37-1.39-.25-.33-.61-.49-1.08-.49-.3,0-.6,.06-.9,.17-.29,.12-.58,.28-.85,.49,.03,.17,.05,.32,.05,.46v5.36Z" style="fill: #444;"/>
      <path d="M221,185.52c-.08,.26-.19,.45-.31,.57-.12,.12-.29,.17-.5,.17s-.38-.06-.5-.17c-.12-.12-.22-.3-.31-.55l-2.19-6.73c-.06-.19-.02-.36,.12-.5s.3-.22,.48-.22c.12,0,.22,.03,.32,.1,.1,.07,.18,.17,.23,.31l1.84,5.94,1.81-5.94c.04-.12,.12-.21,.22-.29,.1-.08,.22-.12,.33-.12,.19,0,.35,.08,.47,.23,.13,.15,.16,.33,.11,.54l-2.14,6.67Z" style="fill: #444;"/>
      <path d="M226.75,185.17c.34,0,.63-.04,.87-.13,.24-.08,.5-.19,.77-.32,.02-.01,.05-.02,.09-.03,.04-.01,.08-.02,.13-.02,.16,0,.29,.06,.39,.17s.16,.24,.16,.39c0,.19-.09,.35-.28,.48-.18,.13-.41,.24-.68,.32-.27,.08-.55,.14-.84,.17-.29,.04-.55,.06-.76,.06-.44,0-.84-.07-1.19-.2-.35-.13-.65-.32-.88-.55-.24-.24-.42-.51-.54-.84-.13-.32-.19-.66-.19-1.03v-2.95c0-.38,.06-.73,.19-1.06s.31-.61,.55-.84c.24-.24,.54-.42,.9-.56s.77-.2,1.25-.2c.88,0,1.54,.23,1.97,.69,.43,.46,.65,1.09,.65,1.88,0,.72-.21,1.3-.62,1.71s-1.1,.62-2.04,.62c-.24,0-.5-.01-.78-.03-.28-.02-.55-.06-.83-.11v.93c0,.44,.14,.79,.43,1.06,.29,.26,.72,.39,1.28,.39Zm1.34-4.57c0-.51-.12-.89-.37-1.11-.25-.23-.6-.34-1.06-.34-.51,0-.91,.13-1.2,.39-.28,.26-.43,.61-.43,1.05v1.2c.29,.04,.6,.07,.93,.09,.33,.02,.57,.02,.73,.02,.3,0,.55-.04,.73-.11,.18-.07,.32-.17,.43-.29,.1-.12,.17-.26,.2-.42s.05-.32,.05-.47Z" style="fill: #444;"/>
      <path d="M232,185.64c0,.18-.06,.33-.17,.44-.12,.12-.26,.17-.44,.17s-.33-.06-.44-.17c-.12-.12-.17-.26-.17-.44v-5.33c0-.26-.02-.48-.06-.64-.04-.16-.1-.32-.2-.47-.03-.05-.06-.1-.08-.14-.02-.04-.03-.1-.03-.17,0-.17,.06-.3,.17-.4,.12-.1,.25-.15,.39-.15,.13,0,.24,.04,.35,.12,.1,.08,.2,.18,.28,.31,.34-.21,.7-.38,1.1-.5,.4-.12,.75-.18,1.06-.18s.53,.06,.65,.17,.17,.26,.17,.43c0,.2-.06,.36-.18,.47-.12,.12-.27,.17-.43,.16-.33-.01-.64,0-.95,.06-.3,.05-.66,.22-1.06,.51,.01,.08,.02,.16,.02,.23,0,.07,0,.13,0,.2v5.33Z" style="fill: #444;"/>
      <path d="M235.29,180.3c0-.68,.22-1.23,.65-1.65,.43-.41,1.07-.62,1.91-.62,.21,0,.44,.02,.68,.05,.24,.03,.47,.08,.68,.15,.21,.07,.39,.16,.53,.27,.14,.11,.21,.25,.21,.42,0,.15-.05,.28-.16,.39-.11,.12-.24,.17-.41,.17-.08,0-.18-.03-.28-.08-.17-.08-.34-.15-.51-.2-.17-.05-.4-.08-.69-.08-.94,0-1.4,.37-1.4,1.1,0,.24,.06,.44,.17,.58,.11,.15,.3,.29,.57,.43,.27,.14,.58,.26,.91,.36s.65,.25,.95,.43c.3,.18,.55,.42,.76,.72,.21,.29,.31,.7,.31,1.21,0,.71-.22,1.28-.66,1.69s-1.1,.61-1.99,.61c-.2,0-.43-.01-.7-.04-.27-.03-.52-.07-.76-.14-.24-.07-.44-.16-.61-.28-.17-.12-.25-.27-.25-.45,0-.14,.05-.27,.15-.39,.1-.12,.24-.18,.43-.18,.05,0,.09,0,.1,0,.02,0,.03,.01,.06,.02,.22,.08,.46,.17,.72,.24,.26,.08,.54,.12,.86,.12,.44,0,.79-.09,1.06-.28,.26-.18,.39-.48,.39-.89,0-.28-.06-.5-.17-.64-.12-.14-.25-.25-.41-.34-.25-.14-.55-.26-.91-.36-.35-.11-.69-.25-1.01-.43-.32-.18-.6-.42-.83-.72-.23-.3-.35-.71-.35-1.22Z" style="fill: #444;"/>
      <path d="M242.89,175.6c0,.21-.07,.39-.22,.54-.15,.15-.33,.22-.54,.22s-.39-.07-.54-.22-.22-.33-.22-.54,.07-.39,.22-.54c.15-.15,.33-.22,.54-.22s.39,.07,.54,.22c.15,.15,.22,.33,.22,.54Zm-.14,10.04c0,.18-.06,.33-.17,.44-.12,.12-.26,.17-.44,.17s-.33-.06-.44-.17c-.12-.12-.17-.26-.17-.44v-6.95c0-.17,.06-.31,.17-.43s.26-.18,.44-.18,.33,.06,.44,.18c.12,.12,.17,.27,.17,.43v6.95Z" style="fill: #444;"/>
      <path d="M247.34,186.26c-.48,0-.91-.07-1.28-.22s-.68-.35-.92-.6c-.25-.25-.43-.55-.56-.89s-.19-.71-.19-1.1v-2.63c0-.4,.06-.77,.19-1.11s.31-.64,.56-.89,.55-.45,.92-.59c.37-.14,.79-.21,1.28-.21s.91,.07,1.28,.21c.37,.14,.68,.34,.92,.59s.43,.55,.56,.89,.19,.71,.19,1.11v2.63c0,.39-.06,.75-.19,1.1s-.31,.64-.56,.89c-.25,.25-.55,.45-.92,.6-.37,.15-.79,.22-1.28,.22Zm0-1.13c.57,0,1-.15,1.28-.44,.29-.29,.43-.7,.43-1.23v-2.65c0-.51-.14-.92-.43-1.21-.29-.29-.72-.44-1.28-.44s-1,.15-1.28,.44c-.29,.29-.43,.7-.43,1.21v2.65c0,.53,.14,.94,.43,1.23,.29,.29,.72,.44,1.28,.44Z" style="fill: #444;"/>
      <path d="M253.04,185.64c0,.17-.05,.31-.15,.43-.1,.12-.25,.17-.46,.17s-.37-.06-.47-.17c-.1-.12-.15-.26-.15-.43v-5.36c0-.22,0-.39-.02-.5-.02-.12-.04-.21-.06-.28-.03-.07-.06-.13-.09-.17-.04-.04-.07-.09-.1-.15-.02-.03-.04-.07-.07-.12-.03-.05-.04-.11-.04-.2,0-.16,.05-.29,.17-.39,.11-.1,.25-.16,.42-.16,.15,0,.27,.04,.38,.13,.1,.08,.2,.19,.28,.33,.35-.24,.71-.42,1.1-.54,.39-.12,.77-.17,1.15-.17,.84,0,1.47,.27,1.88,.82,.41,.55,.62,1.27,.62,2.16v4.6c0,.17-.05,.31-.16,.43-.11,.12-.26,.17-.46,.17s-.35-.06-.46-.17-.16-.26-.16-.43v-4.6c0-.6-.12-1.06-.37-1.39-.25-.33-.61-.49-1.08-.49-.3,0-.6,.06-.9,.17-.29,.12-.58,.28-.85,.49,.03,.17,.05,.32,.05,.46v5.36Z" style="fill: #444;"/>
      <path d="M261.88,185.17c.34,0,.63-.04,.87-.13,.24-.08,.5-.19,.77-.32,.02-.01,.05-.02,.09-.03,.04-.01,.08-.02,.13-.02,.16,0,.29,.06,.39,.17s.16,.24,.16,.39c0,.19-.09,.35-.28,.48-.18,.13-.41,.24-.68,.32-.27,.08-.55,.14-.84,.17-.29,.04-.55,.06-.76,.06-.44,0-.84-.07-1.19-.2-.35-.13-.65-.32-.88-.55-.24-.24-.42-.51-.54-.84-.13-.32-.19-.66-.19-1.03v-2.95c0-.38,.06-.73,.19-1.06s.31-.61,.55-.84c.24-.24,.54-.42,.9-.56s.77-.2,1.25-.2c.88,0,1.54,.23,1.97,.69,.43,.46,.65,1.09,.65,1.88,0,.72-.21,1.3-.62,1.71s-1.1,.62-2.04,.62c-.24,0-.5-.01-.78-.03-.28-.02-.55-.06-.83-.11v.93c0,.44,.14,.79,.43,1.06,.29,.26,.72,.39,1.28,.39Zm1.34-4.57c0-.51-.12-.89-.37-1.11-.25-.23-.6-.34-1.06-.34-.51,0-.91,.13-1.2,.39-.28,.26-.43,.61-.43,1.05v1.2c.29,.04,.6,.07,.93,.09,.33,.02,.57,.02,.73,.02,.3,0,.55-.04,.73-.11,.18-.07,.32-.17,.43-.29,.1-.12,.17-.26,.2-.42s.05-.32,.05-.47Z" style="fill: #444;"/>
      <path d="M265.49,180.3c0-.68,.22-1.23,.65-1.65,.43-.41,1.07-.62,1.91-.62,.21,0,.44,.02,.68,.05,.24,.03,.47,.08,.68,.15,.21,.07,.39,.16,.53,.27,.14,.11,.21,.25,.21,.42,0,.15-.05,.28-.16,.39-.11,.12-.24,.17-.41,.17-.08,0-.18-.03-.28-.08-.17-.08-.34-.15-.51-.2-.17-.05-.4-.08-.69-.08-.94,0-1.4,.37-1.4,1.1,0,.24,.06,.44,.17,.58,.11,.15,.3,.29,.57,.43,.27,.14,.58,.26,.91,.36s.65,.25,.95,.43c.3,.18,.55,.42,.76,.72,.21,.29,.31,.7,.31,1.21,0,.71-.22,1.28-.66,1.69s-1.1,.61-1.99,.61c-.2,0-.43-.01-.7-.04-.27-.03-.52-.07-.76-.14-.24-.07-.44-.16-.61-.28-.17-.12-.25-.27-.25-.45,0-.14,.05-.27,.15-.39,.1-.12,.24-.18,.43-.18,.05,0,.09,0,.1,0,.02,0,.03,.01,.06,.02,.22,.08,.46,.17,.72,.24,.26,.08,.54,.12,.86,.12,.44,0,.79-.09,1.06-.28,.26-.18,.39-.48,.39-.89,0-.28-.06-.5-.17-.64-.12-.14-.25-.25-.41-.34-.25-.14-.55-.26-.91-.36-.35-.11-.69-.25-1.01-.43-.32-.18-.6-.42-.83-.72-.23-.3-.35-.71-.35-1.22Z" style="fill: #444;"/>
      <path d="M275.83,180.3c0-.68,.22-1.23,.65-1.65,.43-.41,1.07-.62,1.91-.62,.21,0,.44,.02,.68,.05,.24,.03,.47,.08,.68,.15,.21,.07,.39,.16,.53,.27,.14,.11,.21,.25,.21,.42,0,.15-.05,.28-.16,.39-.11,.12-.24,.17-.41,.17-.08,0-.18-.03-.28-.08-.17-.08-.34-.15-.51-.2-.17-.05-.4-.08-.69-.08-.94,0-1.4,.37-1.4,1.1,0,.24,.06,.44,.17,.58,.11,.15,.3,.29,.57,.43,.27,.14,.58,.26,.91,.36s.65,.25,.95,.43c.3,.18,.55,.42,.76,.72,.21,.29,.31,.7,.31,1.21,0,.71-.22,1.28-.66,1.69s-1.1,.61-1.99,.61c-.2,0-.43-.01-.7-.04-.27-.03-.52-.07-.76-.14-.24-.07-.44-.16-.61-.28-.17-.12-.25-.27-.25-.45,0-.14,.05-.27,.15-.39,.1-.12,.24-.18,.43-.18,.05,0,.09,0,.1,0,.02,0,.03,.01,.06,.02,.22,.08,.46,.17,.72,.24,.26,.08,.54,.12,.86,.12,.44,0,.79-.09,1.06-.28,.26-.18,.39-.48,.39-.89,0-.28-.06-.5-.17-.64-.12-.14-.25-.25-.41-.34-.25-.14-.55-.26-.91-.36-.35-.11-.69-.25-1.01-.43-.32-.18-.6-.42-.83-.72-.23-.3-.35-.71-.35-1.22Z" style="fill: #444;"/>
      <path d="M284.66,185.17c.34,0,.63-.04,.87-.13,.24-.08,.5-.19,.77-.32,.02-.01,.05-.02,.09-.03,.04-.01,.08-.02,.13-.02,.16,0,.29,.06,.39,.17s.16,.24,.16,.39c0,.19-.09,.35-.28,.48-.18,.13-.41,.24-.68,.32-.27,.08-.55,.14-.84,.17-.29,.04-.55,.06-.76,.06-.44,0-.84-.07-1.19-.2-.35-.13-.65-.32-.88-.55-.24-.24-.42-.51-.54-.84-.13-.32-.19-.66-.19-1.03v-2.95c0-.38,.06-.73,.19-1.06s.31-.61,.55-.84c.24-.24,.54-.42,.9-.56s.77-.2,1.25-.2c.88,0,1.54,.23,1.97,.69,.43,.46,.65,1.09,.65,1.88,0,.72-.21,1.3-.62,1.71s-1.1,.62-2.04,.62c-.24,0-.5-.01-.78-.03-.28-.02-.55-.06-.83-.11v.93c0,.44,.14,.79,.43,1.06,.29,.26,.72,.39,1.28,.39Zm1.34-4.57c0-.51-.12-.89-.37-1.11-.25-.23-.6-.34-1.06-.34-.51,0-.91,.13-1.2,.39-.28,.26-.43,.61-.43,1.05v1.2c.29,.04,.6,.07,.93,.09,.33,.02,.57,.02,.73,.02,.3,0,.55-.04,.73-.11,.18-.07,.32-.17,.43-.29,.1-.12,.17-.26,.2-.42s.05-.32,.05-.47Z" style="fill: #444;"/>
      <path d="M291.07,178.03c.37,0,.73,.04,1.08,.13,.35,.09,.68,.22,.99,.4,.18-.33,.39-.56,.63-.7,.24-.14,.45-.21,.63-.21,.17,0,.31,.05,.42,.16,.11,.11,.17,.24,.17,.39,0,.08-.01,.15-.04,.2s-.05,.09-.07,.11c-.15,.15-.28,.27-.39,.38-.11,.11-.2,.21-.27,.31-.07,.11-.12,.22-.15,.35-.03,.13-.05,.29-.05,.48v.98c0,.4-.06,.77-.18,1.12-.12,.35-.3,.65-.54,.9s-.53,.45-.89,.6c-.36,.15-.77,.22-1.25,.22s-.9-.07-1.24-.2c-.07,.14-.12,.27-.15,.39-.03,.13-.04,.24-.04,.33,0,.14,.03,.25,.09,.34,.06,.09,.13,.16,.21,.21s.18,.09,.28,.11c.1,.02,.19,.03,.28,.03h.66c.45,0,.87,.05,1.25,.14,.38,.09,.72,.24,1,.43s.5,.43,.66,.72c.16,.29,.24,.64,.24,1.02s-.08,.76-.24,1.07c-.16,.32-.39,.58-.68,.8s-.63,.39-1.02,.51c-.39,.12-.82,.18-1.28,.18s-.85-.05-1.22-.17c-.37-.11-.69-.27-.96-.47-.27-.2-.48-.46-.62-.76-.15-.31-.22-.65-.22-1.02s.07-.74,.21-1.04c.14-.3,.35-.59,.62-.85-.18-.18-.3-.38-.37-.61-.07-.23-.1-.43-.1-.61,0-.19,.04-.4,.12-.63,.08-.23,.24-.45,.48-.66-.57-.54-.85-1.28-.85-2.22,0-.41,.06-.79,.17-1.14,.12-.35,.29-.66,.53-.91,.24-.26,.53-.46,.88-.61,.35-.15,.76-.22,1.24-.22Zm-.46,8.18c-.24,0-.48-.03-.71-.08-.36,.32-.54,.73-.54,1.23,0,.47,.15,.84,.46,1.09,.3,.25,.76,.38,1.37,.38,.57,0,1.04-.12,1.41-.35s.56-.58,.56-1.06c0-.81-.63-1.21-1.89-1.21h-.66Zm2.18-6.15c0-.08,0-.16,0-.24s.01-.15,.02-.22c-.24-.15-.49-.26-.76-.35s-.54-.13-.84-.13c-.59,0-1.03,.16-1.32,.46-.29,.31-.43,.76-.43,1.35,0,.54,.13,.97,.39,1.29s.69,.49,1.29,.49c.57,0,.98-.15,1.24-.44,.26-.29,.39-.7,.39-1.23v-.99Z" style="fill: #444;"/>
      <path d="M300.36,178.68c0-.17,.05-.31,.15-.43,.1-.12,.25-.17,.46-.17s.37,.06,.47,.17c.1,.12,.15,.26,.15,.43v5.52c0,.22,0,.39,.02,.5,.02,.12,.04,.21,.07,.28,.03,.07,.06,.13,.09,.17,.03,.04,.06,.09,.09,.15,.02,.03,.04,.07,.07,.13s.04,.12,.04,.19c0,.15-.06,.28-.17,.39s-.25,.17-.42,.17c-.15,0-.28-.04-.39-.13-.11-.08-.21-.2-.29-.35-.35,.2-.71,.34-1.1,.43-.39,.09-.77,.13-1.14,.13-.84,0-1.47-.27-1.88-.82-.42-.55-.62-1.27-.62-2.16v-4.6c0-.17,.05-.31,.16-.43,.11-.12,.26-.17,.46-.17s.35,.06,.46,.17c.1,.12,.16,.26,.16,.43v4.6c0,.6,.12,1.06,.37,1.39,.25,.33,.61,.49,1.08,.49,.61,0,1.19-.17,1.73-.52-.01-.08-.02-.16-.02-.24,0-.07,0-.14,0-.2v-5.52Z" style="fill: #444;"/>
      <path d="M304.88,185.64c0,.18-.06,.33-.17,.44-.12,.12-.26,.17-.44,.17s-.33-.06-.44-.17c-.12-.12-.17-.26-.17-.44v-5.33c0-.26-.02-.48-.06-.64-.04-.16-.1-.32-.2-.47-.03-.05-.06-.1-.08-.14-.02-.04-.03-.1-.03-.17,0-.17,.06-.3,.17-.4,.12-.1,.25-.15,.39-.15,.13,0,.24,.04,.35,.12,.1,.08,.2,.18,.28,.31,.34-.21,.7-.38,1.1-.5,.4-.12,.75-.18,1.06-.18s.53,.06,.65,.17,.17,.26,.17,.43c0,.2-.06,.36-.18,.47-.12,.12-.27,.17-.43,.16-.33-.01-.64,0-.95,.06-.3,.05-.66,.22-1.06,.51,.01,.08,.02,.16,.02,.23,0,.07,0,.13,0,.2v5.33Z" style="fill: #444;"/>
      <path d="M312.32,180.8c0-1.12-.56-1.69-1.69-1.69-.27,0-.5,.03-.67,.09-.17,.06-.35,.14-.53,.24-.02,.01-.07,.03-.16,.07-.08,.04-.17,.06-.25,.06-.15,0-.25-.06-.32-.17-.07-.12-.11-.23-.12-.35-.01-.18,.04-.33,.17-.46,.12-.13,.29-.24,.5-.32,.22-.08,.46-.14,.72-.18,.27-.04,.54-.05,.81-.05,.99,0,1.69,.27,2.12,.8,.43,.54,.64,1.33,.64,2.38v3.47c0,.32,.09,.47,.28,.47,.02,0,.04,0,.06,0,.02,0,.04,0,.07,0,.15,0,.26,.06,.34,.17,.08,.11,.12,.23,.12,.37,0,.2-.07,.34-.22,.42-.15,.08-.31,.12-.49,.12-.26,0-.5-.07-.7-.21-.21-.14-.37-.33-.48-.58-.61,.56-1.33,.84-2.16,.84s-1.43-.22-1.82-.65c-.39-.44-.59-1.01-.59-1.73v-.06c0-1.56,.92-2.33,2.77-2.33,.56,0,1.09,.07,1.59,.22v-.9Zm-1.61,1.72c-.33,0-.59,.03-.79,.1-.2,.07-.35,.16-.47,.28s-.19,.26-.23,.42c-.04,.16-.06,.33-.06,.5v.06c0,.37,.1,.67,.29,.91,.19,.24,.56,.35,1.1,.35,.34,0,.65-.06,.93-.17,.28-.11,.56-.29,.84-.53v-1.7c-.26-.08-.54-.14-.82-.18-.28-.04-.55-.05-.79-.05Z" style="fill: #444;"/>
      <path d="M315.41,180.3c0-.68,.22-1.23,.65-1.65,.43-.41,1.07-.62,1.91-.62,.21,0,.44,.02,.68,.05,.24,.03,.47,.08,.68,.15,.21,.07,.39,.16,.53,.27,.14,.11,.21,.25,.21,.42,0,.15-.05,.28-.16,.39-.11,.12-.24,.17-.41,.17-.08,0-.18-.03-.28-.08-.17-.08-.34-.15-.51-.2-.17-.05-.4-.08-.69-.08-.94,0-1.4,.37-1.4,1.1,0,.24,.06,.44,.17,.58,.11,.15,.3,.29,.57,.43,.27,.14,.58,.26,.91,.36s.65,.25,.95,.43c.3,.18,.55,.42,.76,.72,.21,.29,.31,.7,.31,1.21,0,.71-.22,1.28-.66,1.69s-1.1,.61-1.99,.61c-.2,0-.43-.01-.7-.04-.27-.03-.52-.07-.76-.14-.24-.07-.44-.16-.61-.28-.17-.12-.25-.27-.25-.45,0-.14,.05-.27,.15-.39,.1-.12,.24-.18,.43-.18,.05,0,.09,0,.1,0,.02,0,.03,.01,.06,.02,.22,.08,.46,.17,.72,.24,.26,.08,.54,.12,.86,.12,.44,0,.79-.09,1.06-.28,.26-.18,.39-.48,.39-.89,0-.28-.06-.5-.17-.64-.12-.14-.25-.25-.41-.34-.25-.14-.55-.26-.91-.36-.35-.11-.69-.25-1.01-.43-.32-.18-.6-.42-.83-.72-.23-.3-.35-.71-.35-1.22Z" style="fill: #444;"/>
    </g>
    <path d="M128.78,169.48h-6.2v-34.75h6.2v34.75Z" style="fill: #444;"/>
    <path d="M150.92,134.73v34.75h-6.2l-6.11-19.9h-.1v19.9h-6.2v-34.75h6.55l5.76,19.26h.1v-19.26h6.2Z" style="fill: #444;"/>
    <path d="M167.6,169.48h-6.6l-7.69-34.75h6.65l4.42,25.71h.1l4.52-25.71h6.6l-7.99,34.75Z" style="fill: #444;"/>
    <path d="M184.18,139.69v8.54h6.3v4.96h-6.3v11.32h9.48v4.96h-15.69v-34.75h14.99v4.96h-8.79Z" style="fill: #444;"/>
    <path d="M210.09,169.48l-5.91-14h-1.99v14h-6.16v-34.75h10.37c5.96,0,8.79,4.37,8.79,9.93,0,5.16-2.23,8.49-5.21,9.98l6.55,14.84h-6.45Zm-7.89-19.26h1.99c4.02,0,5.11-.5,5.11-5.56,0-2.78-.65-4.96-3.08-4.96h-4.02v10.52Z" style="fill: #444;"/>
    <path d="M229.5,144.46v-1.44c0-2.43-1.29-3.77-2.78-3.77-1.59,0-2.78,1.14-2.78,2.73,0,1.49,.3,2.63,1.74,4.27l6.2,7.1c2.48,2.83,4.02,4.72,4.02,8.84,0,5.01-4.22,7.79-9.18,7.79s-9.03-2.83-9.03-7.79v-3.62h6.25v3.23c0,2.13,1.19,3.18,2.78,3.18s2.78-1.14,2.78-3.18c0-1.84-.74-3.23-2.03-4.72l-5.16-5.31c-3.28-3.87-4.67-4.96-4.67-9.73s3.77-7.74,9.08-7.74,8.98,3.13,8.98,7.74v2.43h-6.2Z" style="fill: #666;"/>
    <path d="M244.98,139.69v8.54h6.3v4.96h-6.3v11.32h9.48v4.96h-15.68v-34.75h14.99v4.96h-8.79Z" style="fill: #666;"/>
    <path d="M267.57,144.81v-2.73c0-1.04-1.04-2.83-2.83-2.83-2.18,0-3.13,1.79-3.13,2.83v20.05c0,1.04,.94,2.83,3.13,2.83,2.33,0,3.52-1.64,3.52-4.47v-5.31h-3.47v-4.96h9.03v10.72c0,4.72-2.83,8.98-9.08,8.98-6.9,0-9.38-4.27-9.38-7.74v-20.1c0-3.52,2.48-7.79,9.38-7.79,6.25,0,9.08,4.27,9.08,7.79v2.73h-6.25Z" style="fill: #666;"/>
    <path d="M295.41,134.73v27.45c0,3.52-2.78,7.74-8.98,7.74-6.8,0-9.33-4.22-9.33-7.74v-27.45h6.2v27.4c0,1.04,.94,2.83,3.13,2.83,1.79,0,2.78-1.79,2.78-2.83v-27.4h6.2Z" style="fill: #666;"/>
    <path d="M312.99,169.48l-5.91-14h-1.99v14h-6.15v-34.75h10.37c5.96,0,8.79,4.37,8.79,9.93,0,5.16-2.23,8.49-5.21,9.98l6.55,14.84h-6.45Zm-7.89-19.26h1.99c4.02,0,5.11-.5,5.11-5.56,0-2.78-.65-4.96-3.08-4.96h-4.02v10.52Z" style="fill: #666;"/>
    <polygon points="118.7 142.43 99.21 131.16 79.72 142.43 79.72 134.31 99.21 123.04 118.7 134.31 118.7 142.43" style="fill: #848484;"/>
    <polygon points="118.7 150.01 99.21 138.74 79.72 150.01 79.72 141.89 99.21 130.62 118.7 141.89 118.7 150.01" style="fill: #727272;"/>
    <polygon points="79.72 150.01 79.72 169.56 118.7 169.56 118.7 150.01 99.21 138.74 79.72 150.01" style="fill: #666;"/>
  </g>
</svg>