<?xml version="1.0" encoding="UTF-8"?>
<svg id="Capa_1" data-name="Capa 1" xmlns="http://www.w3.org/2000/svg" viewBox="0 0 400 313">
  <rect width="400" height="313" style="fill: #d8d8d8;"/>
  <g>
    <g>
      <path d="M140.84,88.62h-13.24l.58,2.74v39.59l-.58,2.81h13.24l2.51-2.81v-39.53l-2.51-2.8Zm-2.56,38.81l-.59,.66h-3.86l-.58-.66v-32.54l.58-.66h3.86l.59,.66v32.54Z" style="fill: #545454;"/>
      <path d="M154.51,131.02l.64,2.74h-6.3l.64-2.74v-39.6l-.64-2.81h6.3l-.64,2.81v39.6Z" style="fill: #545454;"/>
      <path d="M176.11,97.17l.64,2.75h-6.3l.59-2.75v-2.22l-.59-.65h-3.85l-.58,.65v12.81l.58,.65h7l2.51,2.81v19.73l-2.51,2.81h-10.1l-2.57-2.81v-5.68l-.58-2.74h6.3l-.64,2.74v2.22l.58,.65h3.85l.59-.65v-12.8l-.59-.66h-6.94l-2.57-2.81v-19.8l2.57-2.81h10.1l2.51,2.81v5.75Z" style="fill: #545454;"/>
      <path d="M197.77,88.62l.93,6.34-2.62-.65h-3.27l-.58,.65v36.07l.64,2.74h-6.3l.64-2.74v-36.07l-.58-.65h-3.33l-2.63,.65,.93-6.34h16.16Z" style="fill: #545454;"/>
      <path d="M209.21,133.77h-6.3l.64-2.74v-39.6l-.64-2.81h13.25l2.51,2.81v19.8l-2.51,2.81,2.16,16.86,.82,2.87h-6.3l.47-2.68-2.16-16.53-.41-.52h-1.57l-.58,.66v16.33l.64,2.74Zm-.06-25.35h3.91l.58-.65v-12.81l-.58-.65h-3.91l-.58,.65v12.81l.58,.65Z" style="fill: #545454;"/>
      <path d="M229.99,131.02l.64,2.74h-6.3l.64-2.74v-39.6l-.64-2.81h6.3l-.64,2.81v39.6Z" style="fill: #545454;"/>
      <path d="M251.94,88.62l.93,6.34-2.62-.65h-3.27l-.58,.65v36.07l.64,2.74h-6.3l.64-2.74v-36.07l-.58-.65h-3.33l-2.62,.65,.93-6.34h16.16Z" style="fill: #545454;"/>
      <path d="M269.69,88.62l2.51,2.81v39.53l-2.51,2.81h-10.09l-2.51-2.81v-39.53l2.51-2.81h10.09Zm-2.57,6.34l-.58-.65h-3.85l-.58,.65v32.54l.58,.65h3.85l.58-.65v-32.54Z" style="fill: #545454;"/>
    </g>
    <g>
      <g>
        <path d="M111.68,205.04c-1.02-1.44-2.03-2.88-3.05-4.31v-55.48c1.09-1.4,2.18-2.81,3.29-4.24h13.99c1.18,1.5,2.37,3.02,3.57,4.53-.07,3.03-.15,6.03-.22,9.02,.28,1.45,.55,2.89,.83,4.34-3.04-.17-6.01-.33-8.94-.5,.32-1.38,.64-2.75,.95-4.14,.02-1.14,.04-2.28,.05-3.43-.27-.35-.53-.69-.8-1.04-1.78-.05-3.54-.1-5.28-.15-.27,.32-.53,.65-.79,.97-.13,16.12-.25,31.64-.36,46.6,.24,.34,.49,.68,.73,1.02,1.64,.3,3.29,.61,4.97,.92,.26-.25,.52-.51,.78-.76,.08-4.9,.16-9.86,.24-14.88-.63-.08-1.25-.17-1.87-.25-.46-2.77-.91-5.55-1.37-8.34,3.66,.4,7.42,.81,11.25,1.23-.34,1.37-.68,2.72-1.02,4.07-.2,8.28-.4,16.39-.59,24.34-1.17,1.07-2.33,2.13-3.47,3.18-4.42-.93-8.72-1.83-12.9-2.71Z" style="fill: #545454;"/>
        <path d="M124.86,143.73c-4.97,5.98-9.73,11.69-14.29,17.16-.05-.1-.1-.2-.15-.3,4.52-5.44,9.25-11.13,14.19-17.07,.08,.07,.16,.14,.25,.21Zm-2.16-.02c-4.19,5.08-8.23,9.98-12.11,14.7-.05-.1-.1-.2-.15-.3,3.86-4.69,7.86-9.56,12.02-14.61,.08,.07,.16,.14,.24,.21Zm-2.05-.02c-3.46,4.24-6.81,8.34-10.06,12.32-.05-.1-.1-.2-.15-.3,3.22-3.95,6.54-8.03,9.96-12.23,.08,.07,.16,.14,.24,.21Zm-2.11-.02c-2.71,3.36-5.36,6.63-7.94,9.82-.05-.07-.1-.13-.15-.2,2.58-3.2,5.22-6.47,7.94-9.83,.05,.07,.11,.14,.16,.2Zm-2-.02c-2.02,2.52-4,4.99-5.94,7.41-.05-.1-.1-.2-.15-.3,1.92-2.4,3.87-4.84,5.85-7.32,.08,.07,.16,.14,.24,.2Zm-2.05-.02c-1.31,1.65-2.6,3.28-3.88,4.89-.05-.07-.1-.13-.15-.2,1.27-1.61,2.57-3.24,3.88-4.89,.05,.07,.1,.13,.16,.2Zm2.81,11.62c-2.29,2.72-4.53,5.39-6.72,8-.05-.1-.1-.2-.15-.3,2.19-2.62,4.43-5.28,6.72-8.01,.05,.1,.1,.2,.15,.3Zm-.03,2.55c-2.28,2.69-4.52,5.32-6.7,7.9-.05-.1-.1-.2-.15-.29,2.18-2.58,4.42-5.22,6.7-7.91,.05,.1,.1,.2,.15,.3Zm-.02,2.44c-2.28,2.66-4.5,5.26-6.69,7.8-.05-.1-.1-.2-.15-.29,2.18-2.55,4.41-5.15,6.68-7.81,.05,.1,.1,.2,.15,.3Zm-.03,2.53c-2.27,2.62-4.49,5.19-6.66,7.7-.05-.1-.1-.2-.15-.29,2.17-2.52,4.39-5.08,6.66-7.71,.05,.1,.1,.2,.15,.3Zm-.03,2.42c-2.26,2.59-4.48,5.12-6.65,7.6-.05-.1-.1-.2-.15-.29,2.17-2.49,4.38-5.02,6.64-7.61,.05,.1,.1,.2,.15,.3Zm-.02,2.4c-2.26,2.56-4.46,5.06-6.63,7.51-.05-.07-.1-.13-.15-.2,2.16-2.45,4.37-4.96,6.62-7.51,.05,.07,.1,.13,.15,.2Zm-.02,2.48c-2.25,2.52-4.45,4.99-6.61,7.41-.05-.1-.1-.2-.14-.29,2.15-2.42,4.35-4.9,6.6-7.42,.05,.1,.1,.2,.15,.3Zm-.02,2.37c-2.24,2.49-4.44,4.93-6.59,7.32-.05-.07-.1-.13-.15-.2,2.15-2.39,4.34-4.83,6.58-7.32,.05,.07,.1,.14,.15,.2Zm-.03,2.45c-2.23,2.46-4.42,4.87-6.57,7.22-.05-.1-.1-.2-.14-.29,2.14-2.36,4.33-4.77,6.56-7.23,.05,.1,.1,.2,.15,.3Zm-.02,2.34c-2.23,2.43-4.41,4.8-6.55,7.13-.05-.1-.1-.19-.14-.29,2.14-2.33,4.32-4.71,6.54-7.14,.05,.1,.1,.2,.15,.3Zm-.02,2.43c-2.22,2.39-4.4,4.74-6.53,7.04-.05-.09-.1-.19-.14-.29,2.13-2.3,4.3-4.65,6.52-7.05,.05,.1,.1,.2,.15,.3Zm-.02,2.32c-2.22,2.37-4.38,4.68-6.51,6.95-.05-.1-.1-.19-.14-.29,2.12-2.27,4.29-4.59,6.51-6.96,.05,.1,.1,.2,.15,.3Zm-.02,2.4c-2.21,2.33-4.37,4.62-6.49,6.86-.05-.1-.1-.19-.14-.29,2.12-2.24,4.28-4.53,6.49-6.87,.05,.1,.1,.2,.15,.3Zm-.02,2.29c-2.2,2.3-4.36,4.56-6.47,6.77-.05-.09-.09-.19-.14-.29,2.11-2.21,4.27-4.47,6.47-6.78,.05,.1,.1,.2,.15,.3Zm-.03,2.37c-2.2,2.27-4.34,4.5-6.45,6.68-.05-.1-.1-.19-.14-.29,2.11-2.18,4.25-4.41,6.45-6.69,.05,.1,.1,.2,.15,.29Zm-.02,2.27c-2.19,2.24-4.33,4.44-6.44,6.59-.05-.1-.09-.19-.14-.29,2.1-2.16,4.24-4.35,6.43-6.6,.05,.1,.1,.2,.15,.3Zm-.02,2.34c-2.18,2.21-4.32,4.38-6.42,6.5-.05-.09-.09-.19-.14-.29,2.09-2.13,4.23-4.3,6.41-6.51,.05,.1,.1,.2,.15,.3Zm-.02,2.24c-2.18,2.18-4.31,4.32-6.4,6.42-.05-.09-.09-.19-.14-.29,2.09-2.1,4.22-4.24,6.39-6.43,.05,.1,.1,.2,.15,.3Zm-.02,2.23c-2,2.01-3.96,3.99-5.88,5.93-.07-.1-.14-.2-.21-.3,1.94-1.91,3.93-3.85,5.95-5.83,.05,.07,.1,.13,.15,.21Zm.2,2.08c-1.75,1.75-3.47,3.47-5.16,5.16-.07-.1-.14-.2-.21-.3,1.69-1.69,3.41-3.41,5.15-5.16,.07,.1,.15,.21,.22,.31Zm1.34,.88c-1.92,1.86-3.8,3.69-5.65,5.49-.05-.07-.1-.13-.14-.2,1.82-1.81,3.68-3.64,5.57-5.51,.07,.07,.15,.15,.22,.22Zm1.97,.38c-2.23,2.14-4.4,4.23-6.54,6.29-.07-.07-.14-.15-.22-.22,2.13-2.06,4.31-4.15,6.53-6.29,.07,.07,.15,.15,.23,.22Zm1.91,.37c-2.26,2.15-4.47,4.25-6.63,6.31-.07-.07-.14-.15-.22-.22,2.16-2.06,4.37-4.17,6.62-6.32,.08,.07,.15,.15,.23,.22Zm8.09-5.32c-4.44,4.17-8.7,8.19-12.81,12.05-.07-.07-.15-.15-.22-.22,4.12-3.89,8.41-7.94,12.87-12.14,.05,.1,.11,.2,.16,.31Zm-3.4-52.76c-2.47,2.94-4.89,5.82-7.25,8.63-.08-.07-.16-.14-.24-.21,2.36-2.81,4.77-5.69,7.24-8.63,.08,.07,.17,.14,.25,.21Zm3.34,55.09c-3.75,3.49-7.37,6.86-10.88,10.13-.07-.07-.15-.15-.22-.22,3.53-3.3,7.18-6.7,10.94-10.22,.05,.1,.1,.21,.16,.31Zm-9.28-21.12c-.16,.2-.32,.41-.48,.61-.08-.1-.15-.21-.23-.31,.16-.17,.32-.34,.48-.51,.08,.07,.16,.14,.23,.22Zm2.06,.24c-.76,.8-1.51,1.59-2.26,2.38-.05-.1-.1-.2-.15-.3,.72-.76,1.44-1.53,2.17-2.3,.08,.07,.16,.14,.24,.22Zm2,.23c-1.32,1.41-2.61,2.79-3.9,4.17-.08-.1-.15-.21-.23-.31,1.28-1.34,2.58-2.7,3.89-4.08,.08,.07,.16,.15,.24,.22Zm3.56-33.69c-2.33,2.71-4.61,5.36-6.84,7.96-.08-.07-.16-.14-.24-.21,2.23-2.63,4.51-5.32,6.83-8.06,.08,.1,.17,.21,.25,.32Zm-1.45,33.93c-1.92,2.02-3.8,3.99-5.65,5.94-.08-.1-.15-.21-.23-.31,1.85-1.92,3.73-3.86,5.64-5.85,.08,.07,.16,.15,.24,.22Zm3.04,22.81c-3.03,2.79-5.98,5.51-8.85,8.15-.07-.07-.15-.15-.22-.22,2.89-2.67,5.87-5.42,8.92-8.24,.05,.1,.1,.21,.16,.31Zm-.98-22.57c-2.44,2.51-4.84,4.96-7.18,7.36-.08-.07-.15-.15-.23-.22,2.34-2.4,4.73-4.85,7.17-7.36,.08,.08,.16,.15,.24,.22Zm2.33-27.42c-2.8,3.21-5.53,6.34-8.2,9.39-.08-.11-.16-.21-.24-.32,2.69-3.02,5.45-6.12,8.27-9.29,.06,.07,.11,.14,.17,.21Zm-1.94-5.48c-2.02,2.39-4.01,4.75-5.96,7.06-.08-.1-.16-.21-.24-.31,1.95-2.31,3.93-4.67,5.96-7.07,.08,.11,.17,.21,.25,.32Zm2,2.87c-2.55,2.95-5.04,5.83-7.47,8.65-.08-.1-.16-.21-.24-.31,2.46-2.82,4.97-5.7,7.55-8.65,.06,.11,.11,.21,.17,.32Zm-.92-1.49c-2.21,2.56-4.38,5.06-6.51,7.52-.05-.1-.1-.21-.16-.31,2.1-2.46,4.23-4.97,6.42-7.53,.08,.11,.17,.21,.25,.32Zm.69,31.78c-2.66,2.69-5.25,5.32-7.79,7.89-.05-.1-.1-.2-.15-.3,2.51-2.55,5.07-5.15,7.69-7.81,.08,.07,.16,.15,.25,.22Zm-.33,2.7c-2.56,2.56-5.06,5.07-7.5,7.53-.05-.1-.1-.2-.15-.3,2.44-2.46,4.94-4.97,7.5-7.53,.05,.1,.1,.21,.16,.31Zm-.41,2.76c-2.43,2.41-4.81,4.77-7.14,7.09-.05-.07-.1-.14-.15-.21,2.33-2.31,4.7-4.68,7.13-7.09,.05,.07,.11,.14,.16,.22Zm-.07,2.49c-2.42,2.38-4.79,4.71-7.11,6.99-.05-.1-.1-.2-.15-.3,2.32-2.28,4.69-4.61,7.11-7,.05,.1,.1,.21,.16,.31Zm-.06,2.38c-2.41,2.35-4.78,4.64-7.09,6.89-.05-.1-.1-.2-.15-.3,2.31-2.25,4.67-4.56,7.08-6.9,.05,.1,.11,.21,.16,.31Zm-.07,2.46c-2.41,2.31-4.76,4.58-7.07,6.8-.05-.1-.1-.2-.15-.3,2.3-2.22,4.66-4.49,7.06-6.81,.05,.1,.11,.21,.16,.31Zm-.06,2.36c-2.4,2.28-4.75,4.51-7.05,6.7-.05-.1-.1-.2-.15-.3,2.3-2.19,4.64-4.43,7.04-6.72,.05,.1,.1,.21,.16,.31Zm-.26,9.47c-2.34,2.13-4.63,4.22-6.88,6.27-.07-.08-.15-.15-.23-.23,2.27-2.07,4.59-4.19,6.95-6.35,.05,.1,.1,.2,.16,.31Zm1.34-49.59c-2.21,2.48-4.37,4.91-6.5,7.29-.08-.07-.16-.14-.24-.21,2.15-2.42,4.34-4.88,6.57-7.39,.06,.1,.11,.21,.17,.32Zm-1.4,51.97c-1.62,1.46-3.23,2.91-4.81,4.33-.08-.08-.15-.15-.23-.23,1.6-1.45,3.23-2.92,4.88-4.41,.05,.1,.1,.2,.15,.31Zm1.33-49.39c-1.47,1.63-2.92,3.25-4.36,4.84-.05-.07-.11-.14-.16-.21,1.43-1.59,2.88-3.21,4.35-4.85,.06,.07,.11,.14,.17,.21Zm.28,2.28c-.83,.91-1.65,1.81-2.46,2.7-.08-.07-.16-.14-.25-.22,.81-.93,1.63-1.87,2.46-2.81,.08,.11,.17,.22,.25,.32Zm.37,2.07c-.24,.26-.47,.51-.71,.77-.08-.07-.17-.14-.25-.22,.24-.26,.47-.51,.71-.77,.08,.07,.17,.15,.25,.22Z" style="fill: #545454;"/>
      </g>
      <g>
        <path d="M145.62,211.85c-2.85-.64-5.64-1.26-8.39-1.87,.28-1.33,.56-2.67,.83-4.02v-60.64c-.28-1.44-.56-2.87-.83-4.3h18.18c1.22,1.52,2.45,3.05,3.69,4.6v32.38c-1.24,1.39-2.47,2.77-3.69,4.13,1.05,9.25,2.1,18.55,3.17,27.92,.4,1.65,.81,3.31,1.21,4.96-3.11-.69-6.15-1.37-9.15-2.04,.22-1.38,.44-2.75,.66-4.13-1.02-8.99-2.03-17.91-3.03-26.79-.19-.3-.38-.6-.57-.9-.73-.09-1.45-.18-2.17-.27-.26,.31-.53,.61-.79,.92v25.56c.29,1.49,.58,2.99,.87,4.49Zm-.08-39.78c1.79,.17,3.6,.35,5.44,.53,.28-.32,.55-.64,.83-.96v-20.48c-.28-.36-.55-.71-.83-1.07-1.83-.05-3.64-.1-5.44-.15-.26,.33-.53,.67-.79,1v20.04c.26,.36,.53,.73,.79,1.1Z" style="fill: #545454;"/>
        <path d="M146.83,204.41c-2.52,2.73-5.01,5.42-7.46,8.06-.08-.12-.15-.24-.23-.35,2.47-2.64,4.98-5.32,7.53-8.05,.05,.11,.11,.23,.16,.34Zm-5.68-60.76c-.52,.67-1.03,1.33-1.54,2-.05-.1-.1-.2-.15-.3,.49-.63,.98-1.26,1.46-1.9,.08,.07,.15,.14,.23,.2Zm1.95,.02c-1.02,1.34-2.03,2.68-3.03,4-.08-.1-.15-.21-.23-.31,1.03-1.29,2.06-2.59,3.11-3.9,.05,.07,.1,.14,.16,.2Zm3.73,58.07c-2.29,2.53-4.54,5.02-6.77,7.47-.08-.12-.15-.23-.23-.35,2.24-2.42,4.52-4.87,6.84-7.36,.05,.08,.11,.16,.16,.24Zm6.65-57.98c-4.6,5.73-9.07,11.29-13.41,16.71-.05-.1-.1-.21-.15-.31,4.31-5.38,8.75-10.92,13.32-16.61,.08,.07,.17,.14,.25,.21Zm-2.16-.02c-3.84,4.81-7.59,9.52-11.25,14.11-.05-.1-.1-.21-.15-.31,3.63-4.56,7.35-9.23,11.16-14,.08,.07,.17,.14,.25,.21Zm-2.06-.02c-3.12,3.94-6.19,7.81-9.2,11.61-.05-.1-.1-.21-.15-.31,2.98-3.76,6.01-7.6,9.11-11.5,.08,.07,.16,.14,.24,.21Zm-2.11-.02c-2.4,3.05-4.76,6.05-7.09,9.01-.05-.07-.1-.14-.15-.21,2.33-2.95,4.68-5.96,7.08-9,.05,.07,.11,.14,.16,.21Zm-2-.02c-1.72,2.19-3.41,4.36-5.09,6.5-.05-.1-.1-.21-.15-.31,1.65-2.11,3.32-4.25,5-6.4,.08,.07,.16,.14,.24,.21Zm1.68,10.92c-2.29,2.83-4.54,5.62-6.77,8.37-.05-.1-.1-.21-.15-.32,2.22-2.75,4.47-5.54,6.76-8.37,.05,.1,.11,.21,.16,.32Zm0,2.68c-2.29,2.81-4.54,5.58-6.77,8.31-.05-.1-.1-.21-.15-.31,2.22-2.73,4.47-5.51,6.76-8.32,.05,.11,.11,.21,.16,.32Zm0,2.57c-2.29,2.8-4.54,5.55-6.77,8.26-.05-.1-.1-.21-.15-.31,2.22-2.72,4.47-5.47,6.76-8.26,.05,.11,.11,.21,.16,.32Zm0,2.68c-2.29,2.77-4.54,5.51-6.77,8.21-.05-.11-.1-.21-.15-.32,2.22-2.7,4.47-5.43,6.76-8.21,.05,.11,.11,.21,.16,.32Zm0,2.57c-2.29,2.75-4.54,5.47-6.77,8.15-.05-.11-.1-.21-.15-.32,2.22-2.68,4.47-5.4,6.76-8.15,.05,.11,.11,.22,.16,.32Zm14.54,1.64c-7.42,8.51-14.51,16.65-21.31,24.44-.05-.11-.1-.22-.15-.33,6.79-7.79,13.88-15.94,21.29-24.45,.06,.11,.12,.22,.17,.34Zm-14.54,.93c-2.29,2.74-4.54,5.44-6.77,8.1-.05-.07-.1-.15-.15-.22,2.22-2.66,4.47-5.36,6.76-8.09,.05,.07,.11,.14,.16,.22Zm0,2.68c-2.29,2.72-4.54,5.4-6.77,8.04-.05-.11-.1-.21-.15-.32,2.22-2.64,4.47-5.32,6.76-8.04,.05,.11,.11,.22,.16,.32Zm0,2.57c-2.29,2.7-4.54,5.36-6.77,7.99-.05-.08-.1-.15-.15-.22,2.22-2.62,4.47-5.28,6.76-7.98,.05,.07,.11,.15,.16,.22Zm.73,1.93c-2.54,2.94-5.03,5.83-7.49,8.67-.05-.11-.1-.21-.15-.32,2.43-2.85,4.9-5.74,7.4-8.69,.08,.11,.16,.23,.24,.34Zm4.01,.53c-3.93,4.53-7.76,8.96-11.5,13.28-.05-.11-.1-.22-.15-.32,3.71-4.29,7.51-8.69,11.41-13.19,.08,.08,.16,.15,.25,.24Zm-2.14-.23c-3.18,3.7-6.3,7.33-9.36,10.89-.05-.11-.1-.22-.15-.33,3.03-3.53,6.12-7.13,9.27-10.8,.08,.08,.16,.15,.25,.23Zm-2.59,10.94c-2.29,2.6-4.54,5.17-6.77,7.7-.05-.11-.1-.22-.15-.33,2.22-2.53,4.47-5.1,6.76-7.71,.05,.11,.11,.22,.16,.33Zm0,2.57c-2.29,2.58-4.54,5.14-6.77,7.65-.05-.11-.1-.22-.15-.33,2.22-2.51,4.47-5.07,6.76-7.65,.05,.11,.11,.22,.16,.33Zm0,2.67c-2.29,2.57-4.54,5.1-6.77,7.59-.05-.11-.1-.22-.15-.33,2.22-2.5,4.47-5.03,6.76-7.6,.05,.11,.11,.22,.16,.33Zm0,2.57c-2.29,2.55-4.54,5.06-6.77,7.54-.05-.11-.1-.22-.15-.33,2.22-2.48,4.47-4.99,6.76-7.54,.05,.11,.11,.22,.16,.33Zm0,2.68c-2.29,2.53-4.54,5.02-6.77,7.48-.05-.11-.1-.22-.15-.33,2.22-2.46,4.47-4.95,6.76-7.49,.05,.11,.11,.23,.16,.34Zm0,2.57c-2.29,2.51-4.54,4.99-6.77,7.43-.05-.11-.1-.22-.15-.34,2.22-2.44,4.47-4.92,6.76-7.43,.05,.11,.11,.23,.16,.34Zm0,7.82c-2.02,2.17-4.02,4.32-5.99,6.43-.08-.09-.16-.17-.23-.25,2-2.15,4.02-4.32,6.07-6.52,.05,.11,.11,.23,.16,.34Zm0,2.67c-1.33,1.42-2.66,2.83-3.97,4.23-.08-.09-.16-.17-.24-.26,1.34-1.43,2.68-2.86,4.04-4.31,.05,.11,.11,.23,.16,.34Zm.32,2.34c-.78,.79-1.55,1.57-2.32,2.35-.08-.09-.16-.17-.24-.26,.77-.81,1.54-1.63,2.32-2.45,.08,.12,.16,.24,.24,.36Zm.4,2.15c-.22,.23-.43,.45-.65,.68-.08-.09-.16-.18-.24-.26,.21-.26,.43-.52,.64-.78,.08,.12,.16,.24,.24,.36Zm8.03-70.37c-2.44,3.02-4.85,6-7.22,8.93-.08-.07-.16-.14-.24-.22,2.37-2.93,4.77-5.91,7.21-8.93,.08,.07,.17,.14,.26,.21Zm5.79,25.76c-4.34,4.94-8.57,9.75-12.68,14.44-.08-.08-.16-.16-.24-.24,4.14-4.72,8.39-9.57,12.75-14.54,.06,.11,.12,.23,.17,.34Zm0,2.69c-3.79,4.29-7.5,8.48-11.13,12.58-.05-.11-.11-.23-.16-.34,3.62-4.1,7.33-8.3,11.12-12.59,.06,.11,.12,.23,.17,.34Zm-3.65-28.33c-2.45,3.01-4.86,5.97-7.23,8.89-.08-.07-.17-.14-.25-.22,2.37-2.95,4.78-5.95,7.22-8.99,.08,.1,.17,.21,.26,.32Zm3.65,31.13c-3.65,4.1-7.22,8.1-10.72,12.02-.08-.11-.16-.23-.25-.35,3.52-3.92,7.11-7.92,10.79-12.02,.06,.11,.12,.23,.17,.34Zm0,2.69c-3.56,3.97-7.05,7.86-10.47,11.66-.05-.11-.11-.23-.16-.34,3.41-3.81,6.9-7.69,10.46-11.67,.06,.11,.12,.23,.17,.34Zm0,2.8c-3.45,3.82-6.83,7.55-10.14,11.21-.08-.12-.16-.24-.25-.35,3.33-3.66,6.74-7.39,10.21-11.21,.06,.12,.12,.23,.17,.34Zm-3.48,6.62c-2.17,2.38-4.3,4.72-6.41,7.04-.08-.12-.17-.24-.25-.35,2.11-2.32,4.24-4.66,6.4-7.04,.09,.12,.17,.24,.26,.36Zm.26,2.38c-2.17,2.37-4.31,4.7-6.42,7-.08-.12-.17-.24-.25-.36,2.11-2.3,4.25-4.63,6.41-7,.08,.12,.17,.24,.26,.36Zm.26,2.39c-2.17,2.35-4.32,4.67-6.43,6.95-.06-.11-.11-.23-.17-.34,2.09-2.3,4.2-4.62,6.34-6.97,.09,.12,.17,.24,.26,.36Zm.26,2.39c-2.15,2.34-4.27,4.65-6.36,6.93-.08-.12-.17-.24-.25-.36,2.12-2.28,4.26-4.58,6.44-6.92,.06,.11,.12,.23,.17,.35Zm.17-48.98c-2.12,2.56-4.21,5.08-6.28,7.57-.08-.07-.17-.15-.25-.22,2.06-2.53,4.15-5.08,6.27-7.67,.09,.11,.17,.21,.26,.32Zm.17,51.5c-2.18,2.29-4.33,4.54-6.46,6.77-.08-.09-.17-.17-.25-.26,2.12-2.26,4.27-4.55,6.45-6.87,.09,.12,.17,.24,.26,.36Zm.26,2.4c-2.18,2.31-4.34,4.58-6.47,6.83-.08-.12-.16-.25-.25-.37,2.12-2.25,4.27-4.53,6.46-6.83,.09,.12,.18,.24,.26,.37Zm.26,2.4c-2.19,2.29-4.35,4.56-6.48,6.79-.06-.12-.11-.23-.17-.35,2.1-2.24,4.22-4.51,6.38-6.81,.09,.12,.17,.25,.26,.37Zm.87,7.35c-2.46,2.48-4.88,4.92-7.26,7.33-.08-.09-.17-.18-.25-.27,2.38-2.44,4.8-4.92,7.25-7.44,.09,.13,.17,.25,.26,.38Zm-.35-2.43c-2.28,2.35-4.53,4.67-6.75,6.96-.08-.12-.16-.25-.25-.37,2.24-2.28,4.52-4.6,6.83-6.95,.06,.12,.12,.24,.17,.36Zm-.26-2.52c-2.16,2.29-4.3,4.54-6.4,6.77-.08-.12-.17-.25-.25-.37,2.1-2.19,4.23-4.41,6.39-6.66,.09,.09,.17,.17,.26,.26Zm.09-57.4c-2.02,2.45-4.02,4.87-5.99,7.26-.06-.07-.11-.14-.17-.22,1.97-2.39,3.96-4.81,5.98-7.26,.06,.07,.11,.15,.17,.22Zm1.14,1.42c-2.38,2.87-4.73,5.69-7.04,8.48-.06-.11-.11-.22-.17-.32,2.28-2.79,4.6-5.61,6.94-8.48,.09,.11,.18,.22,.26,.33Zm.35,2.27c-2.5,2.99-4.96,5.94-7.39,8.84-.06-.08-.11-.15-.17-.22,2.42-2.9,4.88-5.85,7.38-8.84,.06,.07,.12,.15,.17,.22Zm0,2.8c-2.5,2.97-4.96,5.9-7.39,8.78-.06-.11-.11-.22-.17-.32,2.42-2.88,4.88-5.81,7.38-8.78,.06,.11,.12,.22,.17,.33Zm0,2.69c-2.5,2.95-4.96,5.86-7.39,8.72-.06-.07-.11-.14-.17-.22,2.42-2.87,4.88-5.77,7.38-8.72,.06,.07,.12,.15,.17,.22Zm0,2.8c-2.5,2.93-4.96,5.82-7.39,8.66-.06-.11-.11-.22-.17-.33,2.42-2.84,4.88-5.73,7.38-8.66,.06,.11,.12,.22,.17,.33Zm0,2.69c-2.5,2.91-4.96,5.78-7.39,8.6-.06-.11-.11-.22-.17-.33,2.42-2.83,4.88-5.7,7.38-8.61,.06,.11,.12,.23,.17,.33Zm0,2.8c-2.5,2.89-4.96,5.73-7.39,8.54-.06-.11-.11-.22-.17-.33,2.42-2.8,4.88-5.65,7.38-8.54,.06,.11,.12,.23,.17,.34Zm-.7,47.3c-1.8,1.83-3.58,3.63-5.34,5.42-.08-.09-.17-.18-.25-.27,1.76-1.82,3.53-3.67,5.33-5.53,.09,.13,.17,.26,.26,.38Zm.35,2.44c-1.19,1.17-2.38,2.33-3.56,3.48-.08-.09-.17-.18-.26-.27,1.18-1.19,2.36-2.38,3.55-3.58,.09,.13,.18,.25,.26,.38Zm.53,2.16c-.64,.61-1.28,1.21-1.92,1.81-.06-.09-.12-.17-.18-.25,.61-.64,1.22-1.29,1.84-1.94,.09,.13,.17,.26,.26,.38Zm.53,2.17c-.06,.06-.12,.11-.17,.17-.09-.09-.18-.18-.27-.28,.06-.06,.12-.12,.17-.18,.09,.09,.18,.18,.27,.28Z" style="fill: #545454;"/>
      </g>
      <g>
        <path d="M190.33,214.71c.61,2.46,1.22,4.92,1.83,7.4-3.13-.66-6.22-1.32-9.25-1.96,.2-1.07,.39-2.14,.59-3.2-.64-5.17-1.28-10.32-1.92-15.45-.33-.51-.66-1.02-.99-1.53-2.05-.33-4.08-.65-6.09-.97-.32,.36-.64,.72-.96,1.08-.58,4.85-1.16,9.68-1.74,14.49,.18,1.11,.37,2.23,.55,3.34-2.82-.6-5.59-1.19-8.33-1.77,.5-2.03,1.01-4.07,1.51-6.12,2.6-21.24,5.24-42.78,7.92-64.65-.24-1.45-.48-2.91-.71-4.35h9.58c-.25,1.49-.5,2.97-.75,4.45,2.87,22.72,5.79,45.8,8.75,69.25Zm-15.43-26.19c.24,.29,.48,.59,.72,.88,1.24,.16,2.48,.33,3.73,.49,.25-.16,.49-.31,.74-.47-.66-5.45-1.31-10.89-1.97-16.31-.22-2.92-.43-5.83-.65-8.75-.22,2.88-.43,5.76-.65,8.63-.65,5.19-1.29,10.37-1.93,15.52Z" style="fill: #545454;"/>
        <path d="M175.15,207.85c-3.02,3.67-5.99,7.29-8.91,10.84-.07-.13-.15-.25-.23-.38,2.92-3.55,5.88-7.17,8.9-10.84,.08,.13,.16,.26,.24,.38Zm.4-3.29c-2.81,3.41-5.59,6.77-8.32,10.07-.08-.09-.15-.17-.23-.26,2.73-3.34,5.49-6.74,8.3-10.19,.08,.12,.16,.25,.24,.38Zm-.8,6.69c-2.41,2.88-4.79,5.71-7.13,8.51-.07-.09-.15-.18-.23-.27,2.35-2.84,4.72-5.71,7.13-8.62,.08,.13,.16,.25,.24,.38Zm13.77-25.59c-7.15,8.81-14.04,17.3-20.67,25.47-.08-.12-.15-.25-.23-.37,6.63-8.18,13.51-16.66,20.65-25.48,.09,.13,.17,.25,.26,.38Zm-8.33,7.32c-4.08,5.05-8.06,9.99-11.96,14.82-.08-.12-.15-.25-.23-.37,3.89-4.8,7.87-9.7,11.94-14.71,.08,.09,.17,.17,.25,.26Zm-2.05-.29c-3.2,4.03-6.35,8-9.44,11.89-.08-.12-.16-.25-.23-.37,3.09-3.86,6.23-7.79,9.43-11.78,.08,.09,.16,.17,.24,.26Zm-.97-1.6c-2.73,3.43-5.43,6.81-8.08,10.15-.08-.12-.16-.25-.23-.37,2.65-3.33,5.34-6.71,8.07-10.15,.08,.12,.16,.25,.24,.37Zm.41-3.44c-2.74,3.46-5.44,6.87-8.1,10.23-.08-.12-.16-.25-.23-.37,2.65-3.36,5.35-6.77,8.09-10.23,.08,.12,.16,.25,.24,.37Zm-3.22,26.89c-1.61,1.9-3.22,3.79-4.8,5.66-.08-.09-.16-.18-.23-.27,1.58-1.9,3.18-3.82,4.8-5.77,.08,.13,.16,.25,.24,.38Zm3.62-30.23c-2.75,3.45-5.45,6.85-8.12,10.2-.05-.12-.1-.23-.15-.35,2.64-3.36,5.31-6.76,8.03-10.22,.08,.12,.17,.25,.25,.37Zm.41-3.46c-2.73,3.52-5.41,6.99-8.06,10.41-.08-.12-.15-.24-.23-.36,2.64-3.42,5.32-6.89,8.04-10.42,.08,.12,.16,.24,.24,.37Zm.49-3.46c-2.76,3.55-5.48,7.05-8.15,10.5-.08-.12-.16-.24-.24-.36,2.68-3.45,5.39-6.95,8.15-10.5,.08,.12,.16,.24,.25,.36Zm.25-3.26c-2.71,3.51-5.38,6.96-8.01,10.37-.08-.12-.16-.24-.24-.36,2.65-3.4,5.35-6.86,8.08-10.36,.06,.12,.11,.24,.16,.35Zm.25-3.15c-2.63,3.43-5.23,6.81-7.79,10.14-.08-.12-.16-.24-.23-.36,2.55-3.33,5.15-6.71,7.78-10.14,.08,.12,.16,.24,.25,.36Zm-5.41,46.95c-.8,.91-1.58,1.81-2.38,2.71-.08-.09-.16-.18-.23-.27,.79-.94,1.58-1.88,2.37-2.83,.08,.13,.16,.26,.24,.39Zm5.66-50.22c-2.58,3.42-5.12,6.8-7.64,10.12-.08-.12-.16-.24-.24-.36,2.51-3.33,5.05-6.7,7.63-10.12,.08,.12,.16,.24,.25,.36Zm5.33-9.86c-4.29,5.65-8.48,11.17-12.57,16.57-.08-.12-.16-.23-.24-.35,4.12-5.4,8.33-10.92,12.64-16.57,.05,.12,.11,.24,.17,.35Zm-.25-2.54c-4.06,5.35-8.03,10.58-11.93,15.7-.05-.11-.1-.23-.16-.35,3.86-5.12,7.8-10.36,11.83-15.7,.08,.12,.17,.24,.25,.36Zm-.34-2.54c-3.78,5.04-7.49,9.98-11.12,14.82-.08-.11-.16-.23-.24-.35,3.62-4.84,7.32-9.78,11.1-14.82,.08,.11,.17,.23,.26,.35Zm-10.08,67.47c-.24,.28-.48,.56-.72,.85-.08-.09-.16-.18-.24-.28,.24-.28,.47-.57,.71-.85,.08,.09,.16,.18,.24,.28Zm9.74-70.01c-3.53,4.77-6.98,9.44-10.38,14.04-.08-.11-.16-.24-.24-.35,3.39-4.55,6.85-9.19,10.37-13.92,.08,.08,.17,.15,.25,.23Zm0-2.87c-3.39,4.57-6.72,9.06-9.98,13.47-.08-.12-.16-.23-.24-.35,3.26-4.37,6.59-8.82,9.97-13.35,.08,.08,.17,.15,.25,.23Zm.25-3.33c-3.31,4.53-6.56,8.98-9.75,13.36-.08-.12-.16-.23-.24-.35,3.19-4.34,6.44-8.75,9.74-13.24,.08,.08,.17,.15,.25,.23Zm-2.09-.02c-2.46,3.35-4.87,6.65-7.27,9.91-.08-.08-.16-.15-.24-.23,2.38-3.26,4.8-6.56,7.26-9.91,.08,.08,.17,.15,.25,.23Zm-6.3-.05c-.27,.41-.54,.82-.8,1.23-.08-.11-.16-.23-.24-.34,.29-.37,.59-.74,.88-1.11,.05,.07,.1,.15,.16,.23Zm4.15,.03c-1.59,2.21-3.15,4.41-4.71,6.58-.08-.11-.16-.23-.24-.34,1.55-2.14,3.13-4.29,4.71-6.47,.08,.08,.17,.15,.25,.23Zm-2.05-.02c-.84,1.2-1.67,2.39-2.51,3.57-.08-.11-.16-.23-.24-.34,.83-1.15,1.66-2.3,2.5-3.46,.08,.08,.17,.15,.25,.23Zm10.89,44.3c-3.95,4.8-7.83,9.51-11.62,14.11-.08-.09-.16-.17-.24-.26,3.79-4.64,7.66-9.39,11.61-14.23,.08,.12,.17,.25,.26,.38Zm.26,2.48c-3.34,4.06-6.62,8.05-9.84,11.98-.06-.09-.11-.17-.16-.25,3.22-3.92,6.5-7.91,9.83-11.98,.06,.09,.11,.17,.17,.26Zm-3.85-30.47c-1.88,2.5-3.74,4.98-5.58,7.43-.08-.12-.17-.24-.25-.36,1.84-2.45,3.7-4.93,5.58-7.43,.09,.12,.17,.24,.25,.36Zm.34,2.56c-1.94,2.53-3.86,5.03-5.76,7.5-.08-.12-.16-.24-.25-.36,1.9-2.47,3.82-4.98,5.75-7.5,.08,.12,.17,.24,.25,.36Zm.34,2.56c-2,2.55-3.98,5.07-5.93,7.57-.06-.12-.11-.24-.17-.35,1.93-2.5,3.88-5.02,5.84-7.58,.09,.12,.17,.24,.26,.36Zm.26,2.44c-2,2.62-3.99,5.2-5.94,7.76-.08-.12-.16-.24-.25-.36,1.98-2.56,3.99-5.14,6.02-7.76,.06,.12,.11,.24,.17,.36Zm.34,2.57c-2.03,2.6-4.05,5.18-6.04,7.72-.08-.12-.17-.24-.25-.36,1.99-2.55,4-5.12,6.03-7.72,.09,.12,.17,.25,.26,.37Zm.34,2.57c-2.04,2.59-4.05,5.15-6.05,7.69-.08-.12-.17-.25-.25-.37,1.99-2.54,4-5.1,6.04-7.69,.08,.12,.17,.25,.25,.37Zm.34,2.46c-2.07,2.61-4.12,5.2-6.14,7.76-.06-.12-.11-.24-.16-.36,1.99-2.52,4.01-5.08,6.05-7.65,.09,.09,.17,.17,.26,.26Zm.34,2.58c-2.07,2.56-4.13,5.1-6.15,7.61-.08-.08-.17-.17-.25-.26,2.03-2.55,4.08-5.12,6.15-7.72,.08,.12,.17,.25,.26,.37Zm1.89,15.33c-2.72,3.29-5.4,6.53-8.05,9.73-.08-.09-.17-.18-.25-.27,2.64-3.23,5.32-6.51,8.04-9.84,.08,.13,.17,.26,.26,.39Zm-1.64-12.76c-2.04,2.56-4.07,5.08-6.08,7.58-.08-.13-.16-.25-.25-.37,2-2.5,4.03-5.03,6.07-7.59,.09,.13,.17,.25,.26,.38Zm.34,2.48c-2.08,2.58-4.13,5.13-6.17,7.65-.05-.12-.11-.24-.17-.36,2-2.49,4.03-5.01,6.08-7.55,.08,.09,.17,.17,.26,.26Zm1.64,12.9c-2.24,2.69-4.45,5.35-6.64,7.98-.09-.13-.17-.26-.25-.39,2.19-2.63,4.4-5.29,6.63-7.98,.09,.13,.17,.26,.26,.39Zm.35,2.51c-2.1,2.51-4.18,4.98-6.24,7.44-.08-.13-.17-.26-.25-.39,2.05-2.41,4.13-4.86,6.23-7.32,.09,.09,.17,.18,.26,.28Zm.26,2.6c-2.08,2.5-4.13,4.97-6.16,7.42-.08-.13-.17-.26-.25-.39,2.05-2.44,4.14-4.91,6.24-7.4,.06,.13,.12,.25,.17,.37Zm.35,2.63c-2.08,2.49-4.14,4.95-6.17,7.38-.08-.13-.17-.26-.25-.39,2.03-2.43,4.08-4.9,6.16-7.38,.09,.13,.17,.26,.26,.39Zm.35,2.63c-2.11,2.43-4.2,4.84-6.27,7.21-.08-.13-.17-.26-.25-.4,2.06-2.38,4.15-4.79,6.26-7.21,.08,.13,.17,.27,.26,.4Zm.35,2.52c-2.12,2.46-4.21,4.89-6.28,7.29-.08-.13-.17-.27-.25-.4,2.07-2.41,4.16-4.84,6.27-7.3,.09,.13,.17,.27,.26,.4Zm.35,2.64c-2.12,2.45-4.21,4.87-6.29,7.26-.09-.13-.17-.27-.26-.4,2.07-2.39,4.17-4.81,6.28-7.26,.09,.13,.17,.27,.26,.4Zm.26,2.63c-2.21,2.53-4.39,5.03-6.55,7.51-.09-.13-.17-.27-.26-.4,2.18-2.47,4.4-4.97,6.63-7.49,.06,.13,.12,.26,.17,.38Zm.35,2.53c-2.13,2.42-4.23,4.81-6.31,7.18-.08-.09-.17-.19-.25-.29,2.08-2.4,4.18-4.84,6.3-7.3,.09,.13,.17,.27,.26,.4Zm.44,2.56c-1.55,1.71-3.09,3.41-4.61,5.1-.06-.09-.11-.18-.17-.27,1.5-1.73,3-3.47,4.52-5.24,.09,.14,.18,.27,.27,.41Zm.62,2.36c-1,1.09-1.99,2.16-2.98,3.23-.09-.1-.17-.2-.26-.29,.99-1.11,1.98-2.23,2.98-3.35,.09,.13,.18,.27,.27,.41Zm.53,2.35c-.44,.45-.88,.91-1.32,1.36-.06-.09-.12-.18-.17-.27,.41-.5,.82-1,1.23-1.5,.09,.14,.17,.27,.26,.41Z" style="fill: #545454;"/>
      </g>
      <g>
        <path d="M197.7,146.02c-.3-1.67-.6-3.34-.9-5h21.16c.44,3.81,.87,7.63,1.31,11.44-1.22-.4-2.45-.79-3.68-1.19-3.35,0-6.7,0-10.05,0-.27,.4-.55,.79-.82,1.19v23.34c.27,.4,.54,.8,.82,1.19,.92,0,1.85,0,2.77,0,1.14-.44,2.29-.87,3.43-1.31v12.86c-1.15-.44-2.29-.88-3.43-1.31-.93,0-1.85,0-2.77,0-.27,.4-.55,.79-.82,1.19v29.78c.3,1.71,.6,3.41,.9,5.12-2.94,0-5.88-.01-8.82-.02,.3-1.7,.6-3.41,.9-5.11v-72.16Z" style="fill: #545454;"/>
        <path d="M206.85,214.39c-2.58,3.76-5.17,7.53-7.76,11.3-.08-.12-.16-.24-.25-.36,2.61-3.76,5.23-7.53,7.84-11.3,.05,.12,.11,.24,.16,.36Zm-5.88-70.28c-.52,.79-1.03,1.59-1.55,2.38-.08-.12-.16-.24-.25-.36,.52-.75,1.04-1.51,1.55-2.26,.08,.08,.16,.16,.24,.24Zm2.04,0c-1.06,1.59-2.13,3.17-3.19,4.76-.08-.12-.16-.24-.25-.35,1.09-1.55,2.18-3.1,3.27-4.65,.05,.08,.11,.16,.17,.24Zm3.84,67.18c-2.34,3.45-4.68,6.9-7.02,10.34-.08-.12-.16-.24-.25-.35,2.37-3.41,4.74-6.81,7.11-10.23,.05,.08,.11,.16,.16,.24Zm6.62-67.18c-4.55,6.63-9.1,13.26-13.64,19.88-.05-.12-.11-.24-.16-.35,4.52-6.59,9.04-13.18,13.56-19.77,.08,.08,.16,.16,.24,.24Zm-2.12,0c-3.84,5.6-7.68,11.19-11.52,16.79-.05-.12-.11-.24-.16-.36,3.81-5.56,7.62-11.11,11.43-16.67,.08,.08,.16,.16,.25,.24Zm-2.04,0c-3.16,4.61-6.32,9.21-9.48,13.81-.05-.12-.11-.24-.16-.36,3.13-4.56,6.26-9.13,9.39-13.69,.08,.08,.17,.16,.25,.24Zm-2.13,0c-2.45,3.57-4.9,7.15-7.35,10.72-.05-.08-.11-.16-.16-.24,2.45-3.57,4.9-7.15,7.35-10.72,.06,.08,.11,.16,.16,.24Zm-2.04,0c-1.77,2.58-3.54,5.16-5.31,7.74-.05-.12-.11-.24-.16-.36,1.74-2.54,3.48-5.08,5.23-7.62,.08,.08,.16,.16,.24,.24Zm1.72,12.62c-2.34,3.41-4.68,6.83-7.02,10.24-.05-.12-.11-.24-.16-.35,2.34-3.41,4.68-6.83,7.02-10.24,.05,.12,.11,.24,.16,.36Zm0,3.1c-2.34,3.41-4.68,6.83-7.02,10.24-.05-.12-.11-.24-.16-.35,2.34-3.42,4.68-6.83,7.02-10.24,.05,.12,.11,.24,.16,.36Zm0,2.97c-2.34,3.41-4.68,6.83-7.02,10.24-.05-.12-.11-.24-.16-.36,2.34-3.41,4.68-6.82,7.02-10.24,.05,.12,.11,.24,.16,.36Zm0,3.1c-2.34,3.41-4.68,6.83-7.02,10.24-.05-.12-.11-.24-.16-.36,2.34-3.41,4.68-6.82,7.02-10.23,.05,.12,.11,.24,.16,.35Zm0,2.98c-2.34,3.41-4.68,6.83-7.02,10.24-.05-.12-.11-.24-.16-.36,2.34-3.41,4.68-6.83,7.02-10.24,.05,.12,.11,.24,.16,.36Zm0,2.98c-2.34,3.41-4.68,6.82-7.02,10.23-.05-.08-.11-.16-.16-.24,2.34-3.41,4.68-6.83,7.02-10.24,.05,.08,.11,.16,.16,.24Zm0,3.1c-2.34,3.41-4.68,6.82-7.02,10.23-.05-.12-.11-.24-.16-.35,2.34-3.41,4.68-6.82,7.02-10.24,.05,.12,.11,.24,.16,.36Zm0,2.98c-2.34,3.41-4.68,6.83-7.02,10.23-.05-.08-.11-.16-.16-.24,2.34-3.41,4.68-6.82,7.02-10.23,.05,.08,.11,.16,.16,.24Zm5.23,1.55c-4.08,5.95-8.17,11.9-12.25,17.85-.05-.12-.11-.24-.16-.35,4.06-5.95,8.11-11.9,12.17-17.85,.08,.12,.16,.24,.24,.36Zm1.8,.36c-4.68,6.83-9.37,13.65-14.05,20.47-.05-.12-.11-.24-.16-.35,4.68-6.82,9.36-13.65,14.05-20.47,.05,.12,.11,.24,.16,.35Zm-6.29,.11c-2.59,3.77-5.17,7.54-7.76,11.3-.05-.12-.11-.24-.16-.35,2.56-3.77,5.12-7.54,7.67-11.31,.08,.12,.16,.24,.25,.36Zm1.96,.12c-3.24,4.72-6.48,9.45-9.72,14.16-.05-.12-.11-.24-.16-.36,3.21-4.68,6.42-9.36,9.64-14.04,.08,.08,.16,.16,.24,.24Zm-2.7,13.1c-2.34,3.41-4.68,6.82-7.02,10.23-.05-.12-.11-.24-.16-.36,2.34-3.41,4.68-6.82,7.02-10.23,.05,.12,.11,.24,.16,.36Zm0,2.98c-2.34,3.41-4.68,6.82-7.02,10.23-.05-.12-.11-.24-.16-.35,2.34-3.41,4.68-6.82,7.02-10.23,.05,.12,.11,.24,.16,.36Zm0,3.1c-2.34,3.41-4.68,6.82-7.02,10.23-.05-.12-.11-.24-.16-.36,2.34-3.41,4.68-6.82,7.02-10.23,.05,.12,.11,.24,.16,.36Zm0,2.98c-2.34,3.41-4.68,6.82-7.02,10.23-.05-.12-.11-.24-.16-.35,2.34-3.41,4.68-6.82,7.02-10.23,.05,.12,.11,.24,.16,.36Zm0,3.1c-2.34,3.41-4.68,6.82-7.02,10.23-.05-.12-.11-.24-.16-.35,2.34-3.41,4.68-6.82,7.02-10.23,.05,.12,.11,.24,.16,.36Zm0,2.98c-2.34,3.41-4.68,6.82-7.02,10.23-.05-.12-.11-.24-.16-.35,2.34-3.41,4.68-6.82,7.02-10.23,.05,.12,.11,.24,.16,.36Zm0,9.05c-2.07,3.01-4.13,6.03-6.2,9.04-.08-.08-.17-.16-.25-.24,2.09-3.05,4.19-6.1,6.29-9.16,.05,.12,.11,.24,.16,.36Zm0,3.09c-1.36,1.99-2.72,3.96-4.08,5.95-.08-.08-.16-.15-.24-.24,1.39-2.02,2.78-4.04,4.16-6.07,.05,.12,.11,.24,.16,.36Zm.33,2.63c-.79,1.11-1.09,1.52-1.88,2.64-.08-.08-.49,.3-.57,.22,.79-1.15,1.42-2.06,2.2-3.21,.08,.12,.17,.24,.25,.36Zm8.34-78.97c-2.34,3.41-4.69,6.83-7.03,10.24-.08-.08-.16-.16-.25-.24,2.34-3.41,4.69-6.83,7.03-10.24,.08,.08,.17,.16,.25,.24Zm-1.64,38.84c-1.68,2.46-3.37,4.92-5.06,7.38-.08-.08-.16-.16-.24-.24,1.72-2.5,3.43-5,5.15-7.5,.05,.12,.11,.24,.16,.36Zm3.76-38.84c-2.34,3.41-4.68,6.83-7.03,10.25-.08-.08-.16-.16-.25-.24,2.34-3.41,4.69-6.83,7.03-10.24,.08,.08,.16,.16,.25,.24Zm-3.76,41.81c-1.03,1.51-2.07,3.02-3.1,4.52-.08-.08-.16-.16-.25-.23,1.06-1.55,2.13-3.1,3.19-4.65,.05,.12,.11,.24,.16,.36Zm0,3.1c-.49,.72-.98,1.43-1.47,2.14-.08-.12-.17-.24-.25-.36,.52-.71,1.04-1.43,1.56-2.14,.05,.12,.11,.24,.16,.36Zm5.81-44.91c-2.34,3.42-4.69,6.83-7.03,10.25-.08-.08-.16-.16-.25-.24,2.34-3.41,4.68-6.83,7.03-10.24,.08,.08,.17,.16,.25,.24Zm.65,2.14c-1.85,2.7-3.71,5.4-5.56,8.1-.08-.08-.16-.16-.24-.24,1.85-2.74,3.7-5.48,5.56-8.22,.08,.12,.16,.24,.25,.36Zm.33,2.62c-1.28,1.83-2.56,3.65-3.84,5.48-.08-.08-.16-.16-.25-.24,1.28-1.87,2.56-3.73,3.84-5.6,.08,.12,.16,.24,.24,.36Zm.33,2.5c-.76,1.11-1.52,2.22-2.29,3.33-.08-.12-.16-.24-.25-.36,.76-1.07,1.52-2.14,2.29-3.22,.08,.08,.16,.16,.25,.24Zm.25,2.62c-.28,.44-.55,.87-.82,1.31-.08-.12-.17-.24-.25-.36,.27-.44,.54-.87,.82-1.31,.08,.12,.16,.24,.25,.36Z" style="fill: #545454;"/>
      </g>
      <g>
        <path d="M232.18,213.09c.3,1.47,.59,2.94,.88,4.4-2.9,.86-5.86,1.75-8.89,2.65,.32-1.69,.63-3.38,.94-5.06v-69.16c-.31-1.63-.62-3.27-.94-4.91,3.03,0,5.99,0,8.89,0-.29,1.58-.58,3.18-.88,4.78v67.3Z" style="fill: #545454;"/>
        <path d="M234.25,208.88c-2.52,4.19-5.08,8.48-7.71,12.84-.09-.09-.17-.18-.26-.27,2.66-4.37,5.26-8.65,7.81-12.86,.05,.09,.11,.2,.16,.29Zm-5.8-64.93c-.55,.76-1.11,1.52-1.66,2.29-.06-.11-.11-.23-.17-.34,.53-.73,1.06-1.45,1.58-2.17,.09,.07,.16,.15,.25,.22Zm2.04-.02c-1.06,1.51-2.13,3.03-3.21,4.56-.08-.11-.17-.22-.25-.33,1.1-1.5,2.2-2.98,3.29-4.45,.06,.08,.11,.15,.17,.22Zm3.75,62.09c-2.28,3.8-4.6,7.67-6.96,11.62-.08-.09-.17-.18-.25-.27,2.39-3.91,4.74-7.76,7.05-11.54,.05,.06,.11,.13,.16,.18Zm.32-62.14c-2.38,3.36-4.81,6.78-7.28,10.27-.06-.08-.11-.15-.17-.22,2.47-3.49,4.9-6.91,7.29-10.27,.05,.07,.1,.14,.15,.22Zm-1.98,.02c-1.74,2.44-3.5,4.91-5.3,7.42-.06-.11-.11-.23-.17-.34,1.76-2.47,3.5-4.9,5.23-7.3,.07,.07,.15,.15,.23,.22Zm2.06,2.73c-2.41,3.42-4.86,6.91-7.36,10.46-.06-.11-.11-.22-.17-.33,2.47-3.55,4.9-7.04,7.29-10.46,.08,.11,.15,.21,.23,.32Zm-.4,3.31c-2.28,3.27-4.6,6.59-6.96,9.98-.06-.11-.11-.22-.17-.33,2.36-3.38,4.69-6.71,6.97-9.97,.05,.11,.11,.21,.16,.32Zm0,2.87c-2.28,3.29-4.6,6.64-6.96,10.05-.06-.11-.11-.22-.17-.33,2.36-3.41,4.69-6.76,6.97-10.05,.05,.11,.11,.22,.16,.33Zm0,2.75c-2.28,3.31-4.6,6.7-6.96,10.13-.06-.11-.11-.22-.17-.33,2.36-3.44,4.69-6.82,6.97-10.13,.05,.11,.11,.22,.16,.33Zm0,2.86c-2.28,3.34-4.6,6.75-6.96,10.21-.06-.11-.11-.22-.17-.33,2.36-3.47,4.69-6.87,6.97-10.21,.05,.11,.11,.22,.16,.32Zm0,2.75c-2.28,3.37-4.6,6.8-6.96,10.29-.06-.11-.11-.22-.17-.32,2.36-3.49,4.69-6.91,6.97-10.28,.05,.11,.11,.22,.16,.32Zm0,2.87c-2.28,3.39-4.6,6.85-6.96,10.37-.06-.11-.11-.22-.17-.32,2.36-3.52,4.69-6.97,6.97-10.36,.05,.1,.11,.21,.16,.32Zm0,2.75c-2.28,3.42-4.6,6.9-6.96,10.44-.06-.11-.11-.22-.17-.32,2.36-3.54,4.69-7.02,6.97-10.44,.05,.1,.11,.22,.16,.32Zm0,2.76c-2.28,3.44-4.6,6.94-6.96,10.52-.06-.07-.11-.14-.17-.2,2.36-3.57,4.69-7.07,6.97-10.52,.05,.06,.11,.14,.16,.2Zm0,2.87c-2.28,3.46-4.6,7-6.96,10.59-.06-.11-.11-.21-.17-.32,2.36-3.59,4.69-7.12,6.97-10.59,.05,.1,.11,.21,.16,.31Zm0,2.75c-2.28,3.49-4.6,7.05-6.96,10.67-.06-.08-.11-.14-.17-.2,2.36-3.62,4.69-7.17,6.97-10.67,.05,.07,.11,.14,.16,.2Zm0,2.86c-2.28,3.52-4.6,7.1-6.96,10.74-.06-.11-.11-.21-.17-.31,2.36-3.65,4.69-7.22,6.97-10.75,.05,.1,.11,.21,.16,.31Zm0,2.76c-2.28,3.54-4.6,7.15-6.96,10.82-.06-.11-.11-.21-.17-.31,2.36-3.67,4.69-7.28,6.97-10.82,.05,.1,.11,.21,.16,.31Zm0,2.86c-2.28,3.56-4.6,7.2-6.96,10.9-.06-.11-.11-.21-.17-.31,2.36-3.7,4.69-7.33,6.97-10.9,.05,.1,.11,.21,.16,.31Zm0,2.76c-2.28,3.59-4.6,7.25-6.96,10.97-.06-.11-.11-.21-.17-.31,2.36-3.73,4.69-7.38,6.97-10.98,.05,.1,.11,.21,.16,.31Zm0,2.86c-2.28,3.62-4.6,7.3-6.96,11.06-.06-.11-.11-.21-.17-.31,2.36-3.75,4.69-7.44,6.97-11.05,.05,.1,.11,.21,.16,.3Zm0,2.76c-2.28,3.64-4.6,7.35-6.96,11.13-.06-.11-.11-.21-.17-.3,2.36-3.78,4.69-7.49,6.97-11.13,.05,.1,.11,.2,.16,.3Zm0,2.87c-2.28,3.66-4.6,7.4-6.96,11.21-.06-.11-.11-.21-.17-.3,2.36-3.81,4.69-7.54,6.97-11.2,.05,.1,.11,.21,.16,.3Zm0,2.75c-2.28,3.69-4.6,7.45-6.96,11.28-.06-.11-.11-.21-.17-.3,2.36-3.83,4.69-7.59,6.97-11.28,.05,.1,.11,.2,.16,.29Zm0,2.86c-2.28,3.72-4.6,7.51-6.96,11.36-.06-.11-.11-.2-.17-.3,2.36-3.85,4.69-7.64,6.97-11.36,.05,.1,.11,.2,.16,.3Zm0,2.76c-2.28,3.74-4.6,7.55-6.96,11.43-.06-.1-.11-.2-.17-.3,2.36-3.88,4.69-7.69,6.97-11.43,.05,.09,.11,.2,.16,.3Zm0,8.37c-2.01,3.37-4.06,6.79-6.13,10.27-.08-.05-.17-.09-.25-.14,2.11-3.53,4.18-6.99,6.22-10.42,.05,.09,.11,.2,.16,.29Zm0,2.86c-1.32,2.23-2.65,4.47-4,6.74-.08-.04-.16-.09-.24-.14,1.38-2.32,2.74-4.61,4.09-6.89,.05,.09,.11,.2,.16,.29Zm.32,2.33c-.76,1.26-1.53,2.53-2.29,3.8-.08-.05-.16-.1-.24-.15,.77-1.31,1.54-2.61,2.31-3.9,.08,.09,.16,.18,.23,.25Zm.39,2.09c-.21,.35-.42,.71-.63,1.07-.08-.05-.16-.1-.24-.15,.21-.39,.42-.8,.63-1.19,.08,.09,.16,.17,.24,.27Z" style="fill: #545454;"/>
      </g>
      <g>
        <path d="M243.28,215.17c-1.24-1.26-2.49-2.53-3.75-3.82v-65.68c1.26-1.57,2.51-3.12,3.75-4.67h14.26c1.12,1.47,2.24,2.92,3.35,4.37v8.83c.28,1.41,.56,2.81,.85,4.22-2.79,.16-5.62,.32-8.51,.48,.3-1.47,.59-2.94,.89-4.41v-3.53c-.27-.34-.54-.68-.81-1.02-1.82,.05-3.66,.1-5.52,.16-.28,.36-.56,.72-.84,1.09v52.85c.28,.3,.56,.6,.84,.9,1.86-.37,3.7-.73,5.52-1.09,.27-.4,.54-.8,.81-1.2v-3.53c-.3-1.4-.59-2.8-.89-4.21,2.89-.49,5.73-.97,8.51-1.45-.28,1.47-.56,2.94-.85,4.41v8.94c-1.11,1.7-2.23,3.4-3.35,5.13-4.61,1.05-9.36,2.12-14.26,3.23Z" style="fill: #545454;"/>
        <path d="M256.59,143.7c-4.78,6.24-9.7,12.68-14.78,19.32-.06-.1-.11-.21-.17-.31,5.06-6.6,9.96-13,14.71-19.21,.08,.07,.16,.14,.24,.21Zm-2.07,.02c-4.13,5.35-8.36,10.85-12.71,16.5-.06-.1-.11-.21-.17-.32,4.32-5.61,8.53-11.07,12.63-16.39,.08,.07,.16,.14,.24,.21Zm-2.02,.02c-3.48,4.49-7.04,9.09-10.68,13.78-.06-.11-.11-.21-.17-.31,3.62-4.66,7.15-9.22,10.61-13.68,.08,.07,.16,.14,.24,.21Zm-2.13,.02c-2.8,3.59-5.65,7.24-8.55,10.96-.06-.07-.11-.14-.17-.21,2.91-3.72,5.76-7.37,8.56-10.96,.05,.07,.11,.14,.16,.21Zm-2.08,.02c-2.13,2.71-4.29,5.46-6.48,8.25-.06-.11-.11-.21-.17-.32,2.16-2.75,4.29-5.46,6.4-8.14,.08,.07,.17,.14,.25,.21Zm-2.19,.02c-1.42,1.79-2.85,3.6-4.29,5.43-.06-.07-.11-.14-.17-.21,1.44-1.83,2.88-3.63,4.29-5.43,.06,.07,.11,.14,.17,.21Zm3.02,12.31c-2.4,3.16-4.84,6.36-7.31,9.61-.06-.1-.11-.21-.17-.31,2.47-3.25,4.92-6.46,7.32-9.61,.05,.1,.11,.21,.17,.31Zm0,2.74c-2.4,3.18-4.84,6.4-7.31,9.68-.06-.1-.11-.21-.17-.31,2.47-3.27,4.92-6.5,7.32-9.67,.05,.1,.11,.21,.17,.31Zm0,2.64c-2.4,3.2-4.84,6.44-7.31,9.74-.06-.1-.11-.21-.17-.31,2.47-3.29,4.92-6.54,7.32-9.73,.05,.1,.11,.2,.17,.3Zm0,2.74c-2.4,3.22-4.84,6.48-7.31,9.8-.06-.1-.11-.21-.17-.31,2.47-3.32,4.92-6.58,7.32-9.8,.05,.1,.11,.21,.17,.31Zm0,2.64c-2.4,3.24-4.84,6.52-7.31,9.86-.06-.1-.11-.2-.17-.31,2.47-3.34,4.92-6.62,7.32-9.86,.05,.1,.11,.2,.17,.31Zm0,2.64c-2.4,3.26-4.84,6.56-7.31,9.92-.06-.06-.11-.13-.17-.2,2.47-3.36,4.92-6.66,7.32-9.92,.05,.06,.11,.13,.17,.2Zm0,2.74c-2.4,3.28-4.84,6.6-7.31,9.98-.06-.1-.11-.2-.17-.3,2.47-3.38,4.92-6.7,7.32-9.98,.05,.1,.11,.2,.17,.3Zm0,2.64c-2.4,3.3-4.84,6.65-7.31,10.04-.06-.06-.11-.13-.17-.19,2.47-3.4,4.92-6.74,7.32-10.04,.05,.06,.11,.13,.17,.19Zm0,2.74c-2.4,3.32-4.84,6.69-7.31,10.1-.06-.1-.11-.2-.17-.3,2.47-3.42,4.92-6.79,7.32-10.1,.05,.1,.11,.2,.17,.3Zm0,2.64c-2.4,3.34-4.84,6.72-7.31,10.16-.06-.1-.11-.2-.17-.3,2.47-3.44,4.92-6.83,7.32-10.16,.05,.1,.11,.2,.17,.3Zm0,2.74c-2.4,3.35-4.84,6.76-7.31,10.22-.06-.1-.11-.2-.17-.3,2.47-3.46,4.92-6.87,7.32-10.22,.05,.1,.11,.2,.17,.3Zm0,2.63c-2.4,3.38-4.84,6.8-7.31,10.28-.06-.1-.11-.2-.17-.3,2.47-3.48,4.92-6.91,7.32-10.28,.05,.09,.11,.2,.17,.29Zm0,2.74c-2.4,3.4-4.84,6.85-7.31,10.35-.06-.1-.11-.2-.17-.29,2.47-3.5,4.92-6.95,7.32-10.35,.05,.1,.11,.2,.17,.29Zm0,2.64c-2.4,3.41-4.84,6.89-7.31,10.41-.06-.1-.11-.19-.17-.29,2.47-3.52,4.92-6.99,7.32-10.41,.05,.09,.11,.19,.17,.29Zm0,2.74c-2.4,3.44-4.84,6.93-7.31,10.47-.06-.1-.11-.19-.17-.29,2.47-3.54,4.92-7.03,7.32-10.47,.05,.1,.11,.2,.17,.29Zm0,2.63c-2.4,3.46-4.84,6.97-7.31,10.53-.06-.1-.11-.2-.17-.29,2.47-3.56,4.92-7.07,7.32-10.53,.05,.09,.11,.19,.17,.29Zm0,2.74c-2.4,3.48-4.84,7.01-7.31,10.59-.06-.1-.11-.19-.17-.29,2.47-3.58,4.92-7.11,7.32-10.59,.05,.09,.11,.19,.17,.29Zm0,2.64c-2.4,3.5-4.84,7.05-7.31,10.65-.06-.09-.11-.19-.17-.29,2.47-3.6,4.92-7.16,7.32-10.65,.05,.1,.11,.19,.17,.29Zm0,2.63c-2.2,3.26-4.44,6.57-6.7,9.93-.09-.09-.18-.18-.26-.26,2.3-3.33,4.56-6.61,6.8-9.84,.05,.06,.11,.12,.17,.18Zm.33,2.36c-1.94,2.87-3.92,5.78-5.91,8.72-.09-.09-.17-.18-.26-.26,2-2.94,3.97-5.85,5.92-8.72,.08,.09,.17,.18,.25,.27Zm1.49,.32c-2.09,3.11-4.22,6.25-6.37,9.44-.06-.06-.11-.12-.17-.17,2.13-3.18,4.22-6.32,6.29-9.43,.08,.06,.16,.1,.25,.16Zm2.13-.44c-2.37,3.53-4.78,7.11-7.22,10.75-.08-.05-.17-.1-.26-.15,2.45-3.64,4.85-7.23,7.23-10.76,.08,.05,.16,.1,.25,.16Zm2.01-.42c-2.34,3.5-4.71,7.06-7.12,10.67-.08-.05-.17-.1-.25-.15,2.41-3.61,4.79-7.17,7.13-10.68,.08,.05,.16,.1,.24,.16Zm8.64-10.34c-4.4,6.64-8.94,13.47-13.6,20.51-.08-.05-.17-.1-.25-.15,4.67-7.07,9.21-13.94,13.62-20.62,.07,.09,.15,.17,.23,.26Zm-5.16-52.18c-2.26,2.97-4.55,5.99-6.88,9.05-.08-.07-.16-.13-.24-.2,2.33-3.06,4.63-6.08,6.89-9.05,.08,.07,.16,.13,.23,.2Zm4.48,55.73c-3.54,5.36-7.16,10.85-10.87,16.47-.08-.05-.16-.1-.25-.15,3.71-5.66,7.34-11.18,10.89-16.58,.08,.08,.15,.17,.23,.26Zm-2.92-55.03c-2.08,2.72-4.19,5.48-6.33,8.27-.08-.07-.16-.13-.24-.2,2.14-2.83,4.25-5.62,6.34-8.38,.08,.1,.15,.2,.23,.3Zm2.77,57.88c-2.82,4.29-5.69,8.67-8.61,13.12-.08-.05-.16-.1-.24-.15,2.95-4.5,5.85-8.91,8.7-13.25,.05,.09,.1,.18,.15,.27Zm0-51.45c-2.43,3.33-4.9,6.72-7.41,10.15-.08-.1-.16-.2-.24-.3,2.54-3.41,5.04-6.76,7.49-10.06,.05,.07,.1,.13,.15,.2Zm-7.01,46.35c-.13,.23-.27,.46-.4,.69-.08-.09-.16-.18-.24-.27,.13-.2,.27-.39,.4-.59,.08,.06,.16,.11,.24,.16Zm5.17-51.57c-1.78,2.41-3.58,4.84-5.41,7.31-.08-.1-.16-.2-.24-.3,1.83-2.47,3.63-4.9,5.42-7.31,.08,.1,.15,.2,.23,.3Zm-3.19,51.21c-.66,1.01-1.32,2.02-1.98,3.04-.08-.09-.16-.18-.24-.26,.66-.98,1.32-1.96,1.98-2.94,.08,.06,.16,.11,.24,.17Zm5.03-48.52c-2.2,3-4.43,6.04-6.69,9.13-.08-.1-.16-.2-.24-.3,2.29-3.09,4.55-6.13,6.78-9.13,.05,.1,.1,.2,.15,.3Zm-.84-1.4c-1.93,2.58-3.88,5.2-5.85,7.84-.05-.1-.11-.2-.16-.3,1.95-2.65,3.88-5.26,5.78-7.84,.07,.1,.15,.2,.23,.3Zm-.23,49.21c-1.85,2.77-3.73,5.58-5.62,8.43-.05-.09-.11-.19-.16-.28,1.87-2.8,3.72-5.57,5.55-8.31,.08,.05,.15,.11,.23,.16Zm-1.93,.34c-1.22,1.82-2.45,3.66-3.69,5.51-.05-.09-.11-.19-.16-.28,1.21-1.81,2.42-3.61,3.62-5.39,.08,.06,.16,.11,.23,.16Zm3,8.34c-2.17,3.33-4.38,6.71-6.61,10.13-.08-.05-.16-.1-.24-.15,2.26-3.47,4.5-6.89,6.7-10.25,.05,.09,.1,.18,.15,.27Zm0-51.35c-1.92,2.62-3.85,5.27-5.82,7.95-.08-.06-.16-.13-.24-.19,1.99-2.72,3.96-5.4,5.9-8.05,.05,.1,.1,.2,.15,.29Zm0,53.98c-1.51,2.32-3.02,4.66-4.56,7.02-.08-.05-.16-.1-.24-.15,1.56-2.4,3.11-4.79,4.64-7.14,.05,.09,.1,.18,.15,.27Zm0-51.46c-1.27,1.75-2.56,3.52-3.85,5.3-.05-.06-.1-.13-.16-.19,1.3-1.78,2.58-3.55,3.86-5.29,.05,.06,.1,.13,.15,.19Zm.3,2.21c-.71,.98-1.42,1.97-2.14,2.96-.08-.06-.15-.12-.23-.18,.72-1.03,1.43-2.05,2.15-3.07,.08,.1,.15,.19,.23,.29Zm.38,1.99c-.2,.28-.4,.56-.61,.85-.08-.06-.15-.12-.23-.19,.2-.28,.41-.57,.61-.85,.08,.06,.15,.13,.23,.19Z" style="fill: #545454;"/>
      </g>
      <g>
        <path d="M286.86,141.01c1.2,1.33,2.39,2.66,3.57,3.97-.02,18.62-.04,37.21-.06,55.76-1.18,1.55-2.37,3.12-3.57,4.69-4.91,1.03-9.98,2.09-15.22,3.18-1.33-1.13-2.67-2.26-4.02-3.4v-59.93c1.36-1.44,2.7-2.86,4.03-4.27h15.27Zm-3.75,9.18c-.29-.31-.58-.61-.86-.92-1.92,.05-3.86,.1-5.82,.15-.3,.33-.6,.66-.9,.99,0,16.07-.01,32.11-.02,48.13,.3,.27,.6,.53,.9,.8,1.96-.36,3.9-.71,5.81-1.06,.29-.37,.58-.73,.86-1.1,.01-15.64,.02-31.3,.04-46.99Z" style="fill: #545454;"/>
        <path d="M285.85,143.46c-5.11,5.7-10.38,11.58-15.84,17.67-.06-.09-.12-.19-.19-.29,5.43-6.05,10.69-11.9,15.77-17.57,.08,.06,.17,.12,.26,.19Zm-2.22,.02c-4.41,4.89-8.95,9.92-13.62,15.09-.06-.1-.13-.19-.19-.29,4.65-5.14,9.16-10.13,13.55-14.99,.08,.06,.17,.13,.26,.19Zm-2.16,.02c-3.73,4.1-7.55,8.3-11.46,12.61-.06-.1-.12-.19-.19-.29,3.89-4.27,7.68-8.44,11.39-12.51,.09,.06,.17,.13,.26,.19Zm-2.28,.02c-3,3.28-6.06,6.62-9.18,10.03-.06-.06-.12-.13-.19-.19,3.12-3.41,6.19-6.75,9.19-10.03,.06,.06,.11,.13,.18,.19Zm-2.22,.02c-2.29,2.48-4.6,5-6.96,7.55-.06-.1-.12-.2-.19-.29,2.32-2.52,4.62-5,6.88-7.45,.09,.06,.18,.13,.27,.19Zm-2.35,.02c-1.52,1.64-3.06,3.3-4.61,4.97-.06-.06-.12-.13-.19-.19,1.55-1.67,3.09-3.33,4.62-4.97,.06,.06,.12,.13,.18,.19Zm3.23,11.23c-2.57,2.89-5.19,5.83-7.85,8.81-.06-.09-.12-.19-.19-.28,2.66-2.98,5.28-5.92,7.86-8.81,.06,.09,.12,.19,.18,.28Zm0,2.5c-2.57,2.91-5.19,5.87-7.84,8.87-.06-.09-.12-.19-.19-.28,2.66-3,5.28-5.96,7.85-8.87,.06,.09,.12,.19,.18,.28Zm0,2.4c-2.57,2.93-5.19,5.9-7.84,8.93-.06-.09-.12-.19-.19-.28,2.66-3.02,5.28-6,7.85-8.92,.06,.09,.12,.18,.18,.28Zm0,2.5c-2.57,2.95-5.18,5.94-7.84,8.99-.06-.09-.12-.19-.19-.28,2.66-3.04,5.28-6.04,7.85-8.98,.06,.09,.12,.19,.17,.28Zm0,2.4c-2.57,2.97-5.18,5.98-7.84,9.04-.06-.09-.12-.18-.19-.28,2.66-3.06,5.28-6.07,7.85-9.04,.06,.09,.12,.18,.17,.28Zm0,2.4c-2.57,2.98-5.19,6.02-7.84,9.1-.06-.06-.12-.12-.19-.18,2.66-3.08,5.28-6.12,7.85-9.1,.06,.06,.12,.12,.17,.18Zm0,2.5c-2.57,3.01-5.19,6.06-7.84,9.16-.06-.09-.12-.18-.19-.27,2.66-3.1,5.28-6.15,7.85-9.16,.06,.09,.12,.18,.18,.27Zm0,2.4c-2.57,3.02-5.18,6.1-7.84,9.22-.06-.06-.12-.12-.19-.18,2.66-3.12,5.28-6.19,7.85-9.21,.06,.06,.12,.11,.17,.17Zm0,2.5c-2.57,3.04-5.18,6.14-7.84,9.28-.06-.09-.12-.18-.19-.27,2.66-3.14,5.27-6.23,7.85-9.28,.06,.09,.12,.18,.17,.27Zm0,2.4c-2.57,3.06-5.18,6.17-7.84,9.33-.06-.09-.12-.18-.19-.27,2.66-3.16,5.27-6.27,7.85-9.33,.06,.09,.12,.18,.17,.27Zm0,2.49c-2.57,3.08-5.18,6.21-7.84,9.39-.06-.09-.12-.18-.19-.27,2.66-3.18,5.27-6.31,7.85-9.39,.06,.09,.12,.18,.18,.27Zm0,2.39c-2.57,3.1-5.18,6.25-7.83,9.45-.06-.09-.12-.18-.19-.27,2.66-3.2,5.27-6.35,7.85-9.45,.06,.09,.12,.18,.18,.26Zm0,2.5c-2.57,3.12-5.18,6.29-7.83,9.51-.06-.09-.12-.17-.19-.26,2.66-3.22,5.27-6.39,7.85-9.51,.06,.09,.12,.18,.17,.27Zm0,2.39c-2.57,3.14-5.18,6.33-7.83,9.57-.06-.09-.12-.17-.19-.26,2.66-3.24,5.27-6.43,7.84-9.57,.06,.09,.12,.17,.17,.26Zm0,2.49c-2.57,3.16-5.18,6.37-7.83,9.62-.06-.08-.12-.17-.19-.26,2.66-3.26,5.27-6.47,7.84-9.62,.06,.09,.11,.17,.17,.26Zm0,2.39c-2.57,3.18-5.18,6.4-7.83,9.68-.06-.09-.12-.17-.19-.26,2.66-3.28,5.27-6.51,7.84-9.68,.06,.09,.12,.17,.18,.26Zm0,2.49c-2.57,3.2-5.18,6.44-7.83,9.74-.06-.09-.12-.17-.19-.26,2.66-3.3,5.27-6.55,7.84-9.74,.06,.08,.12,.17,.17,.26Zm0,2.39c-2.57,3.21-5.18,6.48-7.83,9.8-.06-.09-.12-.17-.19-.26,2.66-3.32,5.27-6.58,7.84-9.8,.06,.08,.12,.17,.17,.26Zm0,2.39c-2.36,3-4.75,6.04-7.18,9.13-.09-.08-.19-.16-.28-.24,2.46-3.06,4.89-6.08,7.28-9.06,.06,.05,.12,.11,.18,.16Zm.26,2.15c-2.05,2.63-4.13,5.3-6.24,8-.09-.08-.19-.16-.28-.23,2.11-2.7,4.2-5.37,6.25-8,.09,.08,.18,.16,.27,.24Zm1.59,.36c-2.21,2.82-4.46,5.67-6.73,8.57-.06-.05-.12-.1-.18-.15,2.24-2.89,4.46-5.74,6.65-8.55,.09,.05,.18,.09,.27,.14Zm2.26-.43c-2.5,3.21-5.04,6.47-7.62,9.77-.09-.05-.18-.09-.27-.13,2.59-3.31,5.13-6.57,7.64-9.78,.09,.05,.17,.09,.26,.14Zm2.15-.41c-2.47,3.18-4.97,6.41-7.52,9.7-.09-.05-.18-.09-.27-.13,2.55-3.28,5.06-6.52,7.53-9.7,.08,.05,.17,.09,.26,.14Zm8.39-8.45c-4.4,5.71-8.94,11.59-13.6,17.64-.09-.04-.18-.09-.27-.13,4.7-6.09,9.27-12.01,13.71-17.76,.05,.08,.11,.16,.16,.25Zm-4.54-48.49c-2.44,2.74-4.92,5.53-7.44,8.36-.09-.06-.17-.12-.26-.18,2.52-2.83,5.01-5.62,7.46-8.36,.08,.06,.17,.12,.25,.18Zm4.54,50.77c-3.71,4.84-7.51,9.8-11.41,14.88-.09-.04-.17-.09-.26-.13,3.93-5.13,7.77-10.12,11.51-15,.05,.08,.11,.16,.16,.25Zm-2.88-50.13c-2.25,2.51-4.53,5.06-6.84,7.64-.08-.06-.17-.12-.26-.18,2.32-2.62,4.61-5.2,6.86-7.74,.08,.09,.16,.18,.25,.28Zm2.88,52.51c-2.99,3.93-6.05,7.94-9.16,12.02-.08-.05-.17-.09-.26-.13,3.15-4.12,6.23-8.17,9.26-12.14,.05,.08,.11,.17,.16,.25Zm-1.89-51.41c-1.93,2.23-3.88,4.48-5.86,6.76-.08-.09-.17-.18-.26-.27,1.98-2.28,3.94-4.54,5.87-6.76,.08,.09,.16,.18,.25,.28Zm1.06,1.18c-2.08,2.38-4.19,4.8-6.32,7.25-.06-.09-.11-.18-.17-.27,2.11-2.45,4.2-4.86,6.25-7.25,.08,.09,.16,.18,.24,.27Zm.89,1.27c-2.37,2.73-4.78,5.51-7.22,8.33-.06-.09-.11-.18-.17-.27,2.45-2.82,4.86-5.59,7.23-8.33,.05,.09,.11,.18,.16,.27Zm0,2.29c-2.37,2.75-4.77,5.54-7.22,8.38-.05-.06-.11-.12-.17-.18,2.45-2.84,4.85-5.63,7.23-8.38,.05,.06,.11,.12,.16,.18Zm0,2.38c-2.37,2.77-4.77,5.58-7.22,8.43-.05-.09-.11-.18-.17-.27,2.45-2.86,4.85-5.66,7.23-8.43,.06,.09,.11,.18,.16,.27Zm0,2.29c-2.37,2.79-4.77,5.61-7.22,8.49-.05-.06-.11-.12-.17-.17,2.45-2.87,4.85-5.7,7.23-8.49,.05,.06,.11,.11,.16,.17Zm0,2.38c-2.37,2.8-4.77,5.65-7.22,8.54-.06-.09-.11-.18-.17-.27,2.45-2.89,4.85-5.74,7.23-8.54,.05,.09,.11,.18,.16,.27Zm0,2.29c-2.37,2.82-4.77,5.68-7.21,8.6-.05-.09-.11-.18-.17-.27,2.45-2.91,4.85-5.77,7.22-8.59,.05,.09,.11,.18,.16,.26Zm0,2.38c-2.37,2.84-4.77,5.72-7.21,8.65-.06-.09-.11-.18-.17-.27,2.44-2.93,4.85-5.81,7.22-8.65,.05,.09,.11,.18,.16,.27Zm0,2.29c-2.37,2.86-4.77,5.76-7.21,8.7-.05-.09-.11-.18-.17-.26,2.45-2.95,4.85-5.85,7.22-8.7,.05,.09,.11,.17,.16,.26Zm0,2.38c-2.37,2.88-4.77,5.79-7.21,8.76-.06-.09-.11-.17-.17-.26,2.45-2.96,4.85-5.88,7.22-8.75,.05,.09,.11,.17,.16,.26Zm0,2.29c-2.36,2.89-4.77,5.83-7.21,8.81-.06-.09-.11-.17-.17-.26,2.45-2.98,4.85-5.92,7.22-8.81,.05,.09,.11,.17,.16,.26Zm0,2.38c-2.37,2.91-4.77,5.87-7.21,8.86-.06-.08-.11-.17-.17-.26,2.45-3,4.85-5.96,7.22-8.86,.05,.09,.11,.17,.16,.26Zm0,2.29c-2.37,2.93-4.77,5.9-7.21,8.92-.05-.09-.11-.17-.17-.26,2.44-3.02,4.85-5.99,7.22-8.91,.05,.08,.11,.17,.16,.25Zm0,2.38c-2.37,2.95-4.77,5.94-7.21,8.97-.06-.09-.11-.17-.17-.26,2.44-3.04,4.85-6.03,7.22-8.97,.05,.09,.11,.17,.16,.26Zm0,2.29c-2.36,2.96-4.77,5.97-7.21,9.02-.05-.09-.11-.17-.17-.26,2.44-3.06,4.85-6.06,7.22-9.03,.05,.09,.11,.17,.16,.26Zm0,2.29c-2.36,2.98-4.77,6-7.21,9.08-.06-.06-.11-.11-.17-.16,2.44-3.07,4.85-6.1,7.22-9.08,.05,.05,.11,.11,.16,.16Zm0,2.38c-2.37,3-4.77,6.04-7.21,9.13-.06-.08-.11-.17-.17-.25,2.44-3.09,4.85-6.13,7.22-9.13,.05,.08,.11,.17,.16,.25Zm0,2.29c-2.36,3.01-4.77,6.07-7.21,9.18-.06-.08-.11-.17-.17-.25,2.44-3.11,4.85-6.17,7.22-9.18,.06,.08,.11,.17,.16,.25Zm0,2.37c-2.36,3.03-4.77,6.11-7.21,9.24-.05-.08-.11-.17-.17-.25,2.44-3.13,4.85-6.2,7.22-9.23,.05,.08,.11,.17,.16,.25Zm0,2.29c-2.36,3.05-4.76,6.14-7.2,9.29-.06-.08-.11-.17-.17-.25,2.44-3.15,4.85-6.24,7.21-9.29,.05,.08,.11,.17,.16,.25Zm-.01,9.31c-2.31,3.05-4.65,6.14-7.03,9.28-.08-.04-.17-.09-.25-.13,2.41-3.18,4.79-6.31,7.13-9.39,.05,.08,.11,.16,.16,.24Zm0,2.37c-1.6,2.12-3.21,4.26-4.85,6.43-.08-.04-.17-.09-.25-.13,1.66-2.2,3.31-4.38,4.93-6.54,.05,.08,.11,.16,.16,.24Z" style="fill: #545454;"/>
      </g>
    </g>
    <polygon points="117.06 116.94 113.32 114.73 109.58 116.94 110.53 112.7 107.27 109.84 111.6 109.43 113.32 105.44 115.04 109.43 119.36 109.83 116.1 112.7 117.06 116.94" style="fill: #545454;"/>
    <polygon points="288.78 116.94 285.04 114.73 281.31 116.94 282.26 112.7 278.99 109.84 283.32 109.43 285.04 105.44 286.76 109.43 291.09 109.83 287.83 112.7 288.78 116.94" style="fill: #545454;"/>
    <path d="M202.03,240.16l-.38-.08-103.66-22.78V72.84h204.03V217.28l-99.99,22.87Zm-100.58-25.64l100.57,22.1,96.55-22.09V76.3H101.44V214.52Z" style="fill: #545454;"/>
  </g>
</svg>