<?xml version="1.0" encoding="UTF-8"?>
<svg id="Capa_1" data-name="Capa 1" xmlns="http://www.w3.org/2000/svg" viewBox="0 0 400 313">
  <rect x="0" width="400" height="313" style="fill: #d8d8d8;"/>
  <g>
    <g>
      <path d="M194.05,130.18h5.01v31.91h-5.01v-31.91Z" style="fill: #545454;"/>
      <path d="M207.18,138.98v23.11h-4.51v-31.91h6.29l5.15,19.1v-19.1h4.47v31.91h-5.15l-6.24-23.11Z" style="fill: #545454;"/>
      <path d="M228.92,129.82c4.88,0,7.38,2.92,7.38,8.02v1h-4.74v-1.32c0-2.28-.91-3.15-2.51-3.15s-2.51,.87-2.51,3.15c0,6.56,9.8,7.79,9.8,16.91,0,5.1-2.55,8.02-7.47,8.02s-7.48-2.92-7.48-8.02v-1.96h4.74v2.28c0,2.28,1,3.1,2.6,3.1s2.6-.82,2.6-3.1c0-6.56-9.8-7.8-9.8-16.91,0-5.1,2.51-8.02,7.38-8.02Z" style="fill: #545454;"/>
      <path d="M239.22,130.18h5.01v31.91h-5.01v-31.91Z" style="fill: #545454;"/>
      <path d="M255.4,144.31h7.02v10.12c0,5.1-2.55,8.02-7.47,8.02s-7.48-2.92-7.48-8.02v-16.59c0-5.1,2.55-8.02,7.48-8.02s7.47,2.92,7.47,8.02v3.1h-4.74v-3.42c0-2.28-1-3.15-2.6-3.15s-2.6,.87-2.6,3.15v17.23c0,2.28,1,3.1,2.6,3.1s2.6-.82,2.6-3.1v-5.88h-2.28v-4.56Z" style="fill: #545454;"/>
      <path d="M270.13,138.98v23.11h-4.51v-31.91h6.29l5.15,19.1v-19.1h4.47v31.91h-5.15l-6.24-23.11Z" style="fill: #545454;"/>
      <path d="M285.12,130.18h5.01v31.91h-5.01v-31.91Z" style="fill: #545454;"/>
      <path d="M310.01,162.09h-5.06l-.87-5.79h-6.15l-.87,5.79h-4.6l5.1-31.91h7.34l5.1,31.91Zm-11.44-10.12h4.83l-2.42-16.14-2.42,16.14Z" style="fill: #545454;"/>
    </g>
    <g>
      <path d="M136.33,110.17c-1,0-1.99,.04-2.98,.11h5.95c-.99-.06-1.98-.11-2.98-.11Z" style="fill: #545454;"/>
      <path d="M154.17,161.14c5-1.81,9.42-6.3,9.42-13.55,0-8.62-6.23-15.79-16.73-15.79h-31.42v58.27c3.1,1.93,6.48,3.45,10.07,4.47v-31.73h.02v-8.4h-.02v-13.62h6.15v54.98c1.53,.18,3.09,.29,4.67,.29s3.19-.11,4.75-.29v-32.95h2.88l13.64,27.01c2.97-1.9,5.67-4.18,8.03-6.78l-11.45-21.9Zm-7.97-6.74h-5.13v-13.62h5.13c4.42,0,7.32,2.83,7.32,6.81s-2.9,6.81-7.32,6.81Z" style="fill: #545454;"/>
      <path d="M131.51,110.28v.14c.61-.06,1.23-.11,1.84-.14h-1.84Z" style="fill: #545454;"/>
      <path d="M141.14,110.28h-1.84c.62,.04,1.23,.08,1.84,.14v-.14Z" style="fill: #545454;"/>
      <path d="M141.14,128.41v-8.54c-.61-.07-1.23-.12-1.84-.16h-5.95c-.62,.04-1.23,.09-1.84,.16v8.54h9.64Z" style="fill: #545454;"/>
      <path d="M147.9,111.59v.04c19.99,5.14,34.76,23.28,34.76,44.87,0,25.58-20.74,46.33-46.33,46.33s-46.33-20.74-46.33-46.33c0-21.59,14.77-39.73,34.76-44.87v-.05c-19.99,5.15-34.81,23.34-34.81,44.91,0,25.57,20.8,46.37,46.38,46.37s46.38-20.8,46.38-46.37c0-21.58-14.81-39.76-34.81-44.91Z" style="fill: #545454;"/>
      <path d="M90,156.5c0,25.58,20.74,46.33,46.33,46.33s46.33-20.74,46.33-46.33c0-21.59-14.77-39.73-34.76-44.87v7.05c16.18,4.96,27.99,20.04,27.99,37.83,0,10.21-3.89,19.52-10.26,26.55l2.63,5.03-8,7.02-2.66-5.27c-4.88,3.13-10.5,5.21-16.52,5.94v3.7h-9.42v-3.7c-2.1-.25-4.16-.66-6.15-1.23v4.93l-10.07-2.39v-7.01c-11.2-6.99-18.67-19.42-18.67-33.57,0-17.79,11.8-32.86,27.98-37.83v-7.04c-19.99,5.14-34.76,23.28-34.76,44.87Z" style="fill: #545454;"/>
      <path d="M157.59,189.83l2.66,5.27,8-7.02-2.63-5.03c-2.36,2.6-5.06,4.88-8.03,6.78Z" style="fill: #545454;"/>
      <path d="M136.33,202.87c-25.57,0-46.38-20.8-46.38-46.37s20.8-46.38,46.38-46.38,46.38,20.8,46.38,46.38-20.8,46.37-46.38,46.37Zm0-85.93c-21.81,0-39.55,17.75-39.55,39.56s17.75,39.56,39.55,39.56,39.56-17.74,39.56-39.56-17.75-39.56-39.56-39.56Z" style="fill: #545454;"/>
    </g>
    <g>
      <path d="M201.21,189.67c-.19-.57-.32-.92-.32-2.74v-3.5c0-2.07-.7-2.83-2.29-2.83h-1.21v9.07h-3.5v-22.27h5.28c3.63,0,5.19,1.69,5.19,5.12v1.75c0,2.29-.73,3.78-2.29,4.52,1.75,.73,2.32,2.42,2.32,4.74v3.44c0,1.08,.03,1.88,.38,2.7h-3.56Zm-3.82-19.09v6.84h1.37c1.3,0,2.1-.57,2.1-2.35v-2.2c0-1.59-.54-2.29-1.78-2.29h-1.69Z" style="fill: #545454;"/>
      <path d="M210.18,176.79h4.8v3.18h-4.8v6.52h6.04v3.18h-9.54v-22.27h9.54v3.18h-6.04v6.2Z" style="fill: #545454;"/>
      <path d="M223.63,177.27h4.9v7.06c0,3.56-1.78,5.6-5.22,5.6s-5.22-2.04-5.22-5.6v-11.58c0-3.56,1.78-5.6,5.22-5.6s5.22,2.04,5.22,5.6v2.16h-3.31v-2.39c0-1.59-.7-2.19-1.81-2.19s-1.81,.6-1.81,2.19v12.02c0,1.59,.7,2.16,1.81,2.16s1.81-.57,1.81-2.16v-4.1h-1.59v-3.18Z" style="fill: #545454;"/>
      <path d="M230.79,167.41h3.5v22.27h-3.5v-22.27Z" style="fill: #545454;"/>
      <path d="M241.54,167.15c3.4,0,5.15,2.04,5.15,5.6v.7h-3.31v-.92c0-1.59-.64-2.19-1.75-2.19s-1.75,.6-1.75,2.19c0,4.58,6.84,5.44,6.84,11.8,0,3.56-1.78,5.6-5.22,5.6s-5.22-2.04-5.22-5.6v-1.37h3.31v1.59c0,1.59,.7,2.16,1.81,2.16s1.81-.57,1.81-2.16c0-4.58-6.84-5.44-6.84-11.8,0-3.56,1.75-5.6,5.15-5.6Z" style="fill: #545454;"/>
      <path d="M247.71,167.41h10.82v3.18h-3.66v19.09h-3.5v-19.09h-3.66v-3.18Z" style="fill: #545454;"/>
      <path d="M267.36,189.67c-.19-.57-.32-.92-.32-2.74v-3.5c0-2.07-.7-2.83-2.29-2.83h-1.21v9.07h-3.5v-22.27h5.28c3.63,0,5.19,1.69,5.19,5.12v1.75c0,2.29-.73,3.78-2.29,4.52,1.75,.73,2.32,2.42,2.32,4.74v3.44c0,1.08,.03,1.88,.38,2.7h-3.56Zm-3.82-19.09v6.84h1.37c1.3,0,2.1-.57,2.1-2.35v-2.2c0-1.59-.54-2.29-1.78-2.29h-1.69Z" style="fill: #545454;"/>
      <path d="M284.16,189.67h-3.53l-.6-4.04h-4.3l-.6,4.04h-3.21l3.56-22.27h5.12l3.56,22.27Zm-7.99-7.06h3.37l-1.69-11.26-1.69,11.26Z" style="fill: #545454;"/>
      <path d="M285.78,167.41h5.54c3.5,0,5.22,1.94,5.22,5.5v11.26c0,3.56-1.72,5.5-5.22,5.5h-5.54v-22.27Zm3.5,3.18v15.91h1.97c1.11,0,1.78-.57,1.78-2.16v-11.58c0-1.59-.67-2.16-1.78-2.16h-1.97Z" style="fill: #545454;"/>
      <path d="M310.05,189.67h-3.53l-.61-4.04h-4.29l-.6,4.04h-3.21l3.56-22.27h5.12l3.56,22.27Zm-7.98-7.06h3.37l-1.68-11.26-1.69,11.26Z" style="fill: #545454;"/>
    </g>
  </g>
</svg>