<?xml version="1.0" encoding="UTF-8"?>
<svg id="Capa_1" data-name="Capa 1" xmlns="http://www.w3.org/2000/svg" viewBox="0 0 400 313">
  <rect x="0" width="400" height="313" style="fill: #d8d8d8;"/>
  <g>
    <path d="M130.84,200.06v-5.82c.21-2.13,2.96-1.55,5.25-1.6,2.56-.05,4.36-.75,5.35-2.35,1.33-2.14,1.04-5.62,1.04-9.1v-59.97h-5.16c-1.54,0-3.98,.38-4.98-.28-1.05-.69-.75-2.62-.75-4.88,0-1.56-.26-3.49,.56-4.22,.73-.65,3.09-.47,4.88-.47h10.89c1.74,0,4.2-.19,4.97,.47,.9,.78,.57,4.92,.57,7.04v62.6c0,2.38,.05,4.64-.19,6.76-.71,6.16-3.58,10.2-8.73,12.2-2.43,.95-5.46,1.22-9.2,1.22-2.32,0-4.26,.38-4.51-1.59" style="fill: #545454;"/>
    <path d="M172.7,120.56c-.21,9.73-.03,19.87-.09,29.75,3.82,.17,8.51,.1,12.86,.1,1.49,0,3.17-.09,3.75,.56,.62,.69,.47,2.76,.47,4.13,0,1.23,.21,3.38-.47,4.13-.96,1.06-6.11,.57-8.07,.57h-8.54v32.56c4.23,.18,9.07,.1,13.61,.1,1.7,0,3.21-.06,3.75,.75,.51,.77,.29,2.82,.29,4.22s.23,3.19-.57,3.85c-.87,.73-5.13,.37-6.76,.37h-14.17c-1.95,0-5.7,.41-6.57-.47-.64-.64-.47-2.94-.47-5.16V115.02c0-2.12-.14-3.39,1.68-3.66,2.08-.31,4.75,0,6.95,0h13.7c2.09,0,5.36-.34,6.01,.85,.52,.95,.19,2.72,.19,4.03,0,1.4,.18,3.3-.57,3.94-.63,.54-2.57,.38-4.03,.38h-12.96Z" style="fill: #545454;"/>
    <path d="M207.24,120.56c-.21,9.73-.03,19.87-.1,29.75,3.81,.17,8.51,.1,12.86,.1,1.49,0,3.16-.09,3.76,.56,.62,.69,.47,2.76,.47,4.13,0,1.23,.21,3.38-.47,4.13-.96,1.06-6.12,.57-8.07,.57h-8.54v32.56c4.23,.18,9.06,.1,13.61,.1,1.71,0,3.21-.06,3.76,.75,.51,.77,.29,2.82,.29,4.22s.23,3.19-.57,3.85c-.88,.73-5.13,.37-6.76,.37h-14.17c-1.94,0-5.7,.41-6.57-.47-.64-.64-.47-2.94-.47-5.16V115.02c0-2.12-.14-3.39,1.69-3.66,2.07-.31,4.74,0,6.95,0h13.7c2.09,0,5.36-.34,6.01,.85,.52,.95,.2,2.72,.2,4.03,0,1.4,.18,3.3-.57,3.94-.63,.54-2.57,.38-4.04,.38h-12.95Z" style="fill: #545454;"/>
    <path d="M247.79,143.46c.33-.19,.28-.64,.37-.94,2.69-8.87,5.32-18.09,7.89-27.22,.33-1.16,.73-3.37,1.4-3.76,.97-.55,4.65-.19,6.1-.19s5.07-.41,5.54,.66c.26,.58-.35,1.9-.66,2.82-4.59,13.35-9.34,26.74-13.89,39.98,4.54,14.33,9.09,28.58,13.7,42.99,.31,.96,.76,1.97,.56,3-.65,1.3-3.28,.84-5.35,.84h-3.1c-.99,0-2.3,.13-2.82-.18-.71-.42-1.07-2.82-1.41-4.04-2.65-9.56-5.65-20.12-8.26-29.28-2.32,8.04-4.46,16.82-6.76,25.25-.32,1.18-.67,2.58-1.13,4.22-.3,1.1-.79,3.47-1.41,3.85-.94,.57-4.35,.18-5.82,.18-1.31,0-4.77,.43-5.44-.47-.45-.59-.07-1.93,.28-3,4.62-14.37,8.94-29.01,13.51-43.27-4.44-13.18-8.94-26.35-13.43-39.9-.63-1.92-1.54-3.34,1.13-3.66,1.65-.19,3.19,0,5.07,0,1.39,0,3.99-.23,4.69,.28,.59,.43,1.01,2.73,1.32,3.85,2.5,9.07,5.5,19.1,7.89,27.97" style="fill: #545454;"/>
  </g>
</svg>