<?xml version="1.0" encoding="UTF-8"?>
<svg id="Capa_1" data-name="Capa 1" xmlns="http://www.w3.org/2000/svg" viewBox="0 0 400 313">
  <rect x="0" width="400" height="313" style="fill: #d8d8d8;"/>
  <g>
    <g>
      <path d="M79.75,164.44c-.08-.23-.32-.61-.95-.61-.67,0-.91,.38-.91,.74,0,.48-.12,1.08-.35,1.77-.24,.71-.54,1.47-.91,2.24-.37,.77-.78,1.55-1.21,2.31-.43,.74-.87,1.4-1.3,1.95-.18,.23-.45,.42-.81,.57-.66,.27-1.38,.36-1.92,.03-.12-.07-.25-.19-.25-.51l-.02-13.49c0-.27,.14-.6,.43-.98,.33-.46,.59-.79,.8-1.02l.23-.25-.23-.26c-.21-.23-.49-.57-.81-1.01-.28-.38-.42-.72-.42-.99l-.02-13.48c0-.19,.06-.35,.2-.51,.19-.21,.4-.41,.65-.61l.7-.55c.19-.15,.44-.38,.44-.71,0-.12-.03-.22-.07-.32-.13-.3-.51-.3-.71-.3h-7.84c-.19,0-.58,0-.71,.32-.04,.09-.06,.2-.06,.32,0,.3,.25,.54,.44,.69l.7,.56c.25,.19,.47,.39,.65,.61,.14,.16,.21,.33,.21,.51l.02,13.48c0,.26-.14,.6-.42,.99-.31,.42-.59,.77-.81,1.02l-.23,.25,.22,.25c.23,.25,.51,.6,.81,1.02,.28,.38,.43,.72,.43,.99l.02,13.48c0,.19-.06,.36-.21,.52-.17,.2-.38,.4-.64,.6l-.7,.55c-.2,.16-.44,.39-.44,.7,0,.13,.03,.24,.06,.32,.13,.31,.52,.31,.71,.31h14.42c.2-.01,.58-.01,.7-.31,.05-.11,.07-.22,.07-.34v-1.94c0-.66,0-1.4,.02-2.22,.02-.83,.03-1.77,.03-2.84v-3.7s-.03-.13-.03-.13Z" style="fill: #545454;"/>
      <path d="M102.36,174.53c-.28-.16-.58-.33-.91-.54-.33-.2-.64-.42-.94-.64-.23-.17-.36-.34-.39-.53l-2.6-13.41s.01-.14,.03-.3c.02-.18,.06-.38,.12-.6,.06-.23,.14-.47,.22-.71,.1-.27,.17-.37,.2-.4l.21-.25-.22-.24c-.21-.23-.48-.57-.81-1.02-.3-.41-.49-.77-.56-1.05l-2.77-16.16c-.08-.24-.28-.43-.59-.58-.54-.26-1.25-.26-1.79,0-.32,.15-.52,.35-.61,.64l-3.03,16.08c-.08,.31-.27,.67-.57,1.08-.35,.47-.6,.79-.8,1.02l-.22,.24,.22,.25s.1,.14,.2,.41c.09,.24,.16,.47,.23,.7,.06,.23,.1,.43,.12,.6,.02,.18,.03,.26,.04,.24l-2.38,13.55c0,.11-.07,.24-.2,.37-.19,.2-.4,.39-.65,.55-.27,.21-.52,.41-.74,.61-.28,.26-.41,.54-.41,.82,0,.12,.02,.23,.06,.33,.14,.3,.52,.3,.71,.3h5.45c.2,0,.58,0,.7-.31,.05-.11,.07-.22,.07-.33,0-.31-.28-.55-.52-.72-.25-.18-.52-.37-.81-.56-.28-.19-.56-.39-.84-.61-.2-.15-.33-.32-.41-.5l1.24-7.1h5.03s1.28,7.12,1.28,7.12c0,.19-.07,.35-.21,.52-.18,.21-.4,.41-.65,.61l-.69,.55c-.19,.15-.44,.38-.44,.69,0,.13,.02,.24,.06,.32,.12,.32,.53,.32,.71,.32h8.71c.2-.01,.58-.01,.72-.32,.04-.1,.06-.21,.06-.32,0-.34-.32-.55-.63-.72Zm-13.47-11.29l2.12-11.97,2.04,11.97h-4.16Z" style="fill: #545454;"/>
      <path d="M140.33,147.35c-.28-.38-.42-.72-.43-1.02-.14-1.65-.47-3.01-.98-4.02-.51-1.02-1.16-1.84-1.94-2.43-.77-.59-1.69-.99-2.72-1.19-.99-.2-2.08-.29-3.26-.29h-7.45c-.19,0-.58,0-.71,.31-.04,.09-.06,.21-.06,.34,0,.3,.26,.54,.44,.68l.7,.56c.25,.19,.46,.39,.65,.6,.14,.16,.2,.33,.2,.52l.02,13.48c0,.27-.15,.61-.43,.99-.33,.45-.6,.79-.8,1.02l-.23,.25,.23,.25c.21,.23,.47,.56,.81,1.02,.28,.39,.42,.72,.42,.99l.02,13.48c0,.19-.06,.36-.21,.52-.18,.21-.39,.4-.65,.61l-.69,.55c-.19,.15-.45,.38-.45,.7,0,.08,.01,.2,.06,.31,.13,.31,.52,.31,.71,.31h7.84c.2,0,.58,0,.71-.32,.04-.1,.06-.2,.06-.33,0-.3-.25-.54-.46-.7l-.68-.53c-.26-.2-.47-.4-.65-.61-.13-.15-.2-.32-.2-.51l-.02-14h.82c2.47,0,4.52-.65,6.09-1.93,1.58-1.29,2.51-3.37,2.78-6.13,.07-.31,.25-.65,.51-1.03,.27-.4,.51-.69,.71-.88l.27-.26-.25-.27c-.2-.21-.46-.54-.81-1.02Zm-6.12,3.94c-.1,1.07-.3,2.03-.58,2.86-.27,.8-.63,1.47-1.08,1.97-.42,.47-.92,.69-1.52,.69h-.82l-.02-16.35h.82c.61,0,1.1,.19,1.5,.57,.42,.42,.78,.97,1.05,1.65,.28,.71,.48,1.54,.61,2.44,.13,.92,.2,1.89,.2,2.88,0,1.11-.05,2.22-.16,3.29Z" style="fill: #545454;"/>
      <path d="M163.81,155.83c-.28-.38-.43-.72-.43-1.01-.14-2.01-.46-4.03-.95-6.02-.49-2-1.12-3.81-1.85-5.39-.76-1.61-1.64-2.93-2.64-3.93-2.09-2.1-4.83-2.09-6.91,0-1,1-1.89,2.33-2.63,3.94-.74,1.59-1.36,3.41-1.85,5.4-.48,1.97-.8,4-.93,6.05,0,.27-.14,.6-.42,.98-.35,.48-.61,.8-.8,1.02l-.25,.27,.27,.25c.2,.19,.43,.48,.71,.88,.26,.38,.43,.73,.5,.96,.14,2.02,.45,4.06,.91,6.04,.47,2.01,1.09,3.84,1.83,5.45,.75,1.63,1.64,2.97,2.63,3.99,1.04,1.06,2.23,1.6,3.53,1.6s2.48-.54,3.53-1.61c1-1.03,1.88-2.37,2.62-3.99,.74-1.62,1.35-3.45,1.81-5.45,.46-2.02,.77-4.05,.89-5.97,.08-.31,.25-.66,.51-1.04,.27-.4,.51-.69,.71-.88l.27-.25-.25-.27c-.21-.24-.49-.58-.81-1.02Zm-6.31,9.54c-.1,1.83-.29,3.44-.55,4.8-.26,1.33-.6,2.38-1.02,3.11-.37,.65-.83,.97-1.41,.97s-1.02-.32-1.4-.99c-.42-.75-.77-1.8-1.03-3.11-.26-1.35-.46-2.96-.56-4.78-.11-1.86-.17-3.87-.18-6.01,0-.27,.15-.61,.43-.99,.33-.46,.59-.79,.8-1.02l.23-.25-.23-.25c-.22-.23-.48-.58-.8-1.02-.29-.39-.43-.72-.43-.99,0-2.12,.05-4.12,.16-5.96,.11-1.83,.29-3.45,.55-4.81,.26-1.34,.6-2.39,1.02-3.14,.37-.66,.83-.99,1.4-.99v-.37s0,.37,0,.37c.57,0,1.03,.32,1.4,.99,.42,.75,.77,1.81,1.03,3.14,.26,1.36,.45,2.97,.56,4.8,.11,1.85,.17,3.85,.17,5.96,0,.27-.14,.6-.43,.99-.33,.46-.6,.79-.8,1.02l-.23,.25,.23,.25c.21,.23,.48,.57,.81,1.02,.28,.38,.43,.72,.43,.99,0,2.15-.05,4.17-.16,6.01Z" style="fill: #545454;"/>
      <path d="M182.19,164.92c-.13,1.38-.28,2.7-.46,3.91-.17,1.16-.42,2.16-.74,2.96-.31,.78-.7,1.4-1.17,1.83-.44,.41-1,.61-1.71,.61-.57,0-1.03-.32-1.4-.99-.42-.76-.77-1.8-1.02-3.11-.27-1.34-.46-2.95-.57-4.77-.11-1.85-.17-3.87-.17-6.01,0-.27,.14-.59,.42-.98,.34-.46,.6-.79,.81-1.02l.23-.25-.23-.25c-.21-.23-.48-.56-.81-1.01-.28-.39-.43-.72-.43-.99,0-2.07,.05-4.08,.16-5.96,.1-1.82,.29-3.43,.55-4.8,.25-1.34,.6-2.4,1.02-3.14,.37-.67,.83-.99,1.4-.99,.94,0,1.81,.88,2.58,2.61,.83,1.84,1.43,4.29,1.77,7.24,0,.39,.33,.59,.97,.59,.26,0,1.04,0,1.04-.59l-.02-11.07c0-.12-.05-.42-.44-.58-.18-.07-.33-.1-.47-.1-.39,0-.71,.17-.91,.49-.17,.26-.33,.49-.49,.66-.23,.25-.69,.2-.83,.06-.17-.15-.38-.31-.6-.45-.86-.6-1.74-.91-2.61-.91-1.25,0-2.41,.54-3.45,1.58-1,1.01-1.88,2.33-2.63,3.94-.74,1.59-1.36,3.41-1.84,5.39-.49,2-.8,4.02-.93,6.05,0,.27-.14,.6-.43,.99-.33,.46-.6,.79-.8,1.02l-.25,.27,.27,.26c.2,.18,.44,.48,.72,.88,.26,.37,.43,.73,.5,.97,.14,2,.44,4.03,.92,6.04,.47,2.01,1.08,3.84,1.83,5.45,.74,1.62,1.63,2.96,2.64,3.99,1.04,1.06,2.23,1.6,3.53,1.6,1.14,0,2.14-.31,2.95-.92,.8-.59,1.46-1.42,1.97-2.47,.5-1.02,.87-2.24,1.09-3.59,.23-1.33,.34-2.8,.34-4.36v-.37h-2.24s-.03,.34-.03,.34Z" style="fill: #545454;"/>
      <path d="M206.7,174.48l-.7-.55c-.24-.19-.46-.39-.65-.61-.14-.16-.21-.33-.21-.51l-.02-13.48c0-.26,.14-.6,.42-.98,.34-.46,.6-.79,.81-1.02l.23-.25-.23-.25c-.2-.22-.46-.54-.81-1.01-.28-.39-.43-.72-.43-.99l-.02-13.48c0-.19,.07-.36,.2-.51,.19-.22,.4-.42,.65-.61l.7-.55c.19-.15,.44-.38,.44-.69,0-.11-.02-.22-.06-.34-.14-.3-.51-.3-.71-.3h-7.84c-.18,0-.56,0-.71,.31-.04,.1-.06,.21-.06,.34,0,.31,.25,.54,.45,.69l.7,.55c.25,.19,.47,.4,.65,.6,.14,.16,.21,.33,.21,.52l.02,14.47h-4.24s-.02-14.47-.02-14.47c0-.18,.07-.35,.2-.51,.2-.22,.42-.42,.65-.61l.69-.55c.19-.15,.44-.39,.44-.69,0-.11-.02-.22-.06-.34-.14-.3-.52-.3-.71-.3h-7.84c-.2,.01-.58,.01-.71,.31-.04,.1-.06,.21-.06,.33,0,.3,.23,.53,.44,.69l.7,.55c.24,.19,.46,.4,.65,.61,.14,.16,.21,.33,.21,.51l.02,13.48c0,.27-.14,.6-.43,.99-.32,.44-.59,.78-.8,1.02l-.22,.25,.22,.25c.22,.24,.5,.6,.81,1.02,.29,.39,.43,.72,.43,.99l.02,13.48c0,.19-.07,.35-.21,.51-.19,.21-.4,.42-.64,.61l-.7,.55c-.19,.15-.44,.38-.44,.69,0,.12,.02,.23,.06,.33,.13,.31,.51,.31,.71,.31h7.85c.2-.01,.57-.01,.71-.33,.04-.1,.06-.21,.06-.32,0-.31-.25-.54-.44-.69l-.7-.55c-.25-.2-.47-.4-.65-.61-.14-.16-.21-.33-.21-.51l-.02-14.47h4.24s.02,14.47,.02,14.47c0,.19-.07,.35-.21,.51-.19,.21-.39,.41-.65,.61l-.7,.55c-.19,.15-.44,.38-.44,.69,0,.11,.02,.22,.06,.32,.13,.31,.53,.31,.71,.31h7.84c.2,0,.57,0,.72-.32,.04-.1,.05-.2,.05-.32,0-.31-.26-.54-.44-.69Z" style="fill: #545454;"/>
      <path d="M230.01,155.77c-.28-.37-.43-.71-.43-1-.14-2-.46-4.02-.95-6.02-.49-2-1.12-3.81-1.86-5.39-.74-1.6-1.63-2.92-2.63-3.93-2.09-2.1-4.83-2.09-6.91,0-1,1.01-1.89,2.33-2.63,3.94-.73,1.58-1.36,3.4-1.85,5.39-.49,1.99-.8,4.01-.93,6.05,0,.27-.14,.6-.43,.99-.32,.44-.59,.78-.8,1.02l-.25,.27,.26,.25c.21,.2,.45,.5,.72,.89,.26,.38,.43,.72,.5,.97,.14,2.01,.44,4.04,.92,6.04,.47,2.01,1.08,3.84,1.83,5.45,.75,1.61,1.63,2.96,2.63,3.98,1.04,1.06,2.23,1.6,3.52,1.6h0c1.29,0,2.48-.55,3.52-1.61,1-1.02,1.88-2.36,2.63-3.99,.74-1.61,1.35-3.44,1.81-5.45,.47-2.01,.77-4.04,.89-5.97,.08-.3,.25-.65,.51-1.04,.27-.39,.51-.68,.71-.88l.27-.25-.25-.27c-.21-.23-.47-.56-.81-1.02Zm-9.29,20.12h0Zm2.98-10.57c-.11,1.84-.29,3.46-.55,4.81-.26,1.33-.6,2.38-1.02,3.11-.38,.65-.84,.97-1.41,.97s-1.02-.32-1.4-.99c-.42-.74-.77-1.78-1.03-3.11-.26-1.35-.45-2.96-.56-4.78-.11-1.83-.17-3.85-.17-6.01,0-.26,.14-.6,.42-.99,.34-.46,.61-.79,.81-1.01l.23-.26-.23-.25c-.21-.23-.48-.58-.81-1.02-.28-.39-.43-.72-.43-.99,0-2.13,.05-4.13,.16-5.96,.11-1.85,.3-3.46,.55-4.81,.26-1.34,.6-2.4,1.02-3.14,.37-.66,.83-.99,1.4-.99s1.04,.32,1.41,.99c.42,.75,.77,1.81,1.03,3.14,.27,1.35,.46,2.97,.57,4.81,.11,1.87,.17,3.88,.17,5.96,0,.27-.14,.6-.42,.99-.32,.45-.59,.79-.8,1.02l-.23,.25,.23,.25c.21,.23,.47,.56,.81,1.02,.29,.39,.43,.72,.43,.99,0,2.12-.05,4.15-.16,6.01Z" style="fill: #545454;"/>
      <path d="M248.39,164.87c-.13,1.44-.28,2.76-.46,3.91-.17,1.16-.42,2.16-.74,2.96-.31,.78-.7,1.4-1.17,1.83-.44,.41-1,.61-1.7,.61-.57,0-1.03-.32-1.4-.99-.42-.74-.77-1.79-1.03-3.11-.26-1.34-.46-2.95-.56-4.78-.11-1.82-.17-3.85-.17-6.01,0-.27,.15-.61,.42-.99,.32-.44,.6-.78,.81-1.02l.22-.25-.22-.25c-.21-.24-.49-.58-.81-1.02-.28-.39-.43-.72-.43-.99,0-2.13,.05-4.14,.16-5.96,.11-1.8,.29-3.41,.55-4.8,.26-1.34,.6-2.39,1.02-3.14,.37-.66,.83-.99,1.41-.99,.94,0,1.81,.88,2.58,2.61,.83,1.85,1.42,4.3,1.77,7.25,0,.23,.15,.42,.4,.51,.14,.05,.32,.07,.58,.07s1.04,0,1.04-.59l-.02-11.07c0-.12-.04-.43-.43-.58-.18-.07-.34-.11-.47-.11-.39,0-.71,.17-.91,.49-.16,.26-.33,.48-.49,.65-.25,.27-.69,.19-.84,.05-.17-.15-.37-.3-.6-.44-2.08-1.46-4.28-1.11-6.06,.68-1,1.01-1.88,2.33-2.62,3.94-.73,1.58-1.36,3.4-1.85,5.39-.49,1.99-.8,4.01-.93,6.05,0,.27-.14,.6-.43,.99-.32,.44-.59,.79-.8,1.02l-.24,.27,.26,.25c.2,.19,.44,.49,.71,.89,.26,.38,.43,.72,.5,.96,.14,1.99,.44,4.03,.92,6.04,.47,2.01,1.09,3.84,1.82,5.45,.75,1.62,1.63,2.96,2.64,3.98,1.04,1.06,2.23,1.6,3.52,1.6h0c1.14,0,2.13-.3,2.95-.91,.8-.59,1.46-1.42,1.97-2.47,.5-1.03,.87-2.23,1.09-3.59,.22-1.34,.33-2.81,.33-4.36v-.38h-2.24s-.03,.35-.03,.35Zm-4.07,11h0Z" style="fill: #545454;"/>
      <path d="M270.32,164.28c-.08-.23-.32-.61-.95-.61-.84,0-.9,.57-.9,.74,0,.48-.12,1.08-.34,1.77-.23,.7-.54,1.45-.91,2.24-.37,.77-.78,1.55-1.22,2.31-.42,.73-.86,1.39-1.29,1.95-.18,.23-.45,.42-.81,.57-.65,.27-1.38,.36-1.93,.03-.12-.07-.25-.19-.25-.52l-.02-13.48c0-.26,.15-.6,.43-.99,.33-.46,.6-.79,.8-1.02l.23-.25-.23-.25c-.21-.23-.48-.57-.81-1.02-.28-.38-.42-.72-.42-.98l-.02-13.48c0-.19,.06-.35,.21-.51,.18-.21,.39-.41,.64-.61l.7-.55c.21-.16,.44-.39,.44-.69,0-.13-.02-.25-.06-.32-.12-.32-.52-.32-.71-.32h-7.84c-.19,0-.58,0-.71,.31-.04,.11-.07,.22-.07,.34,0,.31,.26,.54,.45,.69l.7,.55c.24,.19,.46,.39,.65,.61,.14,.16,.2,.32,.2,.51l.03,13.48c0,.27-.14,.6-.43,.99-.32,.43-.59,.77-.8,1.02l-.23,.25,.23,.25c.21,.23,.48,.57,.81,1.02,.29,.39,.43,.72,.43,.98l.02,13.48c0,.19-.06,.35-.2,.51-.19,.21-.4,.42-.71,.66-.25,.19-.46,.36-.63,.5-.19,.15-.45,.38-.45,.69,0,.13,.02,.24,.07,.33,.13,.31,.52,.31,.71,.31h14.42c.18-.01,.57-.01,.71-.33,.04-.1,.06-.21,.06-.32v-1.94c0-.66,0-1.4,.03-2.22,.02-.82,.03-1.77,.03-2.84v-3.7s-.03-.13-.03-.13Z" style="fill: #545454;"/>
      <path d="M289.59,164.26c-.08-.23-.32-.61-.95-.61-.66,0-.9,.38-.9,.74,0,.48-.11,1.07-.34,1.77-.24,.72-.55,1.48-.91,2.24-.37,.78-.78,1.56-1.21,2.31-.44,.75-.87,1.41-1.3,1.95-.18,.23-.45,.42-.81,.57-.65,.27-1.38,.36-1.93,.03-.11-.07-.25-.19-.25-.52l-.02-14.48c.46,.13,.87,.38,1.23,.72,.5,.47,.89,1.03,1.18,1.66,.29,.65,.52,1.33,.68,2,.15,.68,.23,1.25,.23,1.71,0,.17,.07,.74,.91,.74,.63,0,.87-.39,.95-.61l.02-.06v-5.15c0-.26,.14-.61,.42-.99,.33-.46,.6-.79,.8-1.02l.23-.26-.23-.25c-.21-.23-.47-.56-.81-1.02-.28-.39-.43-.72-.43-.99v-5.09s-.03-.13-.03-.13c-.08-.23-.32-.61-.94-.61-.67,0-.91,.38-.91,.74,0,.46-.07,1.03-.22,1.73-.15,.69-.38,1.38-.68,2.03-.29,.64-.68,1.19-1.18,1.67-.37,.35-.77,.59-1.23,.72l-.02-14.54c0-.6,.25-.8,.44-.9,.7-.38,1.67-.39,2.54-.06,.4,.15,.7,.34,.85,.54,.38,.57,.77,1.21,1.15,1.89,.36,.66,.68,1.35,.94,2.04,.26,.7,.47,1.38,.62,2,.15,.62,.23,1.18,.23,1.67,0,.17,.07,.74,.91,.74,.63,0,.86-.38,.95-.61l.02-.06v-3.58c0-.95-.02-1.77-.04-2.46-.03-.68-.04-1.28-.04-1.82v-1.76c0-.11-.03-.22-.07-.32-.13-.31-.52-.31-.71-.31h-14.43c-.2,.01-.57,.02-.71,.32-.04,.09-.07,.2-.07,.33,0,.3,.26,.54,.44,.69l.7,.55c.25,.2,.47,.41,.65,.61,.14,.16,.21,.33,.21,.52l.02,13.48c0,.26-.15,.6-.43,.99-.34,.46-.6,.8-.81,1.02l-.22,.25,.23,.25c.2,.22,.47,.56,.8,1.02,.28,.38,.43,.72,.43,.98l.02,13.48c0,.19-.07,.35-.2,.52-.18,.2-.39,.41-.65,.61l-.7,.56c-.19,.15-.44,.38-.44,.68,0,.12,.02,.22,.06,.32,.12,.32,.51,.32,.7,.32h14.44c.2-.01,.57-.02,.71-.32,.05-.11,.07-.22,.06-.33v-1.94c0-.66,0-1.4,.03-2.22,.02-.82,.03-1.77,.03-2.84v-3.7s-.03-.13-.03-.13Z" style="fill: #545454;"/>
      <path d="M312.25,169.33c-.2-.13-.4-.19-.6-.19-.56,0-.9,.35-.9,.9,0,.81-.04,1.49-.13,2.07-.03,.18-.11,.6-.3,.6-.07,0-.32,0-.39-.76-.07-.72-.11-1.64-.14-2.8-.02-1.16-.06-2.44-.1-3.84-.05-1.42-.27-2.81-.65-4.13-.39-1.33-1.02-2.55-1.87-3.61-.65-.81-1.5-1.46-2.54-1.93,.64-.2,1.23-.46,1.76-.77,.85-.49,1.57-1.03,2.14-1.61,.58-.58,1.02-1.19,1.31-1.81,.29-.64,.43-1.16,.43-1.6,0-.26,.14-.58,.42-.93,.33-.43,.59-.72,.79-.9l.27-.25-.25-.27c-.2-.21-.46-.54-.81-1.02-.28-.39-.42-.72-.42-.99,0-.74-.15-1.54-.42-2.37-.28-.85-.77-1.65-1.45-2.37-.68-.72-1.6-1.32-2.73-1.79-1.13-.47-2.53-.71-4.16-.71h-7.44c-.2,0-.57,0-.71,.31-.05,.1-.06,.21-.06,.33,0,.31,.25,.54,.44,.69l.7,.55c.25,.2,.47,.4,.65,.61,.15,.16,.21,.33,.21,.52l.02,13.48c0,.27-.15,.6-.42,.99-.34,.46-.61,.79-.81,1.02l-.23,.25,.23,.25c.2,.23,.47,.56,.81,1.02,.29,.39,.43,.72,.43,.98l.02,13.48c0,.19-.06,.35-.21,.52-.18,.2-.39,.4-.64,.61l-.69,.55c-.19,.15-.45,.38-.45,.69,0,.13,.02,.23,.06,.32,.13,.31,.51,.31,.71,.31h7.85c.18,0,.56,0,.71-.32,.04-.1,.06-.2,.06-.33,0-.3-.25-.53-.44-.68l-.7-.55c-.26-.21-.47-.41-.65-.61-.14-.16-.21-.33-.21-.51l-.02-16.23c.69,.08,1.22,.34,1.61,.76,.49,.53,.87,1.24,1.12,2.11,.26,.89,.43,1.93,.52,3.1,.09,1.15,.15,2.37,.17,3.6,.03,1.23,.09,2.45,.18,3.61,.09,1.2,.27,2.28,.51,3.19,.26,.97,.69,1.76,1.26,2.37,.6,.63,1.43,.95,2.46,.95h.01c1.66,0,2.78-.64,3.33-1.91,.5-1.16,.76-2.58,.75-4.24,0-.39-.19-.6-.37-.71Zm-8.14-16.69c-.46,.94-1.31,1.39-2.59,1.39h-.82l-.02-13.73h.83c.61,0,1.1,.18,1.49,.58,.42,.41,.78,.97,1.04,1.65,.28,.71,.49,1.52,.62,2.43,.13,.91,.2,1.88,.2,2.88,0,2.17-.25,3.78-.75,4.79Zm4.41,23.17h0s0,0,0,0Z" style="fill: #545454;"/>
      <path d="M335.66,174.33c-.28-.15-.58-.33-.91-.54-.32-.2-.64-.42-.94-.64-.23-.17-.35-.34-.38-.54l-2.61-13.4s.02-.14,.03-.3c.02-.17,.06-.38,.12-.6,.06-.23,.14-.47,.22-.7,.09-.26,.16-.37,.2-.41l.21-.25-.22-.25c-.22-.23-.49-.57-.81-1.01-.3-.41-.5-.77-.56-1.05l-2.77-16.15c-.08-.24-.28-.44-.6-.59-.54-.25-1.24-.26-1.78,0-.31,.15-.52,.35-.6,.63l-3.03,16.09c-.08,.31-.27,.67-.57,1.08-.33,.46-.59,.79-.8,1.02l-.23,.24,.22,.25s.1,.14,.2,.4c.08,.24,.16,.48,.23,.71,.06,.23,.1,.43,.12,.61,.02,.17,.03,.26,.04,.23l-2.38,13.55c0,.11-.07,.23-.2,.37-.19,.2-.4,.38-.64,.56-.29,.22-.54,.41-.74,.61-.27,.26-.41,.54-.41,.82,0,.13,.03,.24,.06,.32,.13,.31,.51,.31,.71,.31h5.46c.18,0,.57,0,.71-.31,.04-.1,.06-.21,.06-.33,0-.31-.27-.54-.52-.72-.25-.18-.52-.36-.82-.56-.28-.18-.56-.39-.83-.61-.2-.15-.34-.32-.41-.5l1.25-7.09h5.03s1.27,7.13,1.27,7.13c0,.18-.06,.35-.2,.51-.19,.21-.41,.42-.65,.61l-.7,.55c-.19,.15-.44,.38-.44,.69,0,.12,.02,.23,.06,.33,.12,.31,.51,.31,.71,.31h8.71c.19,0,.58,0,.71-.31,.05-.1,.07-.22,.07-.34,0-.33-.32-.55-.63-.72Zm-13.47-11.28l2.12-11.98,2.04,11.97h-4.16Z" style="fill: #545454;"/>
      <rect x="62.12" y="123.86" width="275.76" height="1.75" style="fill: #545454;"/>
      <rect x="62.12" y="187.44" width="275.76" height="1.75" style="fill: #545454;"/>
    </g>
    <g>
      <path d="M66.52,118.52c0,.99-.8,1.8-1.8,1.8s-1.8-.8-1.8-1.8,.8-1.8,1.8-1.8,1.8,.81,1.8,1.8Z" style="fill: #545454;"/>
      <path d="M75.25,118.52c0,.99-.81,1.8-1.8,1.8s-1.8-.8-1.8-1.8,.8-1.8,1.8-1.8,1.8,.81,1.8,1.8Z" style="fill: #545454;"/>
      <path d="M83.98,118.52c0,.99-.8,1.8-1.8,1.8s-1.8-.8-1.8-1.8,.8-1.8,1.8-1.8,1.8,.81,1.8,1.8Z" style="fill: #545454;"/>
      <path d="M92.71,118.52c0,.99-.8,1.8-1.8,1.8s-1.8-.8-1.8-1.8,.8-1.8,1.8-1.8,1.8,.81,1.8,1.8Z" style="fill: #545454;"/>
      <path d="M101.43,118.52c0,.99-.81,1.8-1.8,1.8s-1.8-.8-1.8-1.8,.81-1.8,1.8-1.8,1.8,.81,1.8,1.8Z" style="fill: #545454;"/>
      <path d="M110.16,118.52c0,.99-.8,1.8-1.8,1.8s-1.8-.8-1.8-1.8,.81-1.8,1.8-1.8,1.8,.81,1.8,1.8Z" style="fill: #545454;"/>
      <path d="M118.89,118.52c0,.99-.81,1.8-1.8,1.8s-1.8-.8-1.8-1.8,.81-1.8,1.8-1.8,1.8,.81,1.8,1.8Z" style="fill: #545454;"/>
      <path d="M127.62,118.52c0,.99-.81,1.8-1.8,1.8s-1.8-.8-1.8-1.8,.8-1.8,1.8-1.8,1.8,.81,1.8,1.8Z" style="fill: #545454;"/>
      <path d="M136.34,118.52c0,.99-.8,1.8-1.8,1.8s-1.8-.8-1.8-1.8,.8-1.8,1.8-1.8,1.8,.81,1.8,1.8Z" style="fill: #545454;"/>
      <path d="M145.07,118.52c0,.99-.8,1.8-1.8,1.8s-1.8-.8-1.8-1.8,.8-1.8,1.8-1.8,1.8,.81,1.8,1.8Z" style="fill: #545454;"/>
      <path d="M153.8,118.52c0,.99-.8,1.8-1.8,1.8s-1.8-.8-1.8-1.8,.81-1.8,1.8-1.8,1.8,.81,1.8,1.8Z" style="fill: #545454;"/>
      <path d="M162.53,118.52c0,.99-.81,1.8-1.8,1.8s-1.8-.8-1.8-1.8,.8-1.8,1.8-1.8,1.8,.81,1.8,1.8Z" style="fill: #545454;"/>
      <path d="M171.25,118.52c0,.99-.81,1.8-1.8,1.8s-1.8-.8-1.8-1.8,.81-1.8,1.8-1.8,1.8,.81,1.8,1.8Z" style="fill: #545454;"/>
      <path d="M179.98,118.52c0,.99-.81,1.8-1.8,1.8s-1.8-.8-1.8-1.8,.81-1.8,1.8-1.8,1.8,.81,1.8,1.8Z" style="fill: #545454;"/>
      <path d="M188.71,118.52c0,.99-.8,1.8-1.8,1.8s-1.8-.8-1.8-1.8,.81-1.8,1.8-1.8,1.8,.81,1.8,1.8Z" style="fill: #545454;"/>
      <path d="M197.43,118.52c0,.99-.8,1.8-1.8,1.8s-1.8-.8-1.8-1.8,.8-1.8,1.8-1.8,1.8,.81,1.8,1.8Z" style="fill: #545454;"/>
      <path d="M206.16,118.52c0,.99-.8,1.8-1.8,1.8s-1.8-.8-1.8-1.8,.81-1.8,1.8-1.8,1.8,.81,1.8,1.8Z" style="fill: #545454;"/>
      <path d="M214.89,118.52c0,.99-.81,1.8-1.8,1.8s-1.8-.8-1.8-1.8,.8-1.8,1.8-1.8,1.8,.81,1.8,1.8Z" style="fill: #545454;"/>
      <path d="M223.62,118.52c0,.99-.81,1.8-1.8,1.8s-1.8-.8-1.8-1.8,.81-1.8,1.8-1.8,1.8,.81,1.8,1.8Z" style="fill: #545454;"/>
      <path d="M232.34,118.52c0,.99-.8,1.8-1.79,1.8s-1.8-.8-1.8-1.8,.8-1.8,1.8-1.8,1.79,.81,1.79,1.8Z" style="fill: #545454;"/>
      <path d="M241.07,118.52c0,.99-.8,1.8-1.8,1.8s-1.8-.8-1.8-1.8,.81-1.8,1.8-1.8,1.8,.81,1.8,1.8Z" style="fill: #545454;"/>
      <path d="M249.8,118.52c0,.99-.8,1.8-1.79,1.8s-1.8-.8-1.8-1.8,.8-1.8,1.8-1.8,1.79,.81,1.79,1.8Z" style="fill: #545454;"/>
      <path d="M258.53,118.52c0,.99-.8,1.8-1.8,1.8s-1.79-.8-1.79-1.8,.8-1.8,1.79-1.8,1.8,.81,1.8,1.8Z" style="fill: #545454;"/>
      <path d="M267.25,118.52c0,.99-.81,1.8-1.8,1.8s-1.8-.8-1.8-1.8,.81-1.8,1.8-1.8,1.8,.81,1.8,1.8Z" style="fill: #545454;"/>
      <path d="M275.98,118.52c0,.99-.8,1.8-1.79,1.8s-1.8-.8-1.8-1.8,.81-1.8,1.8-1.8,1.79,.81,1.79,1.8Z" style="fill: #545454;"/>
      <path d="M284.71,118.52c0,.99-.81,1.8-1.8,1.8s-1.8-.8-1.8-1.8,.81-1.8,1.8-1.8,1.8,.81,1.8,1.8Z" style="fill: #545454;"/>
      <path d="M293.43,118.52c0,.99-.8,1.8-1.79,1.8s-1.8-.8-1.8-1.8,.8-1.8,1.8-1.8,1.79,.81,1.79,1.8Z" style="fill: #545454;"/>
      <path d="M302.16,118.52c0,.99-.81,1.8-1.8,1.8s-1.8-.8-1.8-1.8,.81-1.8,1.8-1.8,1.8,.81,1.8,1.8Z" style="fill: #545454;"/>
      <path d="M310.89,118.52c0,.99-.8,1.8-1.8,1.8s-1.8-.8-1.8-1.8,.8-1.8,1.8-1.8,1.8,.81,1.8,1.8Z" style="fill: #545454;"/>
      <path d="M319.62,118.52c0,.99-.8,1.8-1.8,1.8s-1.8-.8-1.8-1.8,.8-1.8,1.8-1.8,1.8,.81,1.8,1.8Z" style="fill: #545454;"/>
      <path d="M328.34,118.52c0,.99-.8,1.8-1.8,1.8s-1.79-.8-1.79-1.8,.8-1.8,1.79-1.8,1.8,.81,1.8,1.8Z" style="fill: #545454;"/>
      <path d="M337.07,118.52c0,.99-.8,1.8-1.8,1.8s-1.8-.8-1.8-1.8,.81-1.8,1.8-1.8,1.8,.81,1.8,1.8Z" style="fill: #545454;"/>
    </g>
    <g>
      <path d="M66.52,194.49c0-.99-.8-1.8-1.8-1.8s-1.8,.8-1.8,1.8,.8,1.8,1.8,1.8,1.8-.8,1.8-1.8Z" style="fill: #545454;"/>
      <path d="M75.25,194.49c0-.99-.81-1.8-1.8-1.8s-1.8,.8-1.8,1.8,.8,1.8,1.8,1.8,1.8-.8,1.8-1.8Z" style="fill: #545454;"/>
      <path d="M83.98,194.49c0-.99-.8-1.8-1.8-1.8s-1.8,.8-1.8,1.8,.8,1.8,1.8,1.8,1.8-.8,1.8-1.8Z" style="fill: #545454;"/>
      <path d="M92.71,194.49c0-.99-.8-1.8-1.8-1.8s-1.8,.8-1.8,1.8,.8,1.8,1.8,1.8,1.8-.8,1.8-1.8Z" style="fill: #545454;"/>
      <path d="M101.43,194.49c0-.99-.81-1.8-1.8-1.8s-1.8,.8-1.8,1.8,.81,1.8,1.8,1.8,1.8-.8,1.8-1.8Z" style="fill: #545454;"/>
      <path d="M110.16,194.49c0-.99-.8-1.8-1.8-1.8s-1.8,.8-1.8,1.8,.81,1.8,1.8,1.8,1.8-.8,1.8-1.8Z" style="fill: #545454;"/>
      <path d="M118.89,194.49c0-.99-.81-1.8-1.8-1.8s-1.8,.8-1.8,1.8,.81,1.8,1.8,1.8,1.8-.8,1.8-1.8Z" style="fill: #545454;"/>
      <path d="M127.62,194.49c0-.99-.81-1.8-1.8-1.8s-1.8,.8-1.8,1.8,.8,1.8,1.8,1.8,1.8-.8,1.8-1.8Z" style="fill: #545454;"/>
      <path d="M136.34,194.49c0-.99-.81-1.8-1.8-1.8s-1.8,.8-1.8,1.8,.8,1.8,1.8,1.8,1.8-.8,1.8-1.8Z" style="fill: #545454;"/>
      <path d="M145.07,194.49c0-.99-.8-1.8-1.8-1.8s-1.8,.8-1.8,1.8,.8,1.8,1.8,1.8,1.8-.8,1.8-1.8Z" style="fill: #545454;"/>
      <path d="M153.8,194.49c0-.99-.8-1.8-1.8-1.8s-1.8,.8-1.8,1.8,.81,1.8,1.8,1.8,1.8-.8,1.8-1.8Z" style="fill: #545454;"/>
      <path d="M162.53,194.49c0-.99-.81-1.8-1.8-1.8s-1.8,.8-1.8,1.8,.8,1.8,1.8,1.8,1.8-.8,1.8-1.8Z" style="fill: #545454;"/>
      <path d="M171.25,194.49c0-.99-.8-1.8-1.8-1.8s-1.8,.8-1.8,1.8,.81,1.8,1.8,1.8,1.8-.8,1.8-1.8Z" style="fill: #545454;"/>
      <path d="M179.98,194.49c0-.99-.81-1.8-1.8-1.8s-1.8,.8-1.8,1.8,.81,1.8,1.8,1.8,1.8-.8,1.8-1.8Z" style="fill: #545454;"/>
      <path d="M188.71,194.49c0-.99-.8-1.8-1.8-1.8s-1.8,.8-1.8,1.8,.8,1.8,1.8,1.8,1.8-.8,1.8-1.8Z" style="fill: #545454;"/>
      <path d="M197.43,194.49c0-.99-.8-1.8-1.8-1.8s-1.8,.8-1.8,1.8,.8,1.8,1.8,1.8,1.8-.8,1.8-1.8Z" style="fill: #545454;"/>
      <path d="M206.16,194.49c0-.99-.8-1.8-1.8-1.8s-1.8,.8-1.8,1.8,.81,1.8,1.8,1.8,1.8-.8,1.8-1.8Z" style="fill: #545454;"/>
      <path d="M214.89,194.49c0-.99-.81-1.8-1.8-1.8s-1.8,.8-1.8,1.8,.8,1.8,1.8,1.8,1.8-.8,1.8-1.8Z" style="fill: #545454;"/>
      <path d="M223.62,194.49c0-.99-.81-1.8-1.8-1.8s-1.8,.8-1.8,1.8,.81,1.8,1.8,1.8,1.8-.8,1.8-1.8Z" style="fill: #545454;"/>
      <path d="M232.34,194.49c0-.99-.8-1.8-1.79-1.8s-1.8,.8-1.8,1.8,.8,1.8,1.8,1.8,1.79-.8,1.79-1.8Z" style="fill: #545454;"/>
      <path d="M241.07,194.49c0-.99-.8-1.8-1.8-1.8s-1.8,.8-1.8,1.8,.81,1.8,1.8,1.8,1.8-.8,1.8-1.8Z" style="fill: #545454;"/>
      <path d="M249.8,194.49c0-.99-.8-1.8-1.79-1.8s-1.8,.8-1.8,1.8,.8,1.8,1.8,1.8,1.79-.8,1.79-1.8Z" style="fill: #545454;"/>
      <path d="M258.53,194.49c0-.99-.8-1.8-1.8-1.8s-1.79,.8-1.79,1.8,.8,1.8,1.79,1.8,1.8-.8,1.8-1.8Z" style="fill: #545454;"/>
      <path d="M267.25,194.49c0-.99-.81-1.8-1.8-1.8s-1.8,.8-1.8,1.8,.81,1.8,1.8,1.8,1.8-.8,1.8-1.8Z" style="fill: #545454;"/>
      <path d="M275.98,194.49c0-.99-.8-1.8-1.79-1.8s-1.8,.8-1.8,1.8,.81,1.8,1.8,1.8,1.79-.8,1.79-1.8Z" style="fill: #545454;"/>
      <path d="M284.71,194.49c0-.99-.81-1.8-1.8-1.8s-1.8,.8-1.8,1.8,.81,1.8,1.8,1.8,1.8-.8,1.8-1.8Z" style="fill: #545454;"/>
      <path d="M293.43,194.49c0-.99-.8-1.8-1.79-1.8s-1.8,.8-1.8,1.8,.8,1.8,1.8,1.8,1.79-.8,1.79-1.8Z" style="fill: #545454;"/>
      <path d="M302.16,194.49c0-.99-.81-1.8-1.8-1.8s-1.8,.8-1.8,1.8,.81,1.8,1.8,1.8,1.8-.8,1.8-1.8Z" style="fill: #545454;"/>
      <path d="M310.89,194.49c0-.99-.8-1.8-1.8-1.8s-1.8,.8-1.8,1.8,.8,1.8,1.8,1.8,1.8-.8,1.8-1.8Z" style="fill: #545454;"/>
      <path d="M319.62,194.49c0-.99-.8-1.8-1.8-1.8s-1.8,.8-1.8,1.8,.8,1.8,1.8,1.8,1.8-.8,1.8-1.8Z" style="fill: #545454;"/>
      <path d="M328.34,194.49c0-.99-.8-1.8-1.8-1.8s-1.79,.8-1.79,1.8,.8,1.8,1.79,1.8,1.8-.8,1.8-1.8Z" style="fill: #545454;"/>
      <path d="M337.07,194.49c0-.99-.8-1.8-1.8-1.8s-1.8,.8-1.8,1.8,.81,1.8,1.8,1.8,1.8-.8,1.8-1.8Z" style="fill: #545454;"/>
    </g>
  </g>
</svg>