<?xml version="1.0" encoding="UTF-8"?>
<svg id="Capa_1" data-name="Capa 1" xmlns="http://www.w3.org/2000/svg" viewBox="0 0 400 313">
  <rect x="0" width="400" height="313" style="fill: #d8d8d8;"/>
  <g>
    <g>
      <g>
        <path d="M94.29,183.17l8.88,.06v1.49c-.27-.08-.48-.08-.63,0-.15,.08-.29,.22-.4,.43-.11,.21-.17,.56-.17,1.06v17.41h-1.37c0-.99-.78-1.2-2.35-.63-1.3,.72-2.79,1.07-4.47,1.03-1.22,0-2.44-.3-3.67-.89-1.22-.59-2.22-1.46-2.98-2.61-.5-.72-.87-1.57-1.12-2.52-.25-.95-.43-2.11-.54-3.47-.12-1.35-.17-2.96-.17-4.81v-6.56c0-3.36,.02-6.16,.06-8.39,.04-2.23,.21-4.08,.52-5.53,.15-1.26,.55-2.35,1.2-3.27,.65-.92,1.41-1.68,2.29-2.29,1.41-.88,2.88-1.32,4.41-1.32h.54c.17,0,.35,.02,.54,.06l-.11-.06c.08,0,.15,0,.23,.03,.08,.02,.15,.03,.23,.03,.88,.19,1.58,.43,2.12,.72,.54,.29,.99,.51,1.38,.66,.27,.15,.55,.15,.86,0,.19-.11,.35-.27,.49-.46,.13-.19,.2-.46,.2-.8h1.43v9.97h-1.32c0-.61-.06-1.24-.17-1.89-.08-.53-.19-1.14-.34-1.81-.15-.67-.38-1.33-.69-1.98-.08-.15-.24-.42-.49-.8-.25-.38-.59-.75-1.03-1.12-.44-.36-.98-.67-1.63-.92-.65-.25-1.39-.31-2.23-.2-.61,.08-1.19,.23-1.75,.46-.55,.23-1.03,.6-1.43,1.12-.4,.51-.72,1.17-.95,1.98-.23,.8-.34,1.81-.34,3.04v25.6c0,2.44,.43,4.18,1.29,5.21,.86,1.03,1.9,1.55,3.12,1.55,.61,0,1.18-.06,1.72-.17,.65-.23,1.15-.52,1.52-.89,.36-.36,.63-.84,.8-1.43,.17-.59,.28-1.29,.32-2.09,.04-.8,.06-1.76,.06-2.86v-8.94c.04-.3,0-.57-.11-.8-.08-.19-.23-.38-.46-.57-.23-.19-.57-.29-1.03-.29h-2.23v-1.55Z" style="fill: #545454;"/>
        <path d="M94.02,204.24c-.08,0-.16,0-.25,0-1.24,0-2.51-.31-3.76-.91-1.25-.61-2.28-1.51-3.07-2.68-.51-.74-.89-1.61-1.15-2.59-.25-.95-.43-2.13-.55-3.5-.12-1.36-.17-2.98-.17-4.83v-6.56c0-3.36,.02-6.18,.06-8.4,.04-2.23,.21-4.11,.52-5.57,.15-1.27,.57-2.41,1.24-3.35,.66-.93,1.45-1.72,2.34-2.34,1.45-.9,2.97-1.36,4.54-1.36h.54c.11,0,.22,0,.34,.02,.11-.05,.25-.02,.38,.01,.06,.01,.11,.02,.18,.02,.94,.2,1.67,.45,2.22,.74,.53,.28,.98,.5,1.35,.65,.23,.13,.44,.13,.68,0,.15-.09,.29-.22,.41-.39,.11-.15,.16-.38,.16-.68,0-.12,.1-.22,.22-.22h1.43c.12,0,.22,.1,.22,.22v9.97c0,.12-.1,.22-.22,.22h-1.32c-.12,0-.22-.1-.22-.22,0-.59-.06-1.22-.17-1.85-.08-.53-.19-1.13-.34-1.8-.15-.65-.38-1.3-.67-1.93-.05-.1-.18-.32-.47-.78-.23-.36-.57-.72-.99-1.07-.42-.34-.95-.64-1.57-.88-.61-.23-1.33-.3-2.13-.19-.59,.08-1.16,.23-1.69,.45-.51,.21-.97,.57-1.34,1.05-.38,.49-.69,1.13-.91,1.9-.22,.78-.34,1.78-.34,2.98v25.6c0,2.38,.42,4.09,1.24,5.07,.82,.99,1.79,1.47,2.95,1.47,.6,0,1.16-.06,1.67-.17,.59-.21,1.07-.49,1.41-.83,.33-.34,.59-.79,.75-1.34,.17-.57,.27-1.26,.31-2.04,.04-.81,.06-1.77,.06-2.85v-8.94c.03-.29,0-.51-.09-.7-.07-.17-.2-.34-.4-.5-.19-.15-.49-.23-.89-.23h-2.23c-.12,0-.22-.1-.22-.22v-1.55c0-.06,.02-.11,.06-.16,.04-.04,.1-.06,.15-.06h0l8.88,.06c.12,0,.22,.1,.22,.22v1.49c0,.07-.03,.13-.09,.18-.05,.04-.13,.05-.19,.04-.21-.06-.37-.07-.47-.02-.11,.06-.21,.17-.31,.34-.07,.12-.15,.39-.15,.95v17.41c0,.12-.1,.22-.22,.22h-1.37c-.12,0-.22-.1-.22-.22,0-.3-.08-.49-.23-.6-.21-.14-.69-.23-1.82,.18-1.23,.69-2.69,1.05-4.3,1.05Zm-.24-41.65c-1.48,0-2.92,.43-4.3,1.28-.84,.59-1.59,1.34-2.23,2.23-.63,.88-1.02,1.95-1.16,3.17-.31,1.45-.48,3.3-.51,5.5-.04,2.21-.06,5.03-.06,8.39v6.56c0,1.84,.06,3.45,.17,4.79,.11,1.34,.29,2.5,.54,3.43,.24,.93,.61,1.75,1.09,2.45,.74,1.11,1.71,1.96,2.89,2.53,1.19,.57,2.39,.87,3.57,.87,1.64,.03,3.1-.3,4.36-1,1.09-.4,1.82-.45,2.25-.14,.23,.16,.37,.41,.41,.74h.95v-17.19c0-.54,.07-.92,.2-1.16,.14-.25,.3-.42,.5-.52,.14-.07,.31-.09,.51-.07v-1l-8.44-.06v1.11h2.01c.51,0,.9,.11,1.17,.34,.26,.22,.43,.43,.52,.66,.13,.25,.17,.56,.13,.91v8.91c0,1.08-.02,2.05-.06,2.87-.04,.82-.15,1.54-.32,2.14-.18,.62-.47,1.14-.86,1.53-.39,.38-.92,.7-1.6,.94-.57,.12-1.16,.18-1.79,.18-1.29,0-2.39-.55-3.29-1.63-.89-1.06-1.34-2.87-1.34-5.35v-25.6c0-1.24,.12-2.28,.35-3.1,.23-.83,.57-1.52,.98-2.05,.42-.54,.94-.94,1.52-1.19,.57-.23,1.17-.39,1.8-.47,.87-.12,1.66-.05,2.34,.21,.67,.26,1.24,.58,1.69,.95,.45,.38,.82,.77,1.07,1.17,.25,.38,.42,.66,.5,.82,.31,.66,.55,1.34,.71,2.02,.15,.67,.27,1.29,.35,1.82,.1,.58,.16,1.15,.17,1.7h.88v-9.53h-1c-.03,.29-.1,.52-.23,.71-.15,.22-.34,.39-.55,.52-.39,.2-.75,.19-1.08,0-.36-.14-.82-.36-1.37-.65-.51-.27-1.21-.51-2.06-.7-.05,0-.12,0-.2-.02-.04,.02-.09,.03-.14,.02-.18-.04-.35-.05-.5-.05h-.54Z" style="fill: #545454;"/>
      </g>
      <g>
        <path d="M111.7,200.53c0,.54,.09,.93,.26,1.17,.17,.25,.33,.39,.49,.43,.19,.11,.44,.11,.75,0v1.49h-6.93v-1.49c.31,.11,.57,.11,.8,0,.11-.04,.26-.18,.43-.43,.17-.25,.26-.64,.26-1.17v-34.77c0-.57-.09-.98-.26-1.23-.17-.25-.32-.41-.43-.49-.23-.08-.5-.08-.8,0v-1.38h6.93v1.38c-.31-.08-.55-.08-.75,0-.15,.08-.32,.24-.49,.49-.17,.25-.26,.66-.26,1.23v34.77Z" style="fill: #545454;"/>
        <path d="M113.19,203.84h-6.93c-.12,0-.22-.1-.22-.22v-1.49c0-.07,.04-.14,.09-.18,.06-.04,.13-.05,.2-.03,.25,.09,.45,.1,.63,0,.04-.02,.14-.05,.35-.36,.15-.21,.22-.56,.22-1.05v-34.77c0-.52-.07-.9-.22-1.11-.18-.26-.29-.37-.35-.41-.18-.05-.4-.05-.65,.01-.07,.02-.14,0-.19-.04-.05-.04-.08-.11-.08-.17v-1.38c0-.12,.1-.22,.22-.22h6.93c.12,0,.22,.1,.22,.22v1.38c0,.07-.03,.13-.08,.17-.05,.04-.12,.06-.19,.04-.26-.07-.46-.07-.61,0-.06,.03-.2,.14-.39,.41-.14,.21-.22,.58-.22,1.11v34.77c0,.49,.07,.84,.22,1.05,.19,.27,.31,.33,.36,.34,.02,0,.04,.01,.06,.02,.13,.08,.32,.07,.56-.02,.07-.03,.14-.02,.2,.03,.06,.04,.09,.11,.09,.18v1.49c0,.12-.1,.22-.22,.22Zm-6.71-.44h6.49v-.98c-.23,.04-.44,.01-.61-.08-.2-.06-.39-.23-.58-.51-.2-.29-.3-.72-.3-1.3v-34.77c0-.62,.1-1.07,.3-1.36,.2-.28,.38-.46,.57-.56,.19-.08,.39-.1,.62-.07v-.89h-6.49v.89c.24-.03,.46,0,.65,.06,.02,0,.04,.01,.05,.03,.14,.09,.3,.27,.49,.54,.2,.29,.3,.73,.3,1.36v34.77c0,.59-.1,1.01-.3,1.3-.2,.3-.38,.46-.54,.51-.18,.09-.41,.12-.65,.08v.98Z" style="fill: #545454;"/>
      </g>
      <g>
        <path d="M135.02,200.58c.08,.54,.24,.92,.49,1.15,.25,.23,.52,.38,.83,.46,.31,.08,.65,.08,1.03,0v1.43h-8.42v-1.43c.34,.08,.65,.08,.92,0,.19-.08,.36-.23,.51-.46,.15-.23,.19-.61,.12-1.15,0-.08-.11-.75-.32-2.03-.21-1.28-.47-2.97-.77-5.07h-7.33c-.38,2.1-.68,3.79-.89,5.07-.21,1.28-.32,1.96-.32,2.03-.11,.54-.11,.92,.03,1.15,.13,.23,.3,.38,.49,.46,.23,.08,.53,.08,.92,0v1.43h-5.5v-1.43c.34,.08,.69,.08,1.03,0,.31-.08,.58-.23,.83-.46,.25-.23,.43-.61,.54-1.15,0-.04,.09-.6,.29-1.69,.19-1.09,.45-2.52,.77-4.3,.32-1.78,.7-3.79,1.12-6.04,.42-2.25,.84-4.56,1.26-6.93l3.44-18.79h2.92c1.11,6.99,2.1,13.23,2.98,18.73,.38,2.37,.75,4.68,1.09,6.93,.34,2.25,.66,4.27,.94,6.04,.29,1.78,.52,3.22,.72,4.33,.19,1.11,.29,1.68,.29,1.72Zm-12.72-8.59h6.93c-.23-1.56-.49-3.24-.77-5.04-.29-1.8-.57-3.6-.86-5.41-.29-1.81-.57-3.58-.86-5.3-.29-1.72-.54-3.3-.77-4.75-.31,1.45-.61,3.04-.92,4.75-.31,1.72-.62,3.49-.95,5.3-.33,1.81-.64,3.62-.94,5.41-.31,1.8-.59,3.48-.86,5.04Z" style="fill: #545454;"/>
        <path d="M137.37,203.84h-8.42c-.12,0-.22-.1-.22-.22v-1.43c0-.07,.03-.13,.08-.17,.05-.04,.12-.06,.19-.04,.31,.07,.58,.07,.81,0,.13-.05,.27-.18,.39-.37,.08-.13,.17-.4,.08-.99,0-.16-.24-1.56-.31-2.03-.2-1.23-.45-2.83-.75-4.89h-6.96c-.38,2.07-.66,3.67-.85,4.88-.27,1.62-.31,1.95-.31,2-.13,.64-.07,.91,0,1.03,.11,.19,.23,.31,.38,.36,.18,.06,.45,.06,.79-.01,.07-.01,.13,0,.18,.05,.05,.04,.08,.1,.08,.17v1.43c0,.12-.1,.22-.22,.22h-5.5c-.12,0-.22-.1-.22-.22v-1.43c0-.07,.03-.13,.08-.17,.05-.04,.12-.06,.19-.04,.31,.07,.63,.07,.94,0,.26-.07,.5-.2,.73-.41,.21-.2,.37-.54,.48-1.03,0,0,0,0,0,0,0,0,.02-.15,.29-1.68,.19-1.09,.45-2.52,.77-4.3,.32-1.78,.7-3.79,1.12-6.04,.42-2.25,.84-4.56,1.26-6.93l3.44-18.79c.02-.1,.11-.18,.22-.18h2.92c.11,0,.2,.08,.22,.19,1.11,6.99,2.1,13.23,2.98,18.73,.38,2.37,.75,4.68,1.09,6.93,.34,2.25,.66,4.27,.94,6.04,.29,1.78,.52,3.22,.72,4.32,.24,1.41,.28,1.66,.29,1.73,.07,.48,.21,.82,.42,1.01,.22,.2,.47,.34,.73,.41,.27,.07,.59,.07,.93,0,.07-.01,.13,0,.18,.05,.05,.04,.08,.1,.08,.17v1.43c0,.12-.1,.22-.22,.22Zm-8.2-.44h7.98v-.95c-.31,.04-.6,.02-.87-.04-.34-.08-.65-.26-.92-.51-.29-.27-.47-.68-.56-1.28,0,0,0-.01,0-.02,0-.05-.05-.33-.28-1.69-.19-1.11-.43-2.55-.72-4.33-.29-1.78-.6-3.79-.94-6.05-.34-2.25-.71-4.56-1.09-6.93-.87-5.45-1.85-11.63-2.95-18.55h-2.55l-3.4,18.61c-.42,2.37-.84,4.68-1.26,6.93-.42,2.25-.79,4.27-1.12,6.04-.32,1.78-.58,3.21-.77,4.29-.26,1.47-.28,1.64-.28,1.66-.13,.61-.33,1.03-.61,1.29-.28,.25-.59,.43-.93,.51-.29,.07-.58,.08-.86,.05v.95h5.06v-.95c-.31,.04-.56,.02-.77-.05-.25-.1-.45-.28-.61-.56-.16-.28-.18-.7-.05-1.3,0,0,0-.08,.31-2.02,.2-1.25,.49-2.91,.89-5.07,.02-.1,.11-.18,.22-.18h7.33c.11,0,.2,.08,.22,.19,.31,2.15,.56,3.8,.77,5.06,.29,1.8,.32,2,.32,2.07,.08,.56,.03,.99-.15,1.27-.18,.27-.38,.45-.62,.54-.24,.07-.5,.09-.78,.06v.95Zm.07-11.19h-6.93c-.06,0-.13-.03-.17-.08-.04-.05-.06-.11-.05-.18l.86-5.04c.31-1.8,.62-3.6,.95-5.42l.95-5.3c.31-1.72,.61-3.33,.92-4.76,.02-.1,.11-.17,.21-.17h0c.11,0,.19,.08,.21,.19,.23,1.45,.49,3.03,.77,4.75,.29,1.72,.57,3.49,.86,5.3,.29,1.81,.57,3.62,.86,5.41,.29,1.8,.54,3.48,.77,5.04,0,.06,0,.13-.05,.18-.04,.05-.1,.08-.17,.08Zm-6.67-.44h6.42c-.22-1.49-.46-3.09-.74-4.79-.29-1.8-.57-3.6-.86-5.41-.29-1.81-.57-3.58-.86-5.3-.21-1.26-.41-2.45-.58-3.57-.22,1.11-.45,2.31-.67,3.57l-.95,5.3c-.33,1.81-.64,3.62-.94,5.41l-.82,4.78Z" style="fill: #545454;"/>
      </g>
      <g>
        <path d="M155.52,162.72h5.04v1.43c-.34-.08-.63-.08-.86,0-.19,.08-.37,.24-.54,.49-.17,.25-.26,.64-.26,1.17v37.8h-4.81l-9.51-32.88v29.79c0,.54,.09,.92,.26,1.14,.17,.23,.35,.38,.54,.46,.23,.08,.51,.08,.86,0v1.49h-5.04v-1.49c.3,.08,.57,.08,.8,0,.19-.08,.38-.23,.57-.46,.19-.23,.29-.61,.29-1.14v-34.71c0-.53-.1-.93-.29-1.17-.19-.25-.38-.41-.57-.49-.23-.08-.5-.08-.8,0v-1.43h5.84l10.14,34.83v-31.73c0-.53-.1-.93-.29-1.17-.19-.25-.38-.41-.57-.49-.23-.08-.5-.08-.8,0v-1.43Z" style="fill: #545454;"/>
        <path d="M158.9,203.84h-4.81c-.1,0-.18-.06-.21-.16l-9.08-31.39v28.24c0,.48,.07,.82,.21,1.01,.15,.2,.3,.33,.45,.39,.18,.06,.43,.06,.73-.01,.06-.01,.13,0,.19,.04,.05,.04,.08,.11,.08,.17v1.49c0,.12-.1,.22-.22,.22h-5.04c-.12,0-.22-.1-.22-.22v-1.49c0-.07,.03-.13,.08-.17,.05-.04,.12-.06,.19-.04,.26,.07,.49,.07,.68,0,.14-.06,.31-.19,.47-.39,.16-.19,.24-.53,.24-1v-34.71c0-.48-.08-.83-.24-1.04-.17-.22-.33-.36-.48-.42-.17-.06-.4-.06-.67,0-.07,.02-.14,0-.19-.04-.05-.04-.08-.11-.08-.17v-1.43c0-.12,.1-.22,.22-.22h5.84c.1,0,.18,.06,.21,.16l9.71,33.35v-30.19c0-.48-.08-.83-.24-1.04-.17-.22-.33-.36-.48-.42-.18-.06-.4-.06-.67,0-.07,.02-.14,0-.19-.04-.05-.04-.08-.11-.08-.17v-1.43c0-.12,.1-.22,.22-.22h5.04c.12,0,.22,.1,.22,.22v1.43c0,.07-.03,.13-.08,.17-.05,.04-.12,.06-.18,.04-.3-.07-.55-.07-.74,0-.14,.06-.29,.19-.43,.4-.15,.21-.22,.56-.22,1.05v37.8c0,.12-.1,.22-.22,.22Zm-4.65-.44h4.43v-37.59c0-.59,.1-1.01,.3-1.3,.19-.28,.41-.47,.64-.57,.21-.07,.45-.09,.72-.06v-.95h-4.6v.95c.24-.03,.46,0,.65,.06,.24,.1,.46,.28,.68,.56,.22,.29,.33,.72,.33,1.31v31.73c0,.11-.08,.2-.19,.22-.11,.02-.21-.05-.24-.16l-10.09-34.67h-5.46v.95c.24-.03,.46,0,.65,.06,.24,.1,.46,.28,.68,.56,.22,.29,.33,.72,.33,1.31v34.71c0,.59-.11,1.01-.34,1.29-.22,.26-.44,.43-.66,.52-.2,.07-.42,.09-.66,.06v1h4.6v-1.01c-.27,.03-.51,.02-.71-.05-.24-.09-.45-.27-.65-.54-.2-.27-.3-.69-.3-1.28v-29.79c0-.11,.08-.2,.19-.22,.11-.01,.21,.05,.24,.16l9.46,32.72Z" style="fill: #545454;"/>
      </g>
      <g>
        <path d="M194.59,171.08v24.23c0,1.03-.18,2.04-.54,3.04-.36,.99-.91,1.88-1.63,2.66-.72,.78-1.63,1.41-2.72,1.89-1.09,.48-2.36,.72-3.81,.72h-.49c-.29,0-.64,0-1.06,.03-.42,.02-.89,.03-1.4,.03h-5.81v-1.49c.27,.08,.52,.08,.74,0,.19-.08,.36-.23,.52-.46,.15-.23,.23-.61,.23-1.15v-34.71c0-.54-.08-.93-.23-1.17-.15-.25-.33-.41-.52-.49-.23-.08-.48-.08-.74,0v-1.43h8.76c1.45,0,2.72,.24,3.81,.72,1.09,.48,2,1.11,2.72,1.89,.73,.78,1.27,1.67,1.63,2.66,.36,.99,.54,2,.54,3.03Zm-12.03-6.82v37.81h3.44c.65-.08,1.32-.26,2.01-.54,.69-.29,1.28-.75,1.78-1.4,.61-.88,.94-2.08,.97-3.61v-26.69c0-.69-.1-1.35-.29-2.01-.27-.8-.64-1.44-1.12-1.92-.48-.48-1-.84-1.58-1.09-.57-.25-1.16-.4-1.75-.46-.59-.06-1.12-.09-1.57-.09h-1.89Z" style="fill: #545454;"/>
        <path d="M182.93,203.9h-5.81c-.12,0-.22-.1-.22-.22v-1.49c0-.07,.03-.13,.09-.18,.06-.04,.13-.06,.19-.04,.22,.07,.43,.07,.61,0,.14-.05,.28-.18,.4-.37,.09-.13,.19-.42,.19-1.02v-34.71c0-.49-.07-.85-.2-1.06-.13-.2-.26-.34-.41-.4-.17-.06-.38-.06-.6,0-.07,.02-.14,0-.19-.04-.06-.04-.09-.11-.09-.18v-1.43c0-.12,.1-.22,.22-.22h8.76c1.48,0,2.79,.25,3.9,.74,1.11,.49,2.05,1.14,2.79,1.94,.74,.8,1.31,1.72,1.68,2.74,.37,1.01,.56,2.06,.56,3.11v24.23c0,1.05-.19,2.1-.56,3.11-.37,1.02-.94,1.94-1.68,2.74-.74,.8-1.68,1.45-2.79,1.94-1.11,.49-2.42,.73-3.9,.73h-.49c-.28,0-.63,.01-1.05,.03-.43,.02-.89,.03-1.41,.03Zm-5.59-.44h5.59c.51,0,.98-.01,1.39-.03,.42-.02,.78-.03,1.07-.03h.49c1.42,0,2.67-.23,3.72-.7,1.06-.46,1.95-1.08,2.65-1.84,.7-.76,1.24-1.63,1.59-2.59,.35-.97,.53-1.96,.53-2.96v-24.23c0-1-.18-1.99-.53-2.96-.35-.96-.89-1.83-1.59-2.59-.7-.76-1.59-1.38-2.65-1.84-1.06-.46-2.31-.7-3.72-.7h-8.54v.95c.21-.02,.41,0,.59,.06,.25,.1,.46,.29,.63,.58,.18,.29,.26,.71,.26,1.29v34.71c0,.59-.09,1-.26,1.27-.18,.27-.39,.45-.62,.54-.2,.07-.4,.09-.61,.06v1Zm5.22-1.16c-.12,0-.22-.1-.22-.22v-37.81c0-.12,.1-.22,.22-.22h1.89c.46,0,1,.03,1.6,.09,.61,.06,1.22,.22,1.81,.47,.6,.26,1.15,.64,1.64,1.13,.5,.5,.89,1.18,1.17,2,.2,.68,.3,1.37,.3,2.07v26.69c-.04,1.57-.38,2.82-1.01,3.73-.52,.69-1.15,1.18-1.87,1.48-.7,.29-1.39,.48-2.06,.56h-3.46Zm.22-.44h3.22c.6-.07,1.26-.25,1.92-.53,.65-.27,1.21-.72,1.69-1.33,.58-.83,.89-2,.93-3.48v-26.69c0-.66-.09-1.31-.28-1.94-.25-.76-.61-1.37-1.06-1.83-.46-.45-.96-.81-1.51-1.04-.55-.24-1.12-.39-1.68-.44-.58-.06-1.1-.09-1.55-.09h-1.67v37.37Z" style="fill: #545454;"/>
      </g>
      <g>
        <path d="M213.32,197.61v6.01h-14.38v-1.49c.31,.11,.57,.11,.8,0,.15-.04,.3-.18,.46-.43,.15-.25,.23-.64,.23-1.17v-34.77c0-.57-.08-.98-.23-1.23-.15-.25-.31-.41-.46-.49-.23-.08-.5-.08-.8,0v-1.38h14.38v6.01h-1.49c-.04-.88-.17-1.66-.4-2.35-.15-.57-.45-1.12-.89-1.63-.44-.52-1.06-.77-1.86-.77h-4.3v18.56h2.4c.5,0,.87-.13,1.12-.4,.25-.27,.45-.57,.6-.92,.11-.42,.17-.9,.17-1.43h1.37v7.05h-1.37c0-.54-.06-.99-.17-1.38-.15-.38-.35-.72-.6-1-.25-.29-.62-.43-1.12-.43h-2.4v18.27h4.3c.8,0,1.42-.23,1.86-.69,.44-.46,.73-.99,.89-1.6,.23-.69,.36-1.47,.4-2.35h1.49Zm-5.56-42.67c.53-.73,1.11-1.09,1.72-1.09,.31,0,.63,.13,.97,.4,.27,.34,.4,.67,.4,.97,0,.54-.61,1.26-1.83,2.18l-4.7,3.38-.29-.34,3.72-5.5Z" style="fill: #545454;"/>
        <path d="M213.32,203.84h-14.38c-.12,0-.22-.1-.22-.22v-1.49c0-.07,.04-.14,.09-.18,.06-.04,.13-.05,.2-.03,.25,.09,.45,.1,.63,0,.09-.03,.2-.08,.37-.35,.13-.21,.2-.57,.2-1.06v-34.77c0-.53-.07-.9-.2-1.12-.16-.26-.29-.36-.37-.4-.16-.05-.39-.05-.65,.02-.07,.02-.14,0-.19-.04s-.08-.11-.08-.17v-1.38c0-.12,.1-.22,.22-.22h14.38c.12,0,.22,.1,.22,.22v6.01c0,.12-.1,.22-.22,.22h-1.49c-.12,0-.21-.09-.22-.21-.04-.86-.17-1.63-.39-2.29-.15-.55-.43-1.07-.85-1.56-.4-.47-.95-.7-1.69-.7h-4.08v18.12h2.19c.44,0,.75-.11,.96-.33,.23-.25,.42-.54,.56-.86,.1-.37,.15-.83,.15-1.34,0-.12,.1-.22,.22-.22h1.37c.12,0,.22,.1,.22,.22v7.05c0,.12-.1,.22-.22,.22h-1.37c-.12,0-.22-.1-.22-.22,0-.51-.05-.95-.16-1.31-.14-.34-.33-.66-.56-.92-.21-.24-.52-.35-.95-.35h-2.19v17.83h4.08c.74,0,1.31-.21,1.7-.62,.41-.43,.69-.94,.83-1.51,.22-.68,.36-1.45,.39-2.31,0-.12,.1-.21,.22-.21h1.49c.12,0,.22,.1,.22,.22v6.01c0,.12-.1,.22-.22,.22Zm-14.16-.44h13.94v-5.57h-1.06c-.05,.81-.19,1.55-.4,2.2-.16,.63-.47,1.2-.94,1.69-.48,.5-1.16,.75-2.02,.75h-4.3c-.12,0-.22-.1-.22-.22v-18.27c0-.12,.1-.22,.22-.22h2.41c.56,0,.99,.17,1.28,.5,.26,.3,.48,.66,.64,1.06,.11,.37,.17,.78,.18,1.24h.94v-6.61h-.94c-.01,.46-.07,.89-.17,1.27-.17,.4-.39,.72-.65,1.01-.29,.31-.72,.47-1.28,.47h-2.41c-.12,0-.22-.1-.22-.22v-18.56c0-.12,.1-.22,.22-.22h4.3c.87,0,1.55,.29,2.03,.85,.46,.54,.77,1.12,.93,1.72,.21,.63,.34,1.37,.4,2.18h1.06v-5.58h-13.94v.89c.24-.03,.46-.01,.65,.06,.22,.11,.4,.29,.58,.58,.18,.29,.26,.73,.26,1.35v34.77c0,.58-.09,1-.26,1.29-.19,.3-.38,.47-.59,.53-.17,.09-.39,.12-.64,.08v.98Zm5.16-42.41c-.06,0-.13-.03-.17-.08l-.29-.34c-.06-.08-.07-.18-.01-.26l3.72-5.5s0,0,0,0c.58-.78,1.21-1.18,1.89-1.18,.35,0,.73,.15,1.11,.45,.02,.01,.03,.02,.04,.04,.3,.38,.45,.76,.45,1.11,0,.62-.61,1.37-1.92,2.35l-4.7,3.38s-.08,.04-.13,.04Zm-.01-.58l.05,.06,4.53-3.26c1.44-1.08,1.74-1.68,1.74-2,0-.25-.11-.52-.34-.82-.29-.22-.57-.34-.82-.34-.53,0-1.05,.34-1.54,1l-3.63,5.36Z" style="fill: #545454;"/>
      </g>
      <g>
        <path d="M225.69,164.1c-.61,.08-1.17,.23-1.69,.46-.52,.23-.97,.59-1.37,1.09-.4,.5-.72,1.15-.95,1.95-.23,.8-.34,1.8-.34,2.98,0,1.6,0,3.52-.03,5.76-.02,2.23-.03,4.54-.03,6.9s0,4.74,.03,6.99c.02,2.25,.03,4.18,.03,5.78,0,2.41,.41,4.12,1.23,5.13,.82,1.01,1.84,1.52,3.06,1.52,.99,0,1.89-.14,2.69-.4,.8-.27,1.49-.71,2.06-1.32,.57-.61,1.01-1.42,1.32-2.43,.3-1.01,.46-2.26,.46-3.75v-1.55h1.32v2.92c0,2.48-.68,4.41-2.03,5.79-1.36,1.37-3.27,2.04-5.76,2-1.18,0-2.38-.3-3.58-.89-1.2-.59-2.19-1.46-2.95-2.61-.5-.72-.87-1.56-1.12-2.49-.25-.93-.42-2.08-.51-3.44-.1-1.35-.14-2.95-.14-4.78v-6.47c0-3.32,.02-6.08,.06-8.28,.04-2.2,.19-4.02,.46-5.47,.15-1.22,.54-2.3,1.17-3.24,.63-.94,1.38-1.69,2.26-2.26,1.41-.88,2.86-1.32,4.35-1.32h.54c.17,0,.35,.02,.54,.06l-.12-.11c.23,.08,.38,.11,.46,.11,.88,.19,1.58,.42,2.12,.69,.53,.27,.99,.5,1.38,.69,.3,.12,.57,.12,.8,0,.46-.27,.69-.76,.69-1.49,.08,0,.13,0,.17,.03,.04,.02,.08,.03,.11,.03h1.09v10.02h-1.26c-.04-.61-.1-1.24-.17-1.89-.08-.54-.18-1.13-.32-1.78-.13-.65-.35-1.28-.66-1.89-.08-.15-.24-.42-.49-.8-.25-.38-.59-.75-1.03-1.12-.44-.36-.98-.67-1.63-.92-.65-.25-1.4-.32-2.23-.2Z" style="fill: #545454;"/>
        <path d="M225.88,204.13c-.07,0-.13,0-.2,0-1.21,0-2.45-.31-3.67-.91-1.23-.61-2.26-1.51-3.04-2.68-.51-.74-.89-1.6-1.15-2.56-.25-.94-.43-2.11-.52-3.48-.1-1.36-.15-2.97-.15-4.8v-6.47c0-3.31,.02-6.09,.06-8.28,.04-2.19,.19-4.04,.46-5.51,.15-1.24,.56-2.36,1.21-3.32,.64-.96,1.43-1.74,2.32-2.32,1.45-.9,2.95-1.35,4.47-1.35h.54c.09,0,.18,0,.27,.01,.06-.06,.15-.09,.23-.06,.29,.1,.37,.1,.39,.1,.94,.2,1.67,.44,2.22,.71l1.38,.69c.23,.09,.43,.09,.61,0,.38-.22,.57-.64,.57-1.29,0-.12,.1-.22,.22-.22,.11,0,.19,.02,.26,.05h1.11c.12,0,.22,.11,.22,.23v10.02c0,.12-.1,.22-.22,.22h-1.26c-.12,0-.21-.09-.22-.21-.04-.62-.1-1.25-.17-1.88-.08-.53-.18-1.13-.31-1.76-.13-.63-.35-1.25-.64-1.84-.05-.11-.18-.33-.47-.78-.23-.36-.57-.72-.99-1.07-.42-.35-.95-.64-1.57-.88-.61-.23-1.33-.3-2.13-.19,0,0,0,0,0,0-.59,.07-1.13,.22-1.63,.44-.48,.22-.92,.56-1.29,1.03-.38,.47-.69,1.1-.91,1.87-.22,.78-.34,1.76-.34,2.92,0,1.6,0,3.53-.03,5.76-.02,2.23-.03,4.53-.03,6.9s0,4.73,.03,6.99c.02,2.25,.03,4.18,.03,5.79,0,2.34,.4,4.02,1.18,4.99,.79,.97,1.73,1.44,2.89,1.44,.96,0,1.84-.13,2.62-.39,.76-.25,1.43-.68,1.97-1.26,.55-.58,.97-1.37,1.27-2.35,.3-.99,.45-2.23,.45-3.69v-1.55c0-.12,.1-.22,.22-.22h1.32c.12,0,.22,.1,.22,.22v2.92c0,2.53-.71,4.53-2.1,5.94-1.36,1.37-3.28,2.07-5.72,2.07Zm-.19-41.24c-1.44,0-2.87,.43-4.24,1.29-.84,.55-1.58,1.29-2.19,2.2-.61,.9-.99,1.96-1.14,3.14-.27,1.45-.42,3.28-.46,5.45-.04,2.18-.06,4.97-.06,8.27v6.47c0,1.81,.05,3.42,.14,4.77,.09,1.34,.26,2.48,.51,3.4,.24,.91,.61,1.72,1.09,2.42,.74,1.11,1.7,1.96,2.87,2.53,1.16,.57,2.34,.87,3.48,.87,2.4,.03,4.29-.62,5.6-1.94,1.31-1.33,1.97-3.22,1.97-5.63v-2.7h-.88v1.33c0,1.5-.16,2.79-.47,3.82-.32,1.04-.78,1.89-1.37,2.52-.59,.64-1.32,1.1-2.15,1.38-.83,.27-1.76,.41-2.76,.41-1.29,0-2.37-.54-3.24-1.6-.85-1.05-1.28-2.82-1.28-5.27,0-1.6,0-3.53-.03-5.78-.02-2.25-.03-4.58-.03-6.99s0-4.67,.03-6.91c.02-2.23,.03-4.15,.03-5.75,0-1.2,.12-2.22,.35-3.04,.23-.83,.57-1.51,.99-2.03,.42-.52,.91-.91,1.46-1.15,.53-.24,1.12-.39,1.75-.47,.87-.12,1.66-.05,2.34,.21,.67,.26,1.24,.58,1.69,.95,.45,.38,.82,.77,1.07,1.17,.25,.38,.41,.65,.5,.82,.31,.62,.54,1.28,.68,1.94,.13,.64,.24,1.24,.32,1.79,.07,.57,.12,1.14,.16,1.7h.83v-9.59h-.87s-.05,0-.08,0c-.05,.66-.32,1.14-.78,1.41-.3,.15-.63,.15-.99,.02l-1.4-.7c-.52-.26-1.21-.48-2.07-.67-.01,0-.06,0-.18-.03-.05,.03-.1,.04-.16,.03-.19-.04-.35-.05-.5-.05h-.54Z" style="fill: #545454;"/>
      </g>
      <g>
        <path d="M255.19,183.23v6.47c0,1.83-.05,3.43-.14,4.78s-.27,2.5-.51,3.44c-.25,.94-.62,1.77-1.12,2.49-.76,1.15-1.74,2.01-2.92,2.61-1.18,.59-2.39,.89-3.61,.89s-2.38-.3-3.58-.89c-1.2-.59-2.19-1.46-2.95-2.61-.5-.72-.87-1.56-1.12-2.49-.25-.93-.42-2.08-.51-3.44-.1-1.35-.14-2.95-.14-4.78v-6.47c0-3.32,.02-6.08,.06-8.28,.04-2.2,.21-4.02,.52-5.47,.15-1.22,.53-2.3,1.15-3.24,.61-.94,1.35-1.69,2.23-2.26,1.41-.88,2.86-1.32,4.35-1.32,.72,0,1.47,.12,2.23,.34,.76,.23,1.47,.55,2.12,.97,.88,.57,1.63,1.33,2.26,2.26,.63,.94,1,2.01,1.12,3.24,.27,1.45,.43,3.28,.49,5.47s.09,4.95,.09,8.28Zm-3.95,12.77v-5.78c0-2.25,.02-4.58,.06-6.99-.04-2.37-.06-4.67-.06-6.9v-5.76c0-2.4-.42-4.09-1.26-5.04-.84-.96-1.87-1.43-3.09-1.43s-2.25,.48-3.09,1.43c-.84,.95-1.26,2.63-1.26,5.04v25.43c0,2.41,.37,4.12,1.12,5.13,.75,1.01,1.84,1.52,3.29,1.52s2.53-.51,3.24-1.52c.71-1.01,1.06-2.72,1.06-5.13Z" style="fill: #545454;"/>
        <path d="M246.88,204.13c-1.21,0-2.45-.31-3.68-.91-1.23-.61-2.26-1.51-3.04-2.68-.5-.74-.89-1.6-1.15-2.56-.25-.94-.43-2.11-.52-3.48-.1-1.35-.15-2.96-.15-4.8v-6.47c0-3.31,.02-6.09,.06-8.28,.04-2.2,.21-4.05,.52-5.51,.15-1.23,.55-2.35,1.18-3.31,.62-.96,1.4-1.74,2.3-2.33,2.15-1.34,4.38-1.72,6.77-1,.78,.23,1.51,.57,2.18,1,.9,.59,1.68,1.37,2.32,2.32,.65,.96,1.04,2.08,1.15,3.34,.27,1.44,.43,3.29,.49,5.49,.06,2.17,.09,4.96,.09,8.28v6.47c0,1.82-.05,3.44-.14,4.8-.1,1.36-.27,2.53-.52,3.48-.26,.96-.64,1.82-1.15,2.56-.78,1.17-1.79,2.07-3.01,2.68-1.21,.6-2.45,.91-3.71,.91Zm0-41.24c-1.44,0-2.87,.43-4.24,1.29-.85,.55-1.58,1.29-2.17,2.2-.59,.9-.96,1.96-1.11,3.14-.31,1.45-.48,3.28-.51,5.45-.04,2.18-.06,4.97-.06,8.27v6.47c0,1.82,.05,3.43,.14,4.77,.09,1.34,.26,2.48,.51,3.4,.24,.91,.61,1.72,1.09,2.42,.74,1.11,1.7,1.96,2.87,2.53,2.37,1.17,4.74,1.13,6.99,0,1.15-.57,2.1-1.42,2.84-2.53,.48-.7,.85-1.52,1.09-2.43,.24-.92,.41-2.07,.51-3.4,.09-1.35,.14-2.95,.14-4.77v-6.47c0-3.32-.03-6.11-.09-8.27-.06-2.17-.22-4-.48-5.44-.11-1.2-.48-2.25-1.08-3.15-.61-.91-1.35-1.65-2.2-2.2-.63-.41-1.32-.73-2.06-.95-.74-.22-1.47-.34-2.17-.34Zm.06,39.98c-1.52,0-2.69-.54-3.47-1.61-.77-1.05-1.16-2.81-1.16-5.26v-25.43c0-2.45,.44-4.2,1.31-5.18,.88-1,1.98-1.51,3.26-1.51s2.38,.51,3.26,1.51c.87,.99,1.31,2.73,1.31,5.18v5.76c0,2.21,.02,4.53,.06,6.9-.04,2.42-.06,4.77-.06,6.99v5.78c0,2.48-.36,4.2-1.1,5.25-.75,1.07-1.9,1.61-3.42,1.61Zm-.06-38.55c-1.17,0-2.13,.44-2.93,1.36-.8,.91-1.2,2.55-1.2,4.89v25.43c0,2.35,.36,4.03,1.07,5,.71,.96,1.73,1.43,3.12,1.43s2.39-.47,3.06-1.43c.68-.97,1.02-2.65,1.02-5v-5.78c0-2.23,.02-4.58,.06-6.99-.04-2.37-.06-4.69-.06-6.9v-5.76c0-2.34-.41-3.99-1.21-4.89-.79-.9-1.78-1.36-2.93-1.36Z" style="fill: #545454;"/>
      </g>
      <g>
        <path d="M275.06,197.61v6.01h-15.41v-1.49c.3,.11,.53,.11,.69,0,.19-.04,.38-.18,.57-.43,.19-.25,.29-.64,.29-1.17v-34.77c0-.57-.09-.98-.29-1.23-.19-.25-.38-.41-.57-.49-.15-.08-.38-.08-.69,0v-1.38h6.93v1.38c-.31-.08-.57-.08-.8,0-.15,.08-.31,.24-.46,.49-.15,.25-.23,.66-.23,1.23v36.37h5.38c.8,0,1.41-.22,1.83-.66,.42-.44,.72-.96,.92-1.58,.19-.65,.3-1.41,.34-2.29h1.49Z" style="fill: #545454;"/>
        <path d="M275.06,203.84h-15.41c-.12,0-.22-.1-.22-.22v-1.49c0-.07,.04-.14,.09-.18,.06-.04,.13-.05,.2-.03,.16,.06,.37,.11,.48,.03,.03-.02,.06-.03,.09-.04,.13-.03,.29-.15,.44-.35,.16-.21,.24-.56,.24-1.04v-34.77c0-.52-.08-.89-.24-1.1-.17-.22-.33-.36-.48-.42-.07-.04-.22-.07-.55,0-.07,.02-.14,0-.19-.04s-.08-.11-.08-.17v-1.38c0-.12,.1-.22,.22-.22h6.93c.12,0,.22,.1,.22,.22v1.38c0,.07-.03,.13-.08,.17-.05,.04-.12,.06-.19,.04-.27-.07-.49-.07-.68,0-.05,.03-.18,.13-.34,.39-.13,.21-.2,.59-.2,1.12v36.15h5.16c.73,0,1.3-.2,1.67-.59,.39-.41,.68-.91,.87-1.49,.18-.62,.3-1.38,.33-2.24,0-.12,.1-.21,.22-.21h1.49c.12,0,.22,.1,.22,.22v6.01c0,.12-.1,.22-.22,.22Zm-15.19-.44h14.97v-5.57h-1.06c-.05,.81-.16,1.52-.34,2.13-.2,.65-.53,1.21-.97,1.67-.46,.48-1.13,.73-1.99,.73h-5.38c-.12,0-.22-.1-.22-.22v-36.37c0-.62,.09-1.06,.26-1.35,.18-.29,.36-.47,.55-.57,.22-.08,.44-.09,.68-.07v-.89h-6.49v.89c.23-.03,.42,0,.57,.07,.21,.08,.43,.27,.65,.55,.22,.29,.33,.74,.33,1.37v34.77c0,.59-.11,1.02-.33,1.31-.21,.28-.43,.44-.66,.5-.15,.09-.33,.12-.56,.08v.98Z" style="fill: #545454;"/>
      </g>
      <g>
        <path d="M294.6,197.61v6.01h-15.41v-1.49c.3,.11,.53,.11,.69,0,.19-.04,.38-.18,.57-.43,.19-.25,.29-.64,.29-1.17v-34.77c0-.57-.1-.98-.29-1.23-.19-.25-.38-.41-.57-.49-.15-.08-.38-.08-.69,0v-1.38h6.93v1.38c-.31-.08-.57-.08-.8,0-.15,.08-.31,.24-.46,.49-.15,.25-.23,.66-.23,1.23v36.37h5.38c.8,0,1.41-.22,1.83-.66,.42-.44,.72-.96,.92-1.58,.19-.65,.3-1.41,.34-2.29h1.49Z" style="fill: #545454;"/>
        <path d="M294.6,203.84h-15.41c-.12,0-.22-.1-.22-.22v-1.49c0-.07,.04-.14,.09-.18,.06-.04,.13-.05,.2-.03,.16,.06,.37,.11,.48,.03,.03-.02,.06-.03,.09-.04,.13-.03,.29-.15,.44-.35,.16-.21,.24-.56,.24-1.04v-34.77c0-.52-.08-.89-.24-1.1-.16-.21-.33-.36-.48-.42-.07-.04-.22-.07-.55,0-.07,.02-.14,0-.19-.04s-.08-.11-.08-.17v-1.38c0-.12,.1-.22,.22-.22h6.93c.12,0,.22,.1,.22,.22v1.38c0,.07-.03,.13-.08,.17-.05,.04-.13,.06-.19,.04-.27-.07-.49-.07-.68,0-.05,.03-.18,.13-.34,.39-.13,.21-.2,.59-.2,1.12v36.15h5.16c.73,0,1.3-.2,1.67-.59,.39-.41,.68-.91,.87-1.49,.18-.62,.3-1.37,.33-2.24,0-.12,.1-.21,.22-.21h1.49c.12,0,.22,.1,.22,.22v6.01c0,.12-.1,.22-.22,.22Zm-15.19-.44h14.97v-5.57h-1.06c-.05,.81-.16,1.53-.34,2.13-.2,.65-.53,1.21-.97,1.66-.46,.48-1.13,.73-1.99,.73h-5.38c-.12,0-.22-.1-.22-.22v-36.37c0-.62,.09-1.06,.26-1.35,.18-.29,.36-.47,.55-.57,.22-.08,.44-.1,.68-.07v-.89h-6.49v.89c.23-.03,.42,0,.57,.07,.21,.08,.43,.27,.65,.55,.22,.29,.33,.74,.33,1.37v34.77c0,.59-.11,1.02-.33,1.31-.21,.27-.43,.44-.66,.5-.15,.09-.33,.12-.56,.08v.98Z" style="fill: #545454;"/>
      </g>
      <g>
        <path d="M314.7,197.61v6.01h-15.98v-1.49c.3,.11,.53,.11,.69,0,.19-.04,.37-.18,.54-.43,.17-.25,.26-.64,.26-1.17v-34.77c0-.57-.09-.98-.26-1.23-.17-.25-.35-.41-.54-.49-.15-.08-.38-.08-.69,0v-1.38h15.98v6.01h-1.49c-.04-.88-.15-1.66-.34-2.35-.19-.57-.51-1.12-.95-1.63-.44-.52-1.04-.77-1.8-.77h-5.96v18.56h4.01c.5,0,.88-.13,1.15-.4,.27-.27,.46-.57,.57-.92,.15-.42,.23-.9,.23-1.43h1.32v7.05h-1.32c0-.54-.08-.99-.23-1.38-.11-.38-.31-.72-.57-1-.27-.29-.65-.43-1.15-.43h-4.01v18.27h5.96c.76,0,1.37-.23,1.8-.69,.44-.46,.75-.99,.95-1.6,.19-.69,.3-1.47,.34-2.35h1.49Z" style="fill: #545454;"/>
        <path d="M314.7,203.84h-15.98c-.12,0-.22-.1-.22-.22v-1.49c0-.07,.04-.14,.09-.18,.06-.04,.13-.05,.2-.03,.22,.08,.39,.1,.48,.03,.03-.02,.06-.03,.09-.04,.13-.03,.27-.14,.41-.34,.14-.21,.22-.56,.22-1.05v-34.77c0-.52-.07-.9-.22-1.11-.15-.21-.3-.35-.45-.41-.08-.04-.22-.07-.55,0-.07,.02-.14,0-.19-.04-.05-.04-.08-.11-.08-.17v-1.38c0-.12,.1-.22,.22-.22h15.98c.12,0,.22,.1,.22,.22v6.01c0,.12-.1,.22-.22,.22h-1.49c-.12,0-.21-.09-.22-.21-.04-.87-.15-1.64-.34-2.3-.18-.53-.48-1.06-.9-1.55-.4-.47-.93-.7-1.64-.7h-5.74v18.12h3.79c.43,0,.77-.11,.99-.34,.24-.24,.42-.52,.52-.83,.14-.4,.22-.86,.22-1.36,0-.12,.1-.22,.22-.22h1.32c.12,0,.22,.1,.22,.22v7.05c0,.12-.1,.22-.22,.22h-1.32c-.12,0-.22-.1-.22-.22,0-.5-.07-.94-.21-1.29-.11-.36-.29-.67-.53-.93-.23-.24-.55-.36-.99-.36h-3.79v17.83h5.74c.7,0,1.25-.21,1.64-.62,.41-.43,.71-.94,.89-1.52,.18-.66,.3-1.43,.33-2.29,0-.12,.1-.21,.22-.21h1.49c.12,0,.22,.1,.22,.22v6.01c0,.12-.1,.22-.22,.22Zm-15.76-.44h15.54v-5.57h-1.06c-.05,.81-.16,1.55-.34,2.19-.2,.65-.54,1.22-1,1.7-.48,.5-1.14,.75-1.96,.75h-5.96c-.12,0-.22-.1-.22-.22v-18.27c0-.12,.1-.22,.22-.22h4.01c.56,0,1,.17,1.31,.5,.29,.31,.5,.68,.62,1.09,.14,.34,.22,.75,.23,1.22h.88v-6.61h-.88c-.02,.47-.1,.9-.24,1.29-.12,.37-.33,.7-.62,1-.31,.31-.75,.47-1.3,.47h-4.01c-.12,0-.22-.1-.22-.22v-18.56c0-.12,.1-.22,.22-.22h5.96c.83,0,1.49,.29,1.97,.85,.45,.53,.79,1.11,.99,1.71,.18,.65,.3,1.38,.35,2.2h1.06v-5.58h-15.54v.89c.23-.03,.42,0,.57,.07,.21,.09,.42,.27,.63,.56,.2,.29,.3,.73,.3,1.36v34.77c0,.59-.1,1.01-.3,1.3-.19,.28-.41,.45-.64,.51-.15,.09-.34,.12-.56,.08v.98Z" style="fill: #545454;"/>
      </g>
    </g>
    <g>
      <g>
        <path d="M153.35,224.59l.75-.88c1.11,1,2.17,1.5,3.65,1.5s2.37-.76,2.37-1.81v-.03c0-.99-.53-1.55-2.77-2.02-2.45-.53-3.57-1.32-3.57-3.07v-.03c0-1.67,1.48-2.9,3.5-2.9,1.55,0,2.66,.44,3.74,1.31l-.7,.93c-.99-.81-1.98-1.16-3.07-1.16-1.38,0-2.27,.76-2.27,1.72v.03c0,1,.55,1.57,2.89,2.07,2.37,.52,3.47,1.38,3.47,3.01v.03c0,1.82-1.52,3.01-3.63,3.01-1.69,0-3.07-.56-4.35-1.7Z" style="fill: #545454;"/>
        <path d="M157.69,226.36c-1.68,0-3.08-.55-4.4-1.72l-.05-.05,.84-.99,.06,.05c1.17,1.05,2.21,1.49,3.6,1.49s2.3-.71,2.3-1.74v-.03c0-.89-.43-1.47-2.71-1.95-2.61-.57-3.63-1.45-3.63-3.14v-.03c0-1.72,1.5-2.98,3.57-2.98,1.5,0,2.63,.4,3.79,1.32l.06,.04-.79,1.05-.06-.05c-.95-.78-1.91-1.14-3.02-1.14-1.29,0-2.19,.68-2.19,1.65v.03c0,.92,.44,1.48,2.83,2,2.47,.54,3.52,1.46,3.52,3.08v.03c0,1.82-1.52,3.08-3.71,3.08Zm-4.25-1.78c1.27,1.12,2.62,1.64,4.25,1.64,2.13,0,3.56-1.18,3.56-2.94v-.03c0-1.54-1.02-2.42-3.41-2.94-2.2-.47-2.95-1.01-2.95-2.14v-.03c0-1.04,.98-1.79,2.34-1.79,1.12,0,2.1,.36,3.06,1.12l.61-.81c-1.11-.87-2.2-1.25-3.64-1.25-1.98,0-3.42,1.19-3.42,2.83v.03c0,1.63,.95,2.44,3.52,3,2.11,.44,2.82,.97,2.82,2.09v.03c0,1.11-1.01,1.88-2.44,1.88s-2.48-.44-3.64-1.47l-.65,.77Z" style="fill: #545454;"/>
      </g>
      <g>
        <path d="M164.8,215.49h1.2v10.64h-1.2v-10.64Z" style="fill: #545454;"/>
        <path d="M166.07,226.21h-1.35v-10.79h1.35v10.79Zm-1.2-.15h1.05v-10.5h-1.05v10.5Z" style="fill: #545454;"/>
      </g>
      <g>
        <path d="M170.03,215.49h1.12l6.7,8.53v-8.53h1.17v10.64h-.96l-6.87-8.73v8.73h-1.17v-10.64Z" style="fill: #545454;"/>
        <path d="M179.1,226.21h-1.07l-.02-.03-6.74-8.56v8.59h-1.32v-10.79h1.23l.02,.03,6.57,8.36v-8.39h1.32v10.79Zm-1-.15h.85v-10.5h-1.02v8.67l-6.81-8.67h-1.02v10.5h1.02v-8.87l.13,.17,6.85,8.7Z" style="fill: #545454;"/>
      </g>
      <g>
        <path d="M182.48,220.85v-.03c0-3.01,2.25-5.5,5.38-5.5,1.93,0,3.09,.68,4.15,1.69l-.82,.88c-.9-.85-1.9-1.46-3.35-1.46-2.36,0-4.12,1.92-4.12,4.36v.03c0,2.46,1.78,4.39,4.12,4.39,1.46,0,2.42-.56,3.44-1.54l.79,.78c-1.11,1.12-2.33,1.87-4.26,1.87-3.07,0-5.34-2.42-5.34-5.47Z" style="fill: #545454;"/>
        <path d="M187.82,226.39c-3.08,0-5.41-2.38-5.41-5.55v-.03c0-3.13,2.4-5.58,5.46-5.58,2.1,0,3.26,.82,4.2,1.71l.05,.05-.92,.99-.05-.05c-1.06-1.01-2.05-1.44-3.3-1.44-2.31,0-4.05,1.84-4.05,4.29v.03c0,2.42,1.78,4.32,4.05,4.32,1.49,0,2.43-.61,3.39-1.52l.05-.05,.89,.88-.05,.05c-.92,.94-2.16,1.89-4.31,1.89Zm.05-11.01c-2.98,0-5.31,2.39-5.31,5.43v.03c0,3.08,2.26,5.4,5.26,5.4,2.06,0,3.26-.9,4.15-1.8l-.69-.68c-.96,.91-1.92,1.51-3.44,1.51-2.35,0-4.19-1.96-4.19-4.47v-.03c0-2.53,1.8-4.44,4.19-4.44,1.59,0,2.62,.75,3.34,1.43l.72-.77c-.91-.85-2.04-1.62-4.05-1.62Z" style="fill: #545454;"/>
      </g>
      <g>
        <path d="M195.09,215.49h7.69v1.09h-6.49v3.63h5.81v1.09h-5.81v3.73h6.57v1.09h-7.77v-10.64Z" style="fill: #545454;"/>
        <path d="M202.93,226.21h-7.91v-10.79h7.84v1.24h-6.49v3.49h5.81v1.24h-5.81v3.58h6.57v1.24Zm-7.77-.15h7.62v-.95h-6.57v-3.87h5.81v-.95h-5.81v-3.78h6.49v-.95h-7.55v10.5Z" style="fill: #545454;"/>
      </g>
      <g>
        <path d="M210.89,225.21l3.86-3.4c1.63-1.46,2.22-2.28,2.22-3.35,0-1.25-.99-2.04-2.14-2.04-1.22,0-2.01,.64-2.86,1.82l-.88-.64c.96-1.43,1.96-2.27,3.83-2.27s3.3,1.28,3.3,3.01v.03c0,1.55-.82,2.51-2.69,4.13l-2.84,2.52h5.64v1.09h-7.43v-.93Z" style="fill: #545454;"/>
        <path d="M218.4,226.21h-7.58v-1.03l.02-.02,3.86-3.4c1.66-1.49,2.2-2.29,2.2-3.29,0-1.14-.87-1.97-2.07-1.97s-2.03,.72-2.8,1.8l-.04,.06-1-.72,.04-.06c.92-1.38,1.94-2.3,3.89-2.3s3.37,1.3,3.37,3.08v.03c0,1.57-.8,2.52-2.72,4.19l-2.7,2.4h5.52v1.24Zm-7.43-.15h7.29v-.95h-5.76l2.99-2.65c1.88-1.64,2.67-2.56,2.67-4.08v-.03c0-1.7-1.36-2.94-3.23-2.94s-2.84,.87-3.73,2.17l.77,.55c.79-1.08,1.58-1.8,2.87-1.8s2.22,.89,2.22,2.11c0,1.05-.54,1.88-2.24,3.4l-3.84,3.38v.82Z" style="fill: #545454;"/>
      </g>
      <g>
        <path d="M221.12,220.85v-.03c0-2.98,1.78-5.5,4.51-5.5s4.47,2.49,4.47,5.47v.03c0,2.98-1.76,5.5-4.5,5.5s-4.48-2.49-4.48-5.47Zm7.74,0v-.03c0-2.33-1.28-4.41-3.25-4.41s-3.24,2.03-3.24,4.38v.03c0,2.32,1.28,4.41,3.27,4.41s3.22-2.05,3.22-4.38Z" style="fill: #545454;"/>
        <path d="M225.61,226.39c-2.64,0-4.56-2.33-4.56-5.55v-.03c0-3.18,1.97-5.58,4.59-5.58s4.54,2.33,4.54,5.54v.03c0,3.23-1.92,5.58-4.57,5.58Zm.03-11.01c-2.53,0-4.44,2.33-4.44,5.43v.03c0,3.13,1.86,5.4,4.41,5.4s4.43-2.28,4.43-5.43v-.03c0-3.13-1.85-5.4-4.4-5.4Zm0,9.91c-1.91,0-3.34-1.93-3.34-4.48v-.03c0-2.21,1.14-4.45,3.31-4.45,1.9,0,3.33,1.93,3.33,4.48v.03c0,2.21-1.13,4.45-3.3,4.45Zm-.03-8.82c-2.08,0-3.17,2.17-3.17,4.3v.03c0,2.1,1.12,4.34,3.2,4.34s3.15-2.17,3.15-4.3v-.03c0-2.1-1.11-4.34-3.18-4.34Z" style="fill: #545454;"/>
      </g>
      <g>
        <path d="M234.61,216.67l-2.01,.62-.29-.97,2.6-.9h.88v10.72h-1.18v-9.47Z" style="fill: #545454;"/>
        <path d="M235.87,226.21h-1.33v-9.45l-1.98,.62-.33-1.11,2.69-.92h.95v10.87Zm-1.18-.15h1.04v-10.57h-.8l-2.52,.87,.25,.83,2.03-.63v9.5Z" style="fill: #545454;"/>
      </g>
      <g>
        <path d="M239.05,224.63l.79-.87c.93,.9,1.95,1.46,3.03,1.46,1.52,0,2.57-1,2.57-2.36v-.03c0-1.32-1.09-2.23-2.64-2.23-.9,0-1.61,.27-2.24,.61l-.81-.53,.3-5.18h6.13v1.11h-5.08l-.23,3.41c.62-.27,1.22-.47,2.1-.47,2.07,0,3.68,1.23,3.68,3.25v.03c0,2.08-1.58,3.5-3.8,3.5-1.52,0-2.84-.73-3.8-1.69Z" style="fill: #545454;"/>
        <path d="M242.85,226.39c-1.38,0-2.75-.61-3.85-1.71l-.05-.05,.89-.97,.05,.05c.99,.96,1.99,1.44,2.98,1.44,1.45,0,2.49-.96,2.49-2.28v-.03c0-1.27-1.06-2.16-2.57-2.16-.75,0-1.43,.18-2.2,.6l-.04,.02-.88-.58v-.04s.31-5.25,.31-5.25h6.27v1.26h-5.08l-.22,3.22c.63-.27,1.2-.43,2.02-.43,2.21,0,3.75,1.37,3.75,3.33v.03c0,2.1-1.59,3.57-3.87,3.57Zm-3.7-1.76c1.07,1.04,2.38,1.62,3.7,1.62,2.19,0,3.73-1.41,3.73-3.42v-.03c0-1.87-1.48-3.18-3.61-3.18-.84,0-1.42,.18-2.07,.47l-.11,.05,.24-3.59h5.07v-.96h-5.99l-.3,5.07,.73,.48c.78-.41,1.47-.59,2.23-.59,1.6,0,2.72,.95,2.72,2.31v.03c0,1.41-1.11,2.43-2.64,2.43-1.01,0-2.03-.48-3.02-1.43l-.69,.76Z" style="fill: #545454;"/>
      </g>
    </g>
    <path d="M200,145.61c-16.27,0-29.5-13.23-29.5-29.5s13.23-29.5,29.5-29.5,29.5,13.23,29.5,29.5-13.23,29.5-29.5,29.5Zm0-57.54c-15.46,0-28.04,12.58-28.04,28.04s12.58,28.04,28.04,28.04,28.04-12.58,28.04-28.04-12.58-28.04-28.04-28.04Z" style="fill: #545454;"/>
    <g>
      <g>
        <path d="M177.15,119.73s3.93-2.25,5.31-3.06c1.38-.81,2.96-1.55,3.56-2.32,.6-.77,1.07-2.32,1.78-3.19,.71-.87,1.91-1.51,2.89-1.58,.97-.07,2.02-.1,3.12,.77,1.11,.87,2.17,1.45,2.8,1.88,.63,.43,6.35,3.5,7.86,6.42,1.51,2.92,3.59,5.39,5.8,18.48,0,0-.24,.09-.59-.23-.35-.32-3.88-4.25-5.39-10.06,0,0-3.33,.34-4.55-.02-1.23-.35-2.35-.77-3.31-1.96-.96-1.19-2.05-3.51-2.82-4.65-.77-1.14-2.33-2.99-3.46-3.31-1.12-.32-2.74-.84-4.61-.27-1.88,.57-8.39,3.23-8.39,3.23,0,0-.09-.08,0-.13Z" style="fill: #545454;"/>
        <path d="M194.55,112.97s1.26,.43,2.43-.74c1.17-1.17,3.29-3.58,5.2-5.07,1.91-1.5,5.33-3.99,7.61-4.79,2.28-.8,4.25-1.58,8.63-1.58,0,0-.33,1.02-1.06,1.65-.63,.53-5.71,1.52-6.49,2.02,0,0,5.03-1.37,5.92-1.18,0,0,.09,.06-.07,.33-.16,.28-.58,.99-1.07,1.39-.49,.41-.59,.49-1.49,.63-.89,.14-4.26,.68-4.26,.68,0,0,4.77-.46,4.99-.38,.22,.09-.06,.44-.7,1.15-.61,.68-.62,.77-1.67,.8-.61,.02-3.9,.13-3.9,.13,0,0,4.42,.19,4.49,.29,.07,.1,.07,.08-.19,.36-.41,.45-.72,1.17-1.55,1.19-.58,.01-4.19-.4-3.96-.32,.23,.07,3.84,.75,3.84,.75,0,0,.17,.15-.19,.46-.34,.28-.9,1.21-1.49,1.09-.39-.08-3.09-1.08-3.09-1.08,0,0,3.03,1.45,2.93,1.66-.11,.22-1.17,1.21-1.5,1.07-.49-.22-2.84-1.38-2.65-1.24,.18,.14,2.35,1.49,2.37,1.73,.02,.24-1.32,1.09-1.53,1.05-.61-.11-1.23-.72-2.18-1.33-.26-.17,1.88,1.64,1.77,1.84-.16,.29-.72,.49-1.02,.7-.45,.32-.58,.1-.88-.05-.27-.13-.83-.51-.64-.3,.19,.22,.89,.73,.86,.81-.03,.07-1.08,.73-2.32,.86-1.48,.16-7.13-4.43-7.13-4.43" style="fill: #545454;"/>
      </g>
      <g>
        <path d="M188.05,108.99s0,.08,0,.12c0,.02,0,.05,0,.07,1.48-.85,2.94-1.46,5.67-.4,0-.02,0-.05,0-.07,0-.04,0-.08,0-.12,.04-1.53,.4-3.09,1.52-5.42-.65,1.02-1.75,1.88-2.75,2.63-.78-.83-1.74-2.18-2.06-3.39-.13,1.23-.9,2.57-1.55,3.5-1.13-.62-2.16-1.04-2.99-2,1.43,2.14,1.67,2.78,2.16,5.09Z" style="fill: #545454; fill-rule: evenodd;"/>
        <path d="M185.91,104.53c.35-.02,.61-.33,.58-.67-.03-.34-.33-.61-.67-.58-.35,.02-.61,.33-.58,.67,.02,.35,.33,.61,.67,.58Z" style="fill: #545454; fill-rule: evenodd;"/>
        <path d="M195.14,103.9c.3-.02,.53-.28,.51-.59-.02-.3-.28-.53-.59-.51-.3,.02-.53,.28-.51,.58,.02,.3,.28,.53,.58,.51Z" style="fill: #545454; fill-rule: evenodd;"/>
        <path d="M190.46,103.03c.35-.02,.61-.33,.58-.67-.02-.35-.33-.61-.67-.58-.35,.03-.61,.33-.58,.67,.02,.35,.33,.61,.67,.58Z" style="fill: #545454; fill-rule: evenodd;"/>
      </g>
    </g>
    <g>
      <g>
        <rect x="126" y="219.61" width="20.59" height="1.29" style="fill: #545454;"/>
        <path d="M146.66,220.98h-20.73v-1.44h20.73v1.44Zm-20.59-.15h20.44v-1.15h-20.44v1.15Z" style="fill: #545454;"/>
      </g>
      <g>
        <rect x="253.42" y="219.61" width="20.59" height="1.29" style="fill: #545454;"/>
        <path d="M274.08,220.98h-20.73v-1.44h20.73v1.44Zm-20.59-.15h20.44v-1.15h-20.44v1.15Z" style="fill: #545454;"/>
      </g>
    </g>
  </g>
</svg>